<svg width="45" height="45" viewBox="0 0 45 45" fill="none" xmlns="http://www.w3.org/2000/svg">
<g id="Instagram_Glyph_White 1" clip-path="url(#clip0_929_3225)">
<g id="g10">
<g id="g12">
<g id="Clip path group">
<mask id="mask0_929_3225" style="mask-type:luminance" maskUnits="userSpaceOnUse" x="0" y="0" width="45" height="45">
<g id="clipPath18">
<path id="path16" d="M0 0H45V45H0V0Z" fill="white"/>
</g>
</mask>
<g mask="url(#mask0_929_3225)">
<g id="g14">
<g id="g20">
<path id="path22" d="M15.0369 22.5139C15.0296 18.393 18.3649 15.0454 22.485 15.0381C26.6059 15.0301 29.9542 18.364 29.9622 22.4856C29.9702 26.6072 26.6349 29.9542 22.5133 29.9622C18.3932 29.9701 15.0448 26.6355 15.0369 22.5139ZM11.0045 22.5219C11.0169 28.8712 16.1735 34.0069 22.5213 33.9945C28.8698 33.9822 34.0083 28.8269 33.996 22.4776C33.9836 16.1305 28.8262 10.9919 22.477 11.0042C16.1293 11.0165 10.9922 16.174 11.0045 22.5219ZM31.7401 10.5327C31.743 12.0154 32.9485 13.216 34.4312 13.213C35.9146 13.2101 37.1151 12.0053 37.1129 10.5226C37.11 9.03991 35.9045 7.83865 34.4211 7.84156C32.9377 7.84447 31.7372 9.05003 31.7401 10.5327ZM13.4889 40.7392C11.3062 40.6441 10.121 40.2815 9.33108 39.9775C8.28507 39.5727 7.53869 39.0875 6.7531 38.3077C5.96898 37.525 5.48222 36.7807 5.07386 35.7369C4.76701 34.947 4.39783 33.7631 4.29552 31.5805C4.18452 29.2208 4.15917 28.5128 4.14829 22.5349C4.13669 16.5585 4.15841 15.8505 4.26144 13.4887C4.35498 11.3075 4.7199 10.1207 5.02308 9.33149C5.42781 8.28404 5.91166 7.53906 6.69287 6.75351C7.47556 5.96791 8.21978 5.48263 9.26432 5.07422C10.0535 4.7659 11.2374 4.39958 13.4193 4.29588C15.7804 4.18416 16.4876 4.16025 22.464 4.14861C28.4418 4.13701 29.1497 4.15806 31.5116 4.2618C33.6927 4.35682 34.8794 4.71807 35.668 5.02345C36.7147 5.42818 37.4611 5.91059 38.246 6.69328C39.0308 7.47597 39.5175 8.21876 39.9259 9.26549C40.2342 10.0525 40.6005 11.2378 40.7036 13.419C40.8159 15.7801 40.8414 16.4881 40.8522 22.4646C40.8638 28.4424 40.842 29.1504 40.7383 31.5108C40.6433 33.6935 40.2814 34.8795 39.9767 35.6702C39.5719 36.7155 39.0881 37.4619 38.3062 38.2475C37.5242 39.0301 36.78 39.5183 35.7347 39.9267C34.9469 40.2343 33.7617 40.6013 31.5812 40.7051C29.2201 40.816 28.5129 40.8414 22.5343 40.8524C16.5579 40.8639 15.8508 40.8414 13.4889 40.7392ZM13.2278 0.267105C10.8456 0.379536 9.21865 0.761074 7.79687 1.31818C6.32513 1.89194 5.07749 2.66088 3.83638 3.90709C2.5938 5.15401 1.83072 6.4038 1.26131 7.87707C0.710023 9.30247 0.336411 10.9302 0.231232 13.3138C0.126814 15.7018 0.102859 16.4635 0.114501 22.5429C0.126098 28.6216 0.152919 29.3847 0.266785 31.7734C0.38065 34.1548 0.7608 35.7812 1.31786 37.2036C1.89238 38.6754 2.66052 39.9224 3.90744 41.1642C5.15365 42.4061 6.4042 43.1685 7.87814 43.7387C9.30207 44.2892 10.9305 44.6642 13.3134 44.7687C15.7013 44.8739 16.4636 44.8971 22.5416 44.8855C28.6224 44.8739 29.3848 44.847 31.7727 44.7339C34.1549 44.62 35.7804 44.2385 37.2036 43.6828C38.6754 43.1068 39.923 42.3401 41.1641 41.0932C42.4052 39.8469 43.1683 38.5964 43.7378 37.1224C44.289 35.6985 44.664 34.07 44.7677 31.6886C44.8722 29.2991 44.8969 28.536 44.8853 22.4573C44.8736 16.3779 44.8462 15.6162 44.733 13.229C44.6199 10.8454 44.2383 9.21977 43.6819 7.79656C43.1067 6.32477 42.3393 5.07856 41.0931 3.83598C39.8469 2.59488 38.5963 1.83028 37.1224 1.26234C35.6977 0.711014 34.07 0.335297 31.6871 0.232265C29.2991 0.126373 28.5368 0.103176 22.4567 0.114773C16.3781 0.126369 15.6157 0.152477 13.2278 0.267105Z" fill="white"/>
</g>
</g>
</g>
</g>
</g>
</g>
</g>
<defs>
<clipPath id="clip0_929_3225">
<rect width="45" height="45" fill="white"/>
</clipPath>
</defs>
</svg>
