<svg width="45" height="45" viewBox="0 0 45 45" fill="none" xmlns="http://www.w3.org/2000/svg">
<g id="f_logo_RGB-White_1024 1" clip-path="url(#clip0_929_3234)">
<g id="g10">
<g id="g12">
<path id="path14" d="M45 22.4999C45 10.0735 34.9264 -9.91821e-05 22.5 -9.91821e-05C10.0736 -9.91821e-05 0 10.0735 0 22.4999C0 33.7303 8.22793 43.0386 18.9844 44.7266V29.0038H13.2715V22.4999H18.9844V17.5429C18.9844 11.9038 22.3435 8.78896 27.483 8.78896C29.9446 8.78896 32.5195 9.22842 32.5195 9.22842V14.7655H29.6823C26.8873 14.7655 26.0156 16.4999 26.0156 18.2793V22.4999H32.2559L31.2583 29.0038H26.0156V44.7266C36.7721 43.0386 45 33.7303 45 22.4999Z" fill="white"/>
</g>
</g>
</g>
<defs>
<clipPath id="clip0_929_3234">
<rect width="45" height="45" fill="white"/>
</clipPath>
</defs>
</svg>
