<svg width="122" height="39" viewBox="0 0 122 39" fill="none" xmlns="http://www.w3.org/2000/svg">
<path fill-rule="evenodd" clip-rule="evenodd" d="M18.1538 22.1516C17.9714 22.0316 17.4482 21.338 16.0166 17.9084C15.9266 17.6924 15.8426 17.5076 15.7634 17.348L15.4706 16.64L12.9506 10.5632H7.91064L10.4306 16.64L12.9506 22.7168L15.2786 28.3316C15.2945 28.3696 15.3213 28.402 15.3556 28.4248C15.3898 28.4476 15.4301 28.4598 15.4712 28.4598C15.5124 28.4598 15.5526 28.4476 15.5869 28.4248C15.6212 28.402 15.6479 28.3696 15.6638 28.3316L18.1934 22.2764C18.2018 22.2542 18.2025 22.2298 18.1953 22.2072C18.1881 22.1845 18.1735 22.1649 18.1538 22.1516Z" fill="white"/>
<path fill-rule="evenodd" clip-rule="evenodd" d="M29.435 22.1516C29.2526 22.0316 28.7294 21.3368 27.2978 17.9072C27.2078 17.6924 27.1238 17.5076 27.0446 17.348L26.7518 16.64L24.2318 10.5632H19.2002L21.7202 16.64L24.2402 22.7168L26.5598 28.3316C26.5757 28.3696 26.6025 28.402 26.6367 28.4248C26.671 28.4476 26.7112 28.4598 26.7524 28.4598C26.7936 28.4598 26.8338 28.4476 26.8681 28.4248C26.9023 28.402 26.9291 28.3696 26.945 28.3316L29.4758 22.2764C29.4841 22.2541 29.4846 22.2296 29.4771 22.2069C29.4697 22.1843 29.4549 22.1648 29.435 22.1516Z" fill="white"/>
<path d="M33.5208 22.5499C35.1989 22.5499 36.5592 21.1896 36.5592 19.5115C36.5592 17.8335 35.1989 16.4731 33.5208 16.4731C31.8428 16.4731 30.4824 17.8335 30.4824 19.5115C30.4824 21.1896 31.8428 22.5499 33.5208 22.5499Z" fill="white"/>
<path d="M73.6275 18.6613V24.1357H71.9631V18.6613C71.9631 17.0017 70.9071 16.2613 69.6051 16.2613C68.3715 16.2613 67.2471 16.9729 67.2471 18.6613V24.1357H65.5815V14.8957H67.2459V15.6421C67.5697 15.3011 67.961 15.0312 68.3949 14.8498C68.8288 14.6684 69.2957 14.5794 69.7659 14.5885C71.9931 14.5909 73.6275 16.2769 73.6275 18.6613ZM100.29 11.7361V24.1357H98.6259V23.0149C98.2168 23.4737 97.7135 23.8388 97.1504 24.0852C96.5873 24.3317 95.9777 24.4537 95.3631 24.4429C94.7162 24.4429 94.0756 24.3155 93.478 24.0679C92.8803 23.8204 92.3373 23.4575 91.8799 23.0001C91.4224 22.5427 91.0596 21.9996 90.812 21.402C90.5645 20.8043 90.4371 20.1638 90.4371 19.5169C90.4371 18.87 90.5645 18.2294 90.812 17.6318C91.0596 17.0341 91.4224 16.4911 91.8799 16.0337C92.3373 15.5763 92.8803 15.2134 93.478 14.9659C94.0756 14.7183 94.7162 14.5909 95.3631 14.5909C95.9777 14.5801 96.5873 14.7021 97.1504 14.9485C97.7135 15.195 98.2168 15.5601 98.6259 16.0189V11.7361H100.29ZM98.6259 19.5169C98.6269 18.7624 98.3664 18.0309 97.8886 17.4469C97.4108 16.863 96.7454 16.4627 96.0056 16.3144C95.2658 16.166 94.4975 16.2787 93.8315 16.6333C93.1655 16.9879 92.643 17.5624 92.3531 18.2589C92.0632 18.9555 92.0237 19.7311 92.2414 20.4535C92.4591 21.1759 92.9206 21.8004 93.5471 22.2208C94.1737 22.6412 94.9266 22.8313 95.6776 22.7588C96.4286 22.6863 97.1313 22.3557 97.6659 21.8233C97.9706 21.5215 98.2123 21.1622 98.3771 20.7663C98.5419 20.3704 98.6265 19.9457 98.6259 19.5169ZM63.8403 14.8981V24.1381H62.1759V23.0149C61.7671 23.4737 61.264 23.8387 60.7011 24.0852C60.1382 24.3317 59.5287 24.4537 58.9143 24.4429C57.6078 24.4429 56.3549 23.9239 55.4311 23.0001C54.5073 22.0763 53.9883 20.8233 53.9883 19.5169C53.9883 18.2104 54.5073 16.9575 55.4311 16.0337C56.3549 15.1099 57.6078 14.5909 58.9143 14.5909C59.5287 14.5801 60.1382 14.7021 60.7011 14.9486C61.264 15.195 61.7671 15.5601 62.1759 16.0189V14.8981H63.8403ZM62.1759 19.5169C62.1769 18.7624 61.9164 18.0309 61.4386 17.4469C60.9608 16.863 60.2954 16.4627 59.5556 16.3144C58.8158 16.166 58.0475 16.2787 57.3815 16.6333C56.7155 16.9879 56.193 17.5624 55.9031 18.2589C55.6132 18.9555 55.5737 19.7311 55.7914 20.4535C56.0091 21.1759 56.4706 21.8004 57.0971 22.2208C57.7237 22.6412 58.4766 22.8313 59.2276 22.7588C59.9786 22.6863 60.6813 22.3557 61.2159 21.8233C61.5206 21.5215 61.7623 21.1622 61.9271 20.7663C62.0919 20.3704 62.1765 19.9457 62.1759 19.5169ZM87.3075 21.2749H89.1615C88.7101 22.4777 87.8124 23.4602 86.6551 24.018C85.4979 24.5758 84.1701 24.666 82.948 24.2697C81.7259 23.8735 80.7036 23.0213 80.0939 21.8906C79.4841 20.7598 79.3337 19.4375 79.674 18.1987C80.0144 16.9599 80.8192 15.9 81.9211 15.2394C83.023 14.5789 84.3371 14.3686 85.5901 14.6524C86.8431 14.9361 87.9385 15.6919 88.6484 16.7627C89.3582 17.8335 89.628 19.1367 89.4015 20.4013H81.4215C81.5753 20.9494 81.87 21.4476 82.2761 21.8466C82.6823 22.2455 83.1857 22.5311 83.7365 22.6752C84.2872 22.8192 84.8661 22.8166 85.4155 22.6675C85.9649 22.5185 86.4658 22.2283 86.8683 21.8257C87.034 21.6584 87.1813 21.4737 87.3075 21.2749ZM81.3723 18.8209H87.7431C87.5844 18.0941 87.182 17.4434 86.6026 16.9768C86.0232 16.5102 85.3016 16.2558 84.5577 16.2558C83.8137 16.2558 83.0922 16.5102 82.5128 16.9768C81.9333 17.4434 81.5309 18.0941 81.3723 18.8209ZM55.4799 11.7409H53.6667L50.0031 20.5861L46.9575 11.7361H46.0815L43.0359 20.5813L39.3723 11.7361H37.5591L42.6939 24.1357H43.6215L46.5159 15.7357L49.4091 24.1357H50.3415L55.4799 11.7409ZM103.696 11.7409H102.031V24.1357H103.696V11.7409ZM79.1955 14.8981H77.5707V11.7361H75.9015V14.8981H74.2827V16.5625H75.9015V24.1357H77.5659V16.5625H79.1907L79.1955 14.8981ZM110.262 24.1381L114.089 14.8981H112.276L109.356 21.9469L106.437 14.8981H104.623L108.449 24.1381L107.146 27.2869H108.959L110.262 24.1381Z" fill="white"/>
</svg>
