<svg width="181" height="48" viewBox="0 0 181 48" fill="none" xmlns="http://www.w3.org/2000/svg">
<g id="Playlist_logo-simple">
<g id="g32">
<path id="path34" d="M13.7289 26.1827C10.6507 26.1827 8.15558 23.8083 8.15558 20.8796C8.15558 17.9507 10.651 15.5766 13.7289 15.5766C16.8068 15.5766 19.3019 17.9507 19.3019 20.8796C19.3019 23.8083 16.8068 26.1827 13.7289 26.1827ZM13.4503 9.21291C6.61814 9.21291 1.06636 14.4128 0.917626 20.8796H0.910645V44.7434L8.15558 47.3948V31.9611C9.76435 32.6753 11.5577 33.0767 13.4503 33.0767C20.3756 33.0767 25.9899 27.7345 25.9899 21.1448C25.9899 14.5551 20.3756 9.21291 13.4503 9.21291Z" fill="white"/>
</g>
<g id="g36">
<path id="path38" d="M59.9726 26.0503C56.8946 26.0503 54.3992 23.6759 54.3992 20.7473C54.3992 17.8183 56.8946 15.4442 59.9726 15.4442C63.0505 15.4442 65.5456 17.8183 65.5456 20.7473C65.5456 23.6759 63.0505 26.0503 59.9726 26.0503ZM65.5456 9.08055V10.4595C63.7984 9.58054 61.8078 9.08055 59.6939 9.08055C52.7683 9.08055 47.1543 14.4227 47.1543 21.0124C47.1543 27.6022 52.7683 32.9443 59.6939 32.9443C61.8078 32.9443 63.7984 32.4443 65.5456 31.5651V32.9443H72.7908V9.08055H65.5456Z" fill="white"/>
</g>
<g id="g40">
<path id="path42" d="M39.9093 0.0652466L32.6641 3.35313V32.9441H39.9093V0.0652466Z" fill="white"/>
</g>
<g id="g44">
<path id="path46" d="M95.0278 31.1807L105.673 9.08059H98.9853L92.332 22.8932L87.8387 9.08059H80.5938L88.3374 31.1859L80.5938 47.2625H87.2814L94.9446 31.3531H95.0839L95.0278 31.1807Z" fill="white"/>
</g>
<g id="g48">
<path id="path50" d="M119.606 0.0652466L112.36 3.35313V32.9441H119.606V0.0652466Z" fill="white"/>
</g>
<g id="g52">
<path id="path54" d="M135.211 9.08061L127.965 11.4668V32.9441H135.211V9.08061Z" fill="white"/>
</g>
<g id="g56">
<path id="path58" d="M152.766 18.0957C151.955 18.0957 151.306 17.4367 151.378 16.6512C151.442 15.9498 152.125 15.4443 152.865 15.4443H160.267C160.279 15.4443 160.29 15.4346 160.29 15.4225V9.10215C160.29 9.09002 160.279 9.08061 160.267 9.08061H150.537C146.381 9.08061 143.013 12.6419 143.013 17.035C143.013 20.8426 146.256 23.929 150.258 23.929H150.995C151.735 23.929 152.418 24.4348 152.482 25.1359C152.554 25.9217 151.905 26.5807 151.094 26.5807H143.035C143.023 26.5807 143.013 26.5901 143.013 26.6022V32.9225C143.013 32.9344 143.023 32.9441 143.035 32.9441H152.766C156.921 32.9441 160.29 29.3828 160.29 24.9897C160.29 21.1821 157.046 18.0957 153.044 18.0957H152.766Z" fill="white"/>
</g>
<g id="g60">
<path id="path62" d="M180.911 15.9746V9.08055H175.338V2.71685L168.092 6.42888V21.1902C168.092 27.682 173.623 32.9443 180.445 32.9443H180.911V26.0503H179.609C177.26 26.0503 175.338 24.2214 175.338 21.9857V15.9746H180.911Z" fill="white"/>
</g>
</g>
</svg>
