<svg width="45" height="45" viewBox="0 0 45 45" fill="none" xmlns="http://www.w3.org/2000/svg">
<g id="Logo white 1">
<g id="Logo_1_">
<path id="white_background" d="M40.3931 13.1029C40.4205 13.4996 40.4205 13.8963 40.4205 14.2966C40.4205 26.4959 31.1335 40.5654 14.1517 40.5654V40.5581C9.13528 40.5654 4.22303 39.1285 0 36.4191C0.729433 36.5069 1.46252 36.5508 2.19744 36.5526C6.35466 36.5562 10.3931 35.1614 13.6636 32.5928C9.71298 32.5178 6.24863 29.942 5.03839 26.1815C6.4223 26.4484 7.84826 26.3935 9.20658 26.0224C4.89945 25.1522 1.80073 21.3679 1.80073 16.9731C1.80073 16.9328 1.80073 16.8944 1.80073 16.8561C3.0841 17.5709 4.52102 17.9676 5.99086 18.0114C1.93419 15.3003 0.683729 9.90359 3.13346 5.68421C7.82084 11.452 14.7367 14.9584 22.1609 15.3295C21.4168 12.123 22.4333 8.76282 24.8318 6.50871C28.5503 3.01328 34.3985 3.19244 37.894 6.90907C39.9616 6.50139 41.9433 5.74271 43.7569 4.66776C43.0676 6.80487 41.6252 8.62022 39.6984 9.77379C41.5283 9.55807 43.3163 9.06812 45 8.32041C43.7605 10.1778 42.1993 11.7957 40.3931 13.1029Z" fill="white"/>
</g>
</g>
</svg>
