<svg width="112" height="30" viewBox="0 0 112 30" fill="none" xmlns="http://www.w3.org/2000/svg">
<g id="Playlist_logo-simple">
<g id="g32">
<path id="path34" d="M7.9758 16.2508C6.06047 16.2508 4.50796 14.7734 4.50796 12.9511C4.50796 11.1287 6.06066 9.65149 7.9758 9.65149C9.89095 9.65149 11.4435 11.1287 11.4435 12.9511C11.4435 14.7734 9.89095 16.2508 7.9758 16.2508ZM7.80242 5.69185C3.55133 5.69185 0.0968903 8.92733 0.00434379 12.9511H0V27.7997L4.50796 29.4495V19.8463C5.50897 20.2907 6.62482 20.5404 7.80242 20.5404C12.1115 20.5404 15.6048 17.2164 15.6048 13.1161C15.6048 9.01587 12.1115 5.69185 7.80242 5.69185Z" fill="#333333"/>
</g>
<g id="g36">
<path id="path38" d="M36.7497 16.1684C34.8346 16.1684 33.2819 14.691 33.2819 12.8687C33.2819 11.0463 34.8346 9.56906 36.7497 9.56906C38.6649 9.56906 40.2174 11.0463 40.2174 12.8687C40.2174 14.691 38.6649 16.1684 36.7497 16.1684ZM40.2174 5.60943V6.46743C39.1303 5.92054 37.8916 5.60943 36.5763 5.60943C32.2671 5.60943 28.7739 8.93345 28.7739 13.0337C28.7739 17.134 32.2671 20.458 36.5763 20.458C37.8916 20.458 39.1303 20.1469 40.2174 19.5998V20.458H44.7255V5.60943H40.2174Z" fill="#333333"/>
</g>
<g id="g40">
<path id="path42" d="M24.2655 -5.91278e-05L19.7573 2.04573V20.4579H24.2655V-5.91278e-05Z" fill="#333333"/>
</g>
<g id="g44">
<path id="path46" d="M58.5612 19.3607L65.1849 5.60946H61.0237L56.8839 14.204L54.088 5.60946H49.5801L54.3983 19.3639L49.5801 29.3671H53.7413L58.5095 19.4679H58.5962L58.5612 19.3607Z" fill="#333333"/>
</g>
<g id="g48">
<path id="path50" d="M73.8548 -5.91278e-05L69.3467 2.04573V20.4579H73.8548V-5.91278e-05Z" fill="#333333"/>
</g>
<g id="g52">
<path id="path54" d="M83.5643 5.6095L79.0562 7.09424V20.4579H83.5643V5.6095Z" fill="#333333"/>
</g>
<g id="g56">
<path id="path58" d="M94.488 11.2189C93.9836 11.2189 93.5797 10.8088 93.6245 10.3201C93.6644 9.88364 94.0891 9.56913 94.5496 9.56913H99.1552C99.1631 9.56913 99.1696 9.56309 99.1696 9.55554V5.6229C99.1696 5.61535 99.1631 5.6095 99.1552 5.6095H93.101C90.5153 5.6095 88.4194 7.82538 88.4194 10.5589C88.4194 12.9281 90.4377 14.8485 92.9276 14.8485H93.3862C93.8466 14.8485 94.2714 15.1632 94.3112 15.5995C94.356 16.0884 93.9522 16.4984 93.4477 16.4984H88.4336C88.4257 16.4984 88.4194 16.5043 88.4194 16.5118V20.4445C88.4194 20.4518 88.4257 20.4579 88.4336 20.4579H94.488C97.0735 20.4579 99.1696 18.242 99.1696 15.5085C99.1696 13.1393 97.1511 11.2189 94.6614 11.2189H94.488Z" fill="#333333"/>
</g>
<g id="g60">
<path id="path62" d="M112 9.89905V5.60943H108.533V1.6498L104.024 3.95951V13.1443C104.024 17.1836 107.466 20.458 111.71 20.458H112V16.1684H111.19C109.728 16.1684 108.533 15.0304 108.533 13.6393V9.89905H112Z" fill="#333333"/>
</g>
</g>
</svg>
