<svg width="100" height="19" viewBox="0 0 100 19" fill="none" xmlns="http://www.w3.org/2000/svg">
<g id="&#227;&#131;&#158;&#227;&#130;&#164;&#227;&#131;&#138;&#227;&#131;&#147;&#227;&#131;&#173;&#227;&#130;&#180;">
<g id="g22">
<path id="path24" d="M32.418 16.4068C32.4196 17.5184 31.5199 18.4203 30.4082 18.4221C29.2969 18.4237 28.3947 17.5244 28.3931 16.4127C28.3913 15.3011 29.291 14.3988 30.4023 14.397C31.5139 14.3954 32.4164 15.2953 32.418 16.4068Z" fill="white"/>
</g>
<g id="g26">
<path id="path28" d="M33.6208 2.1084C33.9661 1.29198 33.5795 0.398729 32.7434 0.0941429C31.9099 -0.209723 31.0938 0.253721 30.6655 1.01546C29.9725 2.24891 26.3808 9.0545 25.7786 10.1825C25.1754 11.3116 24.4178 12.9236 23.787 12.6782C23.2074 12.4526 22.5241 9.97941 22.2333 9.27327C21.7173 8.01805 20.667 6.52714 18.9142 6.90639C17.5748 7.19478 16.8136 8.24851 15.6017 10.5735C14.9362 11.8505 14.5187 12.6923 13.9134 13.5188C12.6696 15.2167 11.9681 12.4271 11.557 10.9849C11.0058 9.0491 9.99899 6.31053 7.80356 6.31395C6.57694 6.31575 5.26918 7.03395 3.64209 9.66817C2.69253 11.2048 0.471196 15.5073 0.143402 16.2735C-0.205801 17.0885 0.0951874 17.9737 0.910894 18.3229C1.72588 18.6719 2.52629 18.3092 3.00647 17.5635C4.567 15.1387 4.99536 14.1918 5.7938 13.0765C6.64908 11.8918 7.81039 10.8282 8.6995 13.6782C9.25902 15.4715 10.2368 18.4139 12.8696 18.4317C14.4541 18.4429 16.0947 17.0747 16.8618 15.7703C17.7293 14.2956 17.947 13.5078 18.6089 12.7962C18.9466 12.4334 19.4489 12.3022 19.9237 13.3558C20.3826 14.3742 21.3313 17.5935 23.0211 18.2952C25.406 19.2856 27.6507 14.4609 28.4265 12.9222C29.0515 11.6821 33.3452 2.75949 33.6208 2.1084Z" fill="white"/>
</g>
<g id="g30">
<path id="path32" d="M99.8424 4.81171C99.6869 4.3488 99.4471 3.60776 99.3577 3.33214L99.3309 3.24938C99.2413 2.99085 99.0398 2.87013 98.7906 2.87013L97.1293 2.87247C96.9126 2.87013 96.844 2.98689 96.8323 3.00075C96.7737 3.08746 96.7537 3.18677 96.7924 3.30731C96.832 3.43541 97.1696 4.44236 97.3535 4.95402C97.4143 5.12421 97.569 5.32715 97.963 5.32715L99.4457 5.32481C99.681 5.32481 99.7738 5.25303 99.8219 5.18592C99.8807 5.10478 99.9028 4.981 99.8424 4.81171Z" fill="white"/>
</g>
<g id="g34">
<path id="path36" d="M96.0604 3.23753C95.9871 3.00851 95.7862 2.8752 95.526 2.8752L93.8642 2.87754C93.6764 2.87754 93.6051 2.95238 93.5688 3.00203C93.5073 3.08551 93.4902 3.19669 93.5272 3.31327C93.5697 3.44767 93.9061 4.45372 94.088 4.95944C94.1504 5.13521 94.3053 5.33203 94.6979 5.33203L96.1904 5.32969C96.4065 5.32951 96.5118 5.26115 96.561 5.19278C96.6296 5.10157 96.6438 4.98445 96.5873 4.81695C96.4042 4.27003 96.0924 3.3363 96.0604 3.23753Z" fill="white"/>
</g>
<g id="g38">
<path id="path40" d="M53.0132 3.47964C52.892 3.35838 52.714 3.30081 52.4899 3.30081H52.5012C51.7951 3.30189 37.9959 3.31934 37.9959 3.31934C37.8683 3.31934 37.7303 3.3636 37.6172 3.48989C37.5432 3.56384 37.4927 3.70992 37.4927 3.83712L37.4936 5.67381C37.4936 5.93467 37.7176 6.1646 37.9968 6.1646H38.0786C38.0786 6.1646 48.1942 6.15092 48.6517 6.15038H49.0806C49.3882 6.15038 49.4744 6.20634 49.5467 6.30097C49.7063 6.51074 49.5404 6.84465 49.5187 6.92435C48.8205 9.44973 47.2898 11.4026 45.0926 12.5722L44.9684 12.6384L44.8855 12.5247C44.3458 11.7842 43.9401 11.2731 43.4707 10.6812L43.4043 10.5929C43.1965 10.3201 42.934 10.1964 42.7519 10.1964H42.7512L40.3023 10.2003C40.1652 10.2003 40.0324 10.253 39.9639 10.413C39.9234 10.5164 39.9146 10.6625 40.0022 10.7955C42.1075 13.5322 43.5412 15.7746 44.8254 18.1046C44.9292 18.2928 45.1138 18.4304 45.3732 18.4304H45.3198H48.0283C48.1627 18.4304 48.2579 18.3617 48.3262 18.2379C48.3633 18.164 48.4108 18.0283 48.3252 17.879C47.9322 17.1331 47.6611 16.6299 46.8258 15.395L46.7367 15.2635L46.8668 15.1719C49.9704 12.9905 52.8731 10.2107 53.1482 3.92132C53.1552 3.7594 53.1293 3.60809 53.0132 3.47964Z" fill="white"/>
</g>
<g id="g42">
<path id="path44" d="M67.9274 3.26958C67.8024 3.12566 67.6664 3.10605 67.5345 3.10029C67.2558 3.10371 65.9342 3.11018 65.1286 3.11306C64.8688 3.11306 64.6279 3.32284 64.554 3.49357C63.1773 6.64593 59.183 9.02523 53.692 9.94258C53.337 10.0124 53.1672 10.2213 53.1602 10.4595L53.1632 12.358C53.1602 12.521 53.235 12.6427 53.3235 12.7229C53.4827 12.8555 53.6403 12.8733 53.767 12.8589C56.4221 12.5345 58.4658 12.0085 60.0803 11.266L60.3097 11.1606L60.3185 17.8994C60.3185 18.1702 60.5298 18.4041 60.839 18.4041H60.9468L62.9125 18.4012C63.182 18.4012 63.3905 18.1491 63.3905 17.9318L63.3781 9.71284L63.4488 9.66462C65.5237 8.24856 67.3292 5.93242 68.0147 3.67078C68.0553 3.49915 67.9924 3.35018 67.9274 3.26958Z" fill="white"/>
</g>
<g id="g46">
<path id="path48" d="M79.0273 9.83809L79.0357 9.68553L83.6711 9.67276C83.7819 9.67276 83.9194 9.6303 84.027 9.52055C84.1072 9.44265 84.1703 9.29387 84.1703 9.18035L84.1675 7.35301C84.1673 7.19937 84.112 7.08945 84.0392 7.00831C83.9266 6.88525 83.7897 6.84441 83.6621 6.84441H83.6114L79.0597 6.84621L79.0564 3.58878C79.0564 3.36461 78.8934 3.08234 78.5295 3.08234H78.4575L76.4827 3.08558C76.3382 3.08558 76.2117 3.14225 76.1169 3.24443C76.043 3.31838 75.9829 3.44935 75.9829 3.5868L75.9872 6.85089L69.0323 6.85826C68.922 6.85826 68.7773 6.88291 68.6503 7.0128C68.5728 7.08998 68.5093 7.22186 68.5093 7.37964L68.5122 9.21561C68.5118 9.44121 68.6964 9.70298 69.028 9.70298H69.0949L75.9642 9.68985L75.9534 9.8622C75.7092 13.8398 73.802 14.975 70.2161 15.7094C69.9034 15.7841 69.726 15.937 69.726 16.2096L69.7289 18.0993C69.73 18.2422 69.7872 18.3607 69.8881 18.4401C69.9845 18.5208 70.1391 18.5766 70.2661 18.5604C76.2714 17.7294 78.7207 15.215 79.0273 9.83809Z" fill="white"/>
</g>
<g id="g50">
<path id="path52" d="M99.6008 6.96397C99.5197 6.88606 99.3939 6.82849 99.2728 6.82849H99.1872L89.1292 6.84325L89.1235 3.58528C89.1235 3.41832 89.0569 3.2976 88.9801 3.21988C88.8728 3.10888 88.7295 3.06606 88.5915 3.06606H88.5755L86.6531 3.06912C86.4009 3.06912 86.1548 3.27188 86.1548 3.5752L86.1706 14.4931C86.1706 17.2105 87.2423 18.3533 90.2258 18.3533H90.4647L99.5326 18.3367C99.791 18.3367 99.9998 18.0811 99.9998 17.8468L99.9968 15.99C99.9968 15.7388 99.801 15.4819 99.4961 15.4819L91.2136 15.4907H91.2027C90.4503 15.4907 89.8958 15.4414 89.574 15.1786C89.1706 14.8416 89.1312 14.3553 89.1395 13.5954L89.1335 9.67051L99.2493 9.65576C99.5512 9.65576 99.757 9.4172 99.757 9.14572L99.7539 7.32504C99.7539 7.14064 99.6703 7.03341 99.6008 6.96397Z" fill="white"/>
</g>
</g>
</svg>
