<svg width="150" height="42" viewBox="0 0 150 42" fill="none" xmlns="http://www.w3.org/2000/svg">
<path d="M37.29 17.2307C39.3859 17.2307 41.085 15.5318 41.085 13.4362C41.085 11.3405 39.3859 9.6416 37.29 9.6416C35.1941 9.6416 33.495 11.3405 33.495 13.4362C33.495 15.5318 35.1941 17.2307 37.29 17.2307Z" fill="white"/>
<path fill-rule="evenodd" clip-rule="evenodd" d="M21.915 24.3249C21.69 24.175 21.03 23.3051 19.245 19.0156C19.125 18.7456 19.035 18.5206 18.93 18.3107L18.57 17.4258L15.42 9.83667H9.12L12.27 17.4258L15.42 25.0149L18.33 32.034C18.39 32.169 18.54 32.229 18.675 32.169C18.735 32.139 18.795 32.094 18.81 32.034L21.975 24.4599C21.975 24.4299 21.96 24.3549 21.915 24.3249Z" fill="white"/>
<path fill-rule="evenodd" clip-rule="evenodd" d="M33.705 24.3249C33.48 24.175 32.82 23.3051 31.035 19.0156C30.915 18.7456 30.825 18.5206 30.72 18.3107L30.36 17.4258L27.21 9.83667H20.925L24.075 17.4258L27.225 25.0149L30.12 32.034C30.18 32.169 30.3301 32.229 30.465 32.169C30.5251 32.139 30.585 32.094 30.6 32.034L33.765 24.4599C33.765 24.4299 33.75 24.3549 33.705 24.3249Z" fill="white"/>
<path d="M90.3 21.4301V28.2693H88.215V21.4301C88.215 19.3603 86.895 18.4304 85.26 18.4304C83.715 18.4304 82.305 19.3153 82.305 21.4301V28.2693H80.25V16.7207H82.335V17.6505C83.16 16.7956 84.3 16.3157 85.485 16.3307C88.26 16.3457 90.3 18.4454 90.3 21.4301ZM123.63 12.7761V28.2693H121.545V26.8744C120.51 28.0293 119.025 28.6892 117.465 28.6592C114.06 28.6592 111.315 25.8996 111.315 22.495C111.315 19.0904 114.075 16.3457 117.465 16.3457C119.025 16.3157 120.51 16.9756 121.545 18.1305V12.7761H123.63ZM121.56 22.51C121.56 20.2602 119.745 18.4304 117.495 18.4304C115.245 18.4304 113.415 20.2452 113.415 22.495C113.415 24.7447 115.23 26.5745 117.48 26.5745C118.56 26.5745 119.595 26.1545 120.36 25.3896C121.125 24.6247 121.56 23.5898 121.56 22.51ZM78.075 16.7357V28.2843H75.99V26.8744C74.955 28.0293 73.47 28.6892 71.91 28.6592C68.505 28.6592 65.76 25.8996 65.76 22.495C65.76 19.0904 68.52 16.3457 71.91 16.3457C73.47 16.3157 74.955 16.9756 75.99 18.1305V16.7357H78.075ZM75.99 22.51C75.99 20.2602 74.175 18.4304 71.925 18.4304C69.675 18.4304 67.845 20.2452 67.845 22.495C67.845 24.7447 69.66 26.5745 71.91 26.5745C72.99 26.5745 74.025 26.1545 74.79 25.3896C75.555 24.6247 75.99 23.5898 75.99 22.51ZM107.4 24.6997H109.725C108.51 27.9243 104.91 29.5591 101.685 28.3443C98.46 27.1294 96.825 23.5298 98.04 20.3052C99.255 17.0806 102.855 15.4458 106.08 16.6607C108.9 17.7255 110.565 20.6352 110.025 23.6048H100.05C100.665 25.7796 102.915 27.0394 105.075 26.4245C105.75 26.2295 106.365 25.8696 106.86 25.3746C107.07 25.1796 107.25 24.9547 107.4 24.6997ZM99.99 21.6401H107.955C107.475 19.4353 105.3 18.0405 103.11 18.5204C101.55 18.8654 100.335 20.0803 99.99 21.6401ZM67.62 12.7911H65.355L60.78 23.8448L56.97 12.7761H55.875L52.065 23.8298L47.49 12.7761H45.225L51.645 28.2693H52.8L56.415 17.7705L60.03 28.2693H61.2L67.62 12.7911ZM127.89 12.7911H125.805V28.2843H127.89V12.7911ZM97.275 16.7357H95.25V12.7761H93.15V16.7207H91.125V18.8054H93.15V28.2693H95.235V18.8054H97.26L97.275 16.7357ZM136.095 28.2843L140.88 16.7357H138.615L134.97 25.5396L131.325 16.7357H129.06L133.845 28.2843L132.21 32.2138H134.475L136.095 28.2843Z" fill="white"/>
</svg>
