<svg width="16" height="28" viewBox="0 0 16 28" fill="none" xmlns="http://www.w3.org/2000/svg">
<path d="M9.11288 1.98511C9.11288 1.43281 8.66518 0.985107 8.11288 0.985107C7.56058 0.985107 7.11288 1.43281 7.11288 1.98511H9.11288ZM7.40578 27.6922C7.79628 28.0827 8.42948 28.0827 8.81998 27.6922L15.184 21.3283C15.5745 20.9377 15.5745 20.3046 15.184 19.914C14.7934 19.5235 14.1603 19.5235 13.7697 19.914L8.11288 25.5709L2.45598 19.914C2.06548 19.5235 1.43228 19.5235 1.04178 19.914C0.651276 20.3046 0.651276 20.9377 1.04178 21.3283L7.40578 27.6922ZM7.11288 1.98511V26.9851H9.11288V1.98511H7.11288Z" fill="#333333"/>
</svg>
