<svg width="93" height="93" viewBox="0 0 93 93" fill="none" xmlns="http://www.w3.org/2000/svg">
<g clip-path="url(#clip0_736_3926)">
<g opacity="0.5">
<path d="M85.3556 48.7525C85.403 48.1946 85.5216 47.666 85.7112 47.167C85.9075 46.6685 86.1385 46.2733 86.4042 45.9814L87.5732 46.6329C87.3352 46.9137 87.1292 47.2508 86.9552 47.6441C86.7874 48.0447 86.6856 48.4542 86.65 48.8727C86.6229 49.1915 86.631 49.4498 86.6744 49.6475C86.7239 49.8525 86.8012 50.0062 86.9062 50.1088C87.0112 50.2114 87.1368 50.269 87.2829 50.2814C87.4689 50.2972 87.6213 50.2366 87.74 50.0995C87.8653 49.9629 87.9714 49.7779 88.0582 49.5444C88.1516 49.3115 88.2406 49.0515 88.3252 48.7643C88.416 48.4843 88.5203 48.2021 88.6381 47.9177C88.7554 47.64 88.8973 47.3878 89.0638 47.1611C89.2302 46.9344 89.4395 46.7548 89.6917 46.6224C89.9432 46.4966 90.255 46.4495 90.627 46.4811C91.0256 46.515 91.3786 46.6521 91.686 46.8923C91.9995 47.1398 92.2342 47.4876 92.3901 47.9358C92.5521 48.3911 92.6051 48.9476 92.5492 49.6053C92.5119 50.0437 92.422 50.4709 92.2796 50.887C92.1438 51.3037 91.9591 51.666 91.7255 51.974L90.5423 51.3715C90.7559 51.0619 90.9198 50.7479 91.0338 50.4298C91.1545 50.1122 91.2281 49.7973 91.2547 49.4851C91.2812 49.1729 91.2665 48.9141 91.2103 48.7086C91.1542 48.5031 91.07 48.3521 90.9578 48.2555C90.8522 48.1596 90.7231 48.1051 90.5703 48.0921C90.3909 48.0768 90.2386 48.1375 90.1132 48.274C89.9945 48.4111 89.8918 48.5964 89.805 48.8299C89.7182 49.0634 89.6295 49.3201 89.5388 49.6001C89.4475 49.8867 89.3465 50.1692 89.2359 50.4475C89.1247 50.7324 88.9858 50.9882 88.8193 51.2149C88.6529 51.4417 88.4438 51.6179 88.1923 51.7437C87.9401 51.8761 87.6314 51.9268 87.266 51.8958C86.8741 51.8624 86.5247 51.7223 86.2179 51.4754C85.911 51.2285 85.6766 50.8774 85.5146 50.422C85.3521 49.9733 85.2991 49.4168 85.3556 48.7525Z" fill="#333333"/>
<path d="M84.0171 56.6862C84.1583 56.165 84.3736 55.7019 84.663 55.2968C84.957 54.8999 85.3062 54.5801 85.7104 54.3374C86.1146 54.0947 86.5544 53.9375 87.0296 53.866C87.5031 53.8009 87.994 53.8373 88.5024 53.975C89.0107 54.1128 89.4528 54.3293 89.8286 54.6245C90.2028 54.9262 90.503 55.2839 90.7294 55.6975C90.954 56.1175 91.0898 56.5722 91.1368 57.0615C91.1902 57.5526 91.1454 58.062 91.0024 58.5896C90.8437 59.1751 90.5978 59.6749 90.2646 60.0888C89.9361 60.5109 89.532 60.8296 89.0523 61.045L88.3977 59.7901C88.7243 59.6299 88.9903 59.4257 89.1957 59.1775C89.4076 58.931 89.5589 58.6404 89.6495 58.3058C89.735 57.9906 89.762 57.687 89.7305 57.3953C89.699 57.1036 89.6129 56.8351 89.4722 56.5897C89.3315 56.3444 89.144 56.1313 88.9099 55.9504C88.674 55.7759 88.3951 55.6451 88.0734 55.5579C87.7517 55.4707 87.4449 55.4429 87.1532 55.4743C86.8598 55.5122 86.5904 55.6016 86.345 55.7423C86.0997 55.883 85.8898 56.0713 85.7153 56.3072C85.5409 56.5432 85.4109 56.8188 85.3255 57.1341C85.2348 57.4687 85.2155 57.795 85.2674 58.113C85.3258 58.4327 85.4588 58.745 85.6662 59.0499L84.4676 59.8026C84.1623 59.3745 83.9712 58.8945 83.8944 58.3625C83.8157 57.837 83.8566 57.2782 84.0171 56.6862Z" fill="#333333"/>
<path d="M83.1154 60.2327L89.4342 63.2449L88.1303 65.98C87.8607 66.5457 87.535 66.9886 87.1534 67.3089C86.7778 67.6321 86.3654 67.8232 85.9162 67.8824C85.4671 67.9415 85.0048 67.8578 84.5294 67.6311C84.06 67.4074 83.7068 67.1024 83.47 66.7162C83.2391 66.3329 83.1309 65.8936 83.1455 65.3983C83.16 64.903 83.3021 64.3726 83.5718 63.8069L84.4884 61.8842L84.8194 62.8396L82.4183 61.695L83.1154 60.2327ZM81.2005 64.2496L84.2464 63.7629L83.5019 65.3245L80.4475 65.8293L81.2005 64.2496ZM84.657 62.7622L85.6528 62.4393L84.775 64.2808C84.5598 64.7321 84.4955 65.115 84.5819 65.4295C84.6743 65.7468 84.8921 65.9872 85.2351 66.1507C85.5841 66.3171 85.908 66.3349 86.2067 66.204C86.5054 66.0732 86.7624 65.7821 86.9775 65.3307L87.8554 63.4893L88.2406 64.4705L84.657 62.7622Z" fill="#333333"/>
<path d="M78.0682 69.0862C78.4002 68.6435 78.7801 68.2869 79.2081 68.0162C79.6321 67.7509 80.0788 67.5775 80.5481 67.4962C81.0135 67.4202 81.4801 67.4368 81.9481 67.5462C82.4121 67.6608 82.8521 67.8742 83.2681 68.1862C83.6842 68.4982 84.0122 68.8608 84.2522 69.2742C84.4882 69.6928 84.6328 70.1388 84.6862 70.6122C84.7395 71.0855 84.6982 71.5628 84.5622 72.0442C84.4262 72.5255 84.1942 72.9848 83.8662 73.4222C83.5342 73.8648 83.1582 74.2162 82.7382 74.4762C82.3142 74.7415 81.8695 74.9122 81.4042 74.9882C80.9349 75.0695 80.4662 75.0555 79.9982 74.9462C79.5355 74.8409 79.0935 74.6302 78.6722 74.3142C78.2562 74.0022 77.9275 73.6349 77.6862 73.2122C77.4502 72.7935 77.3055 72.3475 77.2522 71.8742C77.2002 71.4102 77.2422 70.9375 77.3782 70.4562C77.5102 69.9802 77.7402 69.5235 78.0682 69.0862ZM79.1782 69.9062C78.9902 70.1569 78.8608 70.4182 78.7902 70.6902C78.7155 70.9675 78.6982 71.2462 78.7382 71.5262C78.7782 71.8062 78.8755 72.0709 79.0302 72.3202C79.1808 72.5749 79.3895 72.8022 79.6562 73.0022C79.9228 73.2022 80.1995 73.3389 80.4862 73.4122C80.7688 73.4909 81.0502 73.5102 81.3302 73.4702C81.6062 73.4355 81.8668 73.3435 82.1122 73.1942C82.3575 73.0448 82.5742 72.8448 82.7622 72.5942C82.9502 72.3435 83.0815 72.0795 83.1562 71.8022C83.2268 71.5302 83.2422 71.2542 83.2022 70.9742C83.1622 70.6942 83.0668 70.4268 82.9162 70.1722C82.7615 69.9228 82.5508 69.6982 82.2842 69.4982C82.0228 69.3022 81.7482 69.1628 81.4602 69.0802C81.1735 69.0069 80.8922 68.9875 80.6162 69.0222C80.3362 69.0622 80.0735 69.1569 79.8282 69.3062C79.5828 69.4555 79.3662 69.6555 79.1782 69.9062Z" fill="#333333"/>
<path d="M74.6824 73.4612L79.3929 78.6392L78.1946 79.7293L74.3724 75.5278L71.776 77.8897L70.8877 76.9133L74.6824 73.4612Z" fill="#333333"/>
<path d="M70.1215 77.5226L73.9869 83.3586L72.6363 84.2532L69.4998 79.5177L66.5735 81.4559L65.8446 80.3554L70.1215 77.5226Z" fill="#333333"/>
<path d="M56.3935 84.0329C56.9377 83.9009 57.4765 83.8456 58.01 83.8671C58.545 83.8951 58.993 83.9887 59.3541 84.1481L59.1073 85.4633C58.7655 85.3268 58.3805 85.2384 57.9522 85.1982C57.5191 85.1661 57.0985 85.1996 56.6903 85.2986C56.3794 85.3741 56.137 85.4638 55.9633 85.5677C55.7846 85.6796 55.6633 85.8017 55.5993 85.9338C55.5354 86.066 55.5207 86.2033 55.5553 86.3458C55.5993 86.5272 55.7051 86.6525 55.8728 86.7215C56.0421 86.7971 56.2512 86.839 56.5001 86.8472C56.7506 86.8618 57.0255 86.8637 57.3247 86.8529C57.619 86.8501 57.9197 86.8594 58.2268 86.881C58.5274 86.9041 58.8116 86.9586 59.0794 87.0445C59.3472 87.1305 59.5839 87.272 59.7895 87.469C59.9886 87.6677 60.1322 87.9484 60.2203 88.3112C60.3146 88.6999 60.2966 89.0782 60.1663 89.4459C60.0311 89.8217 59.7758 90.1547 59.4002 90.4447C59.0198 90.7429 58.5089 90.9697 57.8675 91.1254C57.4399 91.2291 57.0062 91.2795 56.5664 91.2764C56.1282 91.2799 55.726 91.2197 55.3598 91.0959L55.5557 89.7826C55.9172 89.887 56.2668 89.9428 56.6047 89.95C56.9442 89.9637 57.2662 89.9336 57.5707 89.8597C57.8752 89.7858 58.1159 89.6896 58.293 89.5712C58.4701 89.4528 58.5866 89.325 58.6425 89.188C58.7 89.0574 58.7107 88.9176 58.6745 88.7686C58.6321 88.5937 58.5262 88.4684 58.357 88.3929C58.1893 88.3238 57.981 88.2852 57.732 88.277C57.4831 88.2688 57.2114 88.2661 56.9171 88.2689C56.6164 88.2733 56.3165 88.2672 56.0174 88.2506C55.7119 88.2355 55.4253 88.185 55.1575 88.0991C54.8896 88.0131 54.6562 87.8708 54.457 87.6722C54.2514 87.4751 54.1054 87.1984 54.019 86.8421C53.9262 86.4598 53.9482 86.0841 54.085 85.7147C54.2217 85.3454 54.4803 85.0117 54.8608 84.7136C55.2347 84.417 55.7456 84.1901 56.3935 84.0329Z" fill="#333333"/>
<path d="M48.4958 85.2698C49.0347 85.2365 49.5425 85.2919 50.0189 85.4362C50.4892 85.5874 50.904 85.8155 51.2635 86.1206C51.623 86.4257 51.9128 86.7919 52.1329 87.2191C52.3464 87.6468 52.4694 88.1234 52.5019 88.6491C52.5344 89.1748 52.471 89.6629 52.3119 90.1136C52.146 90.5647 51.9035 90.9638 51.5843 91.3108C51.2585 91.6582 50.8713 91.9326 50.4229 92.134C49.9749 92.342 49.4781 92.4628 48.9324 92.4965C48.3269 92.534 47.7747 92.4612 47.2758 92.2783C46.7707 92.1025 46.3392 91.822 45.9814 91.4367L46.9602 90.4143C47.2166 90.6724 47.4953 90.8588 47.7963 90.9738C48.0977 91.0955 48.4214 91.1456 48.7675 91.1242C49.0935 91.104 49.3896 91.0322 49.6559 90.9089C49.9221 90.7856 50.1489 90.6179 50.3361 90.406C50.5234 90.194 50.6652 89.9482 50.7614 89.6684C50.851 89.389 50.8856 89.0829 50.865 88.7502C50.8444 88.4175 50.7725 88.1181 50.6492 87.8519C50.5192 87.5861 50.3482 87.3595 50.1363 87.1722C49.9243 86.985 49.6786 86.8464 49.3992 86.7568C49.1198 86.6672 48.8171 86.6326 48.4911 86.6527C48.1451 86.6741 47.8298 86.7604 47.5452 86.9116C47.2611 87.0694 47.0079 87.2955 46.7856 87.5897L45.6884 86.6957C45.996 86.2693 46.3894 85.9344 46.8686 85.691C47.3412 85.448 47.8836 85.3077 48.4958 85.2698Z" fill="#333333"/>
<path d="M44.7168 85.5374L43.8824 92.4875L40.874 92.1264C40.2518 92.0517 39.728 91.8848 39.3025 91.6255C38.8763 91.3729 38.5633 91.0433 38.3637 90.6366C38.1641 90.2299 38.0957 89.7651 38.1584 89.2422C38.2204 88.7259 38.3965 88.2938 38.6867 87.9459C38.9761 87.6046 39.3578 87.3617 39.8317 87.2172C40.3057 87.0726 40.8537 87.0377 41.4759 87.1124L43.5907 87.3663L42.7913 87.9854L43.1083 85.3444L44.7168 85.5374ZM40.2985 85.0071L41.7333 87.7375L40.0156 87.5313L38.561 84.7985L40.2985 85.0071ZM42.8127 87.8067L43.437 88.6471L41.4115 88.4039C40.9151 88.3443 40.5317 88.4057 40.2614 88.5882C39.9902 88.7772 39.832 89.0604 39.7867 89.4376C39.7407 89.8216 39.8274 90.1341 40.0468 90.3753C40.2663 90.6165 40.6243 90.7669 41.1207 90.8265L43.1462 91.0697L42.3395 91.7484L42.8127 87.8067Z" fill="#333333"/>
<path d="M34.712 83.5762C35.237 83.751 35.6956 83.9985 36.0878 84.3188C36.4738 84.637 36.7796 85.0058 37.0053 85.4252C37.2247 85.8426 37.3567 86.2905 37.4011 86.769C37.4393 87.2455 37.3762 87.7304 37.212 88.2238C37.0477 88.7171 36.8076 89.1431 36.4915 89.5016C36.1691 89.858 35.7918 90.1364 35.3597 90.3369C34.9276 90.5373 34.4617 90.6493 33.9621 90.6726C33.4625 90.696 32.9533 90.6214 32.4346 90.4487C31.9096 90.2739 31.4573 90.0285 31.0777 89.7124C30.6918 89.3943 30.3891 89.0265 30.1697 88.6092C29.944 88.1897 29.8089 87.7407 29.7644 87.2622C29.7179 86.79 29.7778 86.304 29.9441 85.8043C30.1084 85.3109 30.3527 84.8829 30.6773 84.5201C30.9997 84.1637 31.3769 83.8853 31.809 83.6849C32.2327 83.4886 32.6943 83.3788 33.194 83.3554C33.6873 83.3299 34.1933 83.4035 34.712 83.5762ZM34.2856 84.8887C33.9883 84.7897 33.6994 84.7498 33.419 84.7689C33.1323 84.7859 32.8625 84.8576 32.6096 84.9842C32.3567 85.1108 32.1364 85.2869 31.9489 85.5126C31.755 85.7361 31.6054 86.006 31.5002 86.3223C31.3949 86.6386 31.3528 86.9443 31.374 87.2394C31.3889 87.5325 31.4596 87.8054 31.5862 88.0584C31.7065 88.3092 31.8763 88.5273 32.0956 88.7128C32.3149 88.8982 32.5732 89.0404 32.8705 89.1394C33.1678 89.2383 33.4598 89.2793 33.7465 89.2624C34.0269 89.2433 34.2936 89.1704 34.5465 89.0438C34.7994 88.9173 35.0228 88.7422 35.2167 88.5186C35.4042 88.293 35.5506 88.022 35.6559 87.7058C35.7591 87.3958 35.8043 87.0912 35.7916 86.7918C35.7704 86.4967 35.6996 86.2237 35.5794 85.9729C35.4528 85.7199 35.2798 85.5007 35.0605 85.3153C34.8412 85.1299 34.5829 84.9877 34.2856 84.8887Z" fill="#333333"/>
<path d="M29.5213 81.7556L26.1176 87.8723L24.702 87.0846L27.4638 82.1213L24.3967 80.4146L25.0385 79.2611L29.5213 81.7556Z" fill="#333333"/>
<path d="M24.2275 78.7229L19.906 84.2297L18.6316 83.2296L22.1381 78.7613L19.3769 76.5943L20.1918 75.5559L24.2275 78.7229Z" fill="#333333"/>
<path d="M13.7084 67.7711C14.0073 68.2446 14.2317 68.7376 14.3817 69.25C14.526 69.7659 14.5803 70.2204 14.5445 70.6135L13.2193 70.7995C13.2396 70.432 13.2004 70.0389 13.1017 69.6203C12.9939 69.1996 12.8279 68.8116 12.6037 68.4564C12.4329 68.1858 12.2706 67.9848 12.1166 67.8533C11.9535 67.7198 11.7991 67.6438 11.6535 67.6253C11.5078 67.6069 11.373 67.6368 11.2489 67.7151C11.0911 67.8147 11.0062 67.955 10.9943 68.136C10.9767 68.3205 11.0038 68.532 11.0755 68.7705C11.1416 69.0126 11.2275 69.2737 11.3333 69.5538C11.43 69.8318 11.5171 70.1198 11.5947 70.4176C11.6688 70.7099 11.7079 70.9966 11.7119 71.2778C11.716 71.5591 11.6574 71.8286 11.5363 72.0863C11.4116 72.3385 11.1914 72.5642 10.8757 72.7634C10.5375 72.9769 10.1733 73.0806 9.78313 73.0746C9.38383 73.0664 8.98679 72.9307 8.59202 72.6674C8.18805 72.4021 7.80994 71.9903 7.45768 71.4322C7.22285 71.0601 7.03667 70.6652 6.89916 70.2475C6.756 69.8333 6.68464 69.4329 6.68506 69.0463L7.99209 68.8127C8.00858 69.1886 8.06735 69.5378 8.16841 69.8603C8.26383 70.1863 8.39515 70.4819 8.56238 70.7468C8.72961 71.0118 8.89761 71.2093 9.06637 71.3393C9.23513 71.4693 9.39337 71.5389 9.54111 71.5481C9.68321 71.5609 9.81909 71.5264 9.94876 71.4446C10.101 71.3485 10.1859 71.2082 10.2035 71.0237C10.2154 70.8428 10.1855 70.633 10.1138 70.3945C10.0421 70.1559 9.95786 69.8976 9.86124 69.6196C9.76106 69.336 9.67112 69.0498 9.59141 68.7612C9.50814 68.4668 9.46448 68.1791 9.46042 67.8978C9.45636 67.6166 9.51667 67.3499 9.64135 67.0978C9.76247 66.84 9.97807 66.6133 10.2882 66.4176C10.6208 66.2077 10.984 66.1086 11.3776 66.1203C11.7713 66.132 12.1701 66.2705 12.5741 66.5358C12.9745 66.7955 13.3526 67.2073 13.7084 67.7711Z" fill="#333333"/>
<path d="M10.0269 60.7174C10.2298 61.2178 10.3386 61.7169 10.3533 62.2145C10.3593 62.7084 10.2749 63.1743 10.0999 63.6121C9.92496 64.0499 9.66991 64.4411 9.3348 64.7856C8.99717 65.1239 8.58433 65.392 8.09625 65.5899C7.60818 65.7878 7.12519 65.8829 6.64729 65.8752C6.16689 65.8614 5.71145 65.7583 5.28097 65.5659C4.84798 65.3674 4.46475 65.0876 4.13128 64.7264C3.79163 64.3677 3.5191 63.9351 3.3137 63.4285C3.08575 62.8663 2.97919 62.3196 2.99404 61.7884C3.0002 61.2536 3.12909 60.7553 3.38071 60.2936L4.66113 60.8967C4.498 61.2218 4.40977 61.5453 4.39642 61.8673C4.3769 62.1917 4.43226 62.5146 4.56252 62.8358C4.68526 63.1386 4.84741 63.3965 5.04896 63.6098C5.25051 63.823 5.48153 63.9847 5.74203 64.0949C6.00252 64.2051 6.28071 64.2614 6.5766 64.2637C6.86998 64.2598 7.17113 64.1953 7.48004 64.07C7.78895 63.9448 8.05001 63.7814 8.26324 63.5798C8.47396 63.3721 8.63442 63.138 8.74462 62.8775C8.85482 62.617 8.90799 62.3401 8.90414 62.0467C8.90029 61.7533 8.83699 61.4553 8.71425 61.1525C8.58399 60.8313 8.40197 60.5598 8.16819 60.338C7.92824 60.1188 7.63343 59.9506 7.28377 59.8334L7.78265 58.5088C8.28477 58.665 8.72736 58.9315 9.11043 59.3086C9.49099 59.6794 9.79649 60.149 10.0269 60.7174Z" fill="#333333"/>
<path d="M8.63033 57.4382L1.78059 58.8808L1.15616 55.9158C1.02702 55.3026 1.01685 54.7529 1.12566 54.2667C1.22794 53.7819 1.43959 53.3796 1.7606 53.0599C2.08161 52.7403 2.49979 52.5261 3.01516 52.4176C3.52399 52.3104 3.98975 52.3384 4.41243 52.5015C4.82858 52.6659 5.18122 52.9493 5.47035 53.3517C5.75948 53.7541 5.96862 54.2619 6.09777 54.8751L6.53672 56.9594L5.69358 56.4011L8.29648 55.853L8.63033 57.4382ZM7.71327 53.0837L5.58844 55.3196L5.23192 53.6267L7.35263 51.3713L7.71327 53.0837ZM5.86971 56.364L5.27441 57.2252L4.854 55.229C4.75096 54.7397 4.56965 54.3964 4.31006 54.199C4.04395 54.003 3.72497 53.9441 3.35313 54.0224C2.97476 54.1021 2.70662 54.2846 2.5487 54.5699C2.39078 54.8553 2.36334 55.2426 2.46638 55.7318L2.88678 57.7281L1.98493 57.1822L5.86971 56.364Z" fill="#333333"/>
<path d="M7.26928 47.3236C7.27355 47.8769 7.18752 48.3909 7.01118 48.8656C6.83479 49.3336 6.5846 49.7422 6.26062 50.0914C5.93659 50.4339 5.55532 50.7036 5.11683 50.9003C4.67828 51.0903 4.19902 51.1874 3.67903 51.1914C3.15905 51.1954 2.67834 51.1058 2.23691 50.9225C1.79544 50.7326 1.41003 50.4656 1.0807 50.1214C0.751359 49.7773 0.494894 49.3726 0.311297 48.9073C0.1277 48.4421 0.0337909 47.9361 0.0295704 47.3895C0.0252986 46.8361 0.111384 46.3288 0.287827 45.8674C0.464219 45.3994 0.714431 44.9941 1.03847 44.6516C1.36245 44.3024 1.74368 44.0295 2.18218 43.8327C2.61401 43.6361 3.09325 43.5357 3.6199 43.5316C4.13988 43.5276 4.62395 43.6205 5.07209 43.8104C5.51357 44.0003 5.89898 44.2674 6.22831 44.6115C6.55093 44.949 6.80403 45.3504 6.98763 45.8157C7.17118 46.2743 7.26506 46.7769 7.26928 47.3236ZM5.8894 47.3442C5.88698 47.0309 5.83143 46.7446 5.72276 46.4855C5.61404 46.2196 5.45891 45.9875 5.25737 45.789C5.05584 45.5906 4.81799 45.4391 4.54384 45.3345C4.26964 45.2233 3.96588 45.169 3.63256 45.1716C3.29923 45.1741 2.99635 45.2331 2.7239 45.3486C2.4514 45.4574 2.21592 45.6125 2.01747 45.8141C1.81897 46.0089 1.66741 46.2401 1.56281 46.5076C1.45821 46.7751 1.40711 47.0655 1.40953 47.3788C1.41195 47.6921 1.46752 47.9817 1.57624 48.2475C1.68491 48.5067 1.84002 48.7355 2.04156 48.934C2.2431 49.1324 2.48096 49.2873 2.75516 49.3985C3.02931 49.503 3.33305 49.554 3.66637 49.5514C3.99303 49.5489 4.29594 49.4932 4.57511 49.3844C4.84756 49.269 5.08304 49.1138 5.28154 48.919C5.47999 48.7174 5.63152 48.4829 5.73612 48.2154C5.84072 47.9479 5.89182 47.6575 5.8894 47.3442Z" fill="#333333"/>
<path d="M7.31643 41.6386L0.435425 40.3534L0.732861 38.761L6.3163 39.8038L6.96075 36.3535L8.25831 36.5958L7.31643 41.6386Z" fill="#333333"/>
<path d="M8.46958 35.7252L1.87073 33.3895L2.41126 31.8624L7.76576 33.7576L8.9369 30.4487L10.1813 30.8891L8.46958 35.7252Z" fill="#333333"/>
<path d="M15.5428 22.1697C15.1875 22.6026 14.7903 22.9709 14.3513 23.2746C13.9071 23.5742 13.4929 23.7689 13.1086 23.8589L12.5144 22.6598C12.8697 22.5632 13.2304 22.4021 13.5966 22.1766C13.9619 21.9417 14.2777 21.6619 14.5442 21.3372C14.7472 21.0899 14.8868 20.8724 14.9631 20.6849C15.0385 20.488 15.0619 20.3176 15.0335 20.1735C15.0051 20.0295 14.9343 19.9109 14.8209 19.8179C14.6766 19.6994 14.5167 19.6631 14.3412 19.7088C14.1605 19.7503 13.9683 19.8426 13.7645 19.9858C13.5556 20.1248 13.3349 20.2887 13.1024 20.4774C12.869 20.6567 12.6232 20.8301 12.365 20.9976C12.1109 21.16 11.8511 21.2874 11.5855 21.3799C11.3199 21.4724 11.0457 21.5018 10.7629 21.468C10.4843 21.4292 10.2007 21.2913 9.91211 21.0545C9.60291 20.8007 9.38972 20.4877 9.27254 20.1156C9.15444 19.7341 9.15812 19.3145 9.28358 18.8569C9.40811 18.3899 9.67973 17.9013 10.0985 17.3911C10.3776 17.051 10.6937 16.7498 11.0469 16.4877C11.3948 16.2213 11.7523 16.0274 12.1193 15.906L12.7529 17.0728C12.4014 17.2069 12.0885 17.3727 11.8143 17.5703C11.5349 17.7636 11.2958 17.9813 11.097 18.2235C10.8982 18.4658 10.7638 18.6874 10.6936 18.8885C10.6234 19.0897 10.6072 19.2618 10.6449 19.4049C10.6776 19.5438 10.7531 19.6619 10.8717 19.7592C11.0108 19.8734 11.1707 19.9097 11.3514 19.8682C11.5269 19.8225 11.7165 19.7281 11.9203 19.5848C12.1241 19.4416 12.3427 19.2804 12.5761 19.101C12.8137 18.9166 13.0569 18.7411 13.3058 18.5744C13.5589 18.4027 13.8182 18.2706 14.0839 18.1781C14.3495 18.0856 14.6216 18.0588 14.9002 18.0977C15.183 18.1314 15.4661 18.2646 15.7495 18.4972C16.0536 18.7467 16.2621 19.0601 16.375 19.4374C16.4879 19.8147 16.4822 20.2369 16.3576 20.7039C16.2373 21.1657 15.9657 21.6543 15.5428 22.1697Z" fill="#333333"/>
<path d="M20.9598 16.5285C20.5499 16.8801 20.1115 17.1421 19.6444 17.3144C19.1781 17.4773 18.7096 17.5454 18.2388 17.5189C17.7681 17.4923 17.3161 17.375 16.8828 17.167C16.4547 16.9546 16.0691 16.6485 15.7262 16.2488C15.3833 15.8491 15.1394 15.4215 14.9946 14.966C14.8548 14.5061 14.8076 14.0416 14.853 13.5723C14.9034 13.0986 15.0467 12.6462 15.283 12.2152C15.5149 11.779 15.8383 11.383 16.2532 11.027C16.7136 10.632 17.198 10.357 17.7063 10.2021C18.2153 10.0377 18.7286 10.0013 19.2464 10.0929L19.0822 11.4987C18.7221 11.4475 18.3873 11.4668 18.0778 11.5566C17.764 11.6414 17.4756 11.7966 17.2125 12.0223C16.9645 12.235 16.7716 12.4708 16.6336 12.7298C16.4956 12.9887 16.4158 13.2592 16.3942 13.5412C16.3727 13.8232 16.4079 14.1049 16.4998 14.3861C16.5968 14.663 16.7539 14.928 16.9709 15.1809C17.1879 15.4339 17.4259 15.6294 17.6849 15.7674C17.9489 15.9011 18.2219 15.9787 18.5039 16.0003C18.7859 16.0218 19.0654 15.9841 19.3423 15.8871C19.6192 15.7901 19.8816 15.6352 20.1295 15.4225C20.3926 15.1968 20.5921 14.9378 20.7279 14.6456C20.8594 14.3484 20.925 14.0154 20.9249 13.6466L22.3393 13.698C22.3511 14.2237 22.2392 14.7281 22.0037 15.2113C21.7732 15.6901 21.4253 16.1291 20.9598 16.5285Z" fill="#333333"/>
<path d="M23.7756 14.0246L20.2374 7.98463L22.8519 6.45312C23.3926 6.13637 23.9108 5.95259 24.4064 5.90177C24.8986 5.84521 25.3472 5.91853 25.7521 6.12174C26.157 6.32494 26.4926 6.65377 26.7588 7.10821C27.0216 7.55689 27.1427 8.00751 27.1219 8.46008C27.0978 8.90689 26.9407 9.33115 26.6506 9.73286C26.3605 10.1346 25.9451 10.4938 25.4044 10.8105L23.5665 11.8871L23.8289 10.9106L25.1734 13.2058L23.7756 14.0246ZM27.6153 11.7754L24.8214 10.4682L26.3142 9.59383L29.1253 10.8908L27.6153 11.7754ZM23.9199 11.0659L22.9145 10.7741L24.6747 9.74295C25.1061 9.49022 25.3744 9.20948 25.4794 8.90073C25.581 8.58622 25.5358 8.26503 25.3437 7.93714C25.1483 7.60351 24.8902 7.40699 24.5696 7.34759C24.2489 7.28819 23.8728 7.38485 23.4414 7.63758L21.6812 8.66869L21.9133 7.64037L23.9199 11.0659Z" fill="#333333"/>
<path d="M32.9242 9.51737C32.4005 9.69609 31.8856 9.77672 31.3795 9.75925C30.8797 9.73963 30.413 9.63123 29.9794 9.43404C29.5521 9.23471 29.176 8.95805 28.8509 8.60408C28.5321 8.24796 28.2887 7.82383 28.1208 7.3317C27.9528 6.83957 27.8861 6.35515 27.9206 5.87845C27.9615 5.39958 28.0932 4.94959 28.3158 4.52846C28.5384 4.10733 28.8414 3.73622 29.2249 3.41514C29.6084 3.09406 30.0589 2.84523 30.5762 2.66866C31.0999 2.48994 31.6085 2.41146 32.102 2.43323C32.6018 2.45286 33.0653 2.56234 33.4926 2.76167C33.9262 2.95886 34.3055 3.23444 34.6306 3.58841C34.9536 3.93607 35.2001 4.35912 35.3702 4.85756C35.5381 5.34969 35.6028 5.83834 35.5641 6.32351C35.5232 6.80237 35.3915 7.25236 35.1689 7.67349C34.9505 8.08616 34.6496 8.45304 34.266 8.77412C33.8888 9.09305 33.4415 9.3408 32.9242 9.51737ZM32.469 8.21457C32.7655 8.11336 33.0196 7.97029 33.2312 7.78537C33.4491 7.59829 33.6204 7.3778 33.7451 7.12393C33.8698 6.87005 33.9385 6.59654 33.9511 6.3034C33.9701 6.00811 33.9258 5.70274 33.8181 5.38727C33.7104 5.0718 33.5588 4.80303 33.3633 4.58095C33.174 4.35672 32.9525 4.18227 32.6986 4.05759C32.451 3.93075 32.1838 3.85993 31.897 3.84511C31.6102 3.83029 31.3185 3.87349 31.022 3.97469C30.7254 4.0759 30.4682 4.22004 30.2503 4.40712C30.0387 4.59205 29.8705 4.81145 29.7458 5.06533C29.6212 5.31921 29.5493 5.5938 29.5304 5.88909C29.5177 6.18222 29.5652 6.48652 29.6729 6.80199C29.7784 7.11115 29.9268 7.38099 30.1182 7.61153C30.3137 7.83361 30.5353 8.00807 30.7829 8.1349C31.0368 8.25958 31.3071 8.32933 31.5939 8.34415C31.8808 8.35897 32.1724 8.31577 32.469 8.21457Z" fill="#333333"/>
<path d="M38.1666 7.79956L37.199 0.866759L38.8034 0.642822L39.5886 6.26829L43.0649 5.7831L43.2473 7.09042L38.1666 7.79956Z" fill="#333333"/>
<path d="M44.3955 6.9987L44.5306 0L46.1503 0.0312636L46.0407 5.71021L49.55 5.77794L49.5246 7.0977L44.3955 6.9987Z" fill="#333333"/>
<path d="M59.2884 9.34351C58.7649 9.14481 58.2891 8.88583 57.8612 8.56656C57.4357 8.24107 57.119 7.91054 56.9113 7.57498L57.8583 6.62951C58.0631 6.93541 58.3308 7.22595 58.6613 7.50113C59.0005 7.77244 59.3664 7.98261 59.759 8.13164C60.0582 8.24518 60.3088 8.3082 60.5109 8.3207C60.7215 8.32934 60.8906 8.29723 61.018 8.22439C61.1455 8.15155 61.2353 8.04656 61.2873 7.90944C61.3535 7.73492 61.337 7.57177 61.2377 7.42001C61.1408 7.26201 60.992 7.10927 60.7913 6.96178C60.5929 6.80806 60.3673 6.65112 60.1143 6.49094C59.8699 6.3269 59.6272 6.14921 59.3861 5.95786C59.1512 5.76889 58.9475 5.56326 58.7752 5.34098C58.6028 5.1187 58.4876 4.86817 58.4294 4.58938C58.3774 4.31295 58.4177 4.00022 58.5501 3.65118C58.692 3.2772 58.9207 2.97536 59.236 2.74564C59.56 2.51205 59.9589 2.38176 60.4326 2.35476C60.9149 2.32389 61.4646 2.42555 62.0817 2.65973C62.4931 2.81585 62.8793 3.01946 63.2403 3.27058C63.6037 3.51546 63.9015 3.79246 64.1336 4.10159L63.2297 5.07415C62.9905 4.78373 62.7336 4.54004 62.4589 4.34311C62.1866 4.13994 61.904 3.98277 61.6111 3.8716C61.3181 3.76042 61.0651 3.70363 60.8521 3.70123C60.6391 3.69883 60.4708 3.73835 60.3472 3.81979C60.226 3.895 60.1382 4.00428 60.0837 4.14764C60.0199 4.31593 60.0364 4.47907 60.1333 4.63707C60.2326 4.78884 60.3826 4.93846 60.5833 5.08595C60.7841 5.23343 61.0066 5.3892 61.251 5.55324C61.5016 5.71965 61.7455 5.89422 61.9827 6.07696C62.2262 6.26207 62.4342 6.46577 62.6065 6.68805C62.7789 6.91033 62.891 7.15968 62.943 7.4361C63.0012 7.71489 62.9652 8.02569 62.8351 8.3685C62.6956 8.73624 62.465 9.03379 62.1434 9.26114C61.8218 9.4885 61.4198 9.61761 60.9375 9.64847C60.4614 9.68171 59.9117 9.58005 59.2884 9.34351Z" fill="#333333"/>
<path d="M66.4919 12.7498C66.029 12.4718 65.6421 12.1383 65.3313 11.7494C65.0297 11.3582 64.8173 10.9351 64.694 10.48C64.5708 10.0249 64.5396 9.55889 64.6004 9.08215C64.667 8.60885 64.8359 8.14647 65.1071 7.695C65.3783 7.24352 65.7072 6.87726 66.0938 6.59621C66.4861 6.31858 66.9121 6.1273 67.3717 6.02235C67.8371 5.92084 68.3116 5.91423 68.7952 6.00252C69.2822 6.0851 69.76 6.26713 70.2286 6.54864C70.7487 6.86104 71.1624 7.23398 71.4697 7.66746C71.7862 8.09866 71.9826 8.57438 72.0589 9.09464L70.6731 9.38203C70.6081 9.02413 70.4842 8.71251 70.3014 8.44717C70.122 8.1761 69.8838 7.95132 69.5866 7.7728C69.3066 7.60459 69.0219 7.49582 68.7327 7.44651C68.4435 7.39719 68.1616 7.40676 67.8872 7.47522C67.6128 7.54367 67.3566 7.66588 67.1187 7.84182C66.8865 8.0212 66.6846 8.25376 66.5129 8.5395C66.3413 8.82525 66.2308 9.11273 66.1815 9.40197C66.1379 9.69464 66.1503 9.97819 66.2188 10.2527C66.2872 10.5271 66.4112 10.7804 66.5905 11.0126C66.7699 11.2448 66.9996 11.445 67.2796 11.6132C67.5768 11.7917 67.8855 11.8994 68.2056 11.9361C68.5291 11.9672 68.8658 11.9245 69.2158 11.808L69.6129 13.1665C69.1178 13.3435 68.6038 13.3963 68.0711 13.3252C67.544 13.2575 67.0176 13.0657 66.4919 12.7498Z" fill="#333333"/>
<path d="M69.7671 14.6451L74.3827 9.38232L76.6607 11.3802C77.1318 11.7934 77.4697 12.2272 77.6742 12.6815C77.8832 13.1307 77.9551 13.5795 77.89 14.0279C77.8249 14.4762 77.6187 14.8984 77.2714 15.2943C76.9285 15.6853 76.5391 15.9423 76.1031 16.0653C75.6715 16.1833 75.2193 16.1681 74.7466 16.0195C74.2739 15.871 73.802 15.5901 73.3309 15.1769L71.7295 13.7724L72.739 13.7134L70.985 15.7132L69.7671 14.6451ZM73.1127 17.5793L73.4718 14.5157L74.7724 15.6564L74.4284 18.7331L73.1127 17.5793ZM72.6203 13.8487L72.5801 12.8026L74.1138 14.1477C74.4897 14.4774 74.8407 14.6434 75.1668 14.6456C75.4973 14.6429 75.7879 14.4986 76.0384 14.213C76.2934 13.9222 76.3985 13.6154 76.3537 13.2923C76.3089 12.9693 76.0986 12.643 75.7226 12.3133L74.1889 10.9682L75.238 10.864L72.6203 13.8487Z" fill="#333333"/>
<path d="M76.8433 21.7909C76.5065 21.3519 76.2654 20.8898 76.1201 20.4047C75.9789 19.9249 75.9323 19.448 75.9805 18.9741C76.0327 18.5055 76.1745 18.0606 76.4059 17.6394C76.6414 17.2235 76.9654 16.8572 77.3779 16.5407C77.7905 16.2242 78.2281 16.006 78.6909 15.8863C79.1576 15.7719 79.6261 15.7527 80.0963 15.8289C80.5665 15.9051 81.015 16.0736 81.4419 16.3342C81.8688 16.5949 82.2486 16.9421 82.5814 17.3758C82.9182 17.8148 83.1552 18.2716 83.2924 18.7461C83.4337 19.226 83.4782 19.7002 83.426 20.1688C83.3778 20.6427 83.238 21.0902 83.0066 21.5114C82.7805 21.9286 82.4585 22.2975 82.0407 22.6181C81.6281 22.9346 81.1858 23.1521 80.7137 23.2706C80.247 23.3851 79.7785 23.4042 79.3083 23.328C78.8474 23.253 78.4036 23.0852 77.9767 22.8245C77.5539 22.5691 77.1761 22.2246 76.8433 21.7909ZM77.9321 20.9429C78.1228 21.1915 78.3397 21.3865 78.5825 21.5278C78.8295 21.6745 79.0932 21.7663 79.3736 21.8032C79.654 21.8401 79.9351 21.8177 80.2169 21.736C80.5028 21.6595 80.7779 21.5198 81.0424 21.3169C81.3069 21.114 81.513 20.8844 81.6609 20.6281C81.8128 20.3771 81.9073 20.1114 81.9442 19.831C81.9852 19.5558 81.9668 19.28 81.8891 19.0035C81.8114 18.727 81.6772 18.4645 81.4865 18.2159C81.2958 17.9673 81.0769 17.7697 80.83 17.623C80.5871 17.4817 80.3254 17.3925 80.045 17.3556C79.7646 17.3186 79.4814 17.3384 79.1956 17.4149C78.9138 17.4966 78.6407 17.639 78.3762 17.8419C78.117 18.0407 77.9089 18.2677 77.7516 18.5227C77.6038 18.779 77.5093 19.0447 77.4683 19.3199C77.4314 19.6003 77.4518 19.8788 77.5295 20.1553C77.6072 20.4318 77.7414 20.6943 77.9321 20.9429Z" fill="#333333"/>
<path d="M80.2295 26.336L86.4913 23.207L87.2154 24.6562L82.1345 27.1951L83.7034 30.3349L82.5226 30.925L80.2295 26.336Z" fill="#333333"/>
<path d="M82.9205 31.8547L89.5947 29.7441L90.0832 31.2888L84.6675 33.0013L85.7258 36.348L84.4672 36.7459L82.9205 31.8547Z" fill="#333333"/>
</g>
</g>
<defs>
<clipPath id="clip0_736_3926">
<rect width="93" height="93" fill="white"/>
</clipPath>
</defs>
</svg>
