<svg width="161" height="124" viewBox="0 0 161 124" fill="none" xmlns="http://www.w3.org/2000/svg">
<path d="M38.812 39.398C38.676 39.246 38.504 39.07 38.296 38.87C38.088 38.662 37.876 38.462 37.66 38.27C37.444 38.07 37.256 37.914 37.096 37.802L38.2 37.034C38.352 37.138 38.536 37.286 38.752 37.478C38.968 37.662 39.184 37.854 39.4 38.054C39.624 38.246 39.804 38.418 39.94 38.57L38.812 39.398ZM35.548 38.114C35.588 38.186 35.636 38.282 35.692 38.402C35.748 38.522 35.808 38.642 35.872 38.762C35.936 38.874 35.988 38.97 36.028 39.05C36.276 39.514 36.528 40.026 36.784 40.586C37.04 41.138 37.276 41.666 37.492 42.17C37.628 42.498 37.784 42.89 37.96 43.346C38.144 43.802 38.324 44.278 38.5 44.774C38.676 45.27 38.84 45.746 38.992 46.202C39.152 46.658 39.28 47.054 39.376 47.39L37.732 47.822C37.612 47.318 37.464 46.77 37.288 46.178C37.112 45.586 36.924 45.002 36.724 44.426C36.524 43.842 36.324 43.31 36.124 42.83C35.964 42.454 35.804 42.086 35.644 41.726C35.492 41.366 35.336 41.022 35.176 40.694C35.024 40.358 34.864 40.05 34.696 39.77C34.616 39.618 34.508 39.442 34.372 39.242C34.244 39.042 34.116 38.866 33.988 38.714L35.548 38.114ZM32.956 41.63C33.196 41.574 33.428 41.506 33.652 41.426C33.884 41.346 34.048 41.286 34.144 41.246C34.584 41.07 35.028 40.882 35.476 40.682C35.932 40.482 36.388 40.282 36.844 40.082C37.308 39.874 37.76 39.69 38.2 39.53C38.648 39.362 39.084 39.23 39.508 39.134C39.94 39.03 40.344 38.978 40.72 38.978C41.344 38.978 41.876 39.09 42.316 39.314C42.764 39.538 43.104 39.842 43.336 40.226C43.576 40.61 43.696 41.034 43.696 41.498C43.696 42.058 43.576 42.546 43.336 42.962C43.096 43.37 42.752 43.686 42.304 43.91C41.856 44.134 41.324 44.246 40.708 44.246C40.388 44.246 40.056 44.21 39.712 44.138C39.376 44.066 39.092 43.99 38.86 43.91L38.896 42.398C39.168 42.518 39.448 42.618 39.736 42.698C40.024 42.77 40.3 42.806 40.564 42.806C40.86 42.806 41.124 42.754 41.356 42.65C41.596 42.538 41.784 42.382 41.92 42.182C42.056 41.982 42.124 41.738 42.124 41.45C42.124 41.25 42.064 41.066 41.944 40.898C41.832 40.73 41.668 40.598 41.452 40.502C41.244 40.398 40.988 40.346 40.684 40.346C40.292 40.346 39.848 40.422 39.352 40.574C38.864 40.718 38.348 40.906 37.804 41.138C37.26 41.37 36.728 41.618 36.208 41.882C35.688 42.138 35.208 42.382 34.768 42.614C34.328 42.838 33.96 43.018 33.664 43.154L32.956 41.63Z" fill="#595959"/>
<path d="M48.832 37.394C48.792 37.538 48.748 37.718 48.7 37.934C48.652 38.15 48.604 38.378 48.556 38.618C48.508 38.85 48.464 39.078 48.424 39.302C48.392 39.526 48.368 39.722 48.352 39.89C48.496 39.65 48.668 39.418 48.868 39.194C49.068 38.962 49.292 38.754 49.54 38.57C49.796 38.378 50.072 38.226 50.368 38.114C50.672 38.002 50.992 37.946 51.328 37.946C51.888 37.946 52.392 38.118 52.84 38.462C53.288 38.806 53.64 39.298 53.896 39.938C54.16 40.578 54.292 41.338 54.292 42.218C54.292 43.066 54.168 43.81 53.92 44.45C53.672 45.082 53.316 45.622 52.852 46.07C52.388 46.518 51.832 46.882 51.184 47.162C50.544 47.45 49.828 47.666 49.036 47.81L48.124 46.418C48.788 46.314 49.396 46.174 49.948 45.998C50.508 45.814 50.988 45.566 51.388 45.254C51.796 44.942 52.108 44.542 52.324 44.054C52.548 43.558 52.66 42.95 52.66 42.23C52.66 41.614 52.596 41.094 52.468 40.67C52.34 40.238 52.152 39.91 51.904 39.686C51.664 39.462 51.376 39.35 51.04 39.35C50.688 39.35 50.352 39.466 50.032 39.698C49.712 39.93 49.424 40.234 49.168 40.61C48.92 40.978 48.72 41.378 48.568 41.81C48.424 42.242 48.344 42.658 48.328 43.058C48.32 43.226 48.316 43.41 48.316 43.61C48.324 43.81 48.348 44.05 48.388 44.33L46.912 44.426C46.88 44.194 46.844 43.906 46.804 43.562C46.772 43.21 46.756 42.83 46.756 42.422C46.756 42.142 46.764 41.842 46.78 41.522C46.804 41.202 46.828 40.878 46.852 40.55C46.884 40.214 46.92 39.878 46.96 39.542C47.008 39.206 47.052 38.886 47.092 38.582C47.124 38.35 47.148 38.122 47.164 37.898C47.18 37.674 47.188 37.482 47.188 37.322L48.832 37.394Z" fill="#595959"/>
<path d="M62.188 37.454C62.14 37.614 62.092 37.81 62.044 38.042C61.996 38.274 61.96 38.454 61.936 38.582C61.88 38.854 61.808 39.186 61.72 39.578C61.64 39.97 61.548 40.386 61.444 40.826C61.348 41.266 61.248 41.686 61.144 42.086C61.04 42.51 60.912 42.97 60.76 43.466C60.608 43.954 60.444 44.454 60.268 44.966C60.1 45.47 59.928 45.954 59.752 46.418C59.576 46.874 59.404 47.282 59.236 47.642L57.568 47.078C57.744 46.774 57.932 46.406 58.132 45.974C58.332 45.534 58.524 45.062 58.708 44.558C58.9 44.054 59.076 43.554 59.236 43.058C59.396 42.562 59.532 42.102 59.644 41.678C59.724 41.398 59.8 41.11 59.872 40.814C59.944 40.518 60.008 40.23 60.064 39.95C60.12 39.67 60.168 39.41 60.208 39.17C60.256 38.922 60.292 38.706 60.316 38.522C60.34 38.298 60.356 38.074 60.364 37.85C60.372 37.626 60.368 37.446 60.352 37.31L62.188 37.454ZM59.128 39.242C59.616 39.242 60.124 39.218 60.652 39.17C61.18 39.122 61.712 39.054 62.248 38.966C62.784 38.878 63.316 38.774 63.844 38.654V40.154C63.348 40.266 62.82 40.362 62.26 40.442C61.7 40.522 61.148 40.586 60.604 40.634C60.06 40.674 59.56 40.694 59.104 40.694C58.816 40.694 58.556 40.69 58.324 40.682C58.092 40.666 57.868 40.654 57.652 40.646L57.616 39.146C57.928 39.178 58.196 39.202 58.42 39.218C58.644 39.234 58.88 39.242 59.128 39.242ZM62.896 41.078C63.232 41.046 63.604 41.018 64.012 40.994C64.42 40.97 64.816 40.958 65.2 40.958C65.544 40.958 65.892 40.966 66.244 40.982C66.604 40.998 66.96 41.026 67.312 41.066L67.276 42.506C66.98 42.466 66.652 42.434 66.292 42.41C65.94 42.378 65.58 42.362 65.212 42.362C64.804 42.362 64.408 42.374 64.024 42.398C63.648 42.414 63.272 42.446 62.896 42.494V41.078ZM63.544 44.102C63.496 44.27 63.456 44.446 63.424 44.63C63.392 44.806 63.376 44.962 63.376 45.098C63.376 45.226 63.404 45.346 63.46 45.458C63.516 45.57 63.604 45.67 63.724 45.758C63.844 45.838 64.008 45.902 64.216 45.95C64.432 45.998 64.7 46.022 65.02 46.022C65.428 46.022 65.836 46.002 66.244 45.962C66.66 45.914 67.084 45.85 67.516 45.77L67.456 47.306C67.12 47.346 66.748 47.382 66.34 47.414C65.932 47.454 65.488 47.474 65.008 47.474C64 47.474 63.228 47.31 62.692 46.982C62.164 46.646 61.9 46.174 61.9 45.566C61.9 45.294 61.924 45.018 61.972 44.738C62.02 44.458 62.068 44.198 62.116 43.958L63.544 44.102Z" fill="#595959"/>
<path d="M71.62 38.45C71.588 38.594 71.56 38.758 71.536 38.942C71.52 39.126 71.504 39.306 71.488 39.482C71.48 39.658 71.476 39.802 71.476 39.914C71.468 40.178 71.464 40.45 71.464 40.73C71.472 41.01 71.48 41.298 71.488 41.594C71.504 41.882 71.524 42.17 71.548 42.458C71.604 43.034 71.684 43.542 71.788 43.982C71.892 44.422 72.028 44.766 72.196 45.014C72.364 45.254 72.576 45.374 72.832 45.374C72.968 45.374 73.1 45.298 73.228 45.146C73.364 44.994 73.484 44.798 73.588 44.558C73.7 44.31 73.796 44.05 73.876 43.778C73.964 43.506 74.04 43.25 74.104 43.01L75.304 44.474C75.04 45.17 74.776 45.726 74.512 46.142C74.256 46.55 73.988 46.846 73.708 47.03C73.428 47.206 73.124 47.294 72.796 47.294C72.364 47.294 71.952 47.15 71.56 46.862C71.176 46.574 70.848 46.11 70.576 45.47C70.304 44.822 70.112 43.962 70 42.89C69.96 42.522 69.928 42.134 69.904 41.726C69.888 41.318 69.876 40.93 69.868 40.562C69.868 40.194 69.868 39.89 69.868 39.65C69.868 39.482 69.86 39.282 69.844 39.05C69.828 38.818 69.804 38.61 69.772 38.426L71.62 38.45ZM77.62 38.726C77.844 38.998 78.06 39.33 78.268 39.722C78.476 40.114 78.668 40.534 78.844 40.982C79.02 41.43 79.176 41.89 79.312 42.362C79.448 42.826 79.556 43.282 79.636 43.73C79.724 44.17 79.78 44.574 79.804 44.942L78.22 45.554C78.18 45.066 78.108 44.534 78.004 43.958C77.9 43.382 77.76 42.802 77.584 42.218C77.408 41.634 77.196 41.082 76.948 40.562C76.708 40.042 76.424 39.594 76.096 39.218L77.62 38.726Z" fill="#595959"/>
<path d="M83.488 37.994H91.672V39.182H83.488V37.994ZM83.62 39.758H90.58V40.922H83.62V39.758ZM82.192 41.522H89.116V42.722H82.192V41.522ZM83.344 36.782L84.856 37.106C84.568 38.074 84.18 38.97 83.692 39.794C83.204 40.618 82.668 41.298 82.084 41.834C81.996 41.746 81.868 41.646 81.7 41.534C81.54 41.414 81.376 41.298 81.208 41.186C81.04 41.066 80.896 40.974 80.776 40.91C81.368 40.454 81.884 39.862 82.324 39.134C82.772 38.398 83.112 37.614 83.344 36.782ZM86.308 42.782L87.712 43.238C87.312 43.99 86.824 44.686 86.248 45.326C85.68 45.958 85.056 46.522 84.376 47.018C83.696 47.514 82.988 47.938 82.252 48.29C82.18 48.194 82.08 48.074 81.952 47.93C81.832 47.786 81.7 47.646 81.556 47.51C81.42 47.374 81.3 47.262 81.196 47.174C81.932 46.878 82.624 46.514 83.272 46.082C83.928 45.65 84.512 45.154 85.024 44.594C85.544 44.034 85.972 43.43 86.308 42.782ZM88.648 41.522H90.124C90.124 42.242 90.132 42.918 90.148 43.55C90.164 44.174 90.2 44.722 90.256 45.194C90.32 45.658 90.408 46.026 90.52 46.298C90.632 46.562 90.776 46.694 90.952 46.694C91.048 46.686 91.112 46.534 91.144 46.238C91.176 45.942 91.196 45.554 91.204 45.074C91.34 45.234 91.492 45.398 91.66 45.566C91.836 45.726 91.996 45.862 92.14 45.974C92.108 46.47 92.048 46.878 91.96 47.198C91.88 47.518 91.752 47.75 91.576 47.894C91.4 48.046 91.16 48.122 90.856 48.122C90.352 48.122 89.952 47.95 89.656 47.606C89.368 47.27 89.152 46.802 89.008 46.202C88.864 45.594 88.768 44.89 88.72 44.09C88.672 43.29 88.648 42.434 88.648 41.522ZM82.216 44.114L83.236 43.166C83.676 43.398 84.132 43.658 84.604 43.946C85.084 44.226 85.556 44.522 86.02 44.834C86.492 45.146 86.928 45.458 87.328 45.77C87.728 46.074 88.064 46.366 88.336 46.646L87.184 47.738C86.936 47.466 86.62 47.17 86.236 46.85C85.86 46.53 85.444 46.21 84.988 45.89C84.54 45.562 84.076 45.246 83.596 44.942C83.116 44.638 82.656 44.362 82.216 44.114Z" fill="#595959"/>
<path d="M97.336 38.198H103.612V39.506H97.336V38.198ZM96.94 42.818H104.056V44.114H96.94V42.818ZM96.832 40.55H104.14V41.858H96.832V40.55ZM99.808 36.89H101.176V41.234H99.808V36.89ZM101.356 41.642H102.724V46.598C102.724 46.95 102.684 47.222 102.604 47.414C102.524 47.614 102.368 47.77 102.136 47.882C101.912 47.986 101.636 48.05 101.308 48.074C100.988 48.098 100.612 48.11 100.18 48.11C100.156 47.91 100.104 47.678 100.024 47.414C99.944 47.158 99.86 46.938 99.772 46.754C100.044 46.762 100.316 46.77 100.588 46.778C100.86 46.778 101.036 46.774 101.116 46.766C101.212 46.766 101.276 46.754 101.308 46.73C101.34 46.698 101.356 46.642 101.356 46.562V41.642ZM97.588 44.81L98.728 44.174C98.904 44.374 99.08 44.598 99.256 44.846C99.432 45.086 99.592 45.326 99.736 45.566C99.88 45.798 99.996 46.014 100.084 46.214L98.848 46.922C98.784 46.73 98.684 46.514 98.548 46.274C98.412 46.026 98.26 45.774 98.092 45.518C97.932 45.262 97.764 45.026 97.588 44.81ZM92.752 42.926C93.24 42.814 93.824 42.67 94.504 42.494C95.192 42.318 95.88 42.134 96.568 41.942L96.748 43.238C96.116 43.422 95.476 43.61 94.828 43.802C94.188 43.986 93.6 44.154 93.064 44.306L92.752 42.926ZM92.944 39.11H96.652V40.43H92.944V39.11ZM94.3 36.842H95.62V46.514C95.62 46.842 95.584 47.102 95.512 47.294C95.448 47.494 95.324 47.65 95.14 47.762C94.956 47.866 94.728 47.938 94.456 47.978C94.192 48.018 93.864 48.034 93.472 48.026C93.456 47.85 93.412 47.63 93.34 47.366C93.268 47.11 93.188 46.886 93.1 46.694C93.316 46.702 93.516 46.71 93.7 46.718C93.892 46.718 94.024 46.714 94.096 46.706C94.168 46.706 94.22 46.694 94.252 46.67C94.284 46.638 94.3 46.582 94.3 46.502V36.842Z" fill="#595959"/>
<path d="M109.936 37.466C109.872 37.674 109.816 37.882 109.768 38.09C109.728 38.29 109.688 38.49 109.648 38.69C109.608 38.882 109.56 39.102 109.504 39.35C109.456 39.598 109.4 39.862 109.336 40.142C109.28 40.414 109.216 40.69 109.144 40.97C109.08 41.25 109.012 41.526 108.94 41.798C108.868 42.062 108.8 42.306 108.736 42.53C109.224 42.258 109.708 42.066 110.188 41.954C110.668 41.834 111.176 41.774 111.712 41.774C112.36 41.774 112.924 41.882 113.404 42.098C113.892 42.314 114.268 42.614 114.532 42.998C114.804 43.382 114.94 43.83 114.94 44.342C114.94 45.014 114.784 45.582 114.472 46.046C114.168 46.51 113.728 46.874 113.152 47.138C112.584 47.402 111.9 47.57 111.1 47.642C110.308 47.714 109.428 47.698 108.46 47.594L108.04 46.046C108.696 46.158 109.336 46.214 109.96 46.214C110.592 46.214 111.16 46.154 111.664 46.034C112.168 45.914 112.568 45.722 112.864 45.458C113.168 45.186 113.32 44.83 113.32 44.39C113.32 44.03 113.168 43.722 112.864 43.466C112.56 43.202 112.116 43.07 111.532 43.07C110.836 43.07 110.196 43.19 109.612 43.43C109.036 43.67 108.568 44.018 108.208 44.474C108.152 44.562 108.096 44.646 108.04 44.726C107.992 44.806 107.936 44.898 107.872 45.002L106.456 44.498C106.68 44.066 106.888 43.574 107.08 43.022C107.272 42.47 107.444 41.914 107.596 41.354C107.748 40.794 107.872 40.274 107.968 39.794C108.064 39.306 108.132 38.91 108.172 38.606C108.212 38.35 108.236 38.134 108.244 37.958C108.252 37.774 108.248 37.586 108.232 37.394L109.936 37.466ZM105.748 38.87C106.132 38.934 106.548 38.99 106.996 39.038C107.444 39.078 107.856 39.098 108.232 39.098C108.616 39.098 109.036 39.086 109.492 39.062C109.956 39.038 110.444 39.002 110.956 38.954C111.468 38.906 111.98 38.846 112.492 38.774C113.012 38.694 113.52 38.602 114.016 38.498L114.04 39.926C113.656 39.99 113.22 40.054 112.732 40.118C112.252 40.182 111.748 40.242 111.22 40.298C110.692 40.346 110.172 40.386 109.66 40.418C109.148 40.45 108.676 40.466 108.244 40.466C107.78 40.466 107.336 40.458 106.912 40.442C106.496 40.418 106.108 40.39 105.748 40.358V38.87Z" fill="#595959"/>
<path d="M122.332 37.406C122.292 37.622 122.228 37.902 122.14 38.246C122.052 38.59 121.924 38.978 121.756 39.41C121.628 39.706 121.48 40.014 121.312 40.334C121.152 40.646 120.988 40.926 120.82 41.174C120.924 41.126 121.056 41.086 121.216 41.054C121.376 41.014 121.54 40.986 121.708 40.97C121.884 40.946 122.04 40.934 122.176 40.934C122.68 40.934 123.096 41.078 123.424 41.366C123.76 41.654 123.928 42.082 123.928 42.65C123.928 42.81 123.928 43.006 123.928 43.238C123.936 43.47 123.944 43.714 123.952 43.97C123.96 44.218 123.968 44.462 123.976 44.702C123.984 44.942 123.988 45.158 123.988 45.35H122.548C122.564 45.214 122.572 45.054 122.572 44.87C122.58 44.678 122.584 44.478 122.584 44.27C122.592 44.062 122.596 43.862 122.596 43.67C122.604 43.47 122.608 43.29 122.608 43.13C122.608 42.746 122.504 42.482 122.296 42.338C122.096 42.186 121.872 42.11 121.624 42.11C121.288 42.11 120.948 42.194 120.604 42.362C120.268 42.522 119.984 42.714 119.752 42.938C119.576 43.114 119.396 43.31 119.212 43.526C119.036 43.742 118.844 43.986 118.636 44.258L117.352 43.298C117.872 42.818 118.32 42.354 118.696 41.906C119.08 41.458 119.404 41.014 119.668 40.574C119.932 40.134 120.148 39.694 120.316 39.254C120.436 38.934 120.532 38.602 120.604 38.258C120.684 37.906 120.732 37.578 120.748 37.274L122.332 37.406ZM117.82 38.51C118.124 38.558 118.476 38.594 118.876 38.618C119.276 38.642 119.628 38.654 119.932 38.654C120.46 38.654 121.036 38.642 121.66 38.618C122.292 38.594 122.932 38.554 123.58 38.498C124.228 38.434 124.844 38.354 125.428 38.258L125.416 39.65C124.992 39.706 124.532 39.758 124.036 39.806C123.548 39.846 123.048 39.882 122.536 39.914C122.032 39.938 121.548 39.958 121.084 39.974C120.62 39.982 120.208 39.986 119.848 39.986C119.688 39.986 119.488 39.986 119.248 39.986C119.016 39.978 118.776 39.97 118.528 39.962C118.28 39.946 118.044 39.93 117.82 39.914V38.51ZM127.324 41.918C127.196 41.958 127.044 42.01 126.868 42.074C126.7 42.13 126.528 42.19 126.352 42.254C126.184 42.31 126.032 42.366 125.896 42.422C125.512 42.574 125.056 42.758 124.528 42.974C124.008 43.19 123.464 43.442 122.896 43.73C122.536 43.922 122.232 44.11 121.984 44.294C121.736 44.478 121.548 44.666 121.42 44.858C121.292 45.042 121.228 45.246 121.228 45.47C121.228 45.638 121.264 45.778 121.336 45.89C121.408 45.994 121.516 46.078 121.66 46.142C121.804 46.206 121.984 46.25 122.2 46.274C122.416 46.298 122.672 46.31 122.968 46.31C123.48 46.31 124.044 46.282 124.66 46.226C125.276 46.162 125.848 46.078 126.376 45.974L126.328 47.522C126.072 47.554 125.748 47.586 125.356 47.618C124.964 47.658 124.556 47.686 124.132 47.702C123.716 47.718 123.316 47.726 122.932 47.726C122.308 47.726 121.748 47.666 121.252 47.546C120.756 47.426 120.364 47.222 120.076 46.934C119.796 46.638 119.656 46.234 119.656 45.722C119.656 45.306 119.748 44.93 119.932 44.594C120.124 44.258 120.376 43.954 120.688 43.682C121 43.41 121.34 43.166 121.708 42.95C122.084 42.726 122.452 42.522 122.812 42.338C123.18 42.146 123.512 41.982 123.808 41.846C124.104 41.71 124.38 41.59 124.636 41.486C124.9 41.374 125.152 41.262 125.392 41.15C125.624 41.046 125.848 40.946 126.064 40.85C126.28 40.746 126.5 40.638 126.724 40.526L127.324 41.918Z" fill="#595959"/>
<path d="M25.9993 63.918H27.4273V68.094C27.4273 68.318 27.4513 68.458 27.4993 68.514C27.5553 68.57 27.6633 68.598 27.8233 68.598C27.8713 68.598 27.9353 68.598 28.0153 68.598C28.1033 68.598 28.1993 68.598 28.3033 68.598C28.4073 68.598 28.5033 68.598 28.5913 68.598C28.6793 68.598 28.7473 68.598 28.7953 68.598C28.9153 68.598 29.0073 68.554 29.0713 68.466C29.1353 68.37 29.1793 68.182 29.2033 67.902C29.2353 67.622 29.2593 67.206 29.2753 66.654C29.3793 66.734 29.5033 66.814 29.6473 66.894C29.7993 66.974 29.9553 67.042 30.1153 67.098C30.2753 67.154 30.4153 67.202 30.5353 67.242C30.4953 67.922 30.4193 68.454 30.3073 68.838C30.2033 69.222 30.0433 69.49 29.8273 69.642C29.6113 69.802 29.3113 69.882 28.9273 69.882C28.8713 69.882 28.7793 69.882 28.6513 69.882C28.5313 69.882 28.3993 69.882 28.2553 69.882C28.1193 69.882 27.9913 69.882 27.8713 69.882C27.7513 69.882 27.6593 69.882 27.5953 69.882C27.1713 69.882 26.8433 69.826 26.6113 69.714C26.3873 69.61 26.2273 69.426 26.1313 69.162C26.0433 68.898 25.9993 68.546 25.9993 68.106V63.918ZM24.2953 64.842L25.5913 65.118C25.5513 65.574 25.4953 66.046 25.4233 66.534C25.3513 67.022 25.2553 67.486 25.1353 67.926C25.0233 68.358 24.8753 68.738 24.6913 69.066L23.4193 68.49C23.5873 68.178 23.7273 67.826 23.8393 67.434C23.9593 67.042 24.0553 66.622 24.1273 66.174C24.1993 65.726 24.2553 65.282 24.2953 64.842ZM26.0833 62.574L27.0553 61.626C27.3753 61.778 27.7193 61.954 28.0873 62.154C28.4553 62.354 28.8073 62.562 29.1433 62.778C29.4793 62.994 29.7553 63.194 29.9713 63.378L28.9393 64.458C28.7473 64.266 28.4873 64.058 28.1593 63.834C27.8393 63.602 27.4953 63.378 27.1273 63.162C26.7673 62.938 26.4193 62.742 26.0833 62.574ZM29.7553 65.01L31.0393 64.518C31.2793 64.926 31.5113 65.37 31.7353 65.85C31.9593 66.322 32.1513 66.786 32.3113 67.242C32.4793 67.69 32.5913 68.098 32.6473 68.466L31.2313 69.054C31.1913 68.694 31.0953 68.282 30.9433 67.818C30.7993 67.346 30.6233 66.87 30.4153 66.39C30.2073 65.902 29.9873 65.442 29.7553 65.01ZM26.4913 58.83H27.9913V61.026H26.4913V58.83ZM22.8673 60.246H32.3473V61.614H22.8673V60.246ZM22.1953 60.246H23.6353V63.27C23.6353 63.758 23.6153 64.298 23.5753 64.89C23.5433 65.474 23.4833 66.078 23.3953 66.702C23.3073 67.318 23.1793 67.918 23.0113 68.502C22.8513 69.086 22.6353 69.614 22.3633 70.086C22.2753 70.006 22.1513 69.91 21.9913 69.798C21.8393 69.694 21.6833 69.59 21.5233 69.486C21.3633 69.39 21.2273 69.318 21.1153 69.27C21.3633 68.838 21.5593 68.366 21.7033 67.854C21.8473 67.342 21.9513 66.818 22.0153 66.282C22.0873 65.746 22.1353 65.222 22.1593 64.71C22.1833 64.19 22.1953 63.71 22.1953 63.27V60.246Z" fill="#595959"/>
<path d="M37.3513 62.118H43.9873V63.246H37.3513V62.118ZM37.1113 63.81H44.3473V64.974H37.1113V63.81ZM38.6713 65.454H42.7153V66.486H38.6713V65.454ZM37.6513 60.822L38.7433 60.522C38.8393 60.738 38.9393 60.982 39.0433 61.254C39.1473 61.518 39.2273 61.738 39.2833 61.914L38.1313 62.286C38.0833 62.094 38.0113 61.862 37.9153 61.59C37.8273 61.31 37.7393 61.054 37.6513 60.822ZM39.7393 60.618L40.8553 60.414C40.9273 60.654 40.9913 60.914 41.0473 61.194C41.1113 61.466 41.1553 61.694 41.1793 61.878L39.9913 62.142C39.9753 61.95 39.9433 61.71 39.8953 61.422C39.8473 61.126 39.7953 60.858 39.7393 60.618ZM43.1953 58.89L43.9993 59.946C43.5513 60.042 43.0553 60.126 42.5113 60.198C41.9753 60.262 41.4193 60.318 40.8433 60.366C40.2673 60.414 39.6873 60.454 39.1033 60.486C38.5273 60.51 37.9713 60.526 37.4353 60.534C37.4193 60.382 37.3793 60.202 37.3153 59.994C37.2513 59.786 37.1873 59.61 37.1233 59.466C37.6513 59.442 38.1913 59.418 38.7433 59.394C39.3033 59.362 39.8513 59.322 40.3873 59.274C40.9233 59.226 41.4313 59.17 41.9113 59.106C42.3993 59.042 42.8273 58.97 43.1953 58.89ZM39.8593 66.246C40.1313 66.718 40.4953 67.134 40.9513 67.494C41.4153 67.854 41.9553 68.158 42.5713 68.406C43.1953 68.646 43.8833 68.826 44.6353 68.946C44.4833 69.082 44.3273 69.266 44.1673 69.498C44.0073 69.738 43.8793 69.946 43.7833 70.122C42.5913 69.874 41.5713 69.454 40.7233 68.862C39.8753 68.27 39.1993 67.514 38.6953 66.594L39.8593 66.246ZM42.5113 60.198L43.8313 60.582C43.6153 60.942 43.3873 61.306 43.1473 61.674C42.9073 62.042 42.6913 62.35 42.4993 62.598L41.4913 62.25C41.6193 62.058 41.7433 61.842 41.8633 61.602C41.9913 61.362 42.1113 61.118 42.2233 60.87C42.3353 60.622 42.4313 60.398 42.5113 60.198ZM42.4273 65.454H42.6913L42.9313 65.418L43.7113 65.73C43.4793 66.586 43.1313 67.306 42.6673 67.89C42.2113 68.474 41.6713 68.942 41.0473 69.294C40.4233 69.654 39.7273 69.934 38.9593 70.134C38.9113 70.03 38.8433 69.91 38.7553 69.774C38.6673 69.638 38.5713 69.502 38.4673 69.366C38.3633 69.238 38.2713 69.138 38.1913 69.066C38.9113 68.914 39.5553 68.698 40.1233 68.418C40.6913 68.138 41.1713 67.774 41.5633 67.326C41.9633 66.87 42.2513 66.306 42.4273 65.634V65.454ZM38.7913 62.838H40.1713C40.1393 63.342 40.0873 63.862 40.0153 64.398C39.9513 64.934 39.8553 65.466 39.7273 65.994C39.5993 66.522 39.4193 67.034 39.1873 67.53C38.9633 68.026 38.6713 68.49 38.3113 68.922C37.9593 69.354 37.5233 69.738 37.0033 70.074C36.9073 69.906 36.7713 69.722 36.5953 69.522C36.4193 69.33 36.2433 69.17 36.0673 69.042C36.5393 68.754 36.9313 68.422 37.2433 68.046C37.5633 67.67 37.8193 67.27 38.0113 66.846C38.2033 66.414 38.3473 65.97 38.4433 65.514C38.5473 65.058 38.6233 64.602 38.6713 64.146C38.7273 63.69 38.7673 63.254 38.7913 62.838ZM33.1513 65.262C33.6313 65.15 34.2033 65.006 34.8673 64.83C35.5393 64.654 36.2153 64.47 36.8953 64.278L37.0753 65.586C36.4433 65.77 35.8033 65.958 35.1553 66.15C34.5073 66.334 33.9113 66.506 33.3673 66.666L33.1513 65.262ZM33.3073 61.11H36.9793V62.43H33.3073V61.11ZM34.5673 58.842H35.8873V68.586C35.8873 68.914 35.8513 69.174 35.7793 69.366C35.7153 69.566 35.5913 69.722 35.4073 69.834C35.2313 69.946 35.0073 70.022 34.7353 70.062C34.4713 70.102 34.1393 70.118 33.7393 70.11C33.7233 69.934 33.6793 69.714 33.6073 69.45C33.5353 69.194 33.4553 68.97 33.3673 68.778C33.5913 68.786 33.7953 68.794 33.9793 68.802C34.1713 68.802 34.3033 68.798 34.3753 68.79C34.4473 68.79 34.4953 68.778 34.5193 68.754C34.5513 68.722 34.5673 68.666 34.5673 68.586V58.842Z" fill="#595959"/>
<path d="M47.9233 69.858C47.6833 69.554 47.4153 69.246 47.1193 68.934C46.8233 68.622 46.5233 68.318 46.2193 68.022C45.9153 67.718 45.6233 67.446 45.3433 67.206L46.5913 66.126C46.8793 66.358 47.1873 66.634 47.5153 66.954C47.8433 67.266 48.1553 67.582 48.4513 67.902C48.7553 68.222 49.0073 68.506 49.2073 68.754L47.9233 69.858Z" fill="#595959"/>
<path d="M60.8113 64.554C61.4353 65.73 62.3953 66.666 63.6913 67.362C64.9873 68.058 66.5993 68.514 68.5273 68.73C68.4233 68.842 68.3113 68.978 68.1913 69.138C68.0793 69.306 67.9713 69.478 67.8673 69.654C67.7633 69.83 67.6753 69.99 67.6033 70.134C66.2593 69.934 65.0713 69.618 64.0393 69.186C63.0153 68.762 62.1273 68.206 61.3753 67.518C60.6233 66.822 59.9833 65.99 59.4553 65.022L60.8113 64.554ZM58.2793 63.246H65.9713V64.65H58.2793V63.246ZM57.6913 60.414H67.9873V61.842H57.6913V60.414ZM62.0713 58.83H63.5713V63.882H62.0713V58.83ZM65.5153 63.246H65.8153L66.0673 63.186L67.0873 63.762C66.7273 64.738 66.2433 65.586 65.6353 66.306C65.0353 67.026 64.3393 67.638 63.5473 68.142C62.7553 68.638 61.8913 69.046 60.9553 69.366C60.0193 69.686 59.0313 69.934 57.9913 70.11C57.9513 69.974 57.8833 69.818 57.7873 69.642C57.6993 69.466 57.6033 69.294 57.4993 69.126C57.3953 68.958 57.2953 68.822 57.1993 68.718C58.2073 68.582 59.1553 68.39 60.0433 68.142C60.9313 67.886 61.7353 67.554 62.4553 67.146C63.1833 66.73 63.8073 66.226 64.3273 65.634C64.8473 65.034 65.2433 64.322 65.5153 63.498V63.246Z" fill="#595959"/>
<path d="M73.3513 62.118H79.9873V63.246H73.3513V62.118ZM73.1113 63.81H80.3473V64.974H73.1113V63.81ZM74.6713 65.454H78.7153V66.486H74.6713V65.454ZM73.6513 60.822L74.7433 60.522C74.8393 60.738 74.9393 60.982 75.0433 61.254C75.1473 61.518 75.2273 61.738 75.2833 61.914L74.1313 62.286C74.0833 62.094 74.0113 61.862 73.9153 61.59C73.8273 61.31 73.7393 61.054 73.6513 60.822ZM75.7393 60.618L76.8553 60.414C76.9273 60.654 76.9913 60.914 77.0473 61.194C77.1113 61.466 77.1553 61.694 77.1793 61.878L75.9913 62.142C75.9753 61.95 75.9433 61.71 75.8953 61.422C75.8473 61.126 75.7953 60.858 75.7393 60.618ZM79.1953 58.89L79.9993 59.946C79.5513 60.042 79.0553 60.126 78.5113 60.198C77.9753 60.262 77.4193 60.318 76.8433 60.366C76.2673 60.414 75.6873 60.454 75.1033 60.486C74.5273 60.51 73.9713 60.526 73.4353 60.534C73.4193 60.382 73.3793 60.202 73.3153 59.994C73.2513 59.786 73.1873 59.61 73.1233 59.466C73.6513 59.442 74.1913 59.418 74.7433 59.394C75.3033 59.362 75.8513 59.322 76.3873 59.274C76.9233 59.226 77.4313 59.17 77.9113 59.106C78.3993 59.042 78.8273 58.97 79.1953 58.89ZM75.8593 66.246C76.1313 66.718 76.4953 67.134 76.9513 67.494C77.4153 67.854 77.9553 68.158 78.5713 68.406C79.1953 68.646 79.8833 68.826 80.6353 68.946C80.4833 69.082 80.3273 69.266 80.1673 69.498C80.0073 69.738 79.8793 69.946 79.7833 70.122C78.5913 69.874 77.5713 69.454 76.7233 68.862C75.8753 68.27 75.1993 67.514 74.6953 66.594L75.8593 66.246ZM78.5113 60.198L79.8313 60.582C79.6153 60.942 79.3873 61.306 79.1473 61.674C78.9073 62.042 78.6913 62.35 78.4993 62.598L77.4913 62.25C77.6193 62.058 77.7433 61.842 77.8633 61.602C77.9913 61.362 78.1113 61.118 78.2233 60.87C78.3353 60.622 78.4313 60.398 78.5113 60.198ZM78.4273 65.454H78.6913L78.9313 65.418L79.7113 65.73C79.4793 66.586 79.1313 67.306 78.6673 67.89C78.2113 68.474 77.6713 68.942 77.0473 69.294C76.4233 69.654 75.7273 69.934 74.9593 70.134C74.9113 70.03 74.8433 69.91 74.7553 69.774C74.6673 69.638 74.5713 69.502 74.4673 69.366C74.3633 69.238 74.2713 69.138 74.1913 69.066C74.9113 68.914 75.5553 68.698 76.1233 68.418C76.6913 68.138 77.1713 67.774 77.5633 67.326C77.9633 66.87 78.2513 66.306 78.4273 65.634V65.454ZM74.7913 62.838H76.1713C76.1393 63.342 76.0873 63.862 76.0153 64.398C75.9513 64.934 75.8553 65.466 75.7273 65.994C75.5993 66.522 75.4193 67.034 75.1873 67.53C74.9633 68.026 74.6713 68.49 74.3113 68.922C73.9593 69.354 73.5233 69.738 73.0033 70.074C72.9073 69.906 72.7713 69.722 72.5953 69.522C72.4193 69.33 72.2433 69.17 72.0673 69.042C72.5393 68.754 72.9313 68.422 73.2433 68.046C73.5633 67.67 73.8193 67.27 74.0113 66.846C74.2033 66.414 74.3473 65.97 74.4433 65.514C74.5473 65.058 74.6233 64.602 74.6713 64.146C74.7273 63.69 74.7673 63.254 74.7913 62.838ZM69.1513 65.262C69.6313 65.15 70.2033 65.006 70.8673 64.83C71.5393 64.654 72.2153 64.47 72.8953 64.278L73.0753 65.586C72.4433 65.77 71.8033 65.958 71.1553 66.15C70.5073 66.334 69.9113 66.506 69.3673 66.666L69.1513 65.262ZM69.3073 61.11H72.9793V62.43H69.3073V61.11ZM70.5673 58.842H71.8873V68.586C71.8873 68.914 71.8513 69.174 71.7793 69.366C71.7153 69.566 71.5913 69.722 71.4073 69.834C71.2313 69.946 71.0073 70.022 70.7353 70.062C70.4713 70.102 70.1393 70.118 69.7393 70.11C69.7233 69.934 69.6793 69.714 69.6073 69.45C69.5353 69.194 69.4553 68.97 69.3673 68.778C69.5913 68.786 69.7953 68.794 69.9793 68.802C70.1713 68.802 70.3033 68.798 70.3753 68.79C70.4473 68.79 70.4953 68.778 70.5193 68.754C70.5513 68.722 70.5673 68.666 70.5673 68.586V58.842Z" fill="#595959"/>
<path d="M85.3153 59.514C85.2833 59.762 85.2513 60.03 85.2193 60.318C85.1953 60.606 85.1753 60.87 85.1593 61.11C85.1513 61.438 85.1353 61.838 85.1113 62.31C85.0953 62.774 85.0793 63.262 85.0633 63.774C85.0553 64.286 85.0433 64.79 85.0273 65.286C85.0193 65.782 85.0153 66.214 85.0153 66.582C85.0153 66.982 85.0873 67.302 85.2313 67.542C85.3833 67.774 85.5833 67.942 85.8313 68.046C86.0793 68.142 86.3593 68.19 86.6713 68.19C87.1673 68.19 87.6193 68.126 88.0273 67.998C88.4353 67.862 88.8073 67.682 89.1433 67.458C89.4793 67.234 89.7793 66.974 90.0433 66.678C90.3153 66.382 90.5593 66.07 90.7753 65.742L91.8673 67.062C91.6753 67.35 91.4233 67.654 91.1113 67.974C90.7993 68.294 90.4273 68.594 89.9953 68.874C89.5713 69.154 89.0793 69.382 88.5193 69.558C87.9593 69.734 87.3393 69.822 86.6593 69.822C86.0033 69.822 85.4313 69.718 84.9433 69.51C84.4633 69.31 84.0873 68.998 83.8153 68.574C83.5513 68.142 83.4193 67.586 83.4193 66.906C83.4193 66.578 83.4233 66.206 83.4313 65.79C83.4393 65.366 83.4513 64.926 83.4673 64.47C83.4833 64.014 83.4953 63.57 83.5033 63.138C83.5113 62.698 83.5193 62.302 83.5273 61.95C83.5353 61.598 83.5393 61.318 83.5393 61.11C83.5393 60.822 83.5273 60.542 83.5033 60.27C83.4793 59.99 83.4393 59.73 83.3833 59.49L85.3153 59.514Z" fill="#595959"/>
<path d="M93.352 60.774C93.592 60.766 93.82 60.758 94.036 60.75C94.252 60.734 94.42 60.722 94.54 60.714C94.788 60.69 95.092 60.662 95.452 60.63C95.812 60.598 96.216 60.562 96.664 60.522C97.12 60.482 97.604 60.442 98.116 60.402C98.628 60.354 99.16 60.306 99.712 60.258C100.128 60.226 100.544 60.198 100.96 60.174C101.376 60.142 101.768 60.118 102.136 60.102C102.512 60.078 102.836 60.062 103.108 60.054L103.12 61.59C102.904 61.59 102.656 61.594 102.376 61.602C102.096 61.61 101.816 61.626 101.536 61.65C101.264 61.666 101.02 61.698 100.804 61.746C100.444 61.842 100.108 62.006 99.796 62.238C99.492 62.462 99.224 62.73 98.992 63.042C98.76 63.354 98.58 63.69 98.452 64.05C98.332 64.402 98.272 64.758 98.272 65.118C98.272 65.51 98.34 65.858 98.476 66.162C98.612 66.458 98.8 66.714 99.04 66.93C99.288 67.138 99.576 67.314 99.904 67.458C100.232 67.594 100.584 67.698 100.96 67.77C101.344 67.842 101.74 67.89 102.148 67.914L101.584 69.558C101.08 69.526 100.588 69.446 100.108 69.318C99.636 69.19 99.192 69.014 98.776 68.79C98.368 68.566 98.008 68.294 97.696 67.974C97.384 67.646 97.14 67.274 96.964 66.858C96.788 66.434 96.7 65.962 96.7 65.442C96.7 64.858 96.792 64.326 96.976 63.846C97.16 63.366 97.388 62.946 97.66 62.586C97.932 62.218 98.204 61.934 98.476 61.734C98.252 61.758 97.98 61.79 97.66 61.83C97.348 61.862 97.008 61.902 96.64 61.95C96.28 61.99 95.912 62.034 95.536 62.082C95.16 62.13 94.796 62.186 94.444 62.25C94.1 62.306 93.788 62.362 93.508 62.418L93.352 60.774Z" fill="#595959"/>
<path d="M112.945 60.378C112.753 60.514 112.565 60.658 112.381 60.81C112.197 60.954 112.037 61.086 111.901 61.206C111.701 61.358 111.461 61.546 111.181 61.77C110.909 61.986 110.621 62.214 110.317 62.454C110.021 62.686 109.733 62.914 109.453 63.138C109.173 63.362 108.933 63.562 108.733 63.738C108.525 63.922 108.385 64.074 108.313 64.194C108.241 64.306 108.241 64.418 108.313 64.53C108.393 64.642 108.541 64.794 108.757 64.986C108.933 65.138 109.157 65.326 109.429 65.55C109.709 65.774 110.009 66.022 110.329 66.294C110.657 66.558 110.989 66.834 111.325 67.122C111.669 67.402 111.997 67.682 112.309 67.962C112.629 68.234 112.913 68.49 113.161 68.73L111.757 70.014C111.421 69.638 111.073 69.266 110.713 68.898C110.529 68.714 110.289 68.49 109.993 68.226C109.705 67.954 109.389 67.67 109.045 67.374C108.709 67.078 108.373 66.786 108.037 66.498C107.701 66.202 107.397 65.938 107.125 65.706C106.725 65.37 106.465 65.062 106.345 64.782C106.233 64.502 106.249 64.226 106.393 63.954C106.545 63.674 106.821 63.37 107.221 63.042C107.461 62.858 107.733 62.642 108.037 62.394C108.341 62.138 108.653 61.878 108.973 61.614C109.293 61.342 109.597 61.082 109.885 60.834C110.173 60.578 110.417 60.354 110.617 60.162C110.793 59.986 110.969 59.806 111.145 59.622C111.321 59.438 111.453 59.278 111.541 59.142L112.945 60.378Z" fill="#595959"/>
<path d="M127.837 68.406C127.557 68.662 127.233 68.874 126.865 69.042C126.497 69.21 126.069 69.294 125.581 69.294C125.133 69.294 124.769 69.138 124.489 68.826C124.217 68.514 124.081 68.066 124.081 67.482C124.081 67.162 124.101 66.818 124.141 66.45C124.189 66.074 124.241 65.698 124.297 65.322C124.353 64.946 124.401 64.59 124.441 64.254C124.489 63.91 124.513 63.602 124.513 63.33C124.513 63.034 124.441 62.814 124.297 62.67C124.153 62.518 123.953 62.442 123.697 62.442C123.417 62.442 123.105 62.542 122.761 62.742C122.417 62.934 122.065 63.182 121.705 63.486C121.345 63.79 121.001 64.114 120.673 64.458C120.353 64.802 120.073 65.13 119.833 65.442L119.821 63.594C119.965 63.434 120.153 63.246 120.385 63.03C120.625 62.814 120.893 62.59 121.189 62.358C121.493 62.126 121.809 61.91 122.137 61.71C122.473 61.502 122.809 61.334 123.145 61.206C123.489 61.078 123.821 61.014 124.141 61.014C124.573 61.014 124.925 61.094 125.197 61.254C125.477 61.406 125.685 61.618 125.821 61.89C125.957 62.154 126.025 62.454 126.025 62.79C126.025 63.102 126.005 63.442 125.965 63.81C125.925 64.17 125.877 64.538 125.821 64.914C125.765 65.29 125.717 65.662 125.677 66.03C125.645 66.398 125.629 66.734 125.629 67.038C125.629 67.198 125.669 67.33 125.749 67.434C125.829 67.53 125.941 67.578 126.085 67.578C126.309 67.578 126.557 67.506 126.829 67.362C127.101 67.21 127.373 66.994 127.645 66.714L127.837 68.406ZM119.545 62.682C119.417 62.698 119.253 62.718 119.053 62.742C118.853 62.766 118.637 62.794 118.405 62.826C118.181 62.858 117.953 62.89 117.721 62.922C117.489 62.954 117.273 62.982 117.073 63.006L116.917 61.47C117.093 61.478 117.257 61.482 117.409 61.482C117.569 61.474 117.753 61.466 117.961 61.458C118.153 61.442 118.381 61.422 118.645 61.398C118.917 61.366 119.189 61.33 119.461 61.29C119.741 61.25 120.001 61.206 120.241 61.158C120.481 61.11 120.669 61.062 120.805 61.014L121.285 61.626C121.213 61.722 121.129 61.842 121.033 61.986C120.945 62.13 120.853 62.278 120.757 62.43C120.661 62.574 120.577 62.702 120.505 62.814L119.797 65.07C119.669 65.254 119.509 65.486 119.317 65.766C119.133 66.046 118.937 66.342 118.729 66.654C118.521 66.966 118.317 67.266 118.117 67.554C117.917 67.842 117.737 68.094 117.577 68.31L116.629 67.002C116.781 66.81 116.953 66.59 117.145 66.342C117.345 66.086 117.553 65.818 117.769 65.538C117.985 65.25 118.197 64.966 118.405 64.686C118.613 64.398 118.805 64.13 118.981 63.882C119.165 63.626 119.317 63.406 119.437 63.222L119.461 62.91L119.545 62.682ZM119.401 60.378C119.401 60.202 119.401 60.026 119.401 59.85C119.401 59.666 119.385 59.482 119.353 59.298L121.105 59.358C121.057 59.542 121.005 59.81 120.949 60.162C120.901 60.506 120.849 60.902 120.793 61.35C120.745 61.798 120.697 62.27 120.649 62.766C120.609 63.254 120.573 63.742 120.541 64.23C120.517 64.718 120.505 65.174 120.505 65.598C120.505 65.926 120.505 66.258 120.505 66.594C120.513 66.93 120.521 67.274 120.529 67.626C120.537 67.978 120.553 68.342 120.577 68.718C120.585 68.822 120.597 68.966 120.613 69.15C120.629 69.342 120.645 69.506 120.661 69.642H119.005C119.021 69.498 119.029 69.338 119.029 69.162C119.037 68.986 119.041 68.85 119.041 68.754C119.049 68.362 119.057 67.998 119.065 67.662C119.073 67.326 119.077 66.97 119.077 66.594C119.085 66.218 119.097 65.782 119.113 65.286C119.121 65.102 119.133 64.87 119.149 64.59C119.165 64.302 119.181 63.99 119.197 63.654C119.221 63.31 119.245 62.962 119.269 62.61C119.293 62.258 119.313 61.93 119.329 61.626C119.353 61.314 119.369 61.05 119.377 60.834C119.393 60.61 119.401 60.458 119.401 60.378Z" fill="#595959"/>
<path d="M130.777 59.886C130.945 59.91 131.125 59.926 131.317 59.934C131.509 59.942 131.693 59.946 131.869 59.946C131.997 59.946 132.189 59.946 132.445 59.946C132.701 59.938 132.989 59.93 133.309 59.922C133.637 59.914 133.961 59.906 134.281 59.898C134.601 59.89 134.889 59.882 135.145 59.874C135.409 59.858 135.613 59.846 135.757 59.838C136.005 59.814 136.201 59.794 136.345 59.778C136.489 59.754 136.597 59.73 136.669 59.706L137.449 60.774C137.313 60.862 137.173 60.95 137.029 61.038C136.885 61.126 136.745 61.222 136.609 61.326C136.449 61.438 136.257 61.586 136.033 61.77C135.809 61.946 135.569 62.134 135.313 62.334C135.065 62.534 134.821 62.73 134.581 62.922C134.349 63.114 134.137 63.286 133.945 63.438C134.145 63.39 134.337 63.358 134.521 63.342C134.705 63.318 134.893 63.306 135.085 63.306C135.765 63.306 136.373 63.438 136.909 63.702C137.453 63.966 137.881 64.326 138.193 64.782C138.513 65.23 138.673 65.746 138.673 66.33C138.673 66.962 138.513 67.534 138.193 68.046C137.873 68.558 137.389 68.966 136.741 69.27C136.101 69.574 135.297 69.726 134.329 69.726C133.777 69.726 133.277 69.646 132.829 69.486C132.389 69.326 132.041 69.098 131.785 68.802C131.529 68.506 131.401 68.158 131.401 67.758C131.401 67.43 131.489 67.126 131.665 66.846C131.849 66.558 132.101 66.326 132.421 66.15C132.749 65.974 133.125 65.886 133.549 65.886C134.101 65.886 134.565 65.998 134.941 66.222C135.325 66.438 135.617 66.73 135.817 67.098C136.025 67.466 136.133 67.87 136.141 68.31L134.737 68.502C134.729 68.062 134.617 67.71 134.401 67.446C134.193 67.174 133.913 67.038 133.561 67.038C133.337 67.038 133.157 67.098 133.021 67.218C132.885 67.33 132.817 67.462 132.817 67.614C132.817 67.838 132.929 68.018 133.153 68.154C133.377 68.29 133.669 68.358 134.029 68.358C134.709 68.358 135.277 68.278 135.733 68.118C136.189 67.95 136.529 67.714 136.753 67.41C136.985 67.098 137.101 66.73 137.101 66.306C137.101 65.946 136.989 65.63 136.765 65.358C136.549 65.086 136.253 64.874 135.877 64.722C135.501 64.57 135.077 64.494 134.605 64.494C134.141 64.494 133.717 64.554 133.333 64.674C132.949 64.786 132.585 64.95 132.241 65.166C131.905 65.374 131.573 65.63 131.245 65.934C130.925 66.23 130.605 66.562 130.285 66.93L129.193 65.802C129.409 65.626 129.653 65.43 129.925 65.214C130.197 64.99 130.473 64.758 130.753 64.518C131.041 64.278 131.309 64.054 131.557 63.846C131.813 63.63 132.029 63.45 132.205 63.306C132.373 63.17 132.569 63.01 132.793 62.826C133.017 62.642 133.249 62.454 133.489 62.262C133.729 62.062 133.957 61.874 134.173 61.698C134.389 61.514 134.569 61.358 134.713 61.23C134.593 61.23 134.437 61.234 134.245 61.242C134.053 61.25 133.841 61.258 133.609 61.266C133.385 61.274 133.157 61.282 132.925 61.29C132.701 61.298 132.489 61.31 132.289 61.326C132.097 61.334 131.937 61.342 131.809 61.35C131.649 61.358 131.481 61.37 131.305 61.386C131.129 61.402 130.969 61.422 130.825 61.446L130.777 59.886Z" fill="#595959"/>
</svg>
