<svg width="340" height="136" viewBox="0 0 340 136" fill="none" xmlns="http://www.w3.org/2000/svg">
<path d="M127.735 28.622H132.663V30.176H127.735V28.622ZM127.861 32.626H132.523V34.166H127.861V32.626ZM127.399 37.484C127.856 37.372 128.374 37.246 128.953 37.106C129.541 36.9567 130.157 36.7933 130.801 36.616C131.445 36.4387 132.089 36.2613 132.733 36.084L132.943 37.568C132.065 37.8293 131.174 38.0953 130.269 38.366C129.363 38.6273 128.551 38.8607 127.833 39.066L127.399 37.484ZM134.777 31.926V32.794H138.445V31.926H134.777ZM134.777 34.068V34.936H138.445V34.068H134.777ZM134.777 29.784V30.652H138.445V29.784H134.777ZM133.209 28.426H140.097V36.322H133.209V28.426ZM136.751 35.692H138.347V39.066C138.347 39.2713 138.361 39.402 138.389 39.458C138.426 39.5047 138.505 39.528 138.627 39.528C138.655 39.528 138.706 39.528 138.781 39.528C138.865 39.528 138.949 39.528 139.033 39.528C139.117 39.528 139.173 39.528 139.201 39.528C139.285 39.528 139.345 39.4907 139.383 39.416C139.429 39.3413 139.462 39.1873 139.481 38.954C139.509 38.7113 139.527 38.3613 139.537 37.904C139.649 37.988 139.784 38.072 139.943 38.156C140.111 38.2307 140.283 38.3007 140.461 38.366C140.647 38.422 140.811 38.4733 140.951 38.52C140.904 39.1547 140.82 39.6493 140.699 40.004C140.587 40.3587 140.423 40.606 140.209 40.746C140.003 40.8953 139.733 40.97 139.397 40.97C139.331 40.97 139.247 40.97 139.145 40.97C139.051 40.97 138.953 40.97 138.851 40.97C138.748 40.97 138.65 40.97 138.557 40.97C138.463 40.97 138.384 40.97 138.319 40.97C137.889 40.97 137.563 40.9093 137.339 40.788C137.115 40.6667 136.961 40.466 136.877 40.186C136.793 39.9153 136.751 39.5467 136.751 39.08V35.692ZM134.259 36.098H135.911C135.855 36.7047 135.761 37.2647 135.631 37.778C135.509 38.282 135.309 38.744 135.029 39.164C134.749 39.584 134.361 39.9573 133.867 40.284C133.381 40.6107 132.756 40.8907 131.991 41.124C131.935 40.984 131.855 40.8253 131.753 40.648C131.65 40.48 131.538 40.312 131.417 40.144C131.295 39.9853 131.179 39.85 131.067 39.738C131.72 39.5793 132.252 39.3833 132.663 39.15C133.073 38.9073 133.386 38.6367 133.601 38.338C133.815 38.03 133.969 37.694 134.063 37.33C134.156 36.9567 134.221 36.546 134.259 36.098ZM129.443 29.238H131.053V37.456L129.443 37.708V29.238Z" fill="#595959"/>
<path d="M146.439 33.536H155.315V34.95H146.439V33.536ZM147.965 35.608H153.719V36.938H147.965V35.608ZM148.497 34.054L149.939 34.418C149.593 35.2207 149.122 35.9627 148.525 36.644C147.937 37.316 147.311 37.8713 146.649 38.31C146.565 38.2167 146.453 38.1047 146.313 37.974C146.182 37.834 146.042 37.7033 145.893 37.582C145.753 37.4607 145.627 37.3627 145.515 37.288C146.168 36.9333 146.756 36.476 147.279 35.916C147.811 35.3467 148.217 34.726 148.497 34.054ZM153.467 35.608H155.021C155.021 35.608 155.016 35.6827 155.007 35.832C155.007 35.972 154.997 36.0933 154.979 36.196C154.923 37.1013 154.853 37.848 154.769 38.436C154.694 39.0147 154.61 39.4627 154.517 39.78C154.423 40.1067 154.311 40.34 154.181 40.48C154.05 40.6387 153.905 40.7507 153.747 40.816C153.597 40.8813 153.429 40.928 153.243 40.956C153.084 40.9747 152.879 40.9887 152.627 40.998C152.384 41.0073 152.118 41.0027 151.829 40.984C151.819 40.788 151.782 40.5593 151.717 40.298C151.651 40.046 151.563 39.836 151.451 39.668C151.675 39.6867 151.875 39.7007 152.053 39.71C152.23 39.71 152.365 39.71 152.459 39.71C152.552 39.71 152.627 39.7007 152.683 39.682C152.748 39.6633 152.809 39.6213 152.865 39.556C152.949 39.4627 153.023 39.2853 153.089 39.024C153.163 38.7533 153.229 38.3613 153.285 37.848C153.35 37.3347 153.411 36.6673 153.467 35.846V35.608ZM149.169 31.17V31.842H152.781V31.17H149.169ZM149.169 29.406V30.064H152.781V29.406H149.169ZM147.671 28.244H154.335V33.004H147.671V28.244ZM142.351 30.834H146.621V32.416H142.351V30.834ZM143.765 28.062H145.333V36.77H143.765V28.062ZM142.029 37.05C142.393 36.9193 142.813 36.756 143.289 36.56C143.774 36.364 144.287 36.154 144.829 35.93C145.37 35.6967 145.907 35.4633 146.439 35.23L146.803 36.672C146.103 37.036 145.389 37.4 144.661 37.764C143.933 38.128 143.265 38.4593 142.659 38.758L142.029 37.05ZM151.857 35.888L152.991 36.504C152.823 37.064 152.585 37.638 152.277 38.226C151.969 38.8047 151.623 39.346 151.241 39.85C150.858 40.354 150.457 40.7693 150.037 41.096C149.897 40.9373 149.715 40.7693 149.491 40.592C149.267 40.4147 149.047 40.27 148.833 40.158C149.29 39.8687 149.715 39.4953 150.107 39.038C150.499 38.5807 150.844 38.0767 151.143 37.526C151.451 36.9753 151.689 36.4293 151.857 35.888ZM149.743 35.902L150.835 36.546C150.601 37.0313 150.293 37.5213 149.911 38.016C149.537 38.5107 149.127 38.9727 148.679 39.402C148.231 39.8313 147.783 40.186 147.335 40.466C147.204 40.298 147.036 40.1207 146.831 39.934C146.635 39.7473 146.439 39.5933 146.243 39.472C146.7 39.2387 147.153 38.9307 147.601 38.548C148.058 38.1653 148.473 37.7453 148.847 37.288C149.22 36.8213 149.519 36.3593 149.743 35.902Z" fill="#595959"/>
<path d="M162.553 29.994C162.982 30.05 163.463 30.092 163.995 30.12C164.536 30.1387 165.082 30.148 165.633 30.148C166.193 30.1387 166.729 30.12 167.243 30.092C167.756 30.0547 168.199 30.0173 168.573 29.98V31.786C168.143 31.8233 167.672 31.856 167.159 31.884C166.645 31.9027 166.118 31.912 165.577 31.912C165.035 31.912 164.503 31.9027 163.981 31.884C163.467 31.856 162.991 31.8233 162.553 31.786V29.994ZM163.673 35.972C163.617 36.2053 163.575 36.4153 163.547 36.602C163.519 36.7793 163.505 36.9613 163.505 37.148C163.505 37.2973 163.542 37.4373 163.617 37.568C163.691 37.6893 163.803 37.7967 163.953 37.89C164.111 37.974 164.312 38.0393 164.555 38.086C164.807 38.1233 165.11 38.142 165.465 38.142C166.09 38.142 166.678 38.114 167.229 38.058C167.779 37.9927 168.363 37.8993 168.979 37.778L169.007 39.668C168.559 39.752 168.041 39.8173 167.453 39.864C166.874 39.9107 166.188 39.934 165.395 39.934C164.191 39.934 163.295 39.7333 162.707 39.332C162.119 38.9213 161.825 38.3567 161.825 37.638C161.825 37.3673 161.843 37.0873 161.881 36.798C161.927 36.4993 161.988 36.1727 162.063 35.818L163.673 35.972ZM160.397 29.056C160.359 29.1493 160.317 29.28 160.271 29.448C160.224 29.616 160.177 29.7793 160.131 29.938C160.093 30.0967 160.065 30.218 160.047 30.302C160.019 30.498 159.972 30.7547 159.907 31.072C159.851 31.38 159.79 31.73 159.725 32.122C159.669 32.5047 159.613 32.8967 159.557 33.298C159.501 33.6993 159.454 34.0867 159.417 34.46C159.389 34.8333 159.375 35.16 159.375 35.44C159.375 35.5707 159.375 35.72 159.375 35.888C159.384 36.056 159.403 36.21 159.431 36.35C159.496 36.1913 159.566 36.0327 159.641 35.874C159.715 35.7153 159.79 35.5567 159.865 35.398C159.939 35.23 160.005 35.0713 160.061 34.922L160.929 35.608C160.798 35.9907 160.663 36.4013 160.523 36.84C160.392 37.2787 160.271 37.694 160.159 38.086C160.056 38.4687 159.977 38.786 159.921 39.038C159.902 39.1407 159.883 39.2573 159.865 39.388C159.855 39.5187 159.851 39.6213 159.851 39.696C159.851 39.7707 159.851 39.8593 159.851 39.962C159.86 40.074 159.869 40.1767 159.879 40.27L158.255 40.382C158.115 39.8967 157.989 39.2527 157.877 38.45C157.765 37.638 157.709 36.756 157.709 35.804C157.709 35.2813 157.732 34.7493 157.779 34.208C157.825 33.6667 157.881 33.1487 157.947 32.654C158.012 32.15 158.073 31.6927 158.129 31.282C158.194 30.8713 158.25 30.5307 158.297 30.26C158.315 30.064 158.339 29.8447 158.367 29.602C158.404 29.35 158.427 29.112 158.437 28.888L160.397 29.056Z" fill="#595959"/>
<path d="M178.821 28.552C178.802 28.6827 178.783 28.846 178.765 29.042C178.746 29.2287 178.732 29.4247 178.723 29.63C178.713 29.826 178.704 30.0127 178.695 30.19C178.685 30.526 178.681 30.89 178.681 31.282C178.69 31.674 178.695 32.0707 178.695 32.472C178.695 32.864 178.704 33.326 178.723 33.858C178.751 34.3807 178.783 34.922 178.821 35.482C178.858 36.042 178.886 36.5647 178.905 37.05C178.933 37.526 178.947 37.9133 178.947 38.212C178.947 38.52 178.9 38.8187 178.807 39.108C178.713 39.3973 178.555 39.654 178.331 39.878C178.107 40.1113 177.803 40.2933 177.421 40.424C177.038 40.564 176.553 40.634 175.965 40.634C175.302 40.634 174.691 40.55 174.131 40.382C173.58 40.2233 173.141 39.9573 172.815 39.584C172.488 39.2107 172.325 38.7067 172.325 38.072C172.325 37.5867 172.465 37.148 172.745 36.756C173.025 36.3547 173.445 36.0373 174.005 35.804C174.574 35.5707 175.288 35.454 176.147 35.454C176.875 35.454 177.579 35.538 178.261 35.706C178.951 35.874 179.595 36.0933 180.193 36.364C180.799 36.6253 181.345 36.924 181.831 37.26C182.325 37.5867 182.75 37.918 183.105 38.254L182.027 39.92C181.681 39.5747 181.285 39.2293 180.837 38.884C180.398 38.5387 179.917 38.226 179.395 37.946C178.872 37.666 178.312 37.442 177.715 37.274C177.127 37.0967 176.515 37.008 175.881 37.008C175.339 37.008 174.91 37.0967 174.593 37.274C174.285 37.442 174.131 37.68 174.131 37.988C174.131 38.3333 174.289 38.576 174.607 38.716C174.924 38.856 175.33 38.926 175.825 38.926C176.263 38.926 176.576 38.8233 176.763 38.618C176.949 38.4033 177.043 38.0627 177.043 37.596C177.043 37.3533 177.033 37.0173 177.015 36.588C176.996 36.1493 176.977 35.678 176.959 35.174C176.94 34.6607 176.921 34.166 176.903 33.69C176.884 33.214 176.875 32.808 176.875 32.472C176.875 32.192 176.875 31.9167 176.875 31.646C176.875 31.3753 176.875 31.114 176.875 30.862C176.875 30.61 176.87 30.386 176.861 30.19C176.851 29.9567 176.837 29.7373 176.819 29.532C176.809 29.3267 176.795 29.14 176.777 28.972C176.767 28.804 176.744 28.664 176.707 28.552H178.821ZM177.743 31.226C177.948 31.226 178.242 31.226 178.625 31.226C179.007 31.2167 179.427 31.2027 179.885 31.184C180.351 31.1653 180.818 31.142 181.285 31.114C181.761 31.0767 182.199 31.0393 182.601 31.002L182.657 32.668C182.265 32.7053 181.831 32.738 181.355 32.766C180.879 32.794 180.407 32.8173 179.941 32.836C179.474 32.8453 179.045 32.8547 178.653 32.864C178.27 32.8733 177.971 32.878 177.757 32.878L177.743 31.226Z" fill="#595959"/>
<path d="M186.979 33.858C187.193 33.8113 187.441 33.7553 187.721 33.69C188.001 33.6153 188.248 33.5453 188.463 33.48C188.696 33.4053 189.009 33.3073 189.401 33.186C189.793 33.0647 190.222 32.9433 190.689 32.822C191.165 32.7007 191.641 32.598 192.117 32.514C192.602 32.43 193.059 32.388 193.489 32.388C194.226 32.388 194.87 32.528 195.421 32.808C195.981 33.0787 196.415 33.4707 196.723 33.984C197.031 34.4973 197.185 35.1087 197.185 35.818C197.185 36.4527 197.045 37.0313 196.765 37.554C196.494 38.0767 196.079 38.534 195.519 38.926C194.959 39.318 194.259 39.6353 193.419 39.878C192.588 40.13 191.617 40.2887 190.507 40.354L189.765 38.632C190.567 38.6133 191.305 38.5433 191.977 38.422C192.658 38.3007 193.246 38.128 193.741 37.904C194.245 37.6707 194.632 37.3767 194.903 37.022C195.183 36.6673 195.323 36.2567 195.323 35.79C195.323 35.4353 195.239 35.1273 195.071 34.866C194.912 34.5953 194.683 34.3853 194.385 34.236C194.086 34.0867 193.731 34.012 193.321 34.012C192.994 34.012 192.63 34.054 192.229 34.138C191.827 34.222 191.412 34.3293 190.983 34.46C190.563 34.5907 190.147 34.7307 189.737 34.88C189.326 35.0293 188.943 35.174 188.589 35.314C188.234 35.454 187.94 35.5753 187.707 35.678L186.979 33.858Z" fill="#595959"/>
<path d="M199.833 30.148C200.113 30.1387 200.379 30.1293 200.631 30.12C200.883 30.1013 201.079 30.0873 201.219 30.078C201.509 30.05 201.863 30.0173 202.283 29.98C202.703 29.9427 203.175 29.9007 203.697 29.854C204.229 29.8073 204.794 29.7607 205.391 29.714C205.989 29.658 206.609 29.602 207.253 29.546C207.739 29.5087 208.224 29.476 208.709 29.448C209.195 29.4107 209.652 29.3827 210.081 29.364C210.52 29.336 210.898 29.3173 211.215 29.308L211.229 31.1C210.977 31.1 210.688 31.1047 210.361 31.114C210.035 31.1233 209.708 31.142 209.381 31.17C209.064 31.1887 208.779 31.226 208.527 31.282C208.107 31.394 207.715 31.5853 207.351 31.856C206.997 32.1173 206.684 32.43 206.413 32.794C206.143 33.158 205.933 33.55 205.783 33.97C205.643 34.3807 205.573 34.796 205.573 35.216C205.573 35.6733 205.653 36.0793 205.811 36.434C205.97 36.7793 206.189 37.078 206.469 37.33C206.759 37.5727 207.095 37.778 207.477 37.946C207.86 38.1047 208.271 38.226 208.709 38.31C209.157 38.394 209.619 38.45 210.095 38.478L209.437 40.396C208.849 40.3587 208.275 40.2653 207.715 40.116C207.165 39.9667 206.647 39.7613 206.161 39.5C205.685 39.2387 205.265 38.9213 204.901 38.548C204.537 38.1653 204.253 37.7313 204.047 37.246C203.842 36.7513 203.739 36.2007 203.739 35.594C203.739 34.9127 203.847 34.292 204.061 33.732C204.276 33.172 204.542 32.682 204.859 32.262C205.177 31.8327 205.494 31.5013 205.811 31.268C205.55 31.296 205.233 31.3333 204.859 31.38C204.495 31.4173 204.099 31.464 203.669 31.52C203.249 31.5667 202.82 31.618 202.381 31.674C201.943 31.73 201.518 31.7953 201.107 31.87C200.706 31.9353 200.342 32.0007 200.015 32.066L199.833 30.148Z" fill="#595959"/>
<path d="M66.2134 54.266H75.1314V55.778H66.2134V54.266ZM68.0334 58.13V59.516H73.1434V58.13H68.0334ZM66.5074 56.772H74.7674V60.888H66.5074V56.772ZM67.8234 61.042C68.2527 61.7047 68.822 62.2787 69.5314 62.764C70.2407 63.24 71.0854 63.6227 72.0654 63.912C73.0454 64.2013 74.142 64.402 75.3554 64.514C75.234 64.6353 75.108 64.7847 74.9774 64.962C74.856 65.1393 74.7394 65.3213 74.6274 65.508C74.5247 65.6947 74.436 65.8627 74.3614 66.012C73.1014 65.844 71.9674 65.5687 70.9594 65.186C69.9607 64.8127 69.088 64.318 68.3414 63.702C67.604 63.0767 66.974 62.3253 66.4514 61.448L67.8234 61.042ZM69.7414 52.978H71.4074V59.362C71.4074 59.9313 71.37 60.4913 71.2954 61.042C71.2207 61.5833 71.0854 62.106 70.8894 62.61C70.7027 63.1047 70.432 63.5667 70.0774 63.996C69.7227 64.4253 69.2654 64.8127 68.7054 65.158C68.1454 65.5033 67.464 65.7927 66.6614 66.026C66.6054 65.9047 66.512 65.7553 66.3814 65.578C66.26 65.41 66.134 65.2373 66.0034 65.06C65.8727 64.892 65.7467 64.752 65.6254 64.64C66.3814 64.472 67.0067 64.2573 67.5014 63.996C68.0054 63.7253 68.4067 63.4173 68.7054 63.072C69.004 62.7267 69.228 62.358 69.3774 61.966C69.5267 61.5647 69.6247 61.1447 69.6714 60.706C69.718 60.2673 69.7414 59.8147 69.7414 59.348V52.978ZM65.1494 52.852L66.7034 53.356C66.386 54.1493 66.008 54.9427 65.5694 55.736C65.14 56.52 64.6734 57.2667 64.1694 57.976C63.6747 58.676 63.1614 59.292 62.6294 59.824C62.5827 59.684 62.508 59.5067 62.4054 59.292C62.3027 59.0773 62.1907 58.858 62.0694 58.634C61.948 58.41 61.8407 58.2327 61.7474 58.102C62.1954 57.6727 62.6294 57.178 63.0494 56.618C63.4787 56.058 63.8707 55.456 64.2254 54.812C64.58 54.168 64.888 53.5147 65.1494 52.852ZM63.7774 56.744L65.3734 55.148V55.162V66.068H63.7774V56.744Z" fill="#595959"/>
<path d="M78.1274 58.858C78.342 58.8113 78.5894 58.7553 78.8694 58.69C79.1494 58.6153 79.3967 58.5453 79.6114 58.48C79.8447 58.4053 80.1574 58.3073 80.5494 58.186C80.9414 58.0647 81.3707 57.9433 81.8374 57.822C82.3134 57.7007 82.7894 57.598 83.2654 57.514C83.7507 57.43 84.208 57.388 84.6374 57.388C85.3747 57.388 86.0187 57.528 86.5694 57.808C87.1294 58.0787 87.5634 58.4707 87.8714 58.984C88.1794 59.4973 88.3334 60.1087 88.3334 60.818C88.3334 61.4527 88.1934 62.0313 87.9134 62.554C87.6427 63.0767 87.2274 63.534 86.6674 63.926C86.1074 64.318 85.4074 64.6353 84.5674 64.878C83.7367 65.13 82.766 65.2887 81.6554 65.354L80.9134 63.632C81.716 63.6133 82.4534 63.5433 83.1254 63.422C83.8067 63.3007 84.3947 63.128 84.8894 62.904C85.3934 62.6707 85.7807 62.3767 86.0514 62.022C86.3314 61.6673 86.4714 61.2567 86.4714 60.79C86.4714 60.4353 86.3874 60.1273 86.2194 59.866C86.0607 59.5953 85.832 59.3853 85.5334 59.236C85.2347 59.0867 84.88 59.012 84.4694 59.012C84.1427 59.012 83.7787 59.054 83.3774 59.138C82.976 59.222 82.5607 59.3293 82.1314 59.46C81.7114 59.5907 81.296 59.7307 80.8854 59.88C80.4747 60.0293 80.092 60.174 79.7374 60.314C79.3827 60.454 79.0887 60.5753 78.8554 60.678L78.1274 58.858Z" fill="#595959"/>
<path d="M90.9821 55.148C91.2621 55.1387 91.5281 55.1293 91.7801 55.12C92.0321 55.1013 92.2281 55.0873 92.3681 55.078C92.6574 55.05 93.0121 55.0173 93.4321 54.98C93.8521 54.9427 94.3234 54.9007 94.8461 54.854C95.3781 54.8073 95.9428 54.7607 96.5401 54.714C97.1374 54.658 97.7581 54.602 98.4021 54.546C98.8874 54.5087 99.3728 54.476 99.8581 54.448C100.343 54.4107 100.801 54.3827 101.23 54.364C101.669 54.336 102.047 54.3173 102.364 54.308L102.378 56.1C102.126 56.1 101.837 56.1047 101.51 56.114C101.183 56.1233 100.857 56.142 100.53 56.17C100.213 56.1887 99.9281 56.226 99.6761 56.282C99.2561 56.394 98.8641 56.5853 98.5001 56.856C98.1454 57.1173 97.8328 57.43 97.5621 57.794C97.2914 58.158 97.0814 58.55 96.9321 58.97C96.7921 59.3807 96.7221 59.796 96.7221 60.216C96.7221 60.6733 96.8014 61.0793 96.9601 61.434C97.1188 61.7793 97.3381 62.078 97.6181 62.33C97.9074 62.5727 98.2434 62.778 98.6261 62.946C99.0088 63.1047 99.4194 63.226 99.8581 63.31C100.306 63.394 100.768 63.45 101.244 63.478L100.586 65.396C99.9981 65.3587 99.4241 65.2653 98.8641 65.116C98.3134 64.9667 97.7954 64.7613 97.3101 64.5C96.8341 64.2387 96.4141 63.9213 96.0501 63.548C95.6861 63.1653 95.4014 62.7313 95.1961 62.246C94.9908 61.7513 94.8881 61.2007 94.8881 60.594C94.8881 59.9127 94.9954 59.292 95.2101 58.732C95.4248 58.172 95.6908 57.682 96.0081 57.262C96.3254 56.8327 96.6428 56.5013 96.9601 56.268C96.6988 56.296 96.3814 56.3333 96.0081 56.38C95.6441 56.4173 95.2474 56.464 94.8181 56.52C94.3981 56.5667 93.9688 56.618 93.5301 56.674C93.0914 56.73 92.6668 56.7953 92.2561 56.87C91.8548 56.9353 91.4908 57.0007 91.1641 57.066L90.9821 55.148Z" fill="#595959"/>
<path d="M108.188 54.77C108.151 54.938 108.118 55.1293 108.09 55.344C108.071 55.5587 108.053 55.7687 108.034 55.974C108.025 56.1793 108.02 56.3473 108.02 56.478C108.011 56.786 108.006 57.1033 108.006 57.43C108.015 57.7567 108.025 58.0927 108.034 58.438C108.053 58.774 108.076 59.11 108.104 59.446C108.169 60.118 108.263 60.7107 108.384 61.224C108.505 61.7373 108.664 62.1387 108.86 62.428C109.056 62.708 109.303 62.848 109.602 62.848C109.761 62.848 109.915 62.7593 110.064 62.582C110.223 62.4047 110.363 62.176 110.484 61.896C110.615 61.6067 110.727 61.3033 110.82 60.986C110.923 60.6687 111.011 60.37 111.086 60.09L112.486 61.798C112.178 62.61 111.87 63.2587 111.562 63.744C111.263 64.22 110.951 64.5653 110.624 64.78C110.297 64.9853 109.943 65.088 109.56 65.088C109.056 65.088 108.575 64.92 108.118 64.584C107.67 64.248 107.287 63.7067 106.97 62.96C106.653 62.204 106.429 61.2007 106.298 59.95C106.251 59.5207 106.214 59.068 106.186 58.592C106.167 58.116 106.153 57.6633 106.144 57.234C106.144 56.8047 106.144 56.45 106.144 56.17C106.144 55.974 106.135 55.7407 106.116 55.47C106.097 55.1993 106.069 54.9567 106.032 54.742L108.188 54.77ZM115.188 55.092C115.449 55.4093 115.701 55.7967 115.944 56.254C116.187 56.7113 116.411 57.2013 116.616 57.724C116.821 58.2467 117.003 58.7833 117.162 59.334C117.321 59.8753 117.447 60.4073 117.54 60.93C117.643 61.4433 117.708 61.9147 117.736 62.344L115.888 63.058C115.841 62.4887 115.757 61.868 115.636 61.196C115.515 60.524 115.351 59.8473 115.146 59.166C114.941 58.4847 114.693 57.8407 114.404 57.234C114.124 56.6273 113.793 56.1047 113.41 55.666L115.188 55.092Z" fill="#595959"/>
<path d="M122.188 54.112C122.384 54.14 122.594 54.1587 122.818 54.168C123.042 54.1773 123.257 54.182 123.462 54.182C123.611 54.182 123.835 54.182 124.134 54.182C124.433 54.1727 124.769 54.1633 125.142 54.154C125.525 54.1447 125.903 54.1353 126.276 54.126C126.649 54.1167 126.985 54.1073 127.284 54.098C127.592 54.0793 127.83 54.0653 127.998 54.056C128.287 54.028 128.516 54.0047 128.684 53.986C128.852 53.958 128.978 53.93 129.062 53.902L129.972 55.148C129.813 55.2507 129.65 55.3533 129.482 55.456C129.314 55.5587 129.151 55.6707 128.992 55.792C128.805 55.9227 128.581 56.0953 128.32 56.31C128.059 56.5153 127.779 56.7347 127.48 56.968C127.191 57.2013 126.906 57.43 126.626 57.654C126.355 57.878 126.108 58.0787 125.884 58.256C126.117 58.2 126.341 58.1627 126.556 58.144C126.771 58.116 126.99 58.102 127.214 58.102C128.007 58.102 128.717 58.256 129.342 58.564C129.977 58.872 130.476 59.292 130.84 59.824C131.213 60.3467 131.4 60.9487 131.4 61.63C131.4 62.3673 131.213 63.0347 130.84 63.632C130.467 64.2293 129.902 64.7053 129.146 65.06C128.399 65.4147 127.461 65.592 126.332 65.592C125.688 65.592 125.105 65.4987 124.582 65.312C124.069 65.1253 123.663 64.8593 123.364 64.514C123.065 64.1687 122.916 63.7627 122.916 63.296C122.916 62.9133 123.019 62.5587 123.224 62.232C123.439 61.896 123.733 61.6253 124.106 61.42C124.489 61.2147 124.927 61.112 125.422 61.112C126.066 61.112 126.607 61.2427 127.046 61.504C127.494 61.756 127.835 62.0967 128.068 62.526C128.311 62.9553 128.437 63.4267 128.446 63.94L126.808 64.164C126.799 63.6507 126.668 63.24 126.416 62.932C126.173 62.6147 125.847 62.456 125.436 62.456C125.175 62.456 124.965 62.526 124.806 62.666C124.647 62.7967 124.568 62.9507 124.568 63.128C124.568 63.3893 124.699 63.5993 124.96 63.758C125.221 63.9167 125.562 63.996 125.982 63.996C126.775 63.996 127.438 63.9027 127.97 63.716C128.502 63.52 128.899 63.2447 129.16 62.89C129.431 62.526 129.566 62.0967 129.566 61.602C129.566 61.182 129.435 60.8133 129.174 60.496C128.922 60.1787 128.577 59.9313 128.138 59.754C127.699 59.5767 127.205 59.488 126.654 59.488C126.113 59.488 125.618 59.558 125.17 59.698C124.722 59.8287 124.297 60.02 123.896 60.272C123.504 60.5147 123.117 60.8133 122.734 61.168C122.361 61.5133 121.987 61.9007 121.614 62.33L120.34 61.014C120.592 60.8087 120.877 60.58 121.194 60.328C121.511 60.0667 121.833 59.796 122.16 59.516C122.496 59.236 122.809 58.9747 123.098 58.732C123.397 58.48 123.649 58.27 123.854 58.102C124.05 57.9433 124.279 57.7567 124.54 57.542C124.801 57.3273 125.072 57.108 125.352 56.884C125.632 56.6507 125.898 56.4313 126.15 56.226C126.402 56.0113 126.612 55.8293 126.78 55.68C126.64 55.68 126.458 55.6847 126.234 55.694C126.01 55.7033 125.763 55.7127 125.492 55.722C125.231 55.7313 124.965 55.7407 124.694 55.75C124.433 55.7593 124.185 55.7733 123.952 55.792C123.728 55.8013 123.541 55.8107 123.392 55.82C123.205 55.8293 123.009 55.8433 122.804 55.862C122.599 55.8807 122.412 55.904 122.244 55.932L122.188 54.112Z" fill="#595959"/>
<path d="M140.017 53.874C140.11 54.042 140.222 54.2893 140.353 54.616C140.493 54.9333 140.633 55.2833 140.773 55.666C140.922 56.0393 141.062 56.4033 141.193 56.758C141.323 57.1033 141.421 57.3927 141.487 57.626L139.723 58.242C139.667 58.018 139.573 57.738 139.443 57.402C139.321 57.0567 139.191 56.702 139.051 56.338C138.911 55.9647 138.771 55.61 138.631 55.274C138.491 54.938 138.369 54.6627 138.267 54.448L140.017 53.874ZM146.415 54.994C146.331 55.162 146.256 55.344 146.191 55.54C146.135 55.736 146.088 55.918 146.051 56.086C145.92 56.59 145.743 57.1547 145.519 57.78C145.304 58.4053 145.043 59.0307 144.735 59.656C144.436 60.272 144.091 60.8367 143.699 61.35C143.213 61.994 142.667 62.582 142.061 63.114C141.463 63.6367 140.838 64.094 140.185 64.486C139.531 64.878 138.869 65.2 138.197 65.452L136.629 63.884C137.273 63.6973 137.926 63.436 138.589 63.1C139.261 62.764 139.905 62.358 140.521 61.882C141.146 61.406 141.692 60.8693 142.159 60.272C142.513 59.824 142.835 59.278 143.125 58.634C143.423 57.99 143.675 57.304 143.881 56.576C144.095 55.8387 144.24 55.1107 144.315 54.392L146.415 54.994ZM136.125 54.742C136.227 54.9567 136.353 55.2367 136.503 55.582C136.661 55.9273 136.82 56.2913 136.979 56.674C137.137 57.0567 137.282 57.4253 137.413 57.78C137.553 58.1253 137.665 58.4193 137.749 58.662L135.943 59.32C135.887 59.1333 135.807 58.9047 135.705 58.634C135.611 58.3633 135.499 58.0693 135.369 57.752C135.247 57.4347 135.121 57.122 134.991 56.814C134.86 56.506 134.739 56.226 134.627 55.974C134.515 55.722 134.417 55.5167 134.333 55.358L136.125 54.742Z" fill="#595959"/>
<path d="M149.243 58.298C149.411 58.3073 149.625 58.3213 149.887 58.34C150.148 58.3493 150.419 58.3587 150.699 58.368C150.988 58.3773 151.254 58.382 151.497 58.382C151.73 58.382 152.019 58.382 152.365 58.382C152.71 58.382 153.083 58.382 153.485 58.382C153.895 58.382 154.315 58.382 154.745 58.382C155.183 58.382 155.617 58.382 156.047 58.382C156.476 58.382 156.882 58.382 157.265 58.382C157.647 58.382 157.988 58.382 158.287 58.382C158.595 58.382 158.837 58.382 159.015 58.382C159.341 58.382 159.649 58.3727 159.939 58.354C160.228 58.326 160.466 58.3073 160.653 58.298V60.496C160.494 60.4867 160.256 60.4727 159.939 60.454C159.621 60.4353 159.313 60.426 159.015 60.426C158.837 60.426 158.595 60.426 158.287 60.426C157.979 60.426 157.633 60.426 157.251 60.426C156.868 60.426 156.462 60.426 156.033 60.426C155.613 60.426 155.183 60.426 154.745 60.426C154.306 60.426 153.881 60.426 153.471 60.426C153.069 60.426 152.696 60.426 152.351 60.426C152.015 60.426 151.73 60.426 151.497 60.426C151.095 60.426 150.685 60.4353 150.265 60.454C149.845 60.4633 149.504 60.4773 149.243 60.496V58.298Z" fill="#595959"/>
<path d="M169.557 64.472C169.585 64.332 169.608 64.1733 169.627 63.996C169.655 63.8093 169.669 63.6227 169.669 63.436C169.669 63.3333 169.669 63.128 169.669 62.82C169.669 62.512 169.669 62.1387 169.669 61.7C169.669 61.2613 169.669 60.79 169.669 60.286C169.669 59.7727 169.669 59.2547 169.669 58.732C169.669 58.2093 169.669 57.7193 169.669 57.262C169.669 56.7953 169.669 56.3893 169.669 56.044C169.669 55.6893 169.669 55.4327 169.669 55.274C169.669 54.9567 169.65 54.6813 169.613 54.448C169.585 54.2147 169.566 54.0887 169.557 54.07H171.643C171.633 54.0887 171.615 54.2193 171.587 54.462C171.559 54.6953 171.545 54.9707 171.545 55.288C171.545 55.4467 171.545 55.6847 171.545 56.002C171.545 56.31 171.545 56.6693 171.545 57.08C171.545 57.4813 171.545 57.9107 171.545 58.368C171.545 58.8253 171.545 59.278 171.545 59.726C171.545 60.1647 171.545 60.5847 171.545 60.986C171.545 61.378 171.545 61.714 171.545 61.994C171.545 62.274 171.545 62.4793 171.545 62.61C171.927 62.442 172.324 62.2133 172.735 61.924C173.145 61.6347 173.547 61.2987 173.939 60.916C174.34 60.524 174.695 60.104 175.003 59.656L176.081 61.196C175.698 61.7 175.231 62.1947 174.681 62.68C174.139 63.1653 173.579 63.6087 173.001 64.01C172.422 64.4113 171.867 64.7473 171.335 65.018C171.185 65.102 171.064 65.1767 170.971 65.242C170.877 65.3167 170.798 65.382 170.733 65.438L169.557 64.472ZM163.075 64.262C163.691 63.8327 164.195 63.3147 164.587 62.708C164.979 62.1013 165.268 61.504 165.455 60.916C165.557 60.608 165.632 60.23 165.679 59.782C165.735 59.3247 165.777 58.8393 165.805 58.326C165.833 57.8033 165.847 57.29 165.847 56.786C165.856 56.2727 165.861 55.8013 165.861 55.372C165.861 55.092 165.847 54.854 165.819 54.658C165.8 54.4527 165.772 54.2613 165.735 54.084H167.793C167.783 54.1027 167.769 54.182 167.751 54.322C167.741 54.4527 167.727 54.6113 167.709 54.798C167.699 54.9753 167.695 55.162 167.695 55.358C167.695 55.7687 167.69 56.2493 167.681 56.8C167.671 57.3413 167.653 57.8967 167.625 58.466C167.597 59.0353 167.555 59.5767 167.499 60.09C167.443 60.594 167.368 61.0233 167.275 61.378C167.06 62.1713 166.738 62.9087 166.309 63.59C165.889 64.262 165.38 64.864 164.783 65.396L163.075 64.262Z" fill="#595959"/>
<path d="M178.237 55.61C178.535 55.6473 178.853 55.6753 179.189 55.694C179.534 55.7033 179.837 55.708 180.099 55.708C180.677 55.708 181.261 55.6753 181.849 55.61C182.446 55.5447 183.02 55.4607 183.571 55.358C184.121 55.246 184.621 55.12 185.069 54.98L185.125 56.604C184.723 56.7067 184.243 56.814 183.683 56.926C183.132 57.0287 182.549 57.1173 181.933 57.192C181.317 57.2573 180.71 57.29 180.113 57.29C179.833 57.29 179.548 57.2853 179.259 57.276C178.969 57.2667 178.671 57.2527 178.363 57.234L178.237 55.61ZM183.683 53.51C183.627 53.7433 183.552 54.0467 183.459 54.42C183.365 54.7933 183.258 55.1853 183.137 55.596C183.025 56.0067 182.903 56.4127 182.773 56.814C182.567 57.486 182.297 58.2 181.961 58.956C181.625 59.712 181.261 60.4493 180.869 61.168C180.477 61.8867 180.08 62.526 179.679 63.086L177.985 62.218C178.302 61.826 178.615 61.392 178.923 60.916C179.231 60.44 179.52 59.95 179.791 59.446C180.061 58.942 180.304 58.4567 180.519 57.99C180.743 57.514 180.92 57.0847 181.051 56.702C181.228 56.2073 181.382 55.6567 181.513 55.05C181.653 54.434 181.732 53.8553 181.751 53.314L183.683 53.51ZM186.959 57.864C186.94 58.1627 186.931 58.4613 186.931 58.76C186.94 59.0493 186.949 59.348 186.959 59.656C186.968 59.8707 186.977 60.146 186.987 60.482C187.005 60.8087 187.024 61.1587 187.043 61.532C187.061 61.896 187.075 62.246 187.085 62.582C187.103 62.9087 187.113 63.17 187.113 63.366C187.113 63.7953 187.024 64.1873 186.847 64.542C186.669 64.8873 186.385 65.1627 185.993 65.368C185.61 65.5733 185.083 65.676 184.411 65.676C183.832 65.676 183.309 65.5873 182.843 65.41C182.376 65.242 182.003 64.99 181.723 64.654C181.443 64.3087 181.303 63.8793 181.303 63.366C181.303 62.9087 181.424 62.498 181.667 62.134C181.909 61.7607 182.259 61.4713 182.717 61.266C183.183 61.0513 183.743 60.944 184.397 60.944C185.218 60.944 185.974 61.0607 186.665 61.294C187.355 61.518 187.976 61.8073 188.527 62.162C189.077 62.5167 189.549 62.8713 189.941 63.226L189.003 64.724C188.751 64.5 188.461 64.248 188.135 63.968C187.817 63.688 187.458 63.4267 187.057 63.184C186.665 62.9413 186.235 62.7407 185.769 62.582C185.311 62.4233 184.817 62.344 184.285 62.344C183.883 62.344 183.561 62.4233 183.319 62.582C183.076 62.7407 182.955 62.946 182.955 63.198C182.955 63.4593 183.057 63.6693 183.263 63.828C183.477 63.9867 183.776 64.066 184.159 64.066C184.476 64.066 184.728 64.0147 184.915 63.912C185.101 63.8 185.232 63.646 185.307 63.45C185.381 63.2447 185.419 63.016 185.419 62.764C185.419 62.5493 185.409 62.246 185.391 61.854C185.372 61.462 185.349 61.028 185.321 60.552C185.302 60.076 185.283 59.6 185.265 59.124C185.246 58.648 185.227 58.228 185.209 57.864H186.959ZM189.367 58.606C189.096 58.382 188.76 58.144 188.359 57.892C187.957 57.64 187.542 57.402 187.113 57.178C186.693 56.9447 186.324 56.758 186.007 56.618L186.903 55.232C187.155 55.344 187.439 55.484 187.757 55.652C188.083 55.8107 188.41 55.9787 188.737 56.156C189.073 56.3333 189.381 56.5107 189.661 56.688C189.95 56.856 190.183 57.0053 190.361 57.136L189.367 58.606Z" fill="#595959"/>
<path d="M202.471 57.038C202.247 57.1687 202.018 57.2947 201.785 57.416C201.561 57.528 201.323 57.6493 201.071 57.78C200.781 57.92 200.445 58.088 200.063 58.284C199.689 58.4707 199.293 58.6807 198.873 58.914C198.453 59.138 198.028 59.3853 197.599 59.656C197.02 60.0387 196.549 60.4353 196.185 60.846C195.83 61.2567 195.653 61.7093 195.653 62.204C195.653 62.6987 195.895 63.0813 196.381 63.352C196.866 63.6133 197.599 63.744 198.579 63.744C199.055 63.744 199.568 63.7253 200.119 63.688C200.669 63.6413 201.206 63.5807 201.729 63.506C202.261 63.422 202.732 63.3333 203.143 63.24L203.115 65.242C202.723 65.3167 202.293 65.382 201.827 65.438C201.369 65.494 200.875 65.536 200.343 65.564C199.811 65.592 199.237 65.606 198.621 65.606C197.93 65.606 197.286 65.55 196.689 65.438C196.091 65.326 195.569 65.1487 195.121 64.906C194.682 64.6633 194.337 64.3367 194.085 63.926C193.842 63.5153 193.721 63.0067 193.721 62.4C193.721 61.812 193.851 61.2753 194.113 60.79C194.374 60.3047 194.729 59.8567 195.177 59.446C195.625 59.0353 196.124 58.648 196.675 58.284C197.123 57.9947 197.566 57.7287 198.005 57.486C198.453 57.234 198.873 57.0053 199.265 56.8C199.666 56.5853 200.007 56.394 200.287 56.226C200.548 56.0767 200.781 55.9367 200.987 55.806C201.201 55.6753 201.397 55.5353 201.575 55.386L202.471 57.038ZM195.863 53.832C196.087 54.448 196.325 55.0453 196.577 55.624C196.838 56.1933 197.095 56.7253 197.347 57.22C197.608 57.7147 197.846 58.1533 198.061 58.536L196.479 59.474C196.227 59.0447 195.965 58.564 195.695 58.032C195.424 57.5 195.153 56.94 194.883 56.352C194.621 55.7547 194.36 55.1527 194.099 54.546L195.863 53.832ZM202.625 53.622C202.746 53.79 202.877 53.9907 203.017 54.224C203.157 54.4573 203.287 54.6907 203.409 54.924C203.539 55.1573 203.651 55.3627 203.745 55.54L202.611 56.016C202.471 55.7267 202.298 55.4 202.093 55.036C201.897 54.6627 201.705 54.3407 201.519 54.07L202.625 53.622ZM204.291 52.978C204.412 53.1553 204.543 53.3653 204.683 53.608C204.823 53.8413 204.958 54.0747 205.089 54.308C205.229 54.532 205.341 54.728 205.425 54.896L204.305 55.372C204.165 55.0733 203.987 54.742 203.773 54.378C203.567 54.014 203.367 53.7013 203.171 53.44L204.291 52.978Z" fill="#595959"/>
<path d="M212.761 53.566C212.705 53.818 212.658 54.042 212.621 54.238C212.583 54.434 212.551 54.6253 212.523 54.812C212.485 55.008 212.439 55.2927 212.383 55.666C212.336 56.03 212.28 56.4453 212.215 56.912C212.159 57.3693 212.098 57.85 212.033 58.354C211.977 58.8487 211.921 59.334 211.865 59.81C211.809 60.286 211.762 60.72 211.725 61.112C211.697 61.504 211.683 61.8167 211.683 62.05C211.683 62.6287 211.855 63.072 212.201 63.38C212.555 63.6787 213.078 63.828 213.769 63.828C214.422 63.828 214.973 63.7393 215.421 63.562C215.869 63.3753 216.209 63.128 216.443 62.82C216.676 62.512 216.793 62.1667 216.793 61.784C216.793 61.308 216.667 60.846 216.415 60.398C216.172 59.9407 215.817 59.4973 215.351 59.068L217.325 58.648C217.791 59.236 218.132 59.796 218.347 60.328C218.571 60.8507 218.683 61.4107 218.683 62.008C218.683 62.708 218.482 63.3333 218.081 63.884C217.679 64.4347 217.105 64.864 216.359 65.172C215.621 65.48 214.739 65.634 213.713 65.634C212.985 65.634 212.336 65.522 211.767 65.298C211.197 65.074 210.754 64.7193 210.437 64.234C210.119 63.7487 209.961 63.1187 209.961 62.344C209.961 62.0547 209.984 61.672 210.031 61.196C210.077 60.7107 210.133 60.1787 210.199 59.6C210.273 59.012 210.348 58.4193 210.423 57.822C210.497 57.2153 210.563 56.6413 210.619 56.1C210.684 55.5587 210.735 55.092 210.773 54.7C210.791 54.3733 210.801 54.126 210.801 53.958C210.81 53.7807 210.805 53.6127 210.787 53.454L212.761 53.566ZM207.763 55.302C208.183 55.4327 208.64 55.5447 209.135 55.638C209.629 55.722 210.138 55.7873 210.661 55.834C211.183 55.8713 211.678 55.89 212.145 55.89C212.695 55.89 213.209 55.8713 213.685 55.834C214.161 55.7967 214.576 55.75 214.931 55.694L214.875 57.36C214.455 57.3973 214.035 57.43 213.615 57.458C213.195 57.486 212.691 57.5 212.103 57.5C211.627 57.5 211.132 57.4767 210.619 57.43C210.105 57.374 209.597 57.304 209.093 57.22C208.589 57.1267 208.117 57.024 207.679 56.912L207.763 55.302ZM207.469 58.774C207.973 58.942 208.481 59.0727 208.995 59.166C209.517 59.2593 210.031 59.3247 210.535 59.362C211.048 59.39 211.538 59.404 212.005 59.404C212.434 59.404 212.896 59.39 213.391 59.362C213.895 59.334 214.371 59.292 214.819 59.236L214.777 60.902C214.385 60.9393 213.983 60.972 213.573 61C213.162 61.0187 212.737 61.028 212.299 61.028C211.365 61.028 210.469 60.9813 209.611 60.888C208.752 60.7853 208.005 60.6453 207.371 60.468L207.469 58.774Z" fill="#595959"/>
<path d="M224.479 58.34V63.506H222.869V59.894H221.287V58.34H224.479ZM224.479 62.834C224.749 63.3007 225.132 63.646 225.627 63.87C226.121 64.0847 226.723 64.206 227.433 64.234C227.853 64.2527 228.357 64.2667 228.945 64.276C229.542 64.276 230.163 64.2713 230.807 64.262C231.46 64.2527 232.095 64.2387 232.711 64.22C233.336 64.192 233.896 64.1547 234.391 64.108C234.325 64.2293 234.255 64.3927 234.181 64.598C234.115 64.794 234.05 64.9947 233.985 65.2C233.929 65.4053 233.887 65.5873 233.859 65.746C233.429 65.774 232.935 65.7927 232.375 65.802C231.815 65.8113 231.236 65.816 230.639 65.816C230.041 65.8253 229.463 65.8253 228.903 65.816C228.343 65.816 227.848 65.8067 227.419 65.788C226.579 65.7507 225.865 65.6153 225.277 65.382C224.689 65.1487 224.185 64.7613 223.765 64.22C223.494 64.5 223.205 64.7753 222.897 65.046C222.598 65.326 222.271 65.6153 221.917 65.914L221.119 64.248C221.417 64.052 221.73 63.8327 222.057 63.59C222.393 63.3473 222.715 63.0953 223.023 62.834H224.479ZM221.315 54.196L222.631 53.286C222.883 53.4913 223.139 53.7247 223.401 53.986C223.662 54.238 223.905 54.4947 224.129 54.756C224.362 55.0173 224.544 55.26 224.675 55.484L223.261 56.478C223.139 56.254 222.971 56.0113 222.757 55.75C222.551 55.4793 222.318 55.2087 222.057 54.938C221.805 54.658 221.557 54.4107 221.315 54.196ZM224.941 61.952H234.013V63.086H224.941V61.952ZM225.333 60.188H233.635V61.308H225.333V60.188ZM224.857 55.512H234.111V56.646H224.857V55.512ZM229.533 59.46H231.101V63.94H229.533V59.46ZM226.411 60.608H227.923V62.358H226.411V60.608ZM228.133 52.866L229.743 53.062C229.649 53.398 229.547 53.7527 229.435 54.126C229.332 54.4993 229.22 54.8587 229.099 55.204C228.987 55.54 228.884 55.8387 228.791 56.1H227.153C227.265 55.8107 227.377 55.484 227.489 55.12C227.61 54.756 227.727 54.378 227.839 53.986C227.951 53.594 228.049 53.2207 228.133 52.866ZM225.781 53.818H232.557V56.086H230.989V54.91H225.781V53.818ZM227.461 58.046V58.746H231.311V58.046H227.461ZM225.935 57.094H232.935V59.698H225.935V57.094Z" fill="#595959"/>
<path d="M244.905 60.202C244.905 59.894 244.825 59.614 244.667 59.362C244.517 59.11 244.289 58.9093 243.981 58.76C243.682 58.6013 243.309 58.522 242.861 58.522C242.357 58.522 241.867 58.564 241.391 58.648C240.924 58.732 240.504 58.83 240.131 58.942C239.767 59.0447 239.463 59.1333 239.221 59.208C239.015 59.264 238.787 59.3433 238.535 59.446C238.292 59.5393 238.068 59.6233 237.863 59.698L237.331 57.696C237.573 57.6773 237.835 57.6447 238.115 57.598C238.395 57.5513 238.647 57.5047 238.871 57.458C239.216 57.374 239.608 57.2853 240.047 57.192C240.495 57.0893 240.98 57.0007 241.503 56.926C242.025 56.8513 242.557 56.814 243.099 56.814C243.845 56.814 244.499 56.954 245.059 57.234C245.628 57.5047 246.071 57.8967 246.389 58.41C246.706 58.9233 246.865 59.544 246.865 60.272C246.865 61.0187 246.701 61.6953 246.375 62.302C246.048 62.9087 245.586 63.4407 244.989 63.898C244.391 64.346 243.687 64.7193 242.875 65.018C242.063 65.3167 241.171 65.5313 240.201 65.662L239.193 63.926C240.061 63.8233 240.845 63.674 241.545 63.478C242.254 63.282 242.856 63.0347 243.351 62.736C243.855 62.428 244.237 62.0687 244.499 61.658C244.769 61.238 244.905 60.7527 244.905 60.202ZM239.403 53.482C239.804 53.566 240.285 53.6453 240.845 53.72C241.414 53.7947 241.997 53.86 242.595 53.916C243.201 53.972 243.775 54.0187 244.317 54.056C244.867 54.084 245.325 54.1027 245.689 54.112L245.409 55.834C244.998 55.806 244.517 55.7687 243.967 55.722C243.416 55.6753 242.847 55.624 242.259 55.568C241.671 55.5027 241.101 55.4373 240.551 55.372C240.009 55.2973 239.533 55.2273 239.123 55.162L239.403 53.482Z" fill="#595959"/>
<path d="M256.343 53.72C256.296 53.8973 256.249 54.0933 256.203 54.308C256.165 54.5133 256.128 54.7047 256.091 54.882C256.053 55.0873 256.007 55.3207 255.951 55.582C255.895 55.834 255.839 56.0907 255.783 56.352C255.736 56.604 255.685 56.8513 255.629 57.094C255.535 57.4953 255.419 57.962 255.279 58.494C255.139 59.026 254.975 59.6 254.789 60.216C254.602 60.8227 254.392 61.434 254.159 62.05C253.925 62.666 253.678 63.268 253.417 63.856C253.155 64.4347 252.875 64.9573 252.577 65.424L250.757 64.696C251.083 64.2573 251.387 63.7673 251.667 63.226C251.956 62.6753 252.217 62.1107 252.451 61.532C252.684 60.9533 252.889 60.384 253.067 59.824C253.253 59.264 253.412 58.7413 253.543 58.256C253.673 57.7707 253.776 57.3553 253.851 57.01C253.981 56.3753 254.084 55.764 254.159 55.176C254.233 54.588 254.266 54.0327 254.257 53.51L256.343 53.72ZM261.159 55.036C261.383 55.3347 261.611 55.7127 261.845 56.17C262.087 56.618 262.321 57.094 262.545 57.598C262.778 58.102 262.988 58.5873 263.175 59.054C263.371 59.5207 263.52 59.9173 263.623 60.244L261.845 61.07C261.751 60.678 261.621 60.244 261.453 59.768C261.294 59.2827 261.107 58.7927 260.893 58.298C260.687 57.794 260.463 57.318 260.221 56.87C259.987 56.422 259.745 56.0487 259.493 55.75L261.159 55.036ZM250.659 56.59C250.911 56.6087 251.158 56.618 251.401 56.618C251.643 56.6087 251.895 56.5993 252.157 56.59C252.381 56.5807 252.656 56.5667 252.983 56.548C253.319 56.52 253.669 56.492 254.033 56.464C254.406 56.436 254.779 56.408 255.153 56.38C255.526 56.3427 255.871 56.3147 256.189 56.296C256.506 56.2773 256.767 56.268 256.973 56.268C257.467 56.268 257.901 56.352 258.275 56.52C258.657 56.6787 258.956 56.954 259.171 57.346C259.395 57.738 259.507 58.27 259.507 58.942C259.507 59.4927 259.479 60.09 259.423 60.734C259.376 61.378 259.297 61.994 259.185 62.582C259.073 63.17 258.914 63.6693 258.709 64.08C258.485 64.5653 258.177 64.9013 257.785 65.088C257.402 65.2747 256.945 65.368 256.413 65.368C256.142 65.368 255.853 65.3447 255.545 65.298C255.246 65.2607 254.975 65.2187 254.733 65.172L254.425 63.324C254.611 63.3707 254.812 63.4173 255.027 63.464C255.251 63.5107 255.461 63.548 255.657 63.576C255.862 63.604 256.025 63.618 256.147 63.618C256.38 63.618 256.585 63.576 256.763 63.492C256.94 63.3987 257.085 63.24 257.197 63.016C257.327 62.7453 257.43 62.3953 257.505 61.966C257.589 61.5367 257.649 61.0747 257.687 60.58C257.733 60.076 257.757 59.5953 257.757 59.138C257.757 58.7647 257.705 58.4893 257.603 58.312C257.5 58.1347 257.346 58.018 257.141 57.962C256.945 57.8967 256.697 57.864 256.399 57.864C256.193 57.864 255.904 57.8827 255.531 57.92C255.167 57.948 254.779 57.9853 254.369 58.032C253.958 58.0693 253.571 58.1113 253.207 58.158C252.852 58.2047 252.577 58.2373 252.381 58.256C252.185 58.2933 251.928 58.3353 251.611 58.382C251.303 58.4193 251.041 58.4567 250.827 58.494L250.659 56.59Z" fill="#595959"/>
<path d="M269.111 53.51C269.447 53.6127 269.867 53.72 270.371 53.832C270.875 53.944 271.402 54.056 271.953 54.168C272.503 54.2707 273.021 54.3593 273.507 54.434C274.001 54.5087 274.403 54.5647 274.711 54.602L274.291 56.31C274.011 56.2727 273.67 56.2213 273.269 56.156C272.877 56.0813 272.457 56.002 272.009 55.918C271.57 55.834 271.136 55.75 270.707 55.666C270.277 55.5727 269.885 55.484 269.531 55.4C269.176 55.316 268.887 55.246 268.663 55.19L269.111 53.51ZM269.195 56.324C269.148 56.5107 269.097 56.7533 269.041 57.052C268.994 57.3413 268.947 57.6447 268.901 57.962C268.854 58.2793 268.807 58.5827 268.761 58.872C268.723 59.1613 268.691 59.404 268.663 59.6C269.297 59.1427 269.96 58.8067 270.651 58.592C271.351 58.3773 272.065 58.27 272.793 58.27C273.614 58.27 274.314 58.4193 274.893 58.718C275.471 59.0167 275.91 59.4087 276.209 59.894C276.517 60.3793 276.671 60.9067 276.671 61.476C276.671 62.1107 276.535 62.6987 276.265 63.24C275.994 63.7813 275.551 64.2433 274.935 64.626C274.319 65.0087 273.511 65.2793 272.513 65.438C271.514 65.5967 270.287 65.6153 268.831 65.494L268.299 63.66C269.699 63.8467 270.875 63.8747 271.827 63.744C272.779 63.604 273.497 63.3333 273.983 62.932C274.477 62.5213 274.725 62.022 274.725 61.434C274.725 61.126 274.636 60.8553 274.459 60.622C274.281 60.3793 274.034 60.1927 273.717 60.062C273.399 59.922 273.04 59.852 272.639 59.852C271.855 59.852 271.117 59.9967 270.427 60.286C269.745 60.566 269.185 60.972 268.747 61.504C268.625 61.6533 268.523 61.7933 268.439 61.924C268.364 62.0453 268.294 62.176 268.229 62.316L266.619 61.91C266.675 61.6393 266.731 61.322 266.787 60.958C266.843 60.5847 266.899 60.188 266.955 59.768C267.011 59.3387 267.062 58.9093 267.109 58.48C267.155 58.0507 267.197 57.626 267.235 57.206C267.272 56.786 267.3 56.4033 267.319 56.058L269.195 56.324Z" fill="#595959"/>
<path d="M66.7887 79.448H74.4607V80.764H66.7887V79.448ZM67.1527 81.324H74.1667V82.584H67.1527V81.324ZM66.5087 83.186H74.7267V84.558H66.5087V83.186ZM72.1647 77.866L73.8447 78.258C73.6487 78.5753 73.4621 78.8787 73.2847 79.168C73.1074 79.4573 72.9441 79.7047 72.7947 79.91L71.4927 79.532C71.6141 79.2893 71.7354 79.0093 71.8567 78.692C71.9874 78.3747 72.0901 78.0993 72.1647 77.866ZM67.6707 78.356L69.0007 77.908C69.1594 78.1507 69.3134 78.4167 69.4627 78.706C69.6214 78.9953 69.7334 79.2473 69.7987 79.462L68.3987 79.966C68.3427 79.7513 68.2447 79.49 68.1047 79.182C67.9647 78.874 67.8201 78.5987 67.6707 78.356ZM73.3827 84.81L74.6567 85.706C74.3487 86.0327 74.0174 86.3547 73.6627 86.672C73.3174 86.9893 73.0094 87.26 72.7387 87.484L71.6607 86.672C71.8381 86.5133 72.0341 86.3267 72.2487 86.112C72.4634 85.8973 72.6687 85.678 72.8647 85.454C73.0701 85.2207 73.2427 85.006 73.3827 84.81ZM66.7887 85.622L67.9227 84.866C68.1747 85.118 68.4361 85.4073 68.7067 85.734C68.9774 86.0513 69.1827 86.3313 69.3227 86.574L68.1187 87.414C67.9881 87.162 67.7967 86.868 67.5447 86.532C67.2927 86.1867 67.0407 85.8834 66.7887 85.622ZM65.9627 88.772C66.3921 88.5853 66.8961 88.3473 67.4747 88.058C68.0534 87.7687 68.6461 87.4653 69.2527 87.148L69.6867 88.506C69.1921 88.7953 68.6834 89.0893 68.1607 89.388C67.6381 89.6773 67.1527 89.9433 66.7047 90.186L65.9627 88.772ZM69.8127 80.344H71.4367V89.374C71.4367 89.7473 71.3947 90.0413 71.3107 90.256C71.2361 90.48 71.0821 90.6527 70.8487 90.774C70.6154 90.9047 70.3307 90.984 69.9947 91.012C69.6681 91.0493 69.2854 91.068 68.8467 91.068C68.8187 90.844 68.7627 90.5873 68.6787 90.298C68.5947 90.0087 68.5014 89.766 68.3987 89.57C68.6414 89.5793 68.8794 89.5887 69.1127 89.598C69.3554 89.598 69.5141 89.598 69.5887 89.598C69.6821 89.598 69.7427 89.5793 69.7707 89.542C69.7987 89.5047 69.8127 89.444 69.8127 89.36V80.344ZM71.3387 84.81C71.5534 85.4353 71.8287 86.0233 72.1647 86.574C72.5007 87.1247 72.9067 87.61 73.3827 88.03C73.8587 88.45 74.3954 88.7814 74.9927 89.024C74.8807 89.1267 74.7547 89.262 74.6147 89.43C74.4841 89.5887 74.3534 89.752 74.2227 89.92C74.1014 90.088 74.0034 90.242 73.9287 90.382C73.3221 90.0553 72.7807 89.626 72.3047 89.094C71.8381 88.5527 71.4321 87.9414 71.0867 87.26C70.7507 86.5787 70.4707 85.846 70.2467 85.062L71.3387 84.81ZM61.8467 80.792H66.4807V82.346H61.8467V80.792ZM63.5547 77.88H65.0667V91.026H63.5547V77.88ZM63.5267 81.856L64.4507 82.164C64.3574 82.724 64.2361 83.3027 64.0867 83.9C63.9374 84.488 63.7694 85.0714 63.5827 85.65C63.3961 86.2194 63.1907 86.7514 62.9667 87.246C62.7521 87.7407 62.5187 88.1653 62.2667 88.52C62.1921 88.3053 62.0754 88.0533 61.9167 87.764C61.7674 87.4747 61.6321 87.2367 61.5107 87.05C61.7347 86.742 61.9494 86.3827 62.1547 85.972C62.3601 85.5613 62.5514 85.1227 62.7287 84.656C62.9061 84.1893 63.0601 83.718 63.1907 83.242C63.3307 82.7567 63.4427 82.2947 63.5267 81.856ZM64.9967 82.864C65.0714 82.9573 65.1881 83.1253 65.3467 83.368C65.5147 83.6013 65.6921 83.858 65.8787 84.138C66.0654 84.4087 66.2334 84.6653 66.3827 84.908C66.5414 85.1413 66.6487 85.3047 66.7047 85.398L65.8367 86.602C65.7527 86.406 65.6454 86.168 65.5147 85.888C65.3841 85.608 65.2394 85.3187 65.0807 85.02C64.9314 84.7213 64.7867 84.4413 64.6467 84.18C64.5161 83.9187 64.3994 83.704 64.2967 83.536L64.9967 82.864Z" fill="#595959"/>
<path d="M80.8727 81.282H86.6547V82.948H80.8727V81.282ZM80.3547 86.7L81.3907 85.3C81.8574 85.496 82.3474 85.7247 82.8607 85.986C83.3741 86.238 83.8734 86.5087 84.3587 86.798C84.8534 87.0873 85.3107 87.3813 85.7307 87.68C86.1507 87.9787 86.5054 88.2727 86.7947 88.562L85.6327 90.158C85.3714 89.878 85.0401 89.584 84.6387 89.276C84.2374 88.9587 83.7941 88.646 83.3087 88.338C82.8327 88.03 82.3381 87.736 81.8247 87.456C81.3207 87.1667 80.8307 86.9147 80.3547 86.7ZM81.2507 78.594L83.1127 79.014C82.7954 79.966 82.4127 80.9413 81.9647 81.94C81.5167 82.9293 81.0034 83.872 80.4247 84.768C79.8554 85.664 79.2254 86.4433 78.5347 87.106C78.4041 87.0033 78.2407 86.896 78.0447 86.784C77.8581 86.6627 77.6667 86.5507 77.4707 86.448C77.2747 86.336 77.0927 86.2427 76.9247 86.168C77.4474 85.7013 77.9327 85.1647 78.3807 84.558C78.8381 83.9513 79.2487 83.312 79.6127 82.64C79.9767 81.9587 80.2941 81.2727 80.5647 80.582C80.8447 79.8913 81.0734 79.2287 81.2507 78.594ZM85.9547 81.282H86.3607L86.6687 81.212L87.9567 81.898C87.7234 82.5513 87.4247 83.242 87.0607 83.97C86.7061 84.698 86.3141 85.412 85.8847 86.112C85.4647 86.8027 85.0307 87.4327 84.5827 88.002C84.3867 87.8433 84.1394 87.6707 83.8407 87.484C83.5514 87.288 83.2947 87.1293 83.0707 87.008C83.3787 86.6253 83.6774 86.2053 83.9667 85.748C84.2654 85.2907 84.5454 84.824 84.8067 84.348C85.0681 83.8627 85.2967 83.3913 85.4927 82.934C85.6887 82.4767 85.8427 82.066 85.9547 81.702V81.282Z" fill="#595959"/>
<path d="M91.4987 80.61C91.7974 80.6473 92.1147 80.6753 92.4507 80.694C92.7961 80.7033 93.0994 80.708 93.3607 80.708C93.9394 80.708 94.5227 80.6753 95.1107 80.61C95.7081 80.5447 96.2821 80.4607 96.8327 80.358C97.3834 80.246 97.8827 80.12 98.3307 79.98L98.3867 81.604C97.9854 81.7067 97.5047 81.814 96.9447 81.926C96.3941 82.0287 95.8107 82.1173 95.1947 82.192C94.5787 82.2573 93.9721 82.29 93.3747 82.29C93.0947 82.29 92.8101 82.2853 92.5207 82.276C92.2314 82.2667 91.9327 82.2527 91.6247 82.234L91.4987 80.61ZM96.9447 78.51C96.8887 78.7433 96.8141 79.0467 96.7207 79.42C96.6274 79.7933 96.5201 80.1853 96.3988 80.596C96.2868 81.0067 96.1654 81.4127 96.0347 81.814C95.8294 82.486 95.5587 83.2 95.2227 83.956C94.8867 84.712 94.5227 85.4493 94.1307 86.168C93.7387 86.8867 93.3421 87.526 92.9407 88.086L91.2467 87.218C91.5641 86.826 91.8767 86.392 92.1847 85.916C92.4927 85.44 92.7821 84.95 93.0527 84.446C93.3234 83.942 93.5661 83.4567 93.7807 82.99C94.0047 82.514 94.1821 82.0847 94.3127 81.702C94.4901 81.2073 94.6441 80.6567 94.7747 80.05C94.9147 79.434 94.9941 78.8553 95.0127 78.314L96.9447 78.51ZM100.221 82.864C100.202 83.1627 100.193 83.4613 100.193 83.76C100.202 84.0493 100.211 84.348 100.221 84.656C100.23 84.8707 100.239 85.146 100.249 85.482C100.267 85.8087 100.286 86.1587 100.305 86.532C100.323 86.896 100.337 87.246 100.347 87.582C100.365 87.9087 100.375 88.17 100.375 88.366C100.375 88.7953 100.286 89.1873 100.109 89.542C99.9314 89.8873 99.6467 90.1627 99.2547 90.368C98.8721 90.5733 98.3447 90.676 97.6727 90.676C97.0941 90.676 96.5714 90.5873 96.1047 90.41C95.6381 90.242 95.2647 89.99 94.9847 89.654C94.7047 89.3087 94.5647 88.8793 94.5647 88.366C94.5647 87.9087 94.6861 87.498 94.9287 87.134C95.1714 86.7607 95.5214 86.4713 95.9787 86.266C96.4454 86.0513 97.0054 85.944 97.6587 85.944C98.4801 85.944 99.2361 86.0607 99.9268 86.294C100.617 86.518 101.238 86.8073 101.789 87.162C102.339 87.5167 102.811 87.8713 103.203 88.226L102.265 89.724C102.013 89.5 101.723 89.248 101.397 88.968C101.079 88.688 100.72 88.4267 100.319 88.184C99.9267 87.9413 99.4974 87.7407 99.0307 87.582C98.5734 87.4233 98.0787 87.344 97.5467 87.344C97.1454 87.344 96.8234 87.4233 96.5807 87.582C96.3381 87.7407 96.2167 87.946 96.2167 88.198C96.2167 88.4593 96.3194 88.6693 96.5247 88.828C96.7394 88.9867 97.0381 89.066 97.4207 89.066C97.7381 89.066 97.9901 89.0147 98.1767 88.912C98.3634 88.8 98.4941 88.646 98.5687 88.45C98.6434 88.2447 98.6807 88.016 98.6807 87.764C98.6807 87.5493 98.6714 87.246 98.6527 86.854C98.6341 86.462 98.6107 86.028 98.5827 85.552C98.5641 85.076 98.5454 84.6 98.5267 84.124C98.5081 83.648 98.4894 83.228 98.4707 82.864H100.221ZM102.629 83.606C102.358 83.382 102.022 83.144 101.621 82.892C101.219 82.64 100.804 82.402 100.375 82.178C99.9547 81.9447 99.5861 81.758 99.2687 81.618L100.165 80.232C100.417 80.344 100.701 80.484 101.019 80.652C101.345 80.8107 101.672 80.9787 101.999 81.156C102.335 81.3333 102.643 81.5107 102.923 81.688C103.212 81.856 103.445 82.0053 103.623 82.136L102.629 83.606Z" fill="#595959"/>
<path d="M111.463 78.566C111.407 78.818 111.36 79.042 111.323 79.238C111.285 79.434 111.253 79.6253 111.225 79.812C111.187 80.008 111.141 80.2927 111.085 80.666C111.038 81.03 110.982 81.4453 110.917 81.912C110.861 82.3693 110.8 82.85 110.735 83.354C110.679 83.8487 110.623 84.334 110.567 84.81C110.511 85.286 110.464 85.72 110.427 86.112C110.399 86.504 110.385 86.8167 110.385 87.05C110.385 87.6287 110.557 88.072 110.903 88.38C111.257 88.6787 111.78 88.828 112.471 88.828C113.124 88.828 113.675 88.7393 114.123 88.562C114.571 88.3753 114.911 88.128 115.145 87.82C115.378 87.512 115.495 87.1667 115.495 86.784C115.495 86.308 115.369 85.846 115.117 85.398C114.874 84.9407 114.519 84.4973 114.053 84.068L116.027 83.648C116.493 84.236 116.834 84.796 117.049 85.328C117.273 85.8507 117.385 86.4107 117.385 87.008C117.385 87.708 117.184 88.3333 116.783 88.884C116.381 89.4347 115.807 89.864 115.061 90.172C114.323 90.48 113.441 90.634 112.415 90.634C111.687 90.634 111.038 90.522 110.469 90.298C109.899 90.074 109.456 89.7193 109.139 89.234C108.821 88.7487 108.663 88.1187 108.663 87.344C108.663 87.0547 108.686 86.672 108.733 86.196C108.779 85.7107 108.835 85.1787 108.901 84.6C108.975 84.012 109.05 83.4193 109.125 82.822C109.199 82.2153 109.265 81.6413 109.321 81.1C109.386 80.5587 109.437 80.092 109.475 79.7C109.493 79.3733 109.503 79.126 109.503 78.958C109.512 78.7807 109.507 78.6127 109.489 78.454L111.463 78.566ZM106.465 80.302C106.885 80.4327 107.342 80.5447 107.837 80.638C108.331 80.722 108.84 80.7873 109.363 80.834C109.885 80.8713 110.38 80.89 110.847 80.89C111.397 80.89 111.911 80.8713 112.387 80.834C112.863 80.7967 113.278 80.75 113.633 80.694L113.577 82.36C113.157 82.3973 112.737 82.43 112.317 82.458C111.897 82.486 111.393 82.5 110.805 82.5C110.329 82.5 109.834 82.4767 109.321 82.43C108.807 82.374 108.299 82.304 107.795 82.22C107.291 82.1267 106.819 82.024 106.381 81.912L106.465 80.302ZM106.171 83.774C106.675 83.942 107.183 84.0727 107.697 84.166C108.219 84.2593 108.733 84.3247 109.237 84.362C109.75 84.39 110.24 84.404 110.707 84.404C111.136 84.404 111.598 84.39 112.093 84.362C112.597 84.334 113.073 84.292 113.521 84.236L113.479 85.902C113.087 85.9393 112.685 85.972 112.275 86C111.864 86.0187 111.439 86.028 111.001 86.028C110.067 86.028 109.171 85.9813 108.313 85.888C107.454 85.7853 106.707 85.6453 106.073 85.468L106.171 83.774Z" fill="#595959"/>
<path d="M127.731 80.19C127.637 80.8993 127.516 81.6553 127.367 82.458C127.217 83.2607 127.017 84.0727 126.765 84.894C126.494 85.8367 126.177 86.6487 125.813 87.33C125.449 88.0114 125.047 88.5387 124.609 88.912C124.179 89.276 123.708 89.458 123.195 89.458C122.681 89.458 122.205 89.2854 121.767 88.94C121.337 88.5854 120.992 88.1 120.731 87.484C120.479 86.868 120.353 86.168 120.353 85.384C120.353 84.572 120.516 83.8067 120.843 83.088C121.169 82.3693 121.622 81.7347 122.201 81.184C122.789 80.624 123.47 80.1853 124.245 79.868C125.029 79.5507 125.873 79.392 126.779 79.392C127.647 79.392 128.426 79.532 129.117 79.812C129.817 80.092 130.414 80.4793 130.909 80.974C131.403 81.4687 131.781 82.0473 132.043 82.71C132.304 83.3727 132.435 84.0867 132.435 84.852C132.435 85.832 132.234 86.7093 131.833 87.484C131.431 88.2587 130.834 88.898 130.041 89.402C129.257 89.906 128.277 90.2513 127.101 90.438L126.051 88.772C126.321 88.744 126.559 88.7113 126.765 88.674C126.97 88.6367 127.166 88.5947 127.353 88.548C127.801 88.436 128.216 88.2773 128.599 88.072C128.991 87.8573 129.331 87.596 129.621 87.288C129.91 86.9707 130.134 86.602 130.293 86.182C130.461 85.762 130.545 85.3 130.545 84.796C130.545 84.2453 130.461 83.7413 130.293 83.284C130.125 82.8267 129.877 82.43 129.551 82.094C129.224 81.7487 128.827 81.4873 128.361 81.31C127.894 81.1233 127.357 81.03 126.751 81.03C126.004 81.03 125.346 81.1653 124.777 81.436C124.207 81.6973 123.727 82.038 123.335 82.458C122.943 82.878 122.644 83.3307 122.439 83.816C122.243 84.3013 122.145 84.7633 122.145 85.202C122.145 85.6687 122.201 86.0607 122.313 86.378C122.425 86.686 122.56 86.9193 122.719 87.078C122.887 87.2273 123.064 87.302 123.251 87.302C123.447 87.302 123.638 87.204 123.825 87.008C124.021 86.8027 124.212 86.4947 124.399 86.084C124.585 85.6733 124.772 85.1553 124.959 84.53C125.173 83.858 125.355 83.1393 125.505 82.374C125.654 81.6087 125.761 80.862 125.827 80.134L127.731 80.19Z" fill="#595959"/>
<path d="M140.289 79.994C140.718 80.05 141.199 80.092 141.731 80.12C142.272 80.1387 142.818 80.148 143.369 80.148C143.929 80.1387 144.465 80.12 144.979 80.092C145.492 80.0547 145.935 80.0173 146.309 79.98V81.786C145.879 81.8233 145.408 81.856 144.895 81.884C144.381 81.9027 143.854 81.912 143.313 81.912C142.771 81.912 142.239 81.9027 141.717 81.884C141.203 81.856 140.727 81.8233 140.289 81.786V79.994ZM141.409 85.972C141.353 86.2053 141.311 86.4153 141.283 86.602C141.255 86.7793 141.241 86.9613 141.241 87.148C141.241 87.2973 141.278 87.4373 141.353 87.568C141.427 87.6893 141.539 87.7967 141.689 87.89C141.847 87.974 142.048 88.0393 142.291 88.086C142.543 88.1233 142.846 88.142 143.201 88.142C143.826 88.142 144.414 88.114 144.965 88.058C145.515 87.9927 146.099 87.8993 146.715 87.778L146.743 89.668C146.295 89.752 145.777 89.8173 145.189 89.864C144.61 89.9107 143.924 89.934 143.131 89.934C141.927 89.934 141.031 89.7333 140.443 89.332C139.855 88.9213 139.561 88.3567 139.561 87.638C139.561 87.3673 139.579 87.0873 139.617 86.798C139.663 86.4993 139.724 86.1727 139.799 85.818L141.409 85.972ZM138.133 79.056C138.095 79.1493 138.053 79.28 138.007 79.448C137.96 79.616 137.913 79.7793 137.867 79.938C137.829 80.0967 137.801 80.218 137.783 80.302C137.755 80.498 137.708 80.7547 137.643 81.072C137.587 81.38 137.526 81.73 137.461 82.122C137.405 82.5047 137.349 82.8967 137.293 83.298C137.237 83.6993 137.19 84.0867 137.153 84.46C137.125 84.8333 137.111 85.16 137.111 85.44C137.111 85.5707 137.111 85.72 137.111 85.888C137.12 86.056 137.139 86.21 137.167 86.35C137.232 86.1913 137.302 86.0327 137.377 85.874C137.451 85.7153 137.526 85.5567 137.601 85.398C137.675 85.23 137.741 85.0713 137.797 84.922L138.665 85.608C138.534 85.9907 138.399 86.4013 138.259 86.84C138.128 87.2787 138.007 87.694 137.895 88.086C137.792 88.4687 137.713 88.786 137.657 89.038C137.638 89.1407 137.619 89.2573 137.601 89.388C137.591 89.5187 137.587 89.6213 137.587 89.696C137.587 89.7707 137.587 89.8593 137.587 89.962C137.596 90.074 137.605 90.1767 137.615 90.27L135.991 90.382C135.851 89.8967 135.725 89.2527 135.613 88.45C135.501 87.638 135.445 86.756 135.445 85.804C135.445 85.2813 135.468 84.7493 135.515 84.208C135.561 83.6667 135.617 83.1487 135.683 82.654C135.748 82.15 135.809 81.6927 135.865 81.282C135.93 80.8713 135.986 80.5307 136.033 80.26C136.051 80.064 136.075 79.8447 136.103 79.602C136.14 79.35 136.163 79.112 136.173 78.888L138.133 79.056Z" fill="#595959"/>
<path d="M157.817 77.866H159.357V89.402H157.817V77.866ZM159.707 87.204L161.023 86.784C161.219 87.1947 161.405 87.6333 161.583 88.1C161.76 88.5573 161.909 89.0007 162.031 89.43C162.161 89.8593 162.25 90.242 162.297 90.578L160.869 91.068C160.831 90.732 160.757 90.34 160.645 89.892C160.533 89.4533 160.393 89.0007 160.225 88.534C160.066 88.058 159.893 87.6147 159.707 87.204ZM155.241 89.024C155.745 88.9867 156.314 88.9447 156.949 88.898C157.593 88.842 158.269 88.7813 158.979 88.716C159.697 88.6507 160.416 88.5807 161.135 88.506L161.163 90.004C160.5 90.0787 159.828 90.1533 159.147 90.228C158.475 90.312 157.821 90.3867 157.187 90.452C156.561 90.5267 155.987 90.592 155.465 90.648L155.241 89.024ZM157.005 82.108V85.006H160.225V82.108H157.005ZM155.605 80.722H161.695V86.392H155.605V80.722ZM150.495 81.478H154.373V82.71H150.495V81.478ZM150.495 83.774H154.373V84.964H150.495V83.774ZM150.495 86.084H154.373V87.33H150.495V86.084ZM151.153 79.14H153.267V80.4H151.153V79.14ZM151.853 82.094H152.959V86.546H151.853V82.094ZM150.789 77.88L152.259 78.202C152.025 79.1447 151.713 80.0547 151.321 80.932C150.938 81.8093 150.513 82.5467 150.047 83.144C149.953 83.06 149.832 82.9573 149.683 82.836C149.543 82.7053 149.398 82.584 149.249 82.472C149.099 82.3507 148.964 82.2527 148.843 82.178C149.3 81.674 149.692 81.0393 150.019 80.274C150.345 79.4993 150.602 78.7013 150.789 77.88ZM149.851 81.478H151.167V85.216C151.167 85.8133 151.139 86.462 151.083 87.162C151.027 87.862 150.919 88.5527 150.761 89.234C150.602 89.906 150.359 90.508 150.033 91.04C149.949 90.9653 149.837 90.8767 149.697 90.774C149.557 90.6807 149.412 90.592 149.263 90.508C149.113 90.424 148.987 90.3587 148.885 90.312C149.174 89.8173 149.384 89.276 149.515 88.688C149.655 88.1 149.743 87.5073 149.781 86.91C149.827 86.3033 149.851 85.7387 149.851 85.216V81.478ZM153.687 81.478H155.045V89.472C155.045 89.7987 155.007 90.0647 154.933 90.27C154.858 90.4847 154.713 90.648 154.499 90.76C154.293 90.8907 154.041 90.97 153.743 90.998C153.453 91.0353 153.094 91.054 152.665 91.054C152.637 90.8487 152.581 90.606 152.497 90.326C152.413 90.0553 152.319 89.8313 152.217 89.654C152.487 89.6633 152.739 89.668 152.973 89.668C153.215 89.668 153.379 89.668 153.463 89.668C153.547 89.668 153.603 89.6493 153.631 89.612C153.668 89.5747 153.687 89.5187 153.687 89.444V81.478ZM152.819 79.14H153.141L153.407 79.056L154.303 79.658C154.107 80.1433 153.873 80.6427 153.603 81.156C153.341 81.6693 153.085 82.108 152.833 82.472C152.73 82.3413 152.595 82.1873 152.427 82.01C152.259 81.8327 152.109 81.6927 151.979 81.59C152.091 81.3847 152.198 81.156 152.301 80.904C152.413 80.6427 152.511 80.3767 152.595 80.106C152.688 79.8353 152.763 79.5973 152.819 79.392V79.14Z" fill="#595959"/>
<path d="M176.787 89.052C176.46 89.3507 176.082 89.598 175.653 89.794C175.223 89.99 174.724 90.088 174.155 90.088C173.632 90.088 173.207 89.906 172.881 89.542C172.563 89.178 172.405 88.6553 172.405 87.974C172.405 87.6007 172.428 87.1993 172.475 86.77C172.531 86.3313 172.591 85.8927 172.657 85.454C172.722 85.0153 172.778 84.6 172.825 84.208C172.881 83.8067 172.909 83.4473 172.909 83.13C172.909 82.7847 172.825 82.528 172.657 82.36C172.489 82.1827 172.255 82.094 171.957 82.094C171.63 82.094 171.266 82.2107 170.865 82.444C170.463 82.668 170.053 82.9573 169.633 83.312C169.213 83.6667 168.811 84.0447 168.429 84.446C168.055 84.8473 167.729 85.23 167.449 85.594L167.435 83.438C167.603 83.2513 167.822 83.032 168.093 82.78C168.373 82.528 168.685 82.2667 169.031 81.996C169.385 81.7253 169.754 81.4733 170.137 81.24C170.529 80.9973 170.921 80.8013 171.313 80.652C171.714 80.5027 172.101 80.428 172.475 80.428C172.979 80.428 173.389 80.5213 173.707 80.708C174.033 80.8853 174.276 81.1327 174.435 81.45C174.593 81.758 174.673 82.108 174.673 82.5C174.673 82.864 174.649 83.2607 174.603 83.69C174.556 84.11 174.5 84.5393 174.435 84.978C174.369 85.4167 174.313 85.8507 174.267 86.28C174.229 86.7093 174.211 87.1013 174.211 87.456C174.211 87.6427 174.257 87.7967 174.351 87.918C174.444 88.03 174.575 88.086 174.743 88.086C175.004 88.086 175.293 88.002 175.611 87.834C175.928 87.6567 176.245 87.4047 176.563 87.078L176.787 89.052ZM167.113 82.374C166.963 82.3927 166.772 82.416 166.539 82.444C166.305 82.472 166.053 82.5047 165.783 82.542C165.521 82.5793 165.255 82.6167 164.985 82.654C164.714 82.6913 164.462 82.724 164.229 82.752L164.047 80.96C164.252 80.9693 164.443 80.974 164.621 80.974C164.807 80.9647 165.022 80.9553 165.265 80.946C165.489 80.9273 165.755 80.904 166.063 80.876C166.38 80.8387 166.697 80.7967 167.015 80.75C167.341 80.7033 167.645 80.652 167.925 80.596C168.205 80.54 168.424 80.484 168.583 80.428L169.143 81.142C169.059 81.254 168.961 81.394 168.849 81.562C168.746 81.73 168.639 81.9027 168.527 82.08C168.415 82.248 168.317 82.3973 168.233 82.528L167.407 85.16C167.257 85.3747 167.071 85.6453 166.847 85.972C166.632 86.2987 166.403 86.644 166.161 87.008C165.918 87.372 165.68 87.722 165.447 88.058C165.213 88.394 165.003 88.688 164.817 88.94L163.711 87.414C163.888 87.19 164.089 86.9333 164.313 86.644C164.546 86.3453 164.789 86.0327 165.041 85.706C165.293 85.37 165.54 85.0387 165.783 84.712C166.025 84.376 166.249 84.0633 166.455 83.774C166.669 83.4753 166.847 83.2187 166.987 83.004L167.015 82.64L167.113 82.374ZM166.945 79.686C166.945 79.4807 166.945 79.2753 166.945 79.07C166.945 78.8553 166.926 78.6407 166.889 78.426L168.933 78.496C168.877 78.7107 168.816 79.0233 168.751 79.434C168.695 79.8353 168.634 80.2973 168.569 80.82C168.513 81.3427 168.457 81.8933 168.401 82.472C168.354 83.0413 168.312 83.6107 168.275 84.18C168.247 84.7493 168.233 85.2813 168.233 85.776C168.233 86.1587 168.233 86.546 168.233 86.938C168.242 87.33 168.251 87.7313 168.261 88.142C168.27 88.5527 168.289 88.9773 168.317 89.416C168.326 89.5373 168.34 89.7053 168.359 89.92C168.377 90.144 168.396 90.3353 168.415 90.494H166.483C166.501 90.326 166.511 90.1393 166.511 89.934C166.52 89.7287 166.525 89.57 166.525 89.458C166.534 89.0007 166.543 88.576 166.553 88.184C166.562 87.792 166.567 87.3767 166.567 86.938C166.576 86.4993 166.59 85.9907 166.609 85.412C166.618 85.1973 166.632 84.9267 166.651 84.6C166.669 84.264 166.688 83.9 166.707 83.508C166.735 83.1067 166.763 82.7007 166.791 82.29C166.819 81.8793 166.842 81.4967 166.861 81.142C166.889 80.778 166.907 80.47 166.917 80.218C166.935 79.9567 166.945 79.7793 166.945 79.686Z" fill="#595959"/>
<path d="M180.777 79.112C180.973 79.14 181.183 79.1587 181.407 79.168C181.631 79.1773 181.845 79.182 182.051 79.182C182.2 79.182 182.424 79.182 182.723 79.182C183.021 79.1727 183.357 79.1633 183.731 79.154C184.113 79.1447 184.491 79.1353 184.865 79.126C185.238 79.1167 185.574 79.1073 185.873 79.098C186.181 79.0793 186.419 79.0653 186.587 79.056C186.876 79.028 187.105 79.0047 187.273 78.986C187.441 78.958 187.567 78.93 187.651 78.902L188.561 80.148C188.402 80.2507 188.239 80.3533 188.071 80.456C187.903 80.5587 187.739 80.6707 187.581 80.792C187.394 80.9227 187.17 81.0953 186.909 81.31C186.647 81.5153 186.367 81.7347 186.069 81.968C185.779 82.2013 185.495 82.43 185.215 82.654C184.944 82.878 184.697 83.0787 184.473 83.256C184.706 83.2 184.93 83.1627 185.145 83.144C185.359 83.116 185.579 83.102 185.803 83.102C186.596 83.102 187.305 83.256 187.931 83.564C188.565 83.872 189.065 84.292 189.429 84.824C189.802 85.3467 189.989 85.9487 189.989 86.63C189.989 87.3673 189.802 88.0347 189.429 88.632C189.055 89.2293 188.491 89.7053 187.735 90.06C186.988 90.4147 186.05 90.592 184.921 90.592C184.277 90.592 183.693 90.4987 183.171 90.312C182.657 90.1253 182.251 89.8593 181.953 89.514C181.654 89.1687 181.505 88.7627 181.505 88.296C181.505 87.9133 181.607 87.5587 181.813 87.232C182.027 86.896 182.321 86.6253 182.695 86.42C183.077 86.2147 183.516 86.112 184.011 86.112C184.655 86.112 185.196 86.2427 185.635 86.504C186.083 86.756 186.423 87.0967 186.657 87.526C186.899 87.9553 187.025 88.4267 187.035 88.94L185.397 89.164C185.387 88.6507 185.257 88.24 185.005 87.932C184.762 87.6147 184.435 87.456 184.025 87.456C183.763 87.456 183.553 87.526 183.395 87.666C183.236 87.7967 183.157 87.9507 183.157 88.128C183.157 88.3893 183.287 88.5993 183.549 88.758C183.81 88.9167 184.151 88.996 184.571 88.996C185.364 88.996 186.027 88.9027 186.559 88.716C187.091 88.52 187.487 88.2447 187.749 87.89C188.019 87.526 188.155 87.0967 188.155 86.602C188.155 86.182 188.024 85.8134 187.763 85.496C187.511 85.1787 187.165 84.9313 186.727 84.754C186.288 84.5767 185.793 84.488 185.243 84.488C184.701 84.488 184.207 84.558 183.759 84.698C183.311 84.8287 182.886 85.02 182.485 85.272C182.093 85.5147 181.705 85.8133 181.323 86.168C180.949 86.5133 180.576 86.9007 180.203 87.33L178.929 86.014C179.181 85.8087 179.465 85.58 179.783 85.328C180.1 85.0667 180.422 84.796 180.749 84.516C181.085 84.236 181.397 83.9747 181.687 83.732C181.985 83.48 182.237 83.27 182.443 83.102C182.639 82.9433 182.867 82.7567 183.129 82.542C183.39 82.3273 183.661 82.108 183.941 81.884C184.221 81.6507 184.487 81.4313 184.739 81.226C184.991 81.0113 185.201 80.8293 185.369 80.68C185.229 80.68 185.047 80.6847 184.823 80.694C184.599 80.7033 184.351 80.7127 184.081 80.722C183.819 80.7313 183.553 80.7407 183.283 80.75C183.021 80.7593 182.774 80.7733 182.541 80.792C182.317 80.8013 182.13 80.8107 181.981 80.82C181.794 80.8293 181.598 80.8433 181.393 80.862C181.187 80.8807 181.001 80.904 180.833 80.932L180.777 79.112Z" fill="#595959"/>
<path d="M195.309 79.602C195.822 79.658 196.401 79.7 197.045 79.728C197.689 79.756 198.379 79.77 199.117 79.77C199.574 79.77 200.045 79.7607 200.531 79.742C201.025 79.7233 201.501 79.7 201.959 79.672C202.416 79.644 202.822 79.6113 203.177 79.574V81.436C202.85 81.464 202.453 81.492 201.987 81.52C201.529 81.548 201.049 81.5713 200.545 81.59C200.05 81.5993 199.579 81.604 199.131 81.604C198.403 81.604 197.726 81.59 197.101 81.562C196.475 81.534 195.878 81.4967 195.309 81.45V79.602ZM196.485 85.538C196.419 85.7807 196.363 86.0187 196.317 86.252C196.27 86.4853 196.247 86.7187 196.247 86.952C196.247 87.4 196.471 87.7687 196.919 88.058C197.376 88.3473 198.109 88.492 199.117 88.492C199.751 88.492 200.363 88.4687 200.951 88.422C201.539 88.3753 202.094 88.31 202.617 88.226C203.149 88.142 203.62 88.044 204.031 87.932L204.045 89.906C203.634 89.9993 203.177 90.0787 202.673 90.144C202.169 90.2187 201.623 90.2747 201.035 90.312C200.456 90.3587 199.84 90.382 199.187 90.382C198.123 90.382 197.231 90.2653 196.513 90.032C195.794 89.7987 195.257 89.4627 194.903 89.024C194.548 88.576 194.371 88.03 194.371 87.386C194.371 86.9754 194.403 86.602 194.469 86.266C194.534 85.93 194.595 85.6313 194.651 85.37L196.485 85.538Z" fill="#595959"/>
<path d="M218.479 81.618C218.273 81.7487 218.054 81.8747 217.821 81.996C217.597 82.1173 217.354 82.2433 217.093 82.374C216.878 82.486 216.612 82.6167 216.295 82.766C215.987 82.9153 215.651 83.0833 215.287 83.27C214.932 83.4473 214.573 83.6387 214.209 83.844C213.845 84.04 213.504 84.2407 213.187 84.446C212.608 84.8287 212.137 85.2254 211.773 85.636C211.418 86.0467 211.241 86.4993 211.241 86.994C211.241 87.4887 211.483 87.8713 211.969 88.142C212.454 88.4033 213.182 88.534 214.153 88.534C214.638 88.534 215.151 88.5153 215.693 88.478C216.243 88.4313 216.785 88.3707 217.317 88.296C217.849 88.212 218.32 88.1187 218.731 88.016L218.703 90.032C218.311 90.0973 217.881 90.158 217.415 90.214C216.957 90.27 216.458 90.312 215.917 90.34C215.385 90.368 214.815 90.382 214.209 90.382C213.509 90.382 212.86 90.326 212.263 90.214C211.675 90.1113 211.157 89.9387 210.709 89.696C210.27 89.4533 209.925 89.1267 209.673 88.716C209.43 88.3053 209.309 87.8013 209.309 87.204C209.309 86.6067 209.439 86.0654 209.701 85.58C209.962 85.0947 210.317 84.6467 210.765 84.236C211.222 83.8253 211.721 83.438 212.263 83.074C212.599 82.85 212.953 82.6353 213.327 82.43C213.7 82.2153 214.064 82.01 214.419 81.814C214.783 81.618 215.119 81.4407 215.427 81.282C215.744 81.114 216.005 80.9693 216.211 80.848C216.481 80.6893 216.719 80.5447 216.925 80.414C217.13 80.2833 217.326 80.1433 217.513 79.994L218.479 81.618ZM211.437 78.622C211.67 79.238 211.913 79.8307 212.165 80.4C212.426 80.9693 212.683 81.5013 212.935 81.996C213.196 82.4907 213.434 82.934 213.649 83.326L212.067 84.264C211.815 83.8347 211.553 83.354 211.283 82.822C211.012 82.29 210.741 81.73 210.471 81.142C210.2 80.5447 209.939 79.9427 209.687 79.336L211.437 78.622Z" fill="#595959"/>
<path d="M227.747 78.818C227.709 78.9953 227.667 79.1913 227.621 79.406C227.574 79.6113 227.532 79.8027 227.495 79.98C227.457 80.1853 227.411 80.4187 227.355 80.68C227.299 80.932 227.243 81.1887 227.187 81.45C227.14 81.702 227.089 81.9493 227.033 82.192C226.939 82.5933 226.823 83.06 226.683 83.592C226.543 84.124 226.379 84.698 226.193 85.314C226.006 85.9207 225.796 86.532 225.563 87.148C225.329 87.764 225.082 88.366 224.821 88.954C224.559 89.5327 224.279 90.0553 223.981 90.522L222.161 89.794C222.487 89.3553 222.791 88.8653 223.071 88.324C223.36 87.7733 223.621 87.2133 223.855 86.644C224.088 86.0653 224.293 85.496 224.471 84.936C224.657 84.3667 224.816 83.8393 224.947 83.354C225.087 82.8687 225.194 82.4533 225.269 82.108C225.399 81.4733 225.502 80.862 225.577 80.274C225.651 79.686 225.679 79.1307 225.661 78.608L227.747 78.818ZM232.563 80.232C232.787 80.54 233.015 80.918 233.249 81.366C233.491 81.8047 233.729 82.2713 233.963 82.766C234.196 83.2607 234.406 83.7367 234.593 84.194C234.779 84.6513 234.924 85.048 235.027 85.384L233.249 86.196C233.165 85.804 233.039 85.37 232.871 84.894C232.712 84.418 232.525 83.9373 232.311 83.452C232.096 82.9573 231.867 82.4907 231.625 82.052C231.391 81.6133 231.149 81.2447 230.897 80.946L232.563 80.232ZM222.063 81.688C222.315 81.7067 222.562 81.716 222.805 81.716C223.057 81.7067 223.309 81.6973 223.561 81.688C223.794 81.6787 224.074 81.6647 224.401 81.646C224.727 81.618 225.073 81.59 225.437 81.562C225.81 81.534 226.183 81.506 226.557 81.478C226.93 81.4407 227.275 81.4127 227.593 81.394C227.91 81.3753 228.171 81.366 228.377 81.366C228.881 81.366 229.319 81.45 229.693 81.618C230.066 81.7767 230.36 82.052 230.575 82.444C230.799 82.836 230.911 83.368 230.911 84.04C230.911 84.5907 230.887 85.188 230.841 85.832C230.794 86.476 230.71 87.092 230.589 87.68C230.477 88.268 230.318 88.7673 230.113 89.178C229.889 89.6634 229.581 89.9993 229.189 90.186C228.806 90.3727 228.349 90.466 227.817 90.466C227.555 90.466 227.271 90.4427 226.963 90.396C226.655 90.3587 226.379 90.3167 226.137 90.27L225.843 88.422C226.02 88.4687 226.216 88.5153 226.431 88.562C226.655 88.6087 226.865 88.646 227.061 88.674C227.266 88.702 227.429 88.716 227.551 88.716C227.784 88.716 227.989 88.674 228.167 88.59C228.344 88.4967 228.489 88.338 228.601 88.114C228.731 87.8433 228.839 87.4933 228.923 87.064C229.007 86.6347 229.067 86.1727 229.105 85.678C229.151 85.174 229.175 84.6933 229.175 84.236C229.175 83.8627 229.119 83.5873 229.007 83.41C228.904 83.2327 228.75 83.116 228.545 83.06C228.349 82.9947 228.106 82.962 227.817 82.962C227.602 82.962 227.313 82.9807 226.949 83.018C226.585 83.046 226.193 83.0833 225.773 83.13C225.362 83.1673 224.979 83.2093 224.625 83.256C224.27 83.3027 223.995 83.3353 223.799 83.354C223.593 83.3913 223.332 83.4333 223.015 83.48C222.707 83.5173 222.445 83.5547 222.231 83.592L222.063 81.688ZM232.311 78.286C232.432 78.454 232.558 78.6547 232.689 78.888C232.829 79.1213 232.964 79.3547 233.095 79.588C233.225 79.8213 233.337 80.0267 233.431 80.204L232.297 80.694C232.203 80.498 232.096 80.2833 231.975 80.05C231.853 79.8167 231.727 79.5833 231.597 79.35C231.466 79.1167 231.335 78.916 231.205 78.748L232.311 78.286ZM233.977 77.656C234.098 77.8333 234.229 78.0387 234.369 78.272C234.509 78.5053 234.644 78.7387 234.775 78.972C234.915 79.2053 235.022 79.4013 235.097 79.56L233.991 80.036C233.841 79.7467 233.664 79.42 233.459 79.056C233.253 78.6827 233.053 78.3653 232.857 78.104L233.977 77.656Z" fill="#595959"/>
<path d="M236.903 80.176C237.183 80.1667 237.449 80.1573 237.701 80.148C237.953 80.1293 238.144 80.1153 238.275 80.106C238.564 80.0873 238.919 80.0593 239.339 80.022C239.768 79.9753 240.244 79.9287 240.767 79.882C241.299 79.8353 241.863 79.7887 242.461 79.742C243.058 79.6953 243.679 79.644 244.323 79.588C244.808 79.5413 245.289 79.504 245.765 79.476C246.25 79.4387 246.707 79.4107 247.137 79.392C247.575 79.364 247.958 79.3453 248.285 79.336L248.299 81.128C248.047 81.128 247.757 81.1327 247.431 81.142C247.104 81.1513 246.777 81.17 246.451 81.198C246.133 81.2167 245.849 81.2587 245.597 81.324C245.177 81.436 244.785 81.6273 244.421 81.898C244.057 82.1593 243.739 82.472 243.469 82.836C243.207 83.1907 243.002 83.578 242.853 83.998C242.703 84.4087 242.629 84.824 242.629 85.244C242.629 85.7013 242.708 86.1073 242.867 86.462C243.035 86.8073 243.259 87.106 243.539 87.358C243.828 87.6007 244.164 87.806 244.547 87.974C244.929 88.1327 245.34 88.254 245.779 88.338C246.227 88.422 246.689 88.478 247.165 88.506L246.507 90.424C245.919 90.3867 245.345 90.2933 244.785 90.144C244.234 89.9947 243.716 89.7893 243.231 89.528C242.745 89.2667 242.321 88.9493 241.957 88.576C241.602 88.1933 241.317 87.7594 241.103 87.274C240.897 86.7794 240.795 86.2287 240.795 85.622C240.795 84.95 240.902 84.334 241.117 83.774C241.331 83.2047 241.597 82.71 241.915 82.29C242.241 81.8607 242.563 81.5293 242.881 81.296C242.619 81.3333 242.302 81.3707 241.929 81.408C241.565 81.4453 241.168 81.492 240.739 81.548C240.319 81.5947 239.889 81.646 239.451 81.702C239.012 81.758 238.587 81.8233 238.177 81.898C237.775 81.9633 237.411 82.0287 237.085 82.094L236.903 80.176ZM246.297 82.5C246.418 82.668 246.544 82.8687 246.675 83.102C246.815 83.326 246.95 83.5547 247.081 83.788C247.211 84.012 247.323 84.2173 247.417 84.404L246.353 84.88C246.175 84.488 246.003 84.1427 245.835 83.844C245.676 83.5453 245.485 83.242 245.261 82.934L246.297 82.5ZM247.865 81.856C247.986 82.024 248.117 82.22 248.257 82.444C248.406 82.6587 248.551 82.8827 248.691 83.116C248.831 83.34 248.947 83.5407 249.041 83.718L247.991 84.222C247.804 83.8487 247.622 83.5173 247.445 83.228C247.277 82.9387 247.076 82.64 246.843 82.332L247.865 81.856Z" fill="#595959"/>
<path d="M252.793 79.728C253.819 79.8493 254.762 79.924 255.621 79.952C256.489 79.9707 257.291 79.952 258.029 79.896C258.673 79.84 259.289 79.756 259.877 79.644C260.465 79.532 261.043 79.3873 261.613 79.21L261.837 80.82C261.333 80.96 260.787 81.0813 260.199 81.184C259.611 81.2867 259.009 81.366 258.393 81.422C257.674 81.478 256.843 81.506 255.901 81.506C254.967 81.4967 253.964 81.4407 252.891 81.338L252.793 79.728ZM252.541 82.668C253.39 82.7427 254.202 82.794 254.977 82.822C255.751 82.85 256.479 82.85 257.161 82.822C257.842 82.794 258.463 82.7567 259.023 82.71C259.779 82.6447 260.427 82.5513 260.969 82.43C261.51 82.2993 261.981 82.178 262.383 82.066L262.663 83.718C262.243 83.8207 261.781 83.9187 261.277 84.012C260.773 84.1053 260.236 84.1847 259.667 84.25C259.069 84.306 258.383 84.3527 257.609 84.39C256.843 84.418 256.036 84.4273 255.187 84.418C254.337 84.3993 253.488 84.3667 252.639 84.32L252.541 82.668ZM257.217 80.12C257.151 79.8587 257.077 79.602 256.993 79.35C256.909 79.0887 256.815 78.8227 256.713 78.552L258.603 78.342C258.659 78.7807 258.729 79.2147 258.813 79.644C258.906 80.064 259.009 80.47 259.121 80.862C259.242 81.254 259.359 81.632 259.471 81.996C259.583 82.3133 259.727 82.6773 259.905 83.088C260.091 83.4893 260.292 83.8953 260.507 84.306C260.721 84.7073 260.936 85.0713 261.151 85.398C261.244 85.5287 261.337 85.6547 261.431 85.776C261.533 85.888 261.65 86 261.781 86.112L260.927 87.4C260.665 87.344 260.339 87.288 259.947 87.232C259.564 87.176 259.163 87.1247 258.743 87.078C258.332 87.0313 257.954 86.9893 257.609 86.952L257.749 85.622C258.038 85.65 258.351 85.678 258.687 85.706C259.032 85.734 259.307 85.762 259.513 85.79C259.139 85.1647 258.817 84.5533 258.547 83.956C258.285 83.3587 258.066 82.8033 257.889 82.29C257.777 81.9633 257.683 81.6833 257.609 81.45C257.534 81.2073 257.464 80.9833 257.399 80.778C257.343 80.5633 257.282 80.344 257.217 80.12ZM255.229 85.916C255.061 86.1493 254.916 86.392 254.795 86.644C254.673 86.8867 254.613 87.162 254.613 87.47C254.613 87.9833 254.851 88.3567 255.327 88.59C255.812 88.814 256.517 88.926 257.441 88.926C258.103 88.926 258.729 88.898 259.317 88.842C259.914 88.786 260.46 88.7113 260.955 88.618L260.857 90.396C260.371 90.48 259.825 90.5453 259.219 90.592C258.612 90.6387 258.024 90.662 257.455 90.662C256.521 90.662 255.714 90.564 255.033 90.368C254.361 90.172 253.838 89.8687 253.465 89.458C253.091 89.038 252.9 88.4967 252.891 87.834C252.881 87.386 252.937 86.9847 253.059 86.63C253.189 86.266 253.334 85.916 253.493 85.58L255.229 85.916Z" fill="#595959"/>
<path d="M267.863 79.112C268.059 79.14 268.269 79.1587 268.493 79.168C268.717 79.1773 268.932 79.182 269.137 79.182C269.287 79.182 269.511 79.182 269.809 79.182C270.108 79.1727 270.444 79.1633 270.817 79.154C271.2 79.1447 271.578 79.1353 271.951 79.126C272.325 79.1167 272.661 79.1073 272.959 79.098C273.267 79.0793 273.505 79.0653 273.673 79.056C273.963 79.028 274.191 79.0047 274.359 78.986C274.527 78.958 274.653 78.93 274.737 78.902L275.647 80.148C275.489 80.2507 275.325 80.3533 275.157 80.456C274.989 80.5587 274.826 80.6707 274.667 80.792C274.481 80.9227 274.257 81.0953 273.995 81.31C273.734 81.5153 273.454 81.7347 273.155 81.968C272.866 82.2013 272.581 82.43 272.301 82.654C272.031 82.878 271.783 83.0787 271.559 83.256C271.793 83.2 272.017 83.1627 272.231 83.144C272.446 83.116 272.665 83.102 272.889 83.102C273.683 83.102 274.392 83.256 275.017 83.564C275.652 83.872 276.151 84.292 276.515 84.824C276.889 85.3467 277.075 85.9487 277.075 86.63C277.075 87.3673 276.889 88.0347 276.515 88.632C276.142 89.2293 275.577 89.7053 274.821 90.06C274.075 90.4147 273.137 90.592 272.007 90.592C271.363 90.592 270.78 90.4987 270.257 90.312C269.744 90.1253 269.338 89.8593 269.039 89.514C268.741 89.1687 268.591 88.7627 268.591 88.296C268.591 87.9133 268.694 87.5587 268.899 87.232C269.114 86.896 269.408 86.6253 269.781 86.42C270.164 86.2147 270.603 86.112 271.097 86.112C271.741 86.112 272.283 86.2427 272.721 86.504C273.169 86.756 273.51 87.0967 273.743 87.526C273.986 87.9553 274.112 88.4267 274.121 88.94L272.483 89.164C272.474 88.6507 272.343 88.24 272.091 87.932C271.849 87.6147 271.522 87.456 271.111 87.456C270.85 87.456 270.64 87.526 270.481 87.666C270.323 87.7967 270.243 87.9507 270.243 88.128C270.243 88.3893 270.374 88.5993 270.635 88.758C270.897 88.9167 271.237 88.996 271.657 88.996C272.451 88.996 273.113 88.9027 273.645 88.716C274.177 88.52 274.574 88.2447 274.835 87.89C275.106 87.526 275.241 87.0967 275.241 86.602C275.241 86.182 275.111 85.8134 274.849 85.496C274.597 85.1787 274.252 84.9313 273.813 84.754C273.375 84.5767 272.88 84.488 272.329 84.488C271.788 84.488 271.293 84.558 270.845 84.698C270.397 84.8287 269.973 85.02 269.571 85.272C269.179 85.5147 268.792 85.8133 268.409 86.168C268.036 86.5133 267.663 86.9007 267.289 87.33L266.015 86.014C266.267 85.8087 266.552 85.58 266.869 85.328C267.187 85.0667 267.509 84.796 267.835 84.516C268.171 84.236 268.484 83.9747 268.773 83.732C269.072 83.48 269.324 83.27 269.529 83.102C269.725 82.9433 269.954 82.7567 270.215 82.542C270.477 82.3273 270.747 82.108 271.027 81.884C271.307 81.6507 271.573 81.4313 271.825 81.226C272.077 81.0113 272.287 80.8293 272.455 80.68C272.315 80.68 272.133 80.6847 271.909 80.694C271.685 80.7033 271.438 80.7127 271.167 80.722C270.906 80.7313 270.64 80.7407 270.369 80.75C270.108 80.7593 269.861 80.7733 269.627 80.792C269.403 80.8013 269.217 80.8107 269.067 80.82C268.881 80.8293 268.685 80.8433 268.479 80.862C268.274 80.8807 268.087 80.904 267.919 80.932L267.863 79.112Z" fill="#595959"/>
</svg>
