<svg width="341" height="103" viewBox="0 0 341 103" fill="none" xmlns="http://www.w3.org/2000/svg">
<path d="M99.0402 35.906H105.868V37.322H99.0402V35.906ZM99.5322 30.11H105.58V31.502H99.5322V30.11ZM101.812 26.51H103.3V36.59H101.812V26.51ZM94.7322 28.622H98.6562V29.918H94.7322V28.622ZM96.4482 32.714L97.8762 31.01V37.67H96.4482V32.714ZM96.4482 26.402H97.8762V29.222H96.4482V26.402ZM97.7202 31.418C97.8322 31.49 97.9842 31.61 98.1762 31.778C98.3762 31.938 98.5882 32.118 98.8122 32.318C99.0362 32.51 99.2402 32.69 99.4242 32.858C99.6082 33.018 99.7402 33.134 99.8202 33.206L98.9562 34.382C98.8362 34.23 98.6882 34.054 98.5122 33.854C98.3442 33.646 98.1642 33.434 97.9722 33.218C97.7802 33.002 97.5922 32.798 97.4082 32.606C97.2242 32.414 97.0682 32.254 96.9402 32.126L97.7202 31.418ZM98.1402 28.622H98.4162L98.6682 28.562L99.4722 29.09C99.1762 29.874 98.7883 30.622 98.3083 31.334C97.8283 32.038 97.3002 32.674 96.7242 33.242C96.1482 33.81 95.5602 34.282 94.9602 34.658C94.9202 34.53 94.8562 34.378 94.7682 34.202C94.6882 34.018 94.6043 33.846 94.5163 33.686C94.4363 33.518 94.3562 33.386 94.2762 33.29C94.8282 33.002 95.3562 32.626 95.8602 32.162C96.3642 31.69 96.8162 31.174 97.2162 30.614C97.6162 30.046 97.9242 29.466 98.1402 28.874V28.622Z" fill="#595959"/>
<path d="M110.188 27.89V28.67H115.06V27.89H110.188ZM108.736 26.774H116.584V29.786H108.736V26.774ZM109.624 32.642V33.158H115.516V32.642H109.624ZM109.624 34.07V34.586H115.516V34.07H109.624ZM109.624 31.226V31.73H115.516V31.226H109.624ZM108.196 30.242H117.016V35.57H108.196V30.242ZM110.524 35.318L111.796 36.218C111.476 36.41 111.1 36.598 110.668 36.782C110.244 36.966 109.804 37.134 109.348 37.286C108.9 37.446 108.472 37.574 108.064 37.67C107.928 37.518 107.752 37.342 107.536 37.142C107.328 36.942 107.14 36.774 106.972 36.638C107.396 36.542 107.832 36.422 108.28 36.278C108.728 36.134 109.152 35.978 109.552 35.81C109.952 35.642 110.276 35.478 110.524 35.318ZM113.152 36.29L114.424 35.39C114.848 35.494 115.296 35.626 115.768 35.786C116.24 35.938 116.696 36.094 117.136 36.254C117.584 36.406 117.972 36.546 118.3 36.674L117.028 37.694C116.716 37.55 116.336 37.39 115.888 37.214C115.448 37.046 114.988 36.882 114.508 36.722C114.036 36.562 113.584 36.418 113.152 36.29Z" fill="#595959"/>
<path d="M122.068 29.174H128.08V30.386H122.068V29.174ZM122.632 31.298H123.952V36.146H122.632V31.298ZM123.364 31.298H127.54V35.342H123.364V34.154H126.208V32.486H123.364V31.298ZM119.98 26.966H129.58V28.322H121.384V37.67H119.98V26.966ZM128.788 26.966H130.204V36.014C130.204 36.39 130.16 36.686 130.072 36.902C129.984 37.118 129.824 37.286 129.592 37.406C129.36 37.518 129.072 37.59 128.728 37.622C128.384 37.662 127.96 37.682 127.456 37.682C127.44 37.546 127.404 37.39 127.348 37.214C127.3 37.046 127.244 36.874 127.18 36.698C127.116 36.53 127.044 36.382 126.964 36.254C127.284 36.27 127.592 36.282 127.888 36.29C128.192 36.29 128.396 36.286 128.5 36.278C128.612 36.27 128.688 36.246 128.728 36.206C128.768 36.166 128.788 36.098 128.788 36.002V26.966Z" fill="#595959"/>
<path d="M132.784 35.678H142.408V37.118H132.784V35.678ZM132.124 30.002H143.056V31.418H132.124V30.002ZM136.768 26.414H138.316V36.686H136.768V26.414Z" fill="#595959"/>
<path d="M151.132 28.37C151.052 28.978 150.948 29.626 150.82 30.314C150.692 31.002 150.52 31.698 150.304 32.402C150.072 33.21 149.8 33.906 149.488 34.49C149.176 35.074 148.832 35.526 148.456 35.846C148.088 36.158 147.684 36.314 147.244 36.314C146.804 36.314 146.396 36.166 146.02 35.87C145.652 35.566 145.356 35.15 145.132 34.622C144.916 34.094 144.808 33.494 144.808 32.822C144.808 32.126 144.948 31.47 145.228 30.854C145.508 30.238 145.896 29.694 146.392 29.222C146.896 28.742 147.48 28.366 148.144 28.094C148.816 27.822 149.54 27.686 150.316 27.686C151.06 27.686 151.728 27.806 152.32 28.046C152.92 28.286 153.432 28.618 153.856 29.042C154.28 29.466 154.604 29.962 154.828 30.53C155.052 31.098 155.164 31.71 155.164 32.366C155.164 33.206 154.992 33.958 154.648 34.622C154.304 35.286 153.792 35.834 153.112 36.266C152.44 36.698 151.6 36.994 150.592 37.154L149.692 35.726C149.924 35.702 150.128 35.674 150.304 35.642C150.48 35.61 150.648 35.574 150.808 35.534C151.192 35.438 151.548 35.302 151.876 35.126C152.212 34.942 152.504 34.718 152.752 34.454C153 34.182 153.192 33.866 153.328 33.506C153.472 33.146 153.544 32.75 153.544 32.318C153.544 31.846 153.472 31.414 153.328 31.022C153.184 30.63 152.972 30.29 152.692 30.002C152.412 29.706 152.072 29.482 151.672 29.33C151.272 29.17 150.812 29.09 150.292 29.09C149.652 29.09 149.088 29.206 148.6 29.438C148.112 29.662 147.7 29.954 147.364 30.314C147.028 30.674 146.772 31.062 146.596 31.478C146.428 31.894 146.344 32.29 146.344 32.666C146.344 33.066 146.392 33.402 146.488 33.674C146.584 33.938 146.7 34.138 146.836 34.274C146.98 34.402 147.132 34.466 147.292 34.466C147.46 34.466 147.624 34.382 147.784 34.214C147.952 34.038 148.116 33.774 148.276 33.422C148.436 33.07 148.596 32.626 148.756 32.09C148.94 31.514 149.096 30.898 149.224 30.242C149.352 29.586 149.444 28.946 149.5 28.322L151.132 28.37Z" fill="#595959"/>
<path d="M162.94 35.75H168.184V37.094H162.94V35.75ZM162.304 26.834H167.968V28.19H163.72V37.658H162.304V26.834ZM157.372 31.682H158.536V36.05H157.372V31.682ZM158.704 28.07V29.606H160.324V28.07H158.704ZM157.456 26.846H161.644V30.83H157.456V26.846ZM159.064 30.338H160.348V35.702H159.064V30.338ZM156.748 35.822C157.18 35.75 157.676 35.658 158.236 35.546C158.804 35.426 159.396 35.298 160.012 35.162C160.636 35.018 161.256 34.882 161.872 34.754L162.004 36.026C161.428 36.162 160.844 36.302 160.252 36.446C159.66 36.582 159.084 36.714 158.524 36.842C157.972 36.978 157.464 37.098 157 37.202L156.748 35.822ZM159.664 32.234H161.812V33.494H159.664V32.234ZM162.976 29.678H167.56V34.226H162.976V32.894H166.144V31.01H162.976V29.678Z" fill="#595959"/>
<path d="M169.372 27.362H175.384V28.502H169.372V27.362ZM171.664 26.39H173.056V27.902H171.664V26.39ZM170.92 35.042C171.264 35.026 171.656 35.006 172.096 34.982C172.536 34.958 173.004 34.93 173.5 34.898L173.512 35.762C173.064 35.802 172.628 35.842 172.204 35.882C171.788 35.914 171.392 35.946 171.016 35.978L170.92 35.042ZM173.944 32.81H175.144V36.458C175.144 36.722 175.112 36.934 175.048 37.094C174.984 37.262 174.856 37.394 174.664 37.49C174.488 37.578 174.272 37.63 174.016 37.646C173.76 37.662 173.456 37.67 173.104 37.67C173.072 37.51 173.02 37.326 172.948 37.118C172.884 36.918 172.816 36.742 172.744 36.59C172.96 36.598 173.164 36.602 173.356 36.602C173.556 36.602 173.688 36.602 173.752 36.602C173.824 36.602 173.872 36.59 173.896 36.566C173.928 36.542 173.944 36.502 173.944 36.446V32.81ZM172.684 34.37L173.428 34.166C173.556 34.462 173.672 34.782 173.776 35.126C173.888 35.47 173.956 35.758 173.98 35.99L173.188 36.242C173.156 35.994 173.092 35.694 172.996 35.342C172.9 34.99 172.796 34.666 172.684 34.37ZM171.04 29.582L171.592 28.958C171.84 29.086 172.1 29.234 172.372 29.402C172.644 29.562 172.9 29.726 173.14 29.894C173.388 30.062 173.588 30.218 173.74 30.362L173.164 31.058C173.012 30.906 172.816 30.742 172.576 30.566C172.344 30.39 172.092 30.218 171.82 30.05C171.556 29.874 171.296 29.718 171.04 29.582ZM171.796 31.886L172.96 32.054C172.888 32.462 172.808 32.886 172.72 33.326C172.632 33.766 172.544 34.186 172.456 34.586C172.368 34.986 172.28 35.338 172.192 35.642L171.268 35.474C171.34 35.162 171.412 34.798 171.484 34.382C171.556 33.958 171.62 33.526 171.676 33.086C171.732 32.646 171.772 32.246 171.796 31.886ZM169.636 32.81H174.4V33.854H170.788V37.682H169.636V32.81ZM169.912 28.814H170.908V31.25H173.836V28.814H174.868V32.222H169.912V28.814ZM172.684 28.646L173.596 28.874C173.388 29.354 173.112 29.81 172.768 30.242C172.432 30.666 172.08 31.026 171.712 31.322C171.632 31.234 171.512 31.13 171.352 31.01C171.2 30.89 171.068 30.798 170.956 30.734C171.324 30.47 171.66 30.158 171.964 29.798C172.268 29.438 172.508 29.054 172.684 28.646ZM176.356 31.034H180.388V32.246H176.356V31.034ZM176.356 33.398H180.388V34.61H176.356V33.398ZM176.392 35.81H180.64V37.106H176.392V35.81ZM176.548 26.39L177.832 26.702C177.664 27.326 177.46 27.95 177.22 28.574C176.98 29.198 176.72 29.786 176.44 30.338C176.16 30.882 175.868 31.362 175.564 31.778C175.492 31.698 175.392 31.602 175.264 31.49C175.136 31.378 175.004 31.266 174.868 31.154C174.732 31.042 174.616 30.954 174.52 30.89C174.808 30.522 175.08 30.098 175.336 29.618C175.592 29.138 175.824 28.622 176.032 28.07C176.24 27.518 176.412 26.958 176.548 26.39ZM178.672 26.522L180.016 26.822C179.848 27.278 179.676 27.738 179.5 28.202C179.332 28.658 179.168 29.046 179.008 29.366L177.88 29.078C177.984 28.846 178.084 28.582 178.18 28.286C178.284 27.99 178.38 27.69 178.468 27.386C178.556 27.074 178.624 26.786 178.672 26.522ZM177.1 28.634H180.52V29.918H177.1V37.682H175.804V29.75L176.848 28.634H177.1ZM178.072 29.234H179.284V36.458H178.072V29.234Z" fill="#595959"/>
<path d="M189.616 27.074L190.324 26.27C190.612 26.366 190.916 26.49 191.236 26.642C191.556 26.786 191.812 26.934 192.004 27.086L191.26 27.95C191.084 27.814 190.836 27.662 190.516 27.494C190.204 27.318 189.904 27.178 189.616 27.074ZM183.508 27.506H192.748V28.658H183.508V27.506ZM184.42 29.21H187.972V30.134H184.42V29.21ZM184.468 30.71H185.62V32.918H184.468V30.71ZM190.708 28.958L192.04 29.27C191.688 30.246 191.212 31.13 190.612 31.922C190.02 32.706 189.348 33.35 188.596 33.854C188.532 33.758 188.44 33.65 188.32 33.53C188.2 33.402 188.076 33.278 187.948 33.158C187.82 33.03 187.708 32.926 187.612 32.846C188.324 32.43 188.948 31.886 189.484 31.214C190.02 30.542 190.428 29.79 190.708 28.958ZM187.876 26.39H189.232C189.256 27.222 189.344 28.018 189.496 28.778C189.648 29.53 189.836 30.198 190.06 30.782C190.292 31.366 190.544 31.826 190.816 32.162C191.088 32.498 191.356 32.666 191.62 32.666C191.764 32.666 191.864 32.554 191.92 32.33C191.976 32.106 192.02 31.738 192.052 31.226C192.204 31.354 192.38 31.478 192.58 31.598C192.788 31.71 192.976 31.794 193.144 31.85C193.08 32.418 192.984 32.854 192.856 33.158C192.736 33.462 192.568 33.674 192.352 33.794C192.136 33.906 191.868 33.962 191.548 33.962C191.132 33.962 190.74 33.83 190.372 33.566C190.012 33.302 189.684 32.934 189.388 32.462C189.1 31.982 188.848 31.422 188.632 30.782C188.416 30.142 188.244 29.45 188.116 28.706C187.996 27.962 187.916 27.19 187.876 26.39ZM184.468 30.71H187.888V33.314H184.468V32.39H186.712V31.622H184.468V30.71ZM184.936 34.322H186.364V35.858C186.364 36.026 186.4 36.13 186.472 36.17C186.552 36.21 186.736 36.23 187.024 36.23C187.088 36.23 187.188 36.23 187.324 36.23C187.468 36.23 187.624 36.23 187.792 36.23C187.968 36.23 188.132 36.23 188.284 36.23C188.444 36.23 188.564 36.23 188.644 36.23C188.804 36.23 188.92 36.206 188.992 36.158C189.072 36.11 189.128 36.01 189.16 35.858C189.2 35.706 189.228 35.474 189.244 35.162C189.34 35.226 189.464 35.294 189.616 35.366C189.768 35.43 189.924 35.49 190.084 35.546C190.244 35.594 190.388 35.63 190.516 35.654C190.46 36.15 190.372 36.53 190.252 36.794C190.132 37.066 189.956 37.254 189.724 37.358C189.492 37.462 189.18 37.514 188.788 37.514C188.716 37.514 188.616 37.514 188.488 37.514C188.36 37.514 188.216 37.514 188.056 37.514C187.896 37.514 187.736 37.514 187.576 37.514C187.416 37.514 187.272 37.514 187.144 37.514C187.016 37.514 186.92 37.514 186.856 37.514C186.336 37.514 185.936 37.462 185.656 37.358C185.384 37.262 185.196 37.094 185.092 36.854C184.988 36.614 184.936 36.29 184.936 35.882V34.322ZM186.04 33.998L186.976 33.218C187.2 33.338 187.428 33.478 187.66 33.638C187.9 33.798 188.124 33.962 188.332 34.13C188.54 34.298 188.708 34.458 188.836 34.61L187.828 35.474C187.716 35.322 187.56 35.158 187.36 34.982C187.16 34.806 186.944 34.63 186.712 34.454C186.488 34.278 186.264 34.126 186.04 33.998ZM189.988 34.73L191.188 34.13C191.452 34.37 191.712 34.634 191.968 34.922C192.224 35.21 192.456 35.502 192.664 35.798C192.872 36.094 193.028 36.374 193.132 36.638L191.824 37.298C191.728 37.05 191.584 36.778 191.392 36.482C191.208 36.178 190.992 35.874 190.744 35.57C190.504 35.266 190.252 34.986 189.988 34.73ZM183.328 34.31L184.612 34.766C184.46 35.262 184.26 35.75 184.012 36.23C183.772 36.702 183.444 37.098 183.028 37.418L181.84 36.614C182.2 36.342 182.504 36.002 182.752 35.594C183 35.186 183.192 34.758 183.328 34.31ZM182.824 27.506H184.156V29.354C184.156 29.722 184.136 30.122 184.096 30.554C184.056 30.986 183.988 31.426 183.892 31.874C183.796 32.314 183.656 32.746 183.472 33.17C183.296 33.586 183.064 33.966 182.776 34.31C182.712 34.222 182.612 34.118 182.476 33.998C182.348 33.878 182.212 33.766 182.068 33.662C181.932 33.55 181.82 33.474 181.732 33.434C182.068 33.026 182.312 32.582 182.464 32.102C182.616 31.622 182.712 31.142 182.752 30.662C182.8 30.174 182.824 29.73 182.824 29.33V27.506Z" fill="#595959"/>
<path d="M199.42 27.194C199.388 27.346 199.352 27.514 199.312 27.698C199.272 27.874 199.236 28.038 199.204 28.19C199.172 28.366 199.132 28.566 199.084 28.79C199.036 29.006 198.988 29.226 198.94 29.45C198.9 29.666 198.856 29.878 198.808 30.086C198.728 30.43 198.628 30.83 198.508 31.286C198.388 31.742 198.248 32.234 198.088 32.762C197.928 33.282 197.748 33.806 197.548 34.334C197.348 34.862 197.136 35.378 196.912 35.882C196.688 36.378 196.448 36.826 196.192 37.226L194.632 36.602C194.912 36.226 195.172 35.806 195.412 35.342C195.66 34.87 195.884 34.39 196.084 33.902C196.284 33.406 196.46 32.918 196.612 32.438C196.772 31.95 196.908 31.498 197.02 31.082C197.14 30.666 197.232 30.31 197.296 30.014C197.408 29.47 197.496 28.946 197.56 28.442C197.624 27.938 197.648 27.462 197.632 27.014L199.42 27.194ZM203.548 28.406C203.74 28.67 203.936 28.994 204.136 29.378C204.344 29.754 204.548 30.154 204.748 30.578C204.948 31.002 205.128 31.41 205.288 31.802C205.448 32.194 205.572 32.534 205.66 32.822L204.136 33.518C204.064 33.182 203.956 32.81 203.812 32.402C203.676 31.994 203.516 31.582 203.332 31.166C203.148 30.742 202.952 30.342 202.744 29.966C202.544 29.59 202.336 29.274 202.12 29.018L203.548 28.406ZM194.548 29.654C194.764 29.67 194.976 29.678 195.184 29.678C195.4 29.67 195.616 29.662 195.832 29.654C196.032 29.646 196.272 29.634 196.552 29.618C196.832 29.594 197.128 29.57 197.44 29.546C197.76 29.522 198.08 29.498 198.4 29.474C198.72 29.442 199.016 29.418 199.288 29.402C199.56 29.386 199.784 29.378 199.96 29.378C200.392 29.378 200.768 29.45 201.088 29.594C201.408 29.73 201.66 29.966 201.844 30.302C202.036 30.638 202.132 31.094 202.132 31.67C202.132 32.142 202.112 32.654 202.072 33.206C202.032 33.758 201.96 34.286 201.856 34.79C201.76 35.294 201.624 35.722 201.448 36.074C201.256 36.49 200.992 36.778 200.656 36.938C200.328 37.098 199.936 37.178 199.48 37.178C199.256 37.178 199.012 37.158 198.748 37.118C198.484 37.086 198.248 37.05 198.04 37.01L197.788 35.426C197.94 35.466 198.108 35.506 198.292 35.546C198.484 35.586 198.664 35.618 198.832 35.642C199.008 35.666 199.148 35.678 199.252 35.678C199.452 35.678 199.628 35.642 199.78 35.57C199.932 35.49 200.056 35.354 200.152 35.162C200.264 34.93 200.356 34.63 200.428 34.262C200.5 33.894 200.552 33.498 200.584 33.074C200.624 32.642 200.644 32.23 200.644 31.838C200.644 31.518 200.596 31.282 200.5 31.13C200.412 30.978 200.28 30.878 200.104 30.83C199.936 30.774 199.728 30.746 199.48 30.746C199.296 30.746 199.048 30.762 198.736 30.794C198.424 30.818 198.088 30.85 197.728 30.89C197.376 30.922 197.048 30.958 196.744 30.998C196.44 31.038 196.204 31.066 196.036 31.082C195.86 31.114 195.636 31.15 195.364 31.19C195.1 31.222 194.876 31.254 194.692 31.286L194.548 29.654ZM203.332 26.738C203.436 26.882 203.544 27.054 203.656 27.254C203.776 27.454 203.892 27.654 204.004 27.854C204.116 28.054 204.212 28.23 204.292 28.382L203.32 28.802C203.24 28.634 203.148 28.45 203.044 28.25C202.94 28.05 202.832 27.85 202.72 27.65C202.608 27.45 202.496 27.278 202.384 27.134L203.332 26.738ZM204.76 26.198C204.864 26.35 204.976 26.526 205.096 26.726C205.216 26.926 205.332 27.126 205.444 27.326C205.564 27.526 205.656 27.694 205.72 27.83L204.772 28.238C204.644 27.99 204.492 27.71 204.316 27.398C204.14 27.078 203.968 26.806 203.8 26.582L204.76 26.198Z" fill="#595959"/>
<path d="M212.056 29.762H217.936V31.094H212.056V29.762ZM214.492 30.35H215.92V35.594H214.492V30.35ZM211.276 27.134L212.992 27.446C212.984 27.55 212.876 27.622 212.668 27.662V29.906C212.668 30.306 212.648 30.742 212.608 31.214C212.568 31.678 212.488 32.162 212.368 32.666C212.256 33.162 212.084 33.646 211.852 34.118C211.62 34.582 211.32 35.006 210.952 35.39C210.888 35.286 210.792 35.17 210.664 35.042C210.544 34.914 210.416 34.79 210.28 34.67C210.144 34.55 210.02 34.462 209.908 34.406C210.324 33.966 210.628 33.486 210.82 32.966C211.012 32.438 211.136 31.91 211.192 31.382C211.248 30.846 211.276 30.346 211.276 29.882V27.134ZM216.316 26.414L217.504 27.506C217.008 27.682 216.464 27.842 215.872 27.986C215.28 28.122 214.676 28.242 214.06 28.346C213.452 28.45 212.86 28.538 212.284 28.61C212.252 28.442 212.192 28.246 212.104 28.022C212.016 27.79 211.932 27.602 211.852 27.458C212.388 27.378 212.932 27.286 213.484 27.182C214.036 27.07 214.556 26.95 215.044 26.822C215.54 26.694 215.964 26.558 216.316 26.414ZM209.764 31.07V35.498H208.36V32.402H206.968V31.07H209.764ZM209.764 34.874C210.012 35.266 210.36 35.554 210.808 35.738C211.256 35.922 211.792 36.026 212.416 36.05C212.768 36.066 213.184 36.078 213.664 36.086C214.152 36.086 214.664 36.082 215.2 36.074C215.736 36.066 216.26 36.05 216.772 36.026C217.292 36.002 217.752 35.974 218.152 35.942C218.104 36.054 218.048 36.198 217.984 36.374C217.92 36.55 217.86 36.73 217.804 36.914C217.756 37.098 217.72 37.262 217.696 37.406C217.336 37.43 216.924 37.446 216.46 37.454C215.996 37.47 215.52 37.478 215.032 37.478C214.544 37.486 214.072 37.486 213.616 37.478C213.16 37.47 212.752 37.458 212.392 37.442C211.656 37.41 211.028 37.294 210.508 37.094C209.988 36.902 209.528 36.574 209.128 36.11C208.864 36.334 208.592 36.566 208.312 36.806C208.04 37.046 207.74 37.294 207.412 37.55L206.704 36.05C206.984 35.882 207.276 35.698 207.58 35.498C207.884 35.298 208.176 35.09 208.456 34.874H209.764ZM206.98 27.542L208.048 26.678C208.296 26.838 208.548 27.026 208.804 27.242C209.06 27.45 209.3 27.666 209.524 27.89C209.748 28.106 209.928 28.306 210.064 28.49L208.924 29.45C208.804 29.258 208.636 29.05 208.42 28.826C208.212 28.602 207.98 28.378 207.724 28.154C207.468 27.922 207.22 27.718 206.98 27.542Z" fill="#595959"/>
<path d="M222.04 28.01C222.008 28.154 221.98 28.318 221.956 28.502C221.94 28.686 221.924 28.866 221.908 29.042C221.9 29.218 221.896 29.362 221.896 29.474C221.888 29.738 221.884 30.01 221.884 30.29C221.892 30.57 221.9 30.858 221.908 31.154C221.924 31.442 221.944 31.73 221.968 32.018C222.024 32.594 222.104 33.102 222.208 33.542C222.312 33.982 222.448 34.326 222.616 34.574C222.784 34.814 222.996 34.934 223.252 34.934C223.388 34.934 223.52 34.858 223.648 34.706C223.784 34.554 223.904 34.358 224.008 34.118C224.12 33.87 224.216 33.61 224.296 33.338C224.384 33.066 224.46 32.81 224.524 32.57L225.724 34.034C225.46 34.73 225.196 35.286 224.932 35.702C224.676 36.11 224.408 36.406 224.128 36.59C223.848 36.766 223.544 36.854 223.216 36.854C222.784 36.854 222.372 36.71 221.98 36.422C221.596 36.134 221.268 35.67 220.996 35.03C220.724 34.382 220.532 33.522 220.42 32.45C220.38 32.082 220.348 31.694 220.324 31.286C220.308 30.878 220.296 30.49 220.288 30.122C220.288 29.754 220.288 29.45 220.288 29.21C220.288 29.042 220.28 28.842 220.264 28.61C220.248 28.378 220.224 28.17 220.192 27.986L222.04 28.01ZM228.04 28.286C228.264 28.558 228.48 28.89 228.688 29.282C228.896 29.674 229.088 30.094 229.264 30.542C229.44 30.99 229.596 31.45 229.732 31.922C229.868 32.386 229.976 32.842 230.056 33.29C230.144 33.73 230.2 34.134 230.224 34.502L228.64 35.114C228.6 34.626 228.528 34.094 228.424 33.518C228.32 32.942 228.18 32.362 228.004 31.778C227.828 31.194 227.616 30.642 227.368 30.122C227.128 29.602 226.844 29.154 226.516 28.778L228.04 28.286Z" fill="#595959"/>
<path d="M236.944 27.11C236.904 27.262 236.864 27.43 236.824 27.614C236.792 27.79 236.76 27.954 236.728 28.106C236.696 28.282 236.656 28.482 236.608 28.706C236.56 28.922 236.512 29.142 236.464 29.366C236.424 29.582 236.38 29.794 236.332 30.002C236.252 30.346 236.152 30.746 236.032 31.202C235.912 31.658 235.772 32.15 235.612 32.678C235.452 33.198 235.272 33.722 235.072 34.25C234.872 34.778 234.66 35.294 234.436 35.798C234.212 36.294 233.972 36.742 233.716 37.142L232.156 36.518C232.436 36.142 232.696 35.722 232.936 35.258C233.184 34.786 233.408 34.302 233.608 33.806C233.808 33.31 233.984 32.822 234.136 32.342C234.296 31.862 234.432 31.414 234.544 30.998C234.656 30.582 234.744 30.226 234.808 29.93C234.92 29.386 235.008 28.862 235.072 28.358C235.136 27.854 235.164 27.378 235.156 26.93L236.944 27.11ZM241.072 28.238C241.264 28.494 241.46 28.818 241.66 29.21C241.868 29.594 242.068 30.002 242.26 30.434C242.46 30.866 242.64 31.282 242.8 31.682C242.968 32.082 243.096 32.422 243.184 32.702L241.66 33.41C241.58 33.074 241.468 32.702 241.324 32.294C241.188 31.878 241.028 31.458 240.844 31.034C240.668 30.602 240.476 30.194 240.268 29.81C240.068 29.426 239.86 29.106 239.644 28.85L241.072 28.238ZM232.072 29.57C232.288 29.586 232.5 29.594 232.708 29.594C232.916 29.586 233.132 29.578 233.356 29.57C233.548 29.562 233.784 29.55 234.064 29.534C234.352 29.51 234.652 29.486 234.964 29.462C235.284 29.438 235.604 29.414 235.924 29.39C236.244 29.358 236.54 29.334 236.812 29.318C237.084 29.302 237.308 29.294 237.484 29.294C237.908 29.294 238.28 29.366 238.6 29.51C238.928 29.646 239.184 29.882 239.368 30.218C239.56 30.554 239.656 31.01 239.656 31.586C239.656 32.058 239.632 32.57 239.584 33.122C239.544 33.674 239.476 34.202 239.38 34.706C239.284 35.21 239.148 35.638 238.972 35.99C238.78 36.406 238.516 36.694 238.18 36.854C237.852 37.014 237.46 37.094 237.004 37.094C236.772 37.094 236.524 37.074 236.26 37.034C236.004 37.002 235.772 36.966 235.564 36.926L235.3 35.342C235.46 35.382 235.632 35.422 235.816 35.462C236.008 35.502 236.188 35.534 236.356 35.558C236.532 35.582 236.672 35.594 236.776 35.594C236.976 35.594 237.152 35.558 237.304 35.486C237.456 35.406 237.58 35.27 237.676 35.078C237.788 34.846 237.876 34.546 237.94 34.178C238.012 33.81 238.064 33.414 238.096 32.99C238.136 32.558 238.156 32.146 238.156 31.754C238.156 31.434 238.112 31.198 238.024 31.046C237.936 30.894 237.804 30.794 237.628 30.746C237.46 30.69 237.248 30.662 236.992 30.662C236.816 30.662 236.568 30.678 236.248 30.71C235.936 30.734 235.604 30.766 235.252 30.806C234.9 30.838 234.568 30.874 234.256 30.914C233.952 30.954 233.716 30.982 233.548 30.998C233.38 31.03 233.16 31.066 232.888 31.106C232.624 31.138 232.4 31.17 232.216 31.202L232.072 29.57Z" fill="#595959"/>
<path d="M247.888 26.93C248.176 27.018 248.536 27.11 248.968 27.206C249.4 27.302 249.852 27.398 250.324 27.494C250.796 27.582 251.24 27.658 251.656 27.722C252.08 27.786 252.424 27.834 252.688 27.866L252.328 29.33C252.088 29.298 251.796 29.254 251.452 29.198C251.116 29.134 250.756 29.066 250.372 28.994C249.996 28.922 249.624 28.85 249.256 28.778C248.888 28.698 248.552 28.622 248.248 28.55C247.944 28.478 247.696 28.418 247.504 28.37L247.888 26.93ZM247.96 29.342C247.92 29.502 247.876 29.71 247.828 29.966C247.788 30.214 247.748 30.474 247.708 30.746C247.668 31.018 247.628 31.278 247.588 31.526C247.556 31.774 247.528 31.982 247.504 32.15C248.048 31.758 248.616 31.47 249.208 31.286C249.808 31.102 250.42 31.01 251.044 31.01C251.748 31.01 252.348 31.138 252.844 31.394C253.34 31.65 253.716 31.986 253.972 32.402C254.236 32.818 254.368 33.27 254.368 33.758C254.368 34.302 254.252 34.806 254.02 35.27C253.788 35.734 253.408 36.13 252.88 36.458C252.352 36.786 251.66 37.018 250.804 37.154C249.948 37.29 248.896 37.306 247.648 37.202L247.192 35.63C248.392 35.79 249.4 35.814 250.216 35.702C251.032 35.582 251.648 35.35 252.064 35.006C252.488 34.654 252.7 34.226 252.7 33.722C252.7 33.458 252.624 33.226 252.472 33.026C252.32 32.818 252.108 32.658 251.836 32.546C251.564 32.426 251.256 32.366 250.912 32.366C250.24 32.366 249.608 32.49 249.016 32.738C248.432 32.978 247.952 33.326 247.576 33.782C247.472 33.91 247.384 34.03 247.312 34.142C247.248 34.246 247.188 34.358 247.132 34.478L245.752 34.13C245.8 33.898 245.848 33.626 245.896 33.314C245.944 32.994 245.992 32.654 246.04 32.294C246.088 31.926 246.132 31.558 246.172 31.19C246.212 30.822 246.248 30.458 246.28 30.098C246.312 29.738 246.336 29.41 246.352 29.114L247.96 29.342Z" fill="#595959"/>
<path d="M128.752 55.338H133.96V54.81H128.752V55.338ZM128.752 53.97H133.96V53.454H128.752V53.97ZM135.388 52.578V56.226H127.384V52.578H135.388ZM134.404 50.166C134.276 50.398 134.156 50.61 134.044 50.802C133.932 50.986 133.832 51.146 133.744 51.282L132.472 51.006C132.552 50.838 132.632 50.654 132.712 50.454C132.792 50.246 132.856 50.062 132.904 49.902L134.404 50.166ZM129.712 49.902C129.808 50.07 129.892 50.258 129.964 50.466C130.044 50.666 130.104 50.842 130.144 50.994L128.776 51.306C128.744 51.146 128.692 50.958 128.62 50.742C128.556 50.526 128.484 50.334 128.404 50.166L129.712 49.902ZM132.028 48.39V49.842H130.588V48.39H132.028ZM136.552 51.018V52.134H126.124V51.018H136.552ZM135.916 49.038V50.154H126.7V49.038H135.916ZM128.44 57.054C128.272 57.51 128.056 57.95 127.792 58.374C127.536 58.79 127.196 59.142 126.772 59.43L125.644 58.662C126.02 58.43 126.344 58.13 126.616 57.762C126.888 57.394 127.092 57.014 127.228 56.622L128.44 57.054ZM135.016 56.478C135.264 56.678 135.516 56.906 135.772 57.162C136.028 57.418 136.264 57.674 136.48 57.93C136.696 58.186 136.864 58.43 136.984 58.662L135.796 59.358C135.684 59.142 135.524 58.898 135.316 58.626C135.116 58.362 134.892 58.098 134.644 57.834C134.396 57.562 134.148 57.318 133.9 57.102L135.016 56.478ZM130.84 55.95C131.072 56.046 131.312 56.158 131.56 56.286C131.816 56.414 132.056 56.546 132.28 56.682C132.512 56.81 132.7 56.938 132.844 57.066L132.016 57.906C131.88 57.778 131.7 57.646 131.476 57.51C131.26 57.366 131.028 57.226 130.78 57.09C130.532 56.946 130.296 56.822 130.072 56.718L130.84 55.95ZM130.144 58.026C130.144 58.186 130.184 58.286 130.264 58.326C130.352 58.358 130.532 58.374 130.804 58.374C130.868 58.374 130.972 58.374 131.116 58.374C131.26 58.374 131.42 58.374 131.596 58.374C131.772 58.374 131.936 58.374 132.088 58.374C132.248 58.374 132.368 58.374 132.448 58.374C132.6 58.374 132.712 58.354 132.784 58.314C132.856 58.266 132.908 58.174 132.94 58.038C132.98 57.894 133.008 57.682 133.024 57.402C133.168 57.498 133.36 57.59 133.6 57.678C133.848 57.758 134.064 57.814 134.248 57.846C134.2 58.302 134.116 58.65 133.996 58.89C133.876 59.138 133.704 59.306 133.48 59.394C133.264 59.49 132.964 59.538 132.58 59.538C132.516 59.538 132.416 59.538 132.28 59.538C132.152 59.538 132.008 59.538 131.848 59.538C131.688 59.538 131.528 59.538 131.368 59.538C131.208 59.538 131.06 59.538 130.924 59.538C130.796 59.538 130.7 59.538 130.636 59.538C130.132 59.538 129.744 59.494 129.472 59.406C129.2 59.318 129.012 59.162 128.908 58.938C128.804 58.722 128.752 58.426 128.752 58.05V56.778H130.144V58.026Z" fill="#595959"/>
<path d="M141.292 51.93V52.674H146.32V51.93H141.292ZM141.292 53.85V54.606H146.32V53.85H141.292ZM141.292 50.022V50.766H146.32V50.022H141.292ZM139.9 48.774H147.784V55.854H139.9V48.774ZM144.352 54.894H145.828V57.762C145.828 57.954 145.856 58.078 145.912 58.134C145.976 58.182 146.12 58.206 146.344 58.206C146.392 58.206 146.468 58.206 146.572 58.206C146.684 58.206 146.808 58.206 146.944 58.206C147.08 58.206 147.208 58.206 147.328 58.206C147.448 58.206 147.54 58.206 147.604 58.206C147.74 58.206 147.844 58.17 147.916 58.098C147.988 58.026 148.04 57.874 148.072 57.642C148.104 57.41 148.128 57.058 148.144 56.586C148.248 56.666 148.376 56.746 148.528 56.826C148.688 56.906 148.852 56.974 149.02 57.03C149.196 57.086 149.344 57.134 149.464 57.174C149.416 57.806 149.332 58.294 149.212 58.638C149.092 58.99 148.916 59.234 148.684 59.37C148.452 59.506 148.136 59.574 147.736 59.574C147.672 59.574 147.584 59.574 147.472 59.574C147.368 59.574 147.252 59.574 147.124 59.574C146.996 59.574 146.864 59.574 146.728 59.574C146.6 59.574 146.484 59.574 146.38 59.574C146.276 59.574 146.196 59.574 146.14 59.574C145.668 59.574 145.3 59.518 145.036 59.406C144.78 59.294 144.6 59.106 144.496 58.842C144.4 58.578 144.352 58.222 144.352 57.774V54.894ZM141.424 55.386H142.96C142.912 55.93 142.824 56.43 142.696 56.886C142.576 57.334 142.376 57.738 142.096 58.098C141.824 58.458 141.436 58.77 140.932 59.034C140.428 59.306 139.772 59.534 138.964 59.718C138.924 59.582 138.856 59.434 138.76 59.274C138.672 59.122 138.572 58.966 138.46 58.806C138.356 58.654 138.252 58.53 138.148 58.434C138.844 58.306 139.4 58.15 139.816 57.966C140.232 57.774 140.548 57.554 140.764 57.306C140.988 57.058 141.144 56.778 141.232 56.466C141.32 56.146 141.384 55.786 141.424 55.386Z" fill="#595959"/>
<path d="M156.112 48.966C156.072 49.182 156.008 49.462 155.92 49.806C155.832 50.15 155.704 50.538 155.536 50.97C155.408 51.266 155.26 51.574 155.092 51.894C154.932 52.206 154.768 52.486 154.6 52.734C154.704 52.686 154.836 52.646 154.996 52.614C155.156 52.574 155.32 52.546 155.488 52.53C155.664 52.506 155.82 52.494 155.956 52.494C156.46 52.494 156.876 52.638 157.204 52.926C157.54 53.214 157.708 53.642 157.708 54.21C157.708 54.37 157.708 54.566 157.708 54.798C157.716 55.03 157.724 55.274 157.732 55.53C157.74 55.778 157.748 56.022 157.756 56.262C157.764 56.502 157.768 56.718 157.768 56.91H156.328C156.344 56.774 156.352 56.614 156.352 56.43C156.36 56.238 156.364 56.038 156.364 55.83C156.372 55.622 156.376 55.422 156.376 55.23C156.384 55.03 156.388 54.85 156.388 54.69C156.388 54.306 156.284 54.042 156.076 53.898C155.876 53.746 155.652 53.67 155.404 53.67C155.068 53.67 154.728 53.754 154.384 53.922C154.048 54.082 153.764 54.274 153.532 54.498C153.356 54.674 153.176 54.87 152.992 55.086C152.816 55.302 152.624 55.546 152.416 55.818L151.132 54.858C151.652 54.378 152.1 53.914 152.476 53.466C152.86 53.018 153.184 52.574 153.448 52.134C153.712 51.694 153.928 51.254 154.096 50.814C154.216 50.494 154.312 50.162 154.384 49.818C154.464 49.466 154.512 49.138 154.528 48.834L156.112 48.966ZM151.6 50.07C151.904 50.118 152.256 50.154 152.656 50.178C153.056 50.202 153.408 50.214 153.712 50.214C154.24 50.214 154.816 50.202 155.44 50.178C156.072 50.154 156.712 50.114 157.36 50.058C158.008 49.994 158.624 49.914 159.208 49.818L159.196 51.21C158.772 51.266 158.312 51.318 157.816 51.366C157.328 51.406 156.828 51.442 156.316 51.474C155.812 51.498 155.328 51.518 154.864 51.534C154.4 51.542 153.988 51.546 153.628 51.546C153.468 51.546 153.268 51.546 153.028 51.546C152.796 51.538 152.556 51.53 152.308 51.522C152.06 51.506 151.824 51.49 151.6 51.474V50.07ZM161.104 53.478C160.976 53.518 160.824 53.57 160.648 53.634C160.48 53.69 160.308 53.75 160.132 53.814C159.964 53.87 159.812 53.926 159.676 53.982C159.292 54.134 158.836 54.318 158.308 54.534C157.788 54.75 157.244 55.002 156.676 55.29C156.316 55.482 156.012 55.67 155.764 55.854C155.516 56.038 155.328 56.226 155.2 56.418C155.072 56.602 155.008 56.806 155.008 57.03C155.008 57.198 155.044 57.338 155.116 57.45C155.188 57.554 155.296 57.638 155.44 57.702C155.584 57.766 155.764 57.81 155.98 57.834C156.196 57.858 156.452 57.87 156.748 57.87C157.26 57.87 157.824 57.842 158.44 57.786C159.056 57.722 159.628 57.638 160.156 57.534L160.108 59.082C159.852 59.114 159.528 59.146 159.136 59.178C158.744 59.218 158.336 59.246 157.912 59.262C157.496 59.278 157.096 59.286 156.712 59.286C156.088 59.286 155.528 59.226 155.032 59.106C154.536 58.986 154.144 58.782 153.856 58.494C153.576 58.198 153.436 57.794 153.436 57.282C153.436 56.866 153.528 56.49 153.712 56.154C153.904 55.818 154.156 55.514 154.468 55.242C154.78 54.97 155.12 54.726 155.488 54.51C155.864 54.286 156.232 54.082 156.592 53.898C156.96 53.706 157.292 53.542 157.588 53.406C157.884 53.27 158.16 53.15 158.416 53.046C158.68 52.934 158.932 52.822 159.172 52.71C159.404 52.606 159.628 52.506 159.844 52.41C160.06 52.306 160.28 52.198 160.504 52.086L161.104 53.478Z" fill="#595959"/>
<path d="M165.796 58.062H171.832V59.238H165.796V58.062ZM165.208 54.078H172.36V55.206H165.208V54.078ZM165.208 52.398H172.36V53.526H165.208V52.398ZM163.312 50.634H174.244V51.858H163.312V50.634ZM165.436 48.966H172.144V50.106H165.436V48.966ZM165.004 55.77H172.564V59.622H171.064V56.97H166.42V59.658H165.004V55.77Z" fill="#595959"/>
<path d="M178.36 50.01C178.328 50.154 178.3 50.318 178.276 50.502C178.26 50.686 178.244 50.866 178.228 51.042C178.22 51.218 178.216 51.362 178.216 51.474C178.208 51.738 178.204 52.01 178.204 52.29C178.212 52.57 178.22 52.858 178.228 53.154C178.244 53.442 178.264 53.73 178.288 54.018C178.344 54.594 178.424 55.102 178.528 55.542C178.632 55.982 178.768 56.326 178.936 56.574C179.104 56.814 179.316 56.934 179.572 56.934C179.708 56.934 179.84 56.858 179.968 56.706C180.104 56.554 180.224 56.358 180.328 56.118C180.44 55.87 180.536 55.61 180.616 55.338C180.704 55.066 180.78 54.81 180.844 54.57L182.044 56.034C181.78 56.73 181.516 57.286 181.252 57.702C180.996 58.11 180.728 58.406 180.448 58.59C180.168 58.766 179.864 58.854 179.536 58.854C179.104 58.854 178.692 58.71 178.3 58.422C177.916 58.134 177.588 57.67 177.316 57.03C177.044 56.382 176.852 55.522 176.74 54.45C176.7 54.082 176.668 53.694 176.644 53.286C176.628 52.878 176.616 52.49 176.608 52.122C176.608 51.754 176.608 51.45 176.608 51.21C176.608 51.042 176.6 50.842 176.584 50.61C176.568 50.378 176.544 50.17 176.512 49.986L178.36 50.01ZM184.36 50.286C184.584 50.558 184.8 50.89 185.008 51.282C185.216 51.674 185.408 52.094 185.584 52.542C185.76 52.99 185.916 53.45 186.052 53.922C186.188 54.386 186.296 54.842 186.376 55.29C186.464 55.73 186.52 56.134 186.544 56.502L184.96 57.114C184.92 56.626 184.848 56.094 184.744 55.518C184.64 54.942 184.5 54.362 184.324 53.778C184.148 53.194 183.936 52.642 183.688 52.122C183.448 51.602 183.164 51.154 182.836 50.778L184.36 50.286Z" fill="#595959"/>
<path d="M194.032 50.958C193.896 50.806 193.724 50.63 193.516 50.43C193.308 50.222 193.096 50.022 192.88 49.83C192.664 49.63 192.476 49.474 192.316 49.362L193.42 48.594C193.572 48.698 193.756 48.846 193.972 49.038C194.188 49.222 194.404 49.414 194.62 49.614C194.844 49.806 195.024 49.978 195.16 50.13L194.032 50.958ZM190.768 49.674C190.808 49.746 190.856 49.842 190.912 49.962C190.968 50.082 191.028 50.202 191.092 50.322C191.156 50.434 191.208 50.53 191.248 50.61C191.496 51.074 191.748 51.586 192.004 52.146C192.26 52.698 192.496 53.226 192.712 53.73C192.848 54.058 193.004 54.45 193.18 54.906C193.364 55.362 193.544 55.838 193.72 56.334C193.896 56.83 194.06 57.306 194.212 57.762C194.372 58.218 194.5 58.614 194.596 58.95L192.952 59.382C192.832 58.878 192.684 58.33 192.508 57.738C192.332 57.146 192.144 56.562 191.944 55.986C191.744 55.402 191.544 54.87 191.344 54.39C191.184 54.014 191.024 53.646 190.864 53.286C190.712 52.926 190.556 52.582 190.396 52.254C190.244 51.918 190.084 51.61 189.916 51.33C189.836 51.178 189.728 51.002 189.592 50.802C189.464 50.602 189.336 50.426 189.208 50.274L190.768 49.674ZM188.176 53.19C188.416 53.134 188.648 53.066 188.872 52.986C189.104 52.906 189.268 52.846 189.364 52.806C189.804 52.63 190.248 52.442 190.696 52.242C191.152 52.042 191.608 51.842 192.064 51.642C192.528 51.434 192.98 51.25 193.42 51.09C193.868 50.922 194.304 50.79 194.728 50.694C195.16 50.59 195.564 50.538 195.94 50.538C196.564 50.538 197.096 50.65 197.536 50.874C197.984 51.098 198.324 51.402 198.556 51.786C198.796 52.17 198.916 52.594 198.916 53.058C198.916 53.618 198.796 54.106 198.556 54.522C198.316 54.93 197.972 55.246 197.524 55.47C197.076 55.694 196.544 55.806 195.928 55.806C195.608 55.806 195.276 55.77 194.932 55.698C194.596 55.626 194.312 55.55 194.08 55.47L194.116 53.958C194.388 54.078 194.668 54.178 194.956 54.258C195.244 54.33 195.52 54.366 195.784 54.366C196.08 54.366 196.344 54.314 196.576 54.21C196.816 54.098 197.004 53.942 197.14 53.742C197.276 53.542 197.344 53.298 197.344 53.01C197.344 52.81 197.284 52.626 197.164 52.458C197.052 52.29 196.888 52.158 196.672 52.062C196.464 51.958 196.208 51.906 195.904 51.906C195.512 51.906 195.068 51.982 194.572 52.134C194.084 52.278 193.568 52.466 193.024 52.698C192.48 52.93 191.948 53.178 191.428 53.442C190.908 53.698 190.428 53.942 189.988 54.174C189.548 54.398 189.18 54.578 188.884 54.714L188.176 53.19Z" fill="#595959"/>
<path d="M208.036 48.918C208.028 48.982 208.016 49.086 208 49.23C207.992 49.366 207.984 49.506 207.976 49.65C207.968 49.786 207.96 49.886 207.952 49.95C207.944 50.11 207.94 50.326 207.94 50.598C207.94 50.862 207.94 51.158 207.94 51.486C207.94 51.814 207.94 52.146 207.94 52.482C207.948 52.81 207.952 53.122 207.952 53.418C207.96 53.706 207.964 53.946 207.964 54.138L206.464 53.634C206.464 53.482 206.464 53.282 206.464 53.034C206.464 52.778 206.464 52.502 206.464 52.206C206.464 51.902 206.46 51.602 206.452 51.306C206.452 51.01 206.448 50.742 206.44 50.502C206.432 50.262 206.424 50.082 206.416 49.962C206.4 49.714 206.38 49.498 206.356 49.314C206.332 49.122 206.312 48.99 206.296 48.918H208.036ZM201.256 50.406C201.608 50.406 202.008 50.402 202.456 50.394C202.904 50.386 203.372 50.378 203.86 50.37C204.348 50.362 204.828 50.354 205.3 50.346C205.772 50.338 206.216 50.334 206.632 50.334C207.048 50.326 207.408 50.322 207.712 50.322C208.016 50.322 208.348 50.322 208.708 50.322C209.068 50.314 209.424 50.31 209.776 50.31C210.128 50.31 210.448 50.31 210.736 50.31C211.032 50.31 211.26 50.31 211.42 50.31L211.408 51.726C211.032 51.71 210.536 51.698 209.92 51.69C209.304 51.674 208.552 51.666 207.664 51.666C207.12 51.666 206.568 51.674 206.008 51.69C205.448 51.698 204.892 51.71 204.34 51.726C203.788 51.742 203.256 51.762 202.744 51.786C202.232 51.802 201.748 51.826 201.292 51.858L201.256 50.406ZM207.748 53.958C207.748 54.614 207.668 55.158 207.508 55.59C207.356 56.022 207.124 56.35 206.812 56.574C206.5 56.79 206.112 56.898 205.648 56.898C205.424 56.898 205.188 56.85 204.94 56.754C204.7 56.658 204.476 56.518 204.268 56.334C204.06 56.15 203.892 55.922 203.764 55.65C203.644 55.378 203.584 55.058 203.584 54.69C203.584 54.234 203.692 53.842 203.908 53.514C204.124 53.178 204.412 52.918 204.772 52.734C205.14 52.542 205.544 52.446 205.984 52.446C206.512 52.446 206.952 52.566 207.304 52.806C207.664 53.038 207.932 53.354 208.108 53.754C208.292 54.154 208.384 54.606 208.384 55.11C208.384 55.502 208.32 55.91 208.192 56.334C208.064 56.758 207.852 57.174 207.556 57.582C207.268 57.982 206.876 58.346 206.38 58.674C205.892 59.002 205.28 59.27 204.544 59.478L203.26 58.206C203.772 58.102 204.248 57.966 204.688 57.798C205.128 57.63 205.512 57.418 205.84 57.162C206.176 56.906 206.436 56.59 206.62 56.214C206.812 55.838 206.908 55.386 206.908 54.858C206.908 54.474 206.812 54.186 206.62 53.994C206.436 53.802 206.212 53.706 205.948 53.706C205.796 53.706 205.648 53.742 205.504 53.814C205.36 53.886 205.244 53.994 205.156 54.138C205.068 54.282 205.024 54.458 205.024 54.666C205.024 54.938 205.116 55.158 205.3 55.326C205.492 55.486 205.708 55.566 205.948 55.566C206.14 55.566 206.308 55.506 206.452 55.386C206.604 55.266 206.704 55.066 206.752 54.786C206.8 54.506 206.76 54.13 206.632 53.658L207.748 53.958Z" fill="#595959"/>
<path d="M215.8 50.01C215.768 50.154 215.74 50.318 215.716 50.502C215.7 50.686 215.684 50.866 215.668 51.042C215.66 51.218 215.656 51.362 215.656 51.474C215.648 51.738 215.644 52.01 215.644 52.29C215.652 52.57 215.66 52.858 215.668 53.154C215.684 53.442 215.704 53.73 215.728 54.018C215.784 54.594 215.864 55.102 215.968 55.542C216.072 55.982 216.208 56.326 216.376 56.574C216.544 56.814 216.756 56.934 217.012 56.934C217.148 56.934 217.28 56.858 217.408 56.706C217.544 56.554 217.664 56.358 217.768 56.118C217.88 55.87 217.976 55.61 218.056 55.338C218.144 55.066 218.22 54.81 218.284 54.57L219.484 56.034C219.22 56.73 218.956 57.286 218.692 57.702C218.436 58.11 218.168 58.406 217.888 58.59C217.608 58.766 217.304 58.854 216.976 58.854C216.544 58.854 216.132 58.71 215.74 58.422C215.356 58.134 215.028 57.67 214.756 57.03C214.484 56.382 214.292 55.522 214.18 54.45C214.14 54.082 214.108 53.694 214.084 53.286C214.068 52.878 214.056 52.49 214.048 52.122C214.048 51.754 214.048 51.45 214.048 51.21C214.048 51.042 214.04 50.842 214.024 50.61C214.008 50.378 213.984 50.17 213.952 49.986L215.8 50.01ZM221.8 50.286C222.024 50.558 222.24 50.89 222.448 51.282C222.656 51.674 222.848 52.094 223.024 52.542C223.2 52.99 223.356 53.45 223.492 53.922C223.628 54.386 223.736 54.842 223.816 55.29C223.904 55.73 223.96 56.134 223.984 56.502L222.4 57.114C222.36 56.626 222.288 56.094 222.184 55.518C222.08 54.942 221.94 54.362 221.764 53.778C221.588 53.194 221.376 52.642 221.128 52.122C220.888 51.602 220.604 51.154 220.276 50.778L221.8 50.286Z" fill="#595959"/>
</svg>
