<svg width="340" height="136" viewBox="0 0 340 136" fill="none" xmlns="http://www.w3.org/2000/svg">
<path d="M81.38 51.982H89.346V53.634H81.38V51.982ZM81.954 45.22H89.01V46.844H81.954V45.22ZM84.614 41.02H86.35V52.78H84.614V41.02ZM76.354 43.484H80.932V44.996H76.354V43.484ZM78.356 48.258L80.022 46.27V54.04H78.356V48.258ZM78.356 40.894H80.022V44.184H78.356V40.894ZM79.84 46.746C79.9707 46.83 80.148 46.97 80.372 47.166C80.6054 47.3527 80.8527 47.5627 81.114 47.796C81.3754 48.02 81.6134 48.23 81.828 48.426C82.0427 48.6127 82.1967 48.748 82.29 48.832L81.282 50.204C81.142 50.0267 80.9694 49.8213 80.764 49.588C80.568 49.3453 80.358 49.098 80.134 48.846C79.91 48.594 79.6907 48.356 79.476 48.132C79.2614 47.908 79.0794 47.7213 78.93 47.572L79.84 46.746ZM80.33 43.484H80.652L80.946 43.414L81.884 44.03C81.5387 44.9447 81.086 45.8173 80.526 46.648C79.966 47.4693 79.35 48.2113 78.678 48.874C78.006 49.5367 77.32 50.0873 76.62 50.526C76.5734 50.3767 76.4987 50.1993 76.396 49.994C76.3027 49.7793 76.2047 49.5787 76.102 49.392C76.0087 49.196 75.9154 49.042 75.822 48.93C76.466 48.594 77.082 48.1553 77.67 47.614C78.258 47.0633 78.7854 46.4613 79.252 45.808C79.7187 45.1453 80.078 44.4687 80.33 43.778V43.484Z" fill="#595959"/>
<path d="M94.386 42.63V43.54H100.07V42.63H94.386ZM92.692 41.328H101.848V44.842H92.692V41.328ZM93.728 48.174V48.776H100.602V48.174H93.728ZM93.728 49.84V50.442H100.602V49.84H93.728ZM93.728 46.522V47.11H100.602V46.522H93.728ZM92.062 45.374H102.352V51.59H92.062V45.374ZM94.778 51.296L96.262 52.346C95.8887 52.57 95.45 52.7893 94.946 53.004C94.4514 53.2187 93.938 53.4147 93.406 53.592C92.8834 53.7787 92.384 53.928 91.908 54.04C91.7494 53.8627 91.544 53.6573 91.292 53.424C91.0494 53.1907 90.83 52.9947 90.634 52.836C91.1287 52.724 91.6374 52.584 92.16 52.416C92.6827 52.248 93.1774 52.066 93.644 51.87C94.1107 51.674 94.4887 51.4827 94.778 51.296ZM97.844 52.43L99.328 51.38C99.8227 51.5013 100.345 51.6553 100.896 51.842C101.447 52.0193 101.979 52.2013 102.492 52.388C103.015 52.5653 103.467 52.7287 103.85 52.878L102.366 54.068C102.002 53.9 101.559 53.7133 101.036 53.508C100.523 53.312 99.986 53.1207 99.426 52.934C98.8754 52.7473 98.348 52.5793 97.844 52.43Z" fill="#595959"/>
<path d="M108.246 44.128H115.26V45.542H108.246V44.128ZM108.904 46.606H110.444V52.262H108.904V46.606ZM109.758 46.606H114.63V51.324H109.758V49.938H113.076V47.992H109.758V46.606ZM105.81 41.552H117.01V43.134H107.448V54.04H105.81V41.552ZM116.086 41.552H117.738V52.108C117.738 52.5467 117.687 52.892 117.584 53.144C117.481 53.396 117.295 53.592 117.024 53.732C116.753 53.8627 116.417 53.9467 116.016 53.984C115.615 54.0307 115.12 54.054 114.532 54.054C114.513 53.8953 114.471 53.7133 114.406 53.508C114.35 53.312 114.285 53.1113 114.21 52.906C114.135 52.71 114.051 52.5373 113.958 52.388C114.331 52.4067 114.691 52.4207 115.036 52.43C115.391 52.43 115.629 52.4253 115.75 52.416C115.881 52.4067 115.969 52.3787 116.016 52.332C116.063 52.2853 116.086 52.206 116.086 52.094V41.552Z" fill="#595959"/>
<path d="M120.748 51.716H131.976V53.396H120.748V51.716ZM119.978 45.094H132.732V46.746H119.978V45.094ZM125.396 40.908H127.202V52.892H125.396V40.908Z" fill="#595959"/>
<path d="M142.154 43.19C142.061 43.8993 141.939 44.6553 141.79 45.458C141.641 46.2607 141.44 47.0727 141.188 47.894C140.917 48.8367 140.6 49.6487 140.236 50.33C139.872 51.0113 139.471 51.5387 139.032 51.912C138.603 52.276 138.131 52.458 137.618 52.458C137.105 52.458 136.629 52.2853 136.19 51.94C135.761 51.5853 135.415 51.1 135.154 50.484C134.902 49.868 134.776 49.168 134.776 48.384C134.776 47.572 134.939 46.8067 135.266 46.088C135.593 45.3693 136.045 44.7347 136.624 44.184C137.212 43.624 137.893 43.1853 138.668 42.868C139.452 42.5507 140.297 42.392 141.202 42.392C142.07 42.392 142.849 42.532 143.54 42.812C144.24 43.092 144.837 43.4793 145.332 43.974C145.827 44.4687 146.205 45.0473 146.466 45.71C146.727 46.3727 146.858 47.0867 146.858 47.852C146.858 48.832 146.657 49.7093 146.256 50.484C145.855 51.2587 145.257 51.898 144.464 52.402C143.68 52.906 142.7 53.2513 141.524 53.438L140.474 51.772C140.745 51.744 140.983 51.7113 141.188 51.674C141.393 51.6367 141.589 51.5947 141.776 51.548C142.224 51.436 142.639 51.2773 143.022 51.072C143.414 50.8573 143.755 50.596 144.044 50.288C144.333 49.9707 144.557 49.602 144.716 49.182C144.884 48.762 144.968 48.3 144.968 47.796C144.968 47.2453 144.884 46.7413 144.716 46.284C144.548 45.8267 144.301 45.43 143.974 45.094C143.647 44.7487 143.251 44.4873 142.784 44.31C142.317 44.1233 141.781 44.03 141.174 44.03C140.427 44.03 139.769 44.1653 139.2 44.436C138.631 44.6973 138.15 45.038 137.758 45.458C137.366 45.878 137.067 46.3307 136.862 46.816C136.666 47.3013 136.568 47.7633 136.568 48.202C136.568 48.6687 136.624 49.0607 136.736 49.378C136.848 49.686 136.983 49.9193 137.142 50.078C137.31 50.2273 137.487 50.302 137.674 50.302C137.87 50.302 138.061 50.204 138.248 50.008C138.444 49.8027 138.635 49.4947 138.822 49.084C139.009 48.6733 139.195 48.1553 139.382 47.53C139.597 46.858 139.779 46.1393 139.928 45.374C140.077 44.6087 140.185 43.862 140.25 43.134L142.154 43.19Z" fill="#595959"/>
<path d="M155.93 51.8H162.048V53.368H155.93V51.8ZM155.188 41.398H161.796V42.98H156.84V54.026H155.188V41.398ZM149.434 47.054H150.792V52.15H149.434V47.054ZM150.988 42.84V44.632H152.878V42.84H150.988ZM149.532 41.412H154.418V46.06H149.532V41.412ZM151.408 45.486H152.906V51.744H151.408V45.486ZM148.706 51.884C149.21 51.8 149.789 51.6927 150.442 51.562C151.105 51.422 151.795 51.2727 152.514 51.114C153.242 50.946 153.965 50.7873 154.684 50.638L154.838 52.122C154.166 52.2807 153.485 52.444 152.794 52.612C152.103 52.7707 151.431 52.9247 150.778 53.074C150.134 53.2327 149.541 53.3727 149 53.494L148.706 51.884ZM152.108 47.698H154.614V49.168H152.108V47.698ZM155.972 44.716H161.32V50.022H155.972V48.468H159.668V46.27H155.972V44.716Z" fill="#595959"/>
<path d="M163.434 42.014H170.448V43.344H163.434V42.014ZM166.108 40.88H167.732V42.644H166.108V40.88ZM165.24 50.974C165.641 50.9553 166.099 50.932 166.612 50.904C167.125 50.876 167.671 50.8433 168.25 50.806L168.264 51.814C167.741 51.8607 167.233 51.9073 166.738 51.954C166.253 51.9913 165.791 52.0287 165.352 52.066L165.24 50.974ZM168.768 48.37H170.168V52.626C170.168 52.934 170.131 53.1813 170.056 53.368C169.981 53.564 169.832 53.718 169.608 53.83C169.403 53.9327 169.151 53.9933 168.852 54.012C168.553 54.0307 168.199 54.04 167.788 54.04C167.751 53.8533 167.69 53.6387 167.606 53.396C167.531 53.1627 167.452 52.9573 167.368 52.78C167.62 52.7893 167.858 52.794 168.082 52.794C168.315 52.794 168.469 52.794 168.544 52.794C168.628 52.794 168.684 52.78 168.712 52.752C168.749 52.724 168.768 52.6773 168.768 52.612V48.37ZM167.298 50.19L168.166 49.952C168.315 50.2973 168.451 50.6707 168.572 51.072C168.703 51.4733 168.782 51.8093 168.81 52.08L167.886 52.374C167.849 52.0847 167.774 51.7347 167.662 51.324C167.55 50.9133 167.429 50.5353 167.298 50.19ZM165.38 44.604L166.024 43.876C166.313 44.0253 166.617 44.198 166.934 44.394C167.251 44.5807 167.55 44.772 167.83 44.968C168.119 45.164 168.353 45.346 168.53 45.514L167.858 46.326C167.681 46.1487 167.452 45.9573 167.172 45.752C166.901 45.5467 166.607 45.346 166.29 45.15C165.982 44.9447 165.679 44.7627 165.38 44.604ZM166.262 47.292L167.62 47.488C167.536 47.964 167.443 48.4587 167.34 48.972C167.237 49.4853 167.135 49.9753 167.032 50.442C166.929 50.9087 166.827 51.3193 166.724 51.674L165.646 51.478C165.73 51.114 165.814 50.6893 165.898 50.204C165.982 49.7093 166.057 49.2053 166.122 48.692C166.187 48.1787 166.234 47.712 166.262 47.292ZM163.742 48.37H169.3V49.588H165.086V54.054H163.742V48.37ZM164.064 43.708H165.226V46.55H168.642V43.708H169.846V47.684H164.064V43.708ZM167.298 43.512L168.362 43.778C168.119 44.338 167.797 44.87 167.396 45.374C167.004 45.8687 166.593 46.2887 166.164 46.634C166.071 46.5313 165.931 46.41 165.744 46.27C165.567 46.13 165.413 46.0227 165.282 45.948C165.711 45.64 166.103 45.276 166.458 44.856C166.813 44.436 167.093 43.988 167.298 43.512ZM171.582 46.298H176.286V47.712H171.582V46.298ZM171.582 49.056H176.286V50.47H171.582V49.056ZM171.624 51.87H176.58V53.382H171.624V51.87ZM171.806 40.88L173.304 41.244C173.108 41.972 172.87 42.7 172.59 43.428C172.31 44.156 172.007 44.842 171.68 45.486C171.353 46.1207 171.013 46.6807 170.658 47.166C170.574 47.0727 170.457 46.9607 170.308 46.83C170.159 46.6993 170.005 46.5687 169.846 46.438C169.687 46.3073 169.552 46.2047 169.44 46.13C169.776 45.7007 170.093 45.206 170.392 44.646C170.691 44.086 170.961 43.484 171.204 42.84C171.447 42.196 171.647 41.5427 171.806 40.88ZM174.284 41.034L175.852 41.384C175.656 41.916 175.455 42.4527 175.25 42.994C175.054 43.526 174.863 43.9787 174.676 44.352L173.36 44.016C173.481 43.7453 173.598 43.4373 173.71 43.092C173.831 42.7467 173.943 42.3967 174.046 42.042C174.149 41.678 174.228 41.342 174.284 41.034ZM172.45 43.498H176.44V44.996H172.45V54.054H170.938V44.8L172.156 43.498H172.45ZM173.584 44.198H174.998V52.626H173.584V44.198Z" fill="#595959"/>
<path d="M187.052 41.678L187.878 40.74C188.214 40.852 188.569 40.9967 188.942 41.174C189.315 41.342 189.614 41.5147 189.838 41.692L188.97 42.7C188.765 42.5413 188.475 42.364 188.102 42.168C187.738 41.9627 187.388 41.7993 187.052 41.678ZM179.926 42.182H190.706V43.526H179.926V42.182ZM180.99 44.17H185.134V45.248H180.99V44.17ZM181.046 45.92H182.39V48.496H181.046V45.92ZM188.326 43.876L189.88 44.24C189.469 45.3787 188.914 46.41 188.214 47.334C187.523 48.2487 186.739 49 185.862 49.588C185.787 49.476 185.68 49.35 185.54 49.21C185.4 49.0607 185.255 48.916 185.106 48.776C184.957 48.6267 184.826 48.5053 184.714 48.412C185.545 47.9267 186.273 47.292 186.898 46.508C187.523 45.724 187.999 44.8467 188.326 43.876ZM185.022 40.88H186.604C186.632 41.8507 186.735 42.7793 186.912 43.666C187.089 44.5433 187.309 45.3227 187.57 46.004C187.841 46.6853 188.135 47.222 188.452 47.614C188.769 48.006 189.082 48.202 189.39 48.202C189.558 48.202 189.675 48.0713 189.74 47.81C189.805 47.5487 189.857 47.1193 189.894 46.522C190.071 46.6713 190.277 46.816 190.51 46.956C190.753 47.0867 190.972 47.1847 191.168 47.25C191.093 47.9127 190.981 48.4213 190.832 48.776C190.692 49.1307 190.496 49.378 190.244 49.518C189.992 49.6487 189.679 49.714 189.306 49.714C188.821 49.714 188.363 49.56 187.934 49.252C187.514 48.944 187.131 48.5147 186.786 47.964C186.45 47.404 186.156 46.7507 185.904 46.004C185.652 45.2573 185.451 44.45 185.302 43.582C185.162 42.714 185.069 41.8133 185.022 40.88ZM181.046 45.92H185.036V48.958H181.046V47.88H183.664V46.984H181.046V45.92ZM181.592 50.134H183.258V51.926C183.258 52.122 183.3 52.2433 183.384 52.29C183.477 52.3367 183.692 52.36 184.028 52.36C184.103 52.36 184.219 52.36 184.378 52.36C184.546 52.36 184.728 52.36 184.924 52.36C185.129 52.36 185.321 52.36 185.498 52.36C185.685 52.36 185.825 52.36 185.918 52.36C186.105 52.36 186.24 52.332 186.324 52.276C186.417 52.22 186.483 52.1033 186.52 51.926C186.567 51.7487 186.599 51.478 186.618 51.114C186.73 51.1887 186.875 51.268 187.052 51.352C187.229 51.4267 187.411 51.4967 187.598 51.562C187.785 51.618 187.953 51.66 188.102 51.688C188.037 52.2667 187.934 52.71 187.794 53.018C187.654 53.3353 187.449 53.5547 187.178 53.676C186.907 53.7973 186.543 53.858 186.086 53.858C186.002 53.858 185.885 53.858 185.736 53.858C185.587 53.858 185.419 53.858 185.232 53.858C185.045 53.858 184.859 53.858 184.672 53.858C184.485 53.858 184.317 53.858 184.168 53.858C184.019 53.858 183.907 53.858 183.832 53.858C183.225 53.858 182.759 53.7973 182.432 53.676C182.115 53.564 181.895 53.368 181.774 53.088C181.653 52.808 181.592 52.43 181.592 51.954V50.134ZM182.88 49.756L183.972 48.846C184.233 48.986 184.499 49.1493 184.77 49.336C185.05 49.5227 185.311 49.714 185.554 49.91C185.797 50.106 185.993 50.2927 186.142 50.47L184.966 51.478C184.835 51.3007 184.653 51.1093 184.42 50.904C184.187 50.6987 183.935 50.4933 183.664 50.288C183.403 50.0827 183.141 49.9053 182.88 49.756ZM187.486 50.61L188.886 49.91C189.194 50.19 189.497 50.498 189.796 50.834C190.095 51.17 190.365 51.5107 190.608 51.856C190.851 52.2013 191.033 52.528 191.154 52.836L189.628 53.606C189.516 53.3167 189.348 52.9993 189.124 52.654C188.909 52.2993 188.657 51.9447 188.368 51.59C188.088 51.2353 187.794 50.9087 187.486 50.61ZM179.716 50.12L181.214 50.652C181.037 51.2307 180.803 51.8 180.514 52.36C180.234 52.9107 179.851 53.3727 179.366 53.746L177.98 52.808C178.4 52.4907 178.755 52.094 179.044 51.618C179.333 51.142 179.557 50.6427 179.716 50.12ZM179.128 42.182H180.682V44.338C180.682 44.7673 180.659 45.234 180.612 45.738C180.565 46.242 180.486 46.7553 180.374 47.278C180.262 47.7913 180.099 48.2953 179.884 48.79C179.679 49.2753 179.408 49.7187 179.072 50.12C178.997 50.0173 178.881 49.896 178.722 49.756C178.573 49.616 178.414 49.4853 178.246 49.364C178.087 49.2333 177.957 49.1447 177.854 49.098C178.246 48.622 178.531 48.104 178.708 47.544C178.885 46.984 178.997 46.424 179.044 45.864C179.1 45.2947 179.128 44.7767 179.128 44.31V42.182Z" fill="#595959"/>
<path d="M198.49 41.818C198.453 41.9953 198.411 42.1913 198.364 42.406C198.317 42.6113 198.275 42.8027 198.238 42.98C198.201 43.1853 198.154 43.4187 198.098 43.68C198.042 43.932 197.986 44.1887 197.93 44.45C197.883 44.702 197.832 44.9493 197.776 45.192C197.683 45.5933 197.566 46.06 197.426 46.592C197.286 47.124 197.123 47.698 196.936 48.314C196.749 48.9207 196.539 49.532 196.306 50.148C196.073 50.764 195.825 51.366 195.564 51.954C195.303 52.5327 195.023 53.0553 194.724 53.522L192.904 52.794C193.231 52.3553 193.534 51.8653 193.814 51.324C194.103 50.7733 194.365 50.2133 194.598 49.644C194.831 49.0653 195.037 48.496 195.214 47.936C195.401 47.3667 195.559 46.8393 195.69 46.354C195.83 45.8687 195.937 45.4533 196.012 45.108C196.143 44.4733 196.245 43.862 196.32 43.274C196.395 42.686 196.423 42.1307 196.404 41.608L198.49 41.818ZM203.306 43.232C203.53 43.54 203.759 43.918 203.992 44.366C204.235 44.8047 204.473 45.2713 204.706 45.766C204.939 46.2607 205.149 46.7367 205.336 47.194C205.523 47.6513 205.667 48.048 205.77 48.384L203.992 49.196C203.908 48.804 203.782 48.37 203.614 47.894C203.455 47.418 203.269 46.9373 203.054 46.452C202.839 45.9573 202.611 45.4907 202.368 45.052C202.135 44.6133 201.892 44.2447 201.64 43.946L203.306 43.232ZM192.806 44.688C193.058 44.7067 193.305 44.716 193.548 44.716C193.8 44.7067 194.052 44.6973 194.304 44.688C194.537 44.6787 194.817 44.6647 195.144 44.646C195.471 44.618 195.816 44.59 196.18 44.562C196.553 44.534 196.927 44.506 197.3 44.478C197.673 44.4407 198.019 44.4127 198.336 44.394C198.653 44.3753 198.915 44.366 199.12 44.366C199.624 44.366 200.063 44.45 200.436 44.618C200.809 44.7767 201.103 45.052 201.318 45.444C201.542 45.836 201.654 46.368 201.654 47.04C201.654 47.5907 201.631 48.188 201.584 48.832C201.537 49.476 201.453 50.092 201.332 50.68C201.22 51.268 201.061 51.7673 200.856 52.178C200.632 52.6633 200.324 52.9993 199.932 53.186C199.549 53.3727 199.092 53.466 198.56 53.466C198.299 53.466 198.014 53.4427 197.706 53.396C197.398 53.3587 197.123 53.3167 196.88 53.27L196.586 51.422C196.763 51.4687 196.959 51.5153 197.174 51.562C197.398 51.6087 197.608 51.646 197.804 51.674C198.009 51.702 198.173 51.716 198.294 51.716C198.527 51.716 198.733 51.674 198.91 51.59C199.087 51.4967 199.232 51.338 199.344 51.114C199.475 50.8433 199.582 50.4933 199.666 50.064C199.75 49.6347 199.811 49.1727 199.848 48.678C199.895 48.174 199.918 47.6933 199.918 47.236C199.918 46.8627 199.862 46.5873 199.75 46.41C199.647 46.2327 199.493 46.116 199.288 46.06C199.092 45.9947 198.849 45.962 198.56 45.962C198.345 45.962 198.056 45.9807 197.692 46.018C197.328 46.046 196.936 46.0833 196.516 46.13C196.105 46.1673 195.723 46.2093 195.368 46.256C195.013 46.3027 194.738 46.3353 194.542 46.354C194.337 46.3913 194.075 46.4333 193.758 46.48C193.45 46.5173 193.189 46.5547 192.974 46.592L192.806 44.688ZM203.054 41.286C203.175 41.454 203.301 41.6547 203.432 41.888C203.572 42.1213 203.707 42.3547 203.838 42.588C203.969 42.8213 204.081 43.0267 204.174 43.204L203.04 43.694C202.947 43.498 202.839 43.2833 202.718 43.05C202.597 42.8167 202.471 42.5833 202.34 42.35C202.209 42.1167 202.079 41.916 201.948 41.748L203.054 41.286ZM204.72 40.656C204.841 40.8333 204.972 41.0387 205.112 41.272C205.252 41.5053 205.387 41.7387 205.518 41.972C205.658 42.2053 205.765 42.4013 205.84 42.56L204.734 43.036C204.585 42.7467 204.407 42.42 204.202 42.056C203.997 41.6827 203.796 41.3653 203.6 41.104L204.72 40.656Z" fill="#595959"/>
<path d="M213.232 44.814H220.092V46.368H213.232V44.814ZM216.074 45.5H217.74V51.618H216.074V45.5ZM212.322 41.748L214.324 42.112C214.315 42.2333 214.189 42.3173 213.946 42.364V44.982C213.946 45.4487 213.923 45.9573 213.876 46.508C213.829 47.0493 213.736 47.614 213.596 48.202C213.465 48.7807 213.265 49.3453 212.994 49.896C212.723 50.4373 212.373 50.932 211.944 51.38C211.869 51.2587 211.757 51.1233 211.608 50.974C211.468 50.8247 211.319 50.68 211.16 50.54C211.001 50.4 210.857 50.2973 210.726 50.232C211.211 49.7187 211.566 49.1587 211.79 48.552C212.014 47.936 212.159 47.32 212.224 46.704C212.289 46.0787 212.322 45.4953 212.322 44.954V41.748ZM218.202 40.908L219.588 42.182C219.009 42.3873 218.375 42.574 217.684 42.742C216.993 42.9007 216.289 43.0407 215.57 43.162C214.861 43.2833 214.17 43.386 213.498 43.47C213.461 43.274 213.391 43.0453 213.288 42.784C213.185 42.5133 213.087 42.294 212.994 42.126C213.619 42.0327 214.254 41.9253 214.898 41.804C215.542 41.6733 216.149 41.5333 216.718 41.384C217.297 41.2347 217.791 41.076 218.202 40.908ZM210.558 46.34V51.506H208.92V47.894H207.296V46.34H210.558ZM210.558 50.778C210.847 51.2353 211.253 51.5713 211.776 51.786C212.299 52.0007 212.924 52.122 213.652 52.15C214.063 52.1687 214.548 52.1827 215.108 52.192C215.677 52.192 216.275 52.1873 216.9 52.178C217.525 52.1687 218.137 52.15 218.734 52.122C219.341 52.094 219.877 52.0613 220.344 52.024C220.288 52.1547 220.223 52.3227 220.148 52.528C220.073 52.7333 220.003 52.9433 219.938 53.158C219.882 53.3727 219.84 53.564 219.812 53.732C219.392 53.76 218.911 53.7787 218.37 53.788C217.829 53.8067 217.273 53.816 216.704 53.816C216.135 53.8253 215.584 53.8253 215.052 53.816C214.52 53.8067 214.044 53.7927 213.624 53.774C212.765 53.7367 212.033 53.6013 211.426 53.368C210.819 53.144 210.283 52.7613 209.816 52.22C209.508 52.4813 209.191 52.752 208.864 53.032C208.547 53.312 208.197 53.6013 207.814 53.9L206.988 52.15C207.315 51.954 207.655 51.7393 208.01 51.506C208.365 51.2727 208.705 51.03 209.032 50.778H210.558ZM207.31 42.224L208.556 41.216C208.845 41.4027 209.139 41.622 209.438 41.874C209.737 42.1167 210.017 42.3687 210.278 42.63C210.539 42.882 210.749 43.1153 210.908 43.33L209.578 44.45C209.438 44.226 209.242 43.9833 208.99 43.722C208.747 43.4607 208.477 43.1993 208.178 42.938C207.879 42.6673 207.59 42.4293 207.31 42.224Z" fill="#595959"/>
<path d="M224.88 42.77C224.843 42.938 224.81 43.1293 224.782 43.344C224.763 43.5587 224.745 43.7687 224.726 43.974C224.717 44.1793 224.712 44.3473 224.712 44.478C224.703 44.786 224.698 45.1033 224.698 45.43C224.707 45.7567 224.717 46.0927 224.726 46.438C224.745 46.774 224.768 47.11 224.796 47.446C224.861 48.118 224.955 48.7107 225.076 49.224C225.197 49.7373 225.356 50.1387 225.552 50.428C225.748 50.708 225.995 50.848 226.294 50.848C226.453 50.848 226.607 50.7593 226.756 50.582C226.915 50.4047 227.055 50.176 227.176 49.896C227.307 49.6067 227.419 49.3033 227.512 48.986C227.615 48.6687 227.703 48.37 227.778 48.09L229.178 49.798C228.87 50.61 228.562 51.2587 228.254 51.744C227.955 52.22 227.643 52.5653 227.316 52.78C226.989 52.9853 226.635 53.088 226.252 53.088C225.748 53.088 225.267 52.92 224.81 52.584C224.362 52.248 223.979 51.7067 223.662 50.96C223.345 50.204 223.121 49.2007 222.99 47.95C222.943 47.5207 222.906 47.068 222.878 46.592C222.859 46.116 222.845 45.6633 222.836 45.234C222.836 44.8047 222.836 44.45 222.836 44.17C222.836 43.974 222.827 43.7407 222.808 43.47C222.789 43.1993 222.761 42.9567 222.724 42.742L224.88 42.77ZM231.88 43.092C232.141 43.4093 232.393 43.7967 232.636 44.254C232.879 44.7113 233.103 45.2013 233.308 45.724C233.513 46.2467 233.695 46.7833 233.854 47.334C234.013 47.8753 234.139 48.4073 234.232 48.93C234.335 49.4433 234.4 49.9147 234.428 50.344L232.58 51.058C232.533 50.4887 232.449 49.868 232.328 49.196C232.207 48.524 232.043 47.8473 231.838 47.166C231.633 46.4847 231.385 45.8407 231.096 45.234C230.816 44.6273 230.485 44.1047 230.102 43.666L231.88 43.092Z" fill="#595959"/>
<path d="M242.268 41.72C242.221 41.8973 242.175 42.0933 242.128 42.308C242.091 42.5133 242.053 42.7047 242.016 42.882C241.979 43.0873 241.932 43.3207 241.876 43.582C241.82 43.834 241.764 44.0907 241.708 44.352C241.661 44.604 241.61 44.8513 241.554 45.094C241.461 45.4953 241.344 45.962 241.204 46.494C241.064 47.026 240.901 47.6 240.714 48.216C240.527 48.8227 240.317 49.434 240.084 50.05C239.851 50.666 239.603 51.268 239.342 51.856C239.081 52.4347 238.801 52.9573 238.502 53.424L236.682 52.696C237.009 52.2573 237.312 51.7673 237.592 51.226C237.881 50.6753 238.143 50.1107 238.376 49.532C238.609 48.9533 238.815 48.384 238.992 47.824C239.179 47.264 239.337 46.7413 239.468 46.256C239.599 45.7707 239.701 45.3553 239.776 45.01C239.907 44.3753 240.009 43.764 240.084 43.176C240.159 42.588 240.191 42.0327 240.182 41.51L242.268 41.72ZM247.084 43.036C247.308 43.3347 247.537 43.7127 247.77 44.17C248.013 44.618 248.246 45.094 248.47 45.598C248.703 46.102 248.913 46.5873 249.1 47.054C249.296 47.5207 249.445 47.9173 249.548 48.244L247.77 49.07C247.677 48.678 247.546 48.244 247.378 47.768C247.219 47.2827 247.033 46.7927 246.818 46.298C246.613 45.794 246.389 45.318 246.146 44.87C245.913 44.422 245.67 44.0487 245.418 43.75L247.084 43.036ZM236.584 44.59C236.836 44.6087 237.083 44.618 237.326 44.618C237.569 44.6087 237.821 44.5993 238.082 44.59C238.306 44.5807 238.581 44.5667 238.908 44.548C239.244 44.52 239.594 44.492 239.958 44.464C240.331 44.436 240.705 44.408 241.078 44.38C241.451 44.3427 241.797 44.3147 242.114 44.296C242.431 44.2773 242.693 44.268 242.898 44.268C243.393 44.268 243.827 44.352 244.2 44.52C244.583 44.6787 244.881 44.954 245.096 45.346C245.32 45.738 245.432 46.27 245.432 46.942C245.432 47.4927 245.404 48.09 245.348 48.734C245.301 49.378 245.222 49.994 245.11 50.582C244.998 51.17 244.839 51.6693 244.634 52.08C244.41 52.5653 244.102 52.9013 243.71 53.088C243.327 53.2747 242.87 53.368 242.338 53.368C242.067 53.368 241.778 53.3447 241.47 53.298C241.171 53.2607 240.901 53.2187 240.658 53.172L240.35 51.324C240.537 51.3707 240.737 51.4173 240.952 51.464C241.176 51.5107 241.386 51.548 241.582 51.576C241.787 51.604 241.951 51.618 242.072 51.618C242.305 51.618 242.511 51.576 242.688 51.492C242.865 51.3987 243.01 51.24 243.122 51.016C243.253 50.7453 243.355 50.3953 243.43 49.966C243.514 49.5367 243.575 49.0747 243.612 48.58C243.659 48.076 243.682 47.5953 243.682 47.138C243.682 46.7647 243.631 46.4893 243.528 46.312C243.425 46.1347 243.271 46.018 243.066 45.962C242.87 45.8967 242.623 45.864 242.324 45.864C242.119 45.864 241.829 45.8827 241.456 45.92C241.092 45.948 240.705 45.9853 240.294 46.032C239.883 46.0693 239.496 46.1113 239.132 46.158C238.777 46.2047 238.502 46.2373 238.306 46.256C238.11 46.2933 237.853 46.3353 237.536 46.382C237.228 46.4193 236.967 46.4567 236.752 46.494L236.584 44.59Z" fill="#595959"/>
<path d="M255.036 41.51C255.372 41.6127 255.792 41.72 256.296 41.832C256.8 41.944 257.327 42.056 257.878 42.168C258.429 42.2707 258.947 42.3593 259.432 42.434C259.927 42.5087 260.328 42.5647 260.636 42.602L260.216 44.31C259.936 44.2727 259.595 44.2213 259.194 44.156C258.802 44.0813 258.382 44.002 257.934 43.918C257.495 43.834 257.061 43.75 256.632 43.666C256.203 43.5727 255.811 43.484 255.456 43.4C255.101 43.316 254.812 43.246 254.588 43.19L255.036 41.51ZM255.12 44.324C255.073 44.5107 255.022 44.7533 254.966 45.052C254.919 45.3413 254.873 45.6447 254.826 45.962C254.779 46.2793 254.733 46.5827 254.686 46.872C254.649 47.1613 254.616 47.404 254.588 47.6C255.223 47.1427 255.885 46.8067 256.576 46.592C257.276 46.3773 257.99 46.27 258.718 46.27C259.539 46.27 260.239 46.4193 260.818 46.718C261.397 47.0167 261.835 47.4087 262.134 47.894C262.442 48.3793 262.596 48.9067 262.596 49.476C262.596 50.1107 262.461 50.6987 262.19 51.24C261.919 51.7813 261.476 52.2433 260.86 52.626C260.244 53.0087 259.437 53.2793 258.438 53.438C257.439 53.5967 256.212 53.6153 254.756 53.494L254.224 51.66C255.624 51.8467 256.8 51.8747 257.752 51.744C258.704 51.604 259.423 51.3333 259.908 50.932C260.403 50.5213 260.65 50.022 260.65 49.434C260.65 49.126 260.561 48.8553 260.384 48.622C260.207 48.3793 259.959 48.1927 259.642 48.062C259.325 47.922 258.965 47.852 258.564 47.852C257.78 47.852 257.043 47.9967 256.352 48.286C255.671 48.566 255.111 48.972 254.672 49.504C254.551 49.6533 254.448 49.7933 254.364 49.924C254.289 50.0453 254.219 50.176 254.154 50.316L252.544 49.91C252.6 49.6393 252.656 49.322 252.712 48.958C252.768 48.5847 252.824 48.188 252.88 47.768C252.936 47.3387 252.987 46.9093 253.034 46.48C253.081 46.0507 253.123 45.626 253.16 45.206C253.197 44.786 253.225 44.4033 253.244 44.058L255.12 44.324Z" fill="#595959"/>
<path d="M116.044 73.986H122.12V73.37H116.044V73.986ZM116.044 72.39H122.12V71.788H116.044V72.39ZM123.786 70.766V75.022H114.448V70.766H123.786ZM122.638 67.952C122.489 68.2227 122.349 68.47 122.218 68.694C122.087 68.9087 121.971 69.0953 121.868 69.254L120.384 68.932C120.477 68.736 120.571 68.5213 120.664 68.288C120.757 68.0453 120.832 67.8307 120.888 67.644L122.638 67.952ZM117.164 67.644C117.276 67.84 117.374 68.0593 117.458 68.302C117.551 68.5353 117.621 68.7407 117.668 68.918L116.072 69.282C116.035 69.0953 115.974 68.876 115.89 68.624C115.815 68.372 115.731 68.148 115.638 67.952L117.164 67.644ZM119.866 65.88V67.574H118.186V65.88H119.866ZM125.144 68.946V70.248H112.978V68.946H125.144ZM124.402 66.636V67.938H113.65V66.636H124.402ZM115.68 75.988C115.484 76.52 115.232 77.0333 114.924 77.528C114.625 78.0133 114.229 78.424 113.734 78.76L112.418 77.864C112.857 77.5933 113.235 77.2433 113.552 76.814C113.869 76.3847 114.107 75.9413 114.266 75.484L115.68 75.988ZM123.352 75.316C123.641 75.5493 123.935 75.8153 124.234 76.114C124.533 76.4127 124.808 76.7113 125.06 77.01C125.312 77.3087 125.508 77.5933 125.648 77.864L124.262 78.676C124.131 78.424 123.945 78.1393 123.702 77.822C123.469 77.514 123.207 77.206 122.918 76.898C122.629 76.5807 122.339 76.296 122.05 76.044L123.352 75.316ZM118.48 74.7C118.751 74.812 119.031 74.9427 119.32 75.092C119.619 75.2413 119.899 75.3953 120.16 75.554C120.431 75.7033 120.65 75.8527 120.818 76.002L119.852 76.982C119.693 76.8327 119.483 76.6787 119.222 76.52C118.97 76.352 118.699 76.1887 118.41 76.03C118.121 75.862 117.845 75.7173 117.584 75.596L118.48 74.7ZM117.668 77.122C117.668 77.3087 117.715 77.4253 117.808 77.472C117.911 77.5093 118.121 77.528 118.438 77.528C118.513 77.528 118.634 77.528 118.802 77.528C118.97 77.528 119.157 77.528 119.362 77.528C119.567 77.528 119.759 77.528 119.936 77.528C120.123 77.528 120.263 77.528 120.356 77.528C120.533 77.528 120.664 77.5047 120.748 77.458C120.832 77.402 120.893 77.2947 120.93 77.136C120.977 76.968 121.009 76.7207 121.028 76.394C121.196 76.506 121.42 76.6133 121.7 76.716C121.989 76.8093 122.241 76.8747 122.456 76.912C122.4 77.444 122.302 77.85 122.162 78.13C122.022 78.4193 121.821 78.6153 121.56 78.718C121.308 78.83 120.958 78.886 120.51 78.886C120.435 78.886 120.319 78.886 120.16 78.886C120.011 78.886 119.843 78.886 119.656 78.886C119.469 78.886 119.283 78.886 119.096 78.886C118.909 78.886 118.737 78.886 118.578 78.886C118.429 78.886 118.317 78.886 118.242 78.886C117.654 78.886 117.201 78.8347 116.884 78.732C116.567 78.6293 116.347 78.4473 116.226 78.186C116.105 77.934 116.044 77.5887 116.044 77.15V75.666H117.668V77.122Z" fill="#595959"/>
<path d="M130.674 70.01V70.878H136.54V70.01H130.674ZM130.674 72.25V73.132H136.54V72.25H130.674ZM130.674 67.784V68.652H136.54V67.784H130.674ZM129.05 66.328H138.248V74.588H129.05V66.328ZM134.244 73.468H135.966V76.814C135.966 77.038 135.999 77.1827 136.064 77.248C136.139 77.304 136.307 77.332 136.568 77.332C136.624 77.332 136.713 77.332 136.834 77.332C136.965 77.332 137.109 77.332 137.268 77.332C137.427 77.332 137.576 77.332 137.716 77.332C137.856 77.332 137.963 77.332 138.038 77.332C138.197 77.332 138.318 77.29 138.402 77.206C138.486 77.122 138.547 76.9447 138.584 76.674C138.621 76.4033 138.649 75.9927 138.668 75.442C138.789 75.5353 138.939 75.6287 139.116 75.722C139.303 75.8153 139.494 75.8947 139.69 75.96C139.895 76.0253 140.068 76.0813 140.208 76.128C140.152 76.8653 140.054 77.4347 139.914 77.836C139.774 78.2467 139.569 78.5313 139.298 78.69C139.027 78.8487 138.659 78.928 138.192 78.928C138.117 78.928 138.015 78.928 137.884 78.928C137.763 78.928 137.627 78.928 137.478 78.928C137.329 78.928 137.175 78.928 137.016 78.928C136.867 78.928 136.731 78.928 136.61 78.928C136.489 78.928 136.395 78.928 136.33 78.928C135.779 78.928 135.35 78.8627 135.042 78.732C134.743 78.6013 134.533 78.382 134.412 78.074C134.3 77.766 134.244 77.3507 134.244 76.828V73.468ZM130.828 74.042H132.62C132.564 74.6767 132.461 75.26 132.312 75.792C132.172 76.3147 131.939 76.786 131.612 77.206C131.295 77.626 130.842 77.99 130.254 78.298C129.666 78.6153 128.901 78.8813 127.958 79.096C127.911 78.9373 127.832 78.7647 127.72 78.578C127.617 78.4007 127.501 78.2187 127.37 78.032C127.249 77.8547 127.127 77.71 127.006 77.598C127.818 77.4487 128.467 77.2667 128.952 77.052C129.437 76.828 129.806 76.5713 130.058 76.282C130.319 75.9927 130.501 75.666 130.604 75.302C130.707 74.9287 130.781 74.5087 130.828 74.042Z" fill="#595959"/>
<path d="M147.964 66.552C147.917 66.804 147.843 67.1307 147.74 67.532C147.637 67.9333 147.488 68.386 147.292 68.89C147.143 69.2353 146.97 69.5947 146.774 69.968C146.587 70.332 146.396 70.6587 146.2 70.948C146.321 70.892 146.475 70.8453 146.662 70.808C146.849 70.7613 147.04 70.7287 147.236 70.71C147.441 70.682 147.623 70.668 147.782 70.668C148.37 70.668 148.855 70.836 149.238 71.172C149.63 71.508 149.826 72.0073 149.826 72.67C149.826 72.8567 149.826 73.0853 149.826 73.356C149.835 73.6267 149.845 73.9113 149.854 74.21C149.863 74.4993 149.873 74.784 149.882 75.064C149.891 75.344 149.896 75.596 149.896 75.82H148.216C148.235 75.6613 148.244 75.4747 148.244 75.26C148.253 75.036 148.258 74.8027 148.258 74.56C148.267 74.3173 148.272 74.084 148.272 73.86C148.281 73.6267 148.286 73.4167 148.286 73.23C148.286 72.782 148.165 72.474 147.922 72.306C147.689 72.1287 147.427 72.04 147.138 72.04C146.746 72.04 146.349 72.138 145.948 72.334C145.556 72.5207 145.225 72.7447 144.954 73.006C144.749 73.2113 144.539 73.44 144.324 73.692C144.119 73.944 143.895 74.2287 143.652 74.546L142.154 73.426C142.761 72.866 143.283 72.3247 143.722 71.802C144.17 71.2793 144.548 70.7613 144.856 70.248C145.164 69.7347 145.416 69.2213 145.612 68.708C145.752 68.3347 145.864 67.9473 145.948 67.546C146.041 67.1353 146.097 66.7527 146.116 66.398L147.964 66.552ZM142.7 67.84C143.055 67.896 143.465 67.938 143.932 67.966C144.399 67.994 144.809 68.008 145.164 68.008C145.78 68.008 146.452 67.994 147.18 67.966C147.917 67.938 148.664 67.8913 149.42 67.826C150.176 67.7513 150.895 67.658 151.576 67.546L151.562 69.17C151.067 69.2353 150.531 69.296 149.952 69.352C149.383 69.3987 148.799 69.4407 148.202 69.478C147.614 69.506 147.049 69.5293 146.508 69.548C145.967 69.5573 145.486 69.562 145.066 69.562C144.879 69.562 144.646 69.562 144.366 69.562C144.095 69.5527 143.815 69.5433 143.526 69.534C143.237 69.5153 142.961 69.4967 142.7 69.478V67.84ZM153.788 71.816C153.639 71.8627 153.461 71.9233 153.256 71.998C153.06 72.0633 152.859 72.1333 152.654 72.208C152.458 72.2733 152.281 72.3387 152.122 72.404C151.674 72.5813 151.142 72.796 150.526 73.048C149.919 73.3 149.285 73.594 148.622 73.93C148.202 74.154 147.847 74.3733 147.558 74.588C147.269 74.8027 147.049 75.022 146.9 75.246C146.751 75.4607 146.676 75.6987 146.676 75.96C146.676 76.156 146.718 76.3193 146.802 76.45C146.886 76.5713 147.012 76.6693 147.18 76.744C147.348 76.8187 147.558 76.87 147.81 76.898C148.062 76.926 148.361 76.94 148.706 76.94C149.303 76.94 149.961 76.9073 150.68 76.842C151.399 76.7673 152.066 76.6693 152.682 76.548L152.626 78.354C152.327 78.3913 151.949 78.4287 151.492 78.466C151.035 78.5127 150.559 78.5453 150.064 78.564C149.579 78.5827 149.112 78.592 148.664 78.592C147.936 78.592 147.283 78.522 146.704 78.382C146.125 78.242 145.668 78.004 145.332 77.668C145.005 77.3227 144.842 76.8513 144.842 76.254C144.842 75.7687 144.949 75.33 145.164 74.938C145.388 74.546 145.682 74.1913 146.046 73.874C146.41 73.5567 146.807 73.272 147.236 73.02C147.675 72.7587 148.104 72.5207 148.524 72.306C148.953 72.082 149.341 71.8907 149.686 71.732C150.031 71.5733 150.353 71.4333 150.652 71.312C150.96 71.1813 151.254 71.0507 151.534 70.92C151.805 70.7987 152.066 70.682 152.318 70.57C152.57 70.4487 152.827 70.3227 153.088 70.192L153.788 71.816Z" fill="#595959"/>
<path d="M159.262 77.164H166.304V78.536H159.262V77.164ZM158.576 72.516H166.92V73.832H158.576V72.516ZM158.576 70.556H166.92V71.872H158.576V70.556ZM156.364 68.498H169.118V69.926H156.364V68.498ZM158.842 66.552H166.668V67.882H158.842V66.552ZM158.338 74.49H167.158V78.984H165.408V75.89H159.99V79.026H158.338V74.49Z" fill="#595959"/>
<path d="M173.92 67.77C173.883 67.938 173.85 68.1293 173.822 68.344C173.803 68.5587 173.785 68.7687 173.766 68.974C173.757 69.1793 173.752 69.3473 173.752 69.478C173.743 69.786 173.738 70.1033 173.738 70.43C173.747 70.7567 173.757 71.0927 173.766 71.438C173.785 71.774 173.808 72.11 173.836 72.446C173.901 73.118 173.995 73.7107 174.116 74.224C174.237 74.7373 174.396 75.1387 174.592 75.428C174.788 75.708 175.035 75.848 175.334 75.848C175.493 75.848 175.647 75.7593 175.796 75.582C175.955 75.4047 176.095 75.176 176.216 74.896C176.347 74.6067 176.459 74.3033 176.552 73.986C176.655 73.6687 176.743 73.37 176.818 73.09L178.218 74.798C177.91 75.61 177.602 76.2587 177.294 76.744C176.995 77.22 176.683 77.5653 176.356 77.78C176.029 77.9853 175.675 78.088 175.292 78.088C174.788 78.088 174.307 77.92 173.85 77.584C173.402 77.248 173.019 76.7067 172.702 75.96C172.385 75.204 172.161 74.2007 172.03 72.95C171.983 72.5207 171.946 72.068 171.918 71.592C171.899 71.116 171.885 70.6633 171.876 70.234C171.876 69.8047 171.876 69.45 171.876 69.17C171.876 68.974 171.867 68.7407 171.848 68.47C171.829 68.1993 171.801 67.9567 171.764 67.742L173.92 67.77ZM180.92 68.092C181.181 68.4093 181.433 68.7967 181.676 69.254C181.919 69.7113 182.143 70.2013 182.348 70.724C182.553 71.2467 182.735 71.7833 182.894 72.334C183.053 72.8753 183.179 73.4073 183.272 73.93C183.375 74.4433 183.44 74.9147 183.468 75.344L181.62 76.058C181.573 75.4887 181.489 74.868 181.368 74.196C181.247 73.524 181.083 72.8473 180.878 72.166C180.673 71.4847 180.425 70.8407 180.136 70.234C179.856 69.6273 179.525 69.1047 179.142 68.666L180.92 68.092Z" fill="#595959"/>
<path d="M192.204 68.876C192.045 68.6987 191.845 68.4933 191.602 68.26C191.359 68.0173 191.112 67.784 190.86 67.56C190.608 67.3267 190.389 67.1447 190.202 67.014L191.49 66.118C191.667 66.2393 191.882 66.412 192.134 66.636C192.386 66.8507 192.638 67.0747 192.89 67.308C193.151 67.532 193.361 67.7327 193.52 67.91L192.204 68.876ZM188.396 67.378C188.443 67.462 188.499 67.574 188.564 67.714C188.629 67.854 188.699 67.994 188.774 68.134C188.849 68.2647 188.909 68.3767 188.956 68.47C189.245 69.0113 189.539 69.6087 189.838 70.262C190.137 70.906 190.412 71.522 190.664 72.11C190.823 72.4927 191.005 72.95 191.21 73.482C191.425 74.014 191.635 74.5693 191.84 75.148C192.045 75.7267 192.237 76.282 192.414 76.814C192.601 77.346 192.75 77.808 192.862 78.2L190.944 78.704C190.804 78.116 190.631 77.4767 190.426 76.786C190.221 76.0953 190.001 75.414 189.768 74.742C189.535 74.0607 189.301 73.44 189.068 72.88C188.881 72.4413 188.695 72.012 188.508 71.592C188.331 71.172 188.149 70.7707 187.962 70.388C187.785 69.996 187.598 69.6367 187.402 69.31C187.309 69.1327 187.183 68.9273 187.024 68.694C186.875 68.4607 186.725 68.2553 186.576 68.078L188.396 67.378ZM185.372 71.48C185.652 71.4147 185.923 71.3353 186.184 71.242C186.455 71.1487 186.646 71.0787 186.758 71.032C187.271 70.8267 187.789 70.6073 188.312 70.374C188.844 70.1407 189.376 69.9073 189.908 69.674C190.449 69.4313 190.977 69.2167 191.49 69.03C192.013 68.834 192.521 68.68 193.016 68.568C193.52 68.4467 193.991 68.386 194.43 68.386C195.158 68.386 195.779 68.5167 196.292 68.778C196.815 69.0393 197.211 69.394 197.482 69.842C197.762 70.29 197.902 70.7847 197.902 71.326C197.902 71.9793 197.762 72.5487 197.482 73.034C197.202 73.51 196.801 73.8787 196.278 74.14C195.755 74.4013 195.135 74.532 194.416 74.532C194.043 74.532 193.655 74.49 193.254 74.406C192.862 74.322 192.531 74.2333 192.26 74.14L192.302 72.376C192.619 72.516 192.946 72.6327 193.282 72.726C193.618 72.81 193.94 72.852 194.248 72.852C194.593 72.852 194.901 72.7913 195.172 72.67C195.452 72.5393 195.671 72.3573 195.83 72.124C195.989 71.8907 196.068 71.606 196.068 71.27C196.068 71.0367 195.998 70.822 195.858 70.626C195.727 70.43 195.536 70.276 195.284 70.164C195.041 70.0427 194.743 69.982 194.388 69.982C193.931 69.982 193.413 70.0707 192.834 70.248C192.265 70.416 191.663 70.6353 191.028 70.906C190.393 71.1767 189.773 71.466 189.166 71.774C188.559 72.0727 187.999 72.3573 187.486 72.628C186.973 72.8893 186.543 73.0993 186.198 73.258L185.372 71.48Z" fill="#595959"/>
<path d="M208.542 66.496C208.533 66.5707 208.519 66.692 208.5 66.86C208.491 67.0187 208.481 67.182 208.472 67.35C208.463 67.5087 208.453 67.6253 208.444 67.7C208.435 67.8867 208.43 68.1387 208.43 68.456C208.43 68.764 208.43 69.1093 208.43 69.492C208.43 69.8747 208.43 70.262 208.43 70.654C208.439 71.0367 208.444 71.4007 208.444 71.746C208.453 72.082 208.458 72.362 208.458 72.586L206.708 71.998C206.708 71.8207 206.708 71.5873 206.708 71.298C206.708 70.9993 206.708 70.6773 206.708 70.332C206.708 69.9773 206.703 69.6273 206.694 69.282C206.694 68.9367 206.689 68.624 206.68 68.344C206.671 68.064 206.661 67.854 206.652 67.714C206.633 67.4247 206.61 67.1727 206.582 66.958C206.554 66.734 206.531 66.58 206.512 66.496H208.542ZM200.632 68.232C201.043 68.232 201.509 68.2273 202.032 68.218C202.555 68.2087 203.101 68.1993 203.67 68.19C204.239 68.1807 204.799 68.1713 205.35 68.162C205.901 68.1527 206.419 68.148 206.904 68.148C207.389 68.1387 207.809 68.134 208.164 68.134C208.519 68.134 208.906 68.134 209.326 68.134C209.746 68.1247 210.161 68.12 210.572 68.12C210.983 68.12 211.356 68.12 211.692 68.12C212.037 68.12 212.303 68.12 212.49 68.12L212.476 69.772C212.037 69.7533 211.459 69.7393 210.74 69.73C210.021 69.7113 209.144 69.702 208.108 69.702C207.473 69.702 206.829 69.7113 206.176 69.73C205.523 69.7393 204.874 69.7533 204.23 69.772C203.586 69.7907 202.965 69.814 202.368 69.842C201.771 69.8607 201.206 69.8887 200.674 69.926L200.632 68.232ZM208.206 72.376C208.206 73.1413 208.113 73.776 207.926 74.28C207.749 74.784 207.478 75.1667 207.114 75.428C206.75 75.68 206.297 75.806 205.756 75.806C205.495 75.806 205.219 75.75 204.93 75.638C204.65 75.526 204.389 75.3627 204.146 75.148C203.903 74.9333 203.707 74.6673 203.558 74.35C203.418 74.0327 203.348 73.6593 203.348 73.23C203.348 72.698 203.474 72.2407 203.726 71.858C203.978 71.466 204.314 71.1627 204.734 70.948C205.163 70.724 205.635 70.612 206.148 70.612C206.764 70.612 207.277 70.752 207.688 71.032C208.108 71.3027 208.421 71.6713 208.626 72.138C208.841 72.6047 208.948 73.132 208.948 73.72C208.948 74.1773 208.873 74.6533 208.724 75.148C208.575 75.6427 208.327 76.128 207.982 76.604C207.646 77.0707 207.189 77.4953 206.61 77.878C206.041 78.2607 205.327 78.5733 204.468 78.816L202.97 77.332C203.567 77.2107 204.123 77.052 204.636 76.856C205.149 76.66 205.597 76.4127 205.98 76.114C206.372 75.8153 206.675 75.4467 206.89 75.008C207.114 74.5693 207.226 74.042 207.226 73.426C207.226 72.978 207.114 72.642 206.89 72.418C206.675 72.194 206.414 72.082 206.106 72.082C205.929 72.082 205.756 72.124 205.588 72.208C205.42 72.292 205.285 72.418 205.182 72.586C205.079 72.754 205.028 72.9593 205.028 73.202C205.028 73.5193 205.135 73.776 205.35 73.972C205.574 74.1587 205.826 74.252 206.106 74.252C206.33 74.252 206.526 74.182 206.694 74.042C206.871 73.902 206.988 73.6687 207.044 73.342C207.1 73.0153 207.053 72.5767 206.904 72.026L208.206 72.376Z" fill="#595959"/>
<path d="M217.6 67.77C217.563 67.938 217.53 68.1293 217.502 68.344C217.483 68.5587 217.465 68.7687 217.446 68.974C217.437 69.1793 217.432 69.3473 217.432 69.478C217.423 69.786 217.418 70.1033 217.418 70.43C217.427 70.7567 217.437 71.0927 217.446 71.438C217.465 71.774 217.488 72.11 217.516 72.446C217.581 73.118 217.675 73.7107 217.796 74.224C217.917 74.7373 218.076 75.1387 218.272 75.428C218.468 75.708 218.715 75.848 219.014 75.848C219.173 75.848 219.327 75.7593 219.476 75.582C219.635 75.4047 219.775 75.176 219.896 74.896C220.027 74.6067 220.139 74.3033 220.232 73.986C220.335 73.6687 220.423 73.37 220.498 73.09L221.898 74.798C221.59 75.61 221.282 76.2587 220.974 76.744C220.675 77.22 220.363 77.5653 220.036 77.78C219.709 77.9853 219.355 78.088 218.972 78.088C218.468 78.088 217.987 77.92 217.53 77.584C217.082 77.248 216.699 76.7067 216.382 75.96C216.065 75.204 215.841 74.2007 215.71 72.95C215.663 72.5207 215.626 72.068 215.598 71.592C215.579 71.116 215.565 70.6633 215.556 70.234C215.556 69.8047 215.556 69.45 215.556 69.17C215.556 68.974 215.547 68.7407 215.528 68.47C215.509 68.1993 215.481 67.9567 215.444 67.742L217.6 67.77ZM224.6 68.092C224.861 68.4093 225.113 68.7967 225.356 69.254C225.599 69.7113 225.823 70.2013 226.028 70.724C226.233 71.2467 226.415 71.7833 226.574 72.334C226.733 72.8753 226.859 73.4073 226.952 73.93C227.055 74.4433 227.12 74.9147 227.148 75.344L225.3 76.058C225.253 75.4887 225.169 74.868 225.048 74.196C224.927 73.524 224.763 72.8473 224.558 72.166C224.353 71.4847 224.105 70.8407 223.816 70.234C223.536 69.6273 223.205 69.1047 222.822 68.666L224.6 68.092Z" fill="#595959"/>
</svg>
