<svg width="340" height="135" viewBox="0 0 340 135" fill="none" xmlns="http://www.w3.org/2000/svg">
<path d="M138.925 39.196C137.525 39.196 136.153 38.664 135.145 37.698L136.335 36.27C137.063 36.956 138.057 37.404 138.967 37.404C140.045 37.404 140.605 36.942 140.605 36.228C140.605 35.458 139.975 35.206 139.051 34.814L137.665 34.226C136.629 33.806 135.565 32.952 135.565 31.454C135.565 29.76 137.063 28.458 139.149 28.458C140.353 28.458 141.557 28.934 142.397 29.788L141.361 31.09C140.689 30.544 140.003 30.236 139.149 30.236C138.239 30.236 137.665 30.642 137.665 31.314C137.665 32.056 138.407 32.336 139.289 32.686L140.647 33.246C141.893 33.764 142.719 34.576 142.719 36.06C142.719 37.754 141.305 39.196 138.925 39.196Z" fill="#595959"/>
<path d="M145.127 39V28.64H151.483V30.362H147.199V32.756H150.825V34.506H147.199V37.264H151.637V39H145.127Z" fill="#595959"/>
<path d="M157.395 39.196C155.995 39.196 154.623 38.664 153.615 37.698L154.805 36.27C155.533 36.956 156.527 37.404 157.437 37.404C158.515 37.404 159.075 36.942 159.075 36.228C159.075 35.458 158.445 35.206 157.521 34.814L156.135 34.226C155.099 33.806 154.035 32.952 154.035 31.454C154.035 29.76 155.533 28.458 157.619 28.458C158.823 28.458 160.027 28.934 160.867 29.788L159.831 31.09C159.159 30.544 158.473 30.236 157.619 30.236C156.709 30.236 156.135 30.642 156.135 31.314C156.135 32.056 156.877 32.336 157.759 32.686L159.117 33.246C160.363 33.764 161.189 34.576 161.189 36.06C161.189 37.754 159.775 39.196 157.395 39.196Z" fill="#595959"/>
<path d="M168.525 27.996C168.427 28.374 168.287 29.004 168.217 29.312C168.021 30.264 167.685 31.986 167.307 33.4C166.803 35.36 165.865 38.23 165.095 39.882L163.135 39.224C163.975 37.824 165.039 34.884 165.557 32.924C165.921 31.608 166.243 30.082 166.341 29.242C166.411 28.724 166.425 28.15 166.383 27.828L168.525 27.996ZM164.955 30.082C166.663 30.082 168.637 29.83 170.457 29.396V31.146C168.721 31.552 166.523 31.776 164.941 31.776C164.255 31.776 163.737 31.748 163.247 31.72L163.191 29.984C163.919 30.068 164.381 30.082 164.955 30.082ZM169.351 32.238C170.135 32.154 171.129 32.084 172.053 32.084C172.851 32.084 173.691 32.126 174.503 32.21L174.475 33.89C173.761 33.806 172.907 33.722 172.067 33.722C171.087 33.722 170.233 33.764 169.351 33.876V32.238ZM170.107 35.752C170.009 36.144 169.925 36.606 169.925 36.914C169.925 37.53 170.331 37.992 171.843 37.992C172.767 37.992 173.747 37.88 174.741 37.698L174.671 39.49C173.887 39.588 172.949 39.7 171.829 39.7C169.463 39.7 168.203 38.874 168.203 37.46C168.203 36.816 168.315 36.144 168.441 35.584L170.107 35.752ZM173.005 28.402C173.369 28.906 173.859 29.802 174.125 30.32L173.005 30.796C172.711 30.222 172.277 29.396 171.899 28.85L173.005 28.402ZM174.671 27.758C175.035 28.29 175.553 29.172 175.805 29.676L174.685 30.152C174.405 29.564 173.943 28.752 173.565 28.22L174.671 27.758Z" fill="#595959"/>
<path d="M183.337 27.954C183.253 28.318 183.169 28.766 183.085 29.116C182.959 29.746 182.777 30.614 182.637 31.328C182.175 33.302 181.041 37.292 179.585 39.658L177.751 38.93C179.417 36.69 180.467 32.994 180.859 31.23C181.125 29.97 181.279 28.78 181.265 27.73L183.337 27.954ZM188.167 29.256C189.021 30.474 190.197 33.134 190.631 34.478L188.853 35.304C188.489 33.736 187.495 31.216 186.487 29.97L188.167 29.256ZM177.667 30.824C178.171 30.852 178.647 30.838 179.165 30.824C180.285 30.796 182.931 30.488 183.981 30.488C185.451 30.488 186.501 31.146 186.501 33.176C186.501 34.828 186.305 37.096 185.717 38.3C185.241 39.28 184.471 39.588 183.421 39.588C182.875 39.588 182.217 39.504 181.727 39.392L181.433 37.544C181.979 37.698 182.777 37.838 183.141 37.838C183.617 37.838 183.967 37.698 184.191 37.236C184.583 36.452 184.765 34.744 184.765 33.372C184.765 32.252 184.275 32.084 183.407 32.084C182.567 32.084 180.159 32.392 179.389 32.49C178.983 32.546 178.255 32.644 177.835 32.714L177.667 30.824Z" fill="#595959"/>
<path d="M196.105 27.73C197.435 28.15 200.487 28.696 201.719 28.822L201.299 30.544C199.871 30.348 196.763 29.704 195.671 29.424L196.105 27.73ZM196.203 30.544C196.007 31.328 195.769 33.022 195.671 33.834C196.931 32.91 198.331 32.49 199.801 32.49C202.251 32.49 203.679 34.002 203.679 35.696C203.679 38.258 201.649 40.218 195.839 39.714L195.293 37.88C199.507 38.468 201.719 37.446 201.719 35.654C201.719 34.744 200.865 34.086 199.633 34.086C198.051 34.086 196.637 34.674 195.755 35.738C195.503 36.032 195.349 36.256 195.237 36.536L193.613 36.144C193.893 34.772 194.229 32.028 194.313 30.292L196.203 30.544Z" fill="#595959"/>
<path d="M56.95 56.986H64.566V58.54H56.95V56.986ZM56.95 59.982H64.566V61.536H56.95V59.982ZM56.95 62.992H64.566V64.546H56.95V62.992ZM55.802 53.934H65.98V65.218H64.188V55.544H57.51V65.246H55.802V53.934ZM59.778 52.1L61.808 52.31C61.472 53.248 61.066 54.172 60.758 54.788L59.218 54.508C59.442 53.808 59.68 52.828 59.778 52.1Z" fill="#595959"/>
<path d="M71.076 57.252H78.65V58.89H71.076V57.252ZM78.104 57.252H79.868C79.868 57.252 79.854 57.77 79.84 57.98C79.686 62.236 79.518 63.902 79.028 64.476C78.678 64.952 78.286 65.078 77.754 65.162C77.264 65.232 76.452 65.218 75.626 65.19C75.598 64.7 75.374 63.972 75.066 63.496C75.85 63.566 76.578 63.58 76.928 63.58C77.18 63.58 77.334 63.538 77.488 63.384C77.824 63.02 77.978 61.452 78.104 57.56V57.252ZM72.658 52.296L74.478 52.828C73.428 55.264 71.72 57.518 69.956 58.904C69.634 58.54 68.906 57.868 68.5 57.546C70.264 56.384 71.818 54.424 72.658 52.296ZM77.992 52.268C78.874 54.046 80.638 56.09 82.178 57.266C81.716 57.63 81.072 58.316 80.75 58.792C79.168 57.336 77.446 55.068 76.34 52.926L77.992 52.268ZM73.582 57.728H75.402C75.136 60.878 74.534 63.804 70.362 65.358C70.152 64.896 69.662 64.182 69.27 63.818C73.022 62.586 73.358 60.22 73.582 57.728Z" fill="#595959"/>
<path d="M89.276 53.052C89.192 53.416 89.108 53.864 89.038 54.214C88.898 54.844 88.73 55.712 88.576 56.426C88.114 58.4 86.994 62.39 85.524 64.756L83.69 64.028C85.356 61.788 86.406 58.092 86.798 56.328C87.064 55.068 87.218 53.878 87.204 52.828L89.276 53.052ZM94.106 54.452C94.96 55.67 96.136 58.274 96.57 59.604L94.792 60.43C94.428 58.876 93.434 56.412 92.426 55.166L94.106 54.452ZM83.606 55.922C84.11 55.95 84.586 55.936 85.104 55.922C86.224 55.894 88.884 55.586 89.92 55.586C91.404 55.586 92.454 56.244 92.454 58.274C92.454 59.926 92.244 62.194 91.656 63.398C91.194 64.378 90.41 64.686 89.36 64.686C88.814 64.686 88.156 64.602 87.68 64.49L87.372 62.642C87.918 62.796 88.716 62.936 89.08 62.936C89.556 62.936 89.92 62.796 90.13 62.334C90.522 61.55 90.704 59.842 90.704 58.47C90.704 57.35 90.228 57.182 89.346 57.182C88.52 57.182 86.098 57.49 85.328 57.588C84.922 57.644 84.194 57.742 83.774 57.812L83.606 55.922ZM93.854 52.52C94.204 53.024 94.694 53.92 94.96 54.438L93.84 54.914C93.546 54.34 93.112 53.514 92.734 52.968L93.854 52.52ZM95.506 51.876C95.87 52.408 96.388 53.304 96.64 53.794L95.52 54.27C95.24 53.682 94.778 52.87 94.4 52.338L95.506 51.876Z" fill="#595959"/>
<path d="M104.76 55.502V56.216H108.414V55.502H104.76ZM104.76 53.696V54.396H108.414V53.696H104.76ZM103.136 52.52H110.108V57.392H103.136V52.52ZM102.436 58.008H110.57V59.38H102.436V58.008ZM102.072 60.178H110.85V61.606H102.072V60.178ZM107.238 59.212H108.932V63.594C108.932 64.364 108.792 64.77 108.246 65.008C107.728 65.246 107.028 65.26 106.062 65.26C105.992 64.798 105.754 64.182 105.544 63.762C106.132 63.79 106.79 63.79 106.972 63.776C107.182 63.762 107.238 63.72 107.238 63.552V59.212ZM103.01 62.292L104.172 61.508C104.774 62.054 105.516 62.838 105.88 63.356L104.62 64.252C104.312 63.72 103.584 62.894 103.01 62.292ZM101.092 55.208L102.562 55.824C101.54 57.546 99.902 59.394 98.432 60.542C98.32 60.178 97.9 59.226 97.648 58.82C98.88 57.952 100.252 56.566 101.092 55.208ZM100.714 52.128L102.31 52.772C101.372 54.074 99.944 55.446 98.628 56.3C98.446 55.922 98.054 55.236 97.788 54.886C98.88 54.214 100.126 53.066 100.714 52.128ZM99.706 58.33L101.26 56.776L101.33 56.818V65.26H99.706V58.33Z" fill="#595959"/>
<path d="M118.662 52.828C118.564 53.22 118.438 53.85 118.368 54.158C118.172 55.11 117.822 56.818 117.444 58.246C116.94 60.206 116.002 63.062 115.232 64.728L113.286 64.07C114.112 62.656 115.176 59.73 115.708 57.77C116.058 56.454 116.38 54.914 116.478 54.088C116.548 53.57 116.562 52.996 116.52 52.66L118.662 52.828ZM115.092 54.928C116.8 54.928 118.774 54.662 120.594 54.228V55.978C118.858 56.384 116.66 56.622 115.078 56.622C114.392 56.622 113.874 56.594 113.384 56.566L113.328 54.816C114.056 54.9 114.518 54.928 115.092 54.928ZM119.488 57.07C120.272 56.986 121.28 56.93 122.19 56.93C122.988 56.93 123.828 56.972 124.64 57.056L124.612 58.736C123.898 58.652 123.044 58.554 122.204 58.554C121.238 58.554 120.37 58.596 119.488 58.708V57.07ZM120.244 60.584C120.146 60.99 120.062 61.438 120.062 61.746C120.062 62.362 120.468 62.824 121.98 62.824C122.918 62.824 123.884 62.726 124.878 62.544L124.808 64.322C124.024 64.434 123.086 64.518 121.966 64.518C119.6 64.518 118.34 63.72 118.34 62.306C118.34 61.648 118.466 60.976 118.578 60.43L120.244 60.584Z" fill="#595959"/>
<path d="M130.226 54.004C130.128 54.494 130.058 55.32 130.058 55.712C130.058 56.622 130.058 57.658 130.142 58.68C130.338 60.696 130.758 62.082 131.64 62.082C132.312 62.082 132.858 60.43 133.124 59.324L134.538 61.018C133.6 63.468 132.732 64.308 131.612 64.308C130.058 64.308 128.728 62.936 128.336 59.184C128.196 57.896 128.182 56.244 128.182 55.39C128.182 55.012 128.168 54.41 128.07 53.976L130.226 54.004ZM137.226 54.312C138.556 55.922 139.634 59.422 139.788 61.564L137.94 62.292C137.73 60.024 136.974 56.636 135.448 54.9L137.226 54.312Z" fill="#595959"/>
<path d="M148.16 56.902C149.14 56.902 149.938 57.7 149.938 58.68C149.938 59.674 149.14 60.472 148.16 60.472C147.166 60.472 146.368 59.674 146.368 58.68C146.368 57.7 147.166 56.902 148.16 56.902Z" fill="#595959"/>
<path d="M163.756 52.17H165.408V65.246H163.756V52.17ZM160.256 54.326H169.034V61.928H167.382V55.852H161.838V62.068H160.256V54.326ZM161.348 57.112H168.138V58.568H161.348V57.112ZM161.404 59.842H168.18V61.354H161.404V59.842ZM159.038 52.17L160.62 52.66C159.71 55.054 158.254 57.574 156.728 59.17C156.574 58.764 156.126 57.84 155.832 57.434C157.106 56.16 158.324 54.172 159.038 52.17ZM157.68 56.034L159.276 54.438L159.29 54.452V65.246H157.68V56.034Z" fill="#595959"/>
<path d="M175.348 55.572C176.16 55.656 176.972 55.698 177.798 55.698C179.52 55.698 181.27 55.544 182.726 55.25V56.986C181.256 57.21 179.506 57.322 177.798 57.322C176.986 57.322 176.188 57.294 175.362 57.238L175.348 55.572ZM180.682 53.206C180.626 53.486 180.598 53.822 180.584 54.116C180.556 54.578 180.542 55.53 180.542 56.552C180.542 59.128 180.766 60.934 180.766 62.264C180.766 63.734 180.038 64.826 178.022 64.826C176.09 64.826 174.886 64 174.886 62.53C174.886 61.116 176.076 60.136 177.98 60.136C180.612 60.136 182.32 61.452 183.398 62.46L182.46 63.93C180.836 62.418 179.436 61.494 177.84 61.494C177.056 61.494 176.51 61.816 176.51 62.348C176.51 62.922 177.084 63.16 177.812 63.16C178.68 63.16 178.974 62.712 178.974 61.886C178.974 60.92 178.792 58.568 178.792 56.552C178.792 55.488 178.778 54.55 178.778 54.13C178.778 53.92 178.722 53.486 178.68 53.206H180.682ZM173.85 53.36C173.738 53.654 173.556 54.354 173.514 54.606C173.304 55.544 172.842 58.638 172.842 60.024C172.842 60.304 172.856 60.654 172.912 60.934C173.094 60.444 173.318 59.968 173.528 59.506L174.396 60.192C174.004 61.34 173.542 62.768 173.374 63.538C173.332 63.734 173.304 64.028 173.304 64.182C173.304 64.322 173.318 64.56 173.332 64.77L171.75 64.882C171.47 63.902 171.204 62.306 171.204 60.402C171.204 58.288 171.624 55.642 171.778 54.564C171.834 54.186 171.904 53.64 171.904 53.192L173.85 53.36ZM181.83 52.646C182.082 53.206 182.404 54.018 182.558 54.564L181.592 54.886C181.382 54.27 181.144 53.514 180.864 52.94L181.83 52.646ZM183.272 52.198C183.538 52.758 183.86 53.57 184.028 54.102L183.062 54.424C182.866 53.808 182.6 53.066 182.32 52.506L183.272 52.198Z" fill="#595959"/>
<path d="M190.034 52.898C189.95 53.486 189.88 54.214 189.852 54.774C189.782 56.286 189.684 59.408 189.684 61.144C189.684 62.558 190.524 63.02 191.616 63.02C193.926 63.02 195.382 61.69 196.404 60.164L197.678 61.718C196.768 63.062 194.78 64.924 191.588 64.924C189.292 64.924 187.822 63.916 187.822 61.522C187.822 59.646 187.948 55.978 187.948 54.774C187.948 54.102 187.892 53.43 187.78 52.884L190.034 52.898Z" fill="#595959"/>
<path d="M206.022 52.828C205.924 53.22 205.798 53.85 205.728 54.158C205.532 55.11 205.182 56.818 204.804 58.246C204.3 60.206 203.362 63.062 202.592 64.728L200.646 64.07C201.472 62.656 202.536 59.73 203.068 57.77C203.418 56.454 203.74 54.914 203.838 54.088C203.908 53.57 203.922 52.996 203.88 52.66L206.022 52.828ZM202.452 54.928C204.16 54.928 206.134 54.662 207.954 54.228V55.978C206.218 56.384 204.02 56.622 202.438 56.622C201.752 56.622 201.234 56.594 200.744 56.566L200.688 54.816C201.416 54.9 201.878 54.928 202.452 54.928ZM206.848 57.07C207.632 56.986 208.64 56.93 209.55 56.93C210.348 56.93 211.188 56.972 212 57.056L211.972 58.736C211.258 58.652 210.404 58.554 209.564 58.554C208.598 58.554 207.73 58.596 206.848 58.708V57.07ZM207.604 60.584C207.506 60.99 207.422 61.438 207.422 61.746C207.422 62.362 207.828 62.824 209.34 62.824C210.278 62.824 211.244 62.726 212.238 62.544L212.168 64.322C211.384 64.434 210.446 64.518 209.326 64.518C206.96 64.518 205.7 63.72 205.7 62.306C205.7 61.648 205.826 60.976 205.938 60.43L207.604 60.584Z" fill="#595959"/>
<path d="M217.586 54.004C217.488 54.494 217.418 55.32 217.418 55.712C217.418 56.622 217.418 57.658 217.502 58.68C217.698 60.696 218.118 62.082 219 62.082C219.672 62.082 220.218 60.43 220.484 59.324L221.898 61.018C220.96 63.468 220.092 64.308 218.972 64.308C217.418 64.308 216.088 62.936 215.696 59.184C215.556 57.896 215.542 56.244 215.542 55.39C215.542 55.012 215.528 54.41 215.43 53.976L217.586 54.004ZM224.586 54.312C225.916 55.922 226.994 59.422 227.148 61.564L225.3 62.292C225.09 60.024 224.334 56.636 222.808 54.9L224.586 54.312Z" fill="#595959"/>
<path d="M240.182 54.522C240.07 54.676 239.818 55.096 239.692 55.39C239.118 56.72 238.082 58.624 236.878 60.024C235.31 61.83 233.196 63.566 231.026 64.588L229.57 63.076C231.838 62.236 233.994 60.528 235.31 59.072C236.234 58.022 237.088 56.636 237.41 55.642C236.822 55.642 233.252 55.642 232.65 55.642C232.076 55.642 231.306 55.712 230.998 55.74V53.738C231.376 53.794 232.244 53.836 232.65 53.836C233.392 53.836 236.976 53.836 237.592 53.836C238.208 53.836 238.754 53.766 239.048 53.668L240.182 54.522ZM237.06 58.862C238.502 60.038 240.49 62.124 241.4 63.244L239.804 64.63C238.768 63.188 237.242 61.522 235.744 60.164L237.06 58.862Z" fill="#595959"/>
<path d="M248.176 54.004C248.092 53.612 247.994 53.276 247.882 52.954L249.87 52.632C249.898 52.898 249.954 53.374 250.01 53.71C250.15 54.634 251.536 61.718 251.83 63.146C251.928 63.552 252.054 64.056 252.18 64.518L250.164 64.868C250.094 64.35 250.066 63.874 249.968 63.454C249.758 62.194 248.4 55.138 248.176 54.004ZM244.354 55.796C244.788 55.768 245.208 55.74 245.656 55.684C246.846 55.544 251.746 54.788 253.006 54.536C253.44 54.466 253.972 54.34 254.308 54.242L254.658 56.09C254.35 56.104 253.776 56.188 253.356 56.244C251.872 56.482 247.056 57.252 246.006 57.434C245.572 57.518 245.208 57.602 244.732 57.728L244.354 55.796ZM244.368 59.898C244.732 59.884 245.376 59.814 245.81 59.744C247.308 59.534 252.418 58.708 254.028 58.4C254.574 58.302 255.092 58.176 255.47 58.078L255.834 59.926C255.456 59.954 254.882 60.052 254.364 60.136C252.586 60.402 247.546 61.228 246.16 61.494C245.558 61.606 245.068 61.69 244.76 61.774L244.368 59.898Z" fill="#595959"/>
<path d="M264.668 63.692C264.738 63.426 264.78 63.048 264.78 62.67C264.78 61.928 264.78 55.642 264.78 54.508C264.78 53.878 264.682 53.332 264.682 53.304H266.754C266.754 53.332 266.656 53.892 266.656 54.522C266.656 55.642 266.656 60.976 266.656 61.83C267.804 61.34 269.176 60.234 270.128 58.876L271.192 60.43C270.03 61.942 268.028 63.454 266.446 64.252C266.152 64.406 265.984 64.56 265.844 64.658L264.668 63.692ZM258.186 63.496C259.432 62.628 260.188 61.34 260.566 60.136C260.972 58.946 260.986 56.286 260.986 54.606C260.986 54.032 260.93 53.668 260.846 53.318H262.904C262.904 53.374 262.806 54.004 262.806 54.578C262.806 56.244 262.764 59.198 262.4 60.612C261.966 62.18 261.098 63.566 259.894 64.63L258.186 63.496Z" fill="#595959"/>
<path d="M279.004 52.772C278.892 53.29 278.71 54.116 278.318 55.124C278.024 55.81 277.618 56.608 277.226 57.168C277.604 57 278.346 56.902 278.822 56.902C279.984 56.902 280.866 57.588 280.866 58.89C280.866 59.646 280.908 61.172 280.922 62.054H279.242C279.298 61.396 279.326 60.206 279.312 59.45C279.312 58.554 278.752 58.26 278.164 58.26C277.394 58.26 276.512 58.722 275.98 59.226C275.56 59.646 275.168 60.15 274.692 60.766L273.194 59.646C274.986 57.994 276.064 56.482 276.652 54.942C276.932 54.186 277.114 53.332 277.156 52.618L279.004 52.772ZM273.726 54.074C274.44 54.172 275.476 54.228 276.19 54.228C278.038 54.228 280.572 54.13 282.602 53.766L282.588 55.39C280.614 55.67 277.8 55.796 276.092 55.796C275.518 55.796 274.496 55.768 273.726 55.698V54.074ZM284.814 58.05C284.38 58.176 283.624 58.456 283.148 58.638C282.238 58.988 280.978 59.492 279.662 60.164C278.388 60.822 277.702 61.424 277.702 62.194C277.702 62.964 278.374 63.174 279.732 63.174C280.922 63.174 282.49 63.02 283.722 62.768L283.666 64.574C282.728 64.7 281.02 64.826 279.69 64.826C277.506 64.826 275.868 64.28 275.868 62.474C275.868 60.528 277.87 59.38 279.55 58.54C280.838 57.868 281.72 57.532 282.56 57.14C283.106 56.902 283.596 56.678 284.128 56.412L284.814 58.05Z" fill="#595959"/>
<path d="M83.55 78.878H90.41V80.376H83.55V78.878ZM86.196 77.184H87.834V79.494H86.196V77.184ZM84.922 80.67L86.504 81.076C86.028 82.28 85.23 83.512 84.418 84.282C84.138 84.002 83.494 83.512 83.13 83.288C83.9 82.644 84.558 81.664 84.922 80.67ZM87.554 83.008L89.206 83.358C88.31 86.424 86.644 88.79 84.32 90.246C84.096 89.896 83.536 89.196 83.186 88.888C85.384 87.712 86.854 85.654 87.554 83.008ZM87.61 81.132L88.898 80.488C89.57 81.272 90.284 82.336 90.564 83.078L89.164 83.806C88.912 83.078 88.24 81.958 87.61 81.132ZM84.642 84.716L85.594 83.554C87.064 84.618 88.954 86.186 89.78 87.292L88.73 88.664C87.946 87.53 86.126 85.864 84.642 84.716ZM90.312 80.208H95.212V81.79H90.312V80.208ZM94.582 80.208H96.136C96.136 80.208 96.136 80.74 96.136 80.936C96.024 86.732 95.898 88.776 95.45 89.42C95.142 89.882 94.82 90.036 94.344 90.12C93.91 90.19 93.238 90.19 92.566 90.176C92.538 89.714 92.356 89.042 92.09 88.594C92.72 88.65 93.28 88.664 93.56 88.664C93.77 88.664 93.91 88.608 94.05 88.426C94.358 88.006 94.484 86.004 94.582 80.544V80.208ZM91.684 77.31H93.294C93.266 82.966 93.238 87.614 90.298 90.302C90.032 89.91 89.5 89.35 89.108 89.084C91.796 86.704 91.67 82.588 91.684 77.31Z" fill="#595959"/>
<path d="M103.57 77.128H105.292V79.088H103.57V77.128ZM103.57 85.304H105.292V90.274H103.57V85.304ZM98.152 86.214H110.808V87.754H98.152V86.214ZM98.628 78.472H110.374V79.998H98.628V78.472ZM108.96 80.166L110.472 80.894C109.758 81.552 108.932 82.182 108.302 82.616L107.084 81.958C107.7 81.482 108.512 80.74 108.96 80.166ZM103.43 79.578L104.858 80.096C104.284 80.838 103.668 81.608 103.178 82.126L102.128 81.664C102.576 81.09 103.122 80.194 103.43 79.578ZM105.544 80.6L106.846 81.188C105.67 82.56 104.13 84.128 102.912 85.094L101.932 84.562C103.15 83.526 104.648 81.86 105.544 80.6ZM101.442 81.818L102.212 80.866C103.01 81.342 104.116 82.07 104.648 82.574L103.822 83.652C103.332 83.134 102.254 82.35 101.442 81.818ZM101.316 84.044C102.702 84.002 104.788 83.918 106.846 83.82L106.832 84.996C104.942 85.164 103.024 85.304 101.54 85.416L101.316 84.044ZM105.166 83.106L106.342 82.602C106.958 83.386 107.63 84.45 107.882 85.164L106.608 85.752C106.384 85.038 105.754 83.918 105.166 83.106ZM97.998 84.31C98.894 84.016 100.252 83.498 101.554 82.994L101.848 84.24C100.812 84.744 99.706 85.262 98.796 85.654L97.998 84.31ZM98.432 81.216L99.538 80.32C100.266 80.712 101.246 81.328 101.722 81.776L100.546 82.784C100.112 82.322 99.174 81.65 98.432 81.216ZM106.776 83.806L107.91 82.896C108.876 83.386 110.192 84.156 110.864 84.702L109.646 85.71C109.044 85.164 107.756 84.338 106.776 83.806Z" fill="#595959"/>
<path d="M114.042 79.382H118.34V88.818H114.042V87.334H116.814V80.852H114.042V79.382ZM113.062 79.382H114.588V89.854H113.062V79.382ZM113.972 83.12H117.556V84.576H113.972V83.12ZM115.05 77.1L116.884 77.366C116.562 78.318 116.212 79.312 115.932 79.97L114.588 79.676C114.784 78.948 114.98 77.87 115.05 77.1ZM120.188 79.284H124.276V80.81H120.188V79.284ZM123.702 79.284H125.256C125.256 79.284 125.256 79.83 125.242 80.04C125.06 86.34 124.892 88.566 124.318 89.308C123.926 89.854 123.534 90.008 122.96 90.092C122.428 90.176 121.574 90.162 120.762 90.12C120.734 89.658 120.51 88.944 120.202 88.496C121.112 88.566 121.952 88.58 122.302 88.58C122.582 88.58 122.736 88.524 122.918 88.328C123.366 87.852 123.548 85.444 123.702 79.606V79.284ZM120.23 77.114L121.84 77.492C121.294 79.564 120.384 81.692 119.432 83.036C119.124 82.756 118.438 82.28 118.046 82.056C118.984 80.88 119.782 78.976 120.23 77.114ZM119.544 83.316L120.86 82.574C121.546 83.54 122.47 84.884 122.904 85.71L121.476 86.578C121.098 85.724 120.216 84.352 119.544 83.316Z" fill="#595959"/>
<path d="M132.858 79.214C134.58 79.452 137.38 79.382 138.878 79.2V81.006C137.17 81.174 134.622 81.174 132.872 81.006L132.858 79.214ZM133.978 85.192C133.866 85.668 133.81 86.004 133.81 86.368C133.81 86.998 134.356 87.376 135.784 87.376C137.03 87.376 138.066 87.264 139.284 86.998L139.326 88.888C138.416 89.07 137.282 89.168 135.7 89.168C133.292 89.168 132.13 88.3 132.13 86.872C132.13 86.312 132.214 85.766 132.382 85.052L133.978 85.192ZM130.702 78.276C130.604 78.57 130.422 79.284 130.366 79.536C130.17 80.46 129.68 83.26 129.68 84.66C129.68 84.94 129.694 85.29 129.736 85.57C129.946 85.094 130.17 84.618 130.38 84.142L131.248 84.828C130.842 86.004 130.38 87.516 130.24 88.258C130.198 88.468 130.156 88.776 130.156 88.916C130.17 89.07 130.17 89.308 130.184 89.504L128.574 89.602C128.294 88.65 128.028 86.942 128.028 85.038C128.028 82.924 128.448 80.572 128.602 79.48C128.658 79.102 128.728 78.57 128.742 78.122L130.702 78.276Z" fill="#595959"/>
<path d="M144.422 81.902H150.876V83.344H144.422V81.902ZM141.916 85.038H154.446V86.592H141.916V85.038ZM147.306 84.142H149.028V88.468C149.028 89.336 148.818 89.77 148.146 90.022C147.488 90.246 146.592 90.274 145.402 90.274C145.29 89.798 144.982 89.084 144.716 88.65C145.612 88.678 146.662 88.678 146.942 88.678C147.222 88.678 147.306 88.608 147.306 88.412V84.142ZM150.33 81.902H150.75L151.1 81.818L152.164 82.63C151.198 83.666 149.812 84.758 148.44 85.416C148.244 85.136 147.796 84.674 147.544 84.45C148.622 83.89 149.812 82.896 150.33 82.21V81.902ZM142.084 79.34H154.292V82.77H152.626V80.824H143.666V82.77H142.084V79.34ZM151.786 77.212L153.606 77.744C152.962 78.668 152.234 79.62 151.66 80.236L150.288 79.732C150.82 79.046 151.45 77.996 151.786 77.212ZM143.022 77.898L144.45 77.254C144.954 77.8 145.514 78.556 145.738 79.102L144.212 79.802C144.016 79.284 143.498 78.486 143.022 77.898ZM146.55 77.59L148.034 77.03C148.482 77.646 148.958 78.5 149.14 79.06L147.544 79.676C147.404 79.116 146.97 78.234 146.55 77.59Z" fill="#595959"/>
<path d="M165.842 78.528C166.122 80.278 166.71 82.504 168.838 84.478L167.704 86.088C166.178 84.394 165.058 82.056 164.092 79.018L165.842 78.528ZM156.63 79.228C156.882 79.242 157.162 79.242 157.428 79.228C158.744 79.158 161.082 78.864 161.992 78.528L162.524 80.082C162.328 80.152 162.034 80.264 161.824 80.376C160.872 81.104 158.982 83.26 158.982 85.948C158.982 87.586 160.046 88.23 161.39 88.23C164.568 88.23 165.506 84.744 164.26 79.396L165.898 82.07C166.682 85.85 166.01 90.12 161.348 90.12C159.094 90.12 157.19 88.888 157.19 86.354C157.19 84.072 158.128 82.378 159.43 80.712C158.898 80.754 158.002 80.866 157.596 80.908C157.302 80.95 157.078 80.978 156.756 81.048L156.63 79.228ZM167.102 77.744C167.368 78.332 167.732 79.2 167.914 79.774L166.878 80.124C166.64 79.452 166.374 78.668 166.066 78.08L167.102 77.744ZM168.6 77.212C168.908 77.8 169.258 78.668 169.468 79.242L168.418 79.592C168.208 78.948 167.9 78.15 167.592 77.562L168.6 77.212Z" fill="#595959"/>
<path d="M171.428 79.83C172.03 79.9 172.786 79.928 173.29 79.928C175.026 79.928 176.916 79.634 178.274 79.2L178.316 80.824C177.112 81.16 175.096 81.524 173.304 81.51C172.744 81.51 172.156 81.496 171.554 81.468L171.428 79.83ZM176.874 77.73C176.692 78.472 176.356 79.844 175.978 81.034C175.334 83.05 174.074 85.654 172.884 87.306L171.19 86.438C172.45 84.898 173.71 82.448 174.256 80.936C174.592 79.928 174.9 78.626 174.942 77.548L176.874 77.73ZM180.164 82.098C180.122 82.686 180.136 83.274 180.15 83.89C180.178 84.716 180.304 86.802 180.304 87.586C180.304 88.888 179.604 89.91 177.602 89.91C175.866 89.91 174.494 89.126 174.494 87.586C174.494 86.228 175.642 85.164 177.588 85.164C180.038 85.164 181.97 86.396 183.132 87.446L182.208 88.958C181.2 88.02 179.604 86.578 177.49 86.578C176.678 86.578 176.146 86.928 176.146 87.418C176.146 87.936 176.594 88.3 177.364 88.3C178.316 88.3 178.624 87.768 178.624 86.984C178.624 86.144 178.47 83.568 178.4 82.098H180.164ZM182.572 82.84C181.76 82.182 180.164 81.272 179.198 80.838L180.108 79.466C181.116 79.9 182.838 80.838 183.566 81.356L182.572 82.84Z" fill="#595959"/>
<path d="M191.196 78.052C191.112 78.416 191.028 78.864 190.958 79.214C190.818 79.844 190.65 80.712 190.496 81.426C190.034 83.4 188.914 87.39 187.444 89.756L185.61 89.028C187.276 86.788 188.326 83.092 188.718 81.328C188.984 80.068 189.138 78.878 189.124 77.828L191.196 78.052ZM196.026 79.452C196.88 80.67 198.056 83.274 198.49 84.604L196.712 85.43C196.348 83.876 195.354 81.412 194.346 80.166L196.026 79.452ZM185.526 80.922C186.03 80.95 186.506 80.936 187.024 80.922C188.144 80.894 190.804 80.586 191.84 80.586C193.324 80.586 194.374 81.244 194.374 83.274C194.374 84.926 194.164 87.194 193.576 88.398C193.114 89.378 192.33 89.686 191.28 89.686C190.734 89.686 190.076 89.602 189.6 89.49L189.292 87.642C189.838 87.796 190.636 87.936 191 87.936C191.476 87.936 191.84 87.796 192.05 87.334C192.442 86.55 192.624 84.842 192.624 83.47C192.624 82.35 192.148 82.182 191.266 82.182C190.44 82.182 188.018 82.49 187.248 82.588C186.842 82.644 186.114 82.742 185.694 82.812L185.526 80.922ZM195.774 77.52C196.124 78.024 196.614 78.92 196.88 79.438L195.76 79.914C195.466 79.34 195.032 78.514 194.654 77.968L195.774 77.52ZM197.426 76.876C197.79 77.408 198.308 78.304 198.56 78.794L197.44 79.27C197.16 78.682 196.698 77.87 196.32 77.338L197.426 76.876Z" fill="#595959"/>
<path d="M204.062 77.73C205.392 78.15 208.444 78.696 209.676 78.822L209.256 80.544C207.828 80.348 204.72 79.704 203.628 79.424L204.062 77.73ZM204.16 80.544C203.964 81.328 203.726 83.022 203.628 83.834C204.888 82.91 206.288 82.49 207.758 82.49C210.208 82.49 211.636 84.002 211.636 85.696C211.636 88.258 209.606 90.218 203.796 89.714L203.25 87.88C207.464 88.468 209.676 87.446 209.676 85.654C209.676 84.744 208.822 84.086 207.59 84.086C206.008 84.086 204.594 84.674 203.712 85.738C203.46 86.032 203.306 86.256 203.194 86.536L201.57 86.144C201.85 84.772 202.186 82.028 202.27 80.292L204.16 80.544Z" fill="#595959"/>
<path d="M219.756 78.234H221.17V82.07H219.756V78.234ZM217.796 79.662H223.172V80.866H217.796V79.662ZM223.116 80.306H226.518V81.748H223.116V80.306ZM217.922 86.326H223.06V87.544H217.922V86.326ZM222.374 77.478L223.2 78.668C221.73 78.99 219.742 79.186 218.09 79.256C218.048 78.934 217.88 78.444 217.74 78.122C219.322 77.982 221.198 77.758 222.374 77.478ZM217.614 88.552C219 88.454 221.072 88.286 223.088 88.104L223.102 89.322C221.24 89.56 219.294 89.756 217.824 89.924L217.614 88.552ZM226 80.306H227.414C227.414 80.306 227.4 80.796 227.4 80.992C227.288 86.844 227.218 88.902 226.826 89.49C226.56 89.91 226.308 90.05 225.916 90.12C225.566 90.19 225.062 90.204 224.53 90.176C224.502 89.756 224.362 89.126 224.152 88.734C224.572 88.762 224.936 88.776 225.16 88.776C225.342 88.776 225.454 88.734 225.566 88.524C225.818 88.132 225.916 86.242 226 80.642V80.306ZM219.014 84.03V84.66H221.926V84.03H219.014ZM219.014 82.49V83.106H221.926V82.49H219.014ZM217.95 81.482H223.046V85.668H217.95V81.482ZM219.882 81.818H221.016V85.29H221.156V88.734H219.742V85.29H219.882V81.818ZM223.844 77.156H225.272V82.028C225.272 84.702 225.006 88.104 223.088 90.316C222.822 90.05 222.276 89.63 221.912 89.434C223.648 87.418 223.844 84.324 223.844 82.028V77.156ZM216.606 77.156L218.104 77.576C217.39 79.998 216.228 82.616 214.898 84.296C214.786 83.89 214.394 82.924 214.142 82.476C215.164 81.16 216.074 79.158 216.606 77.156ZM215.668 81.006L217.152 79.522L217.166 79.536V90.288H215.668V81.006Z" fill="#595959"/>
<path d="M239.412 77.87C239.356 78.178 239.342 78.514 239.342 78.836C239.314 79.48 239.342 82.126 239.342 82.952C239.342 86.242 239.09 88.286 236.304 90.05L234.68 88.79C235.226 88.552 235.926 88.104 236.318 87.67C237.382 86.55 237.62 85.29 237.62 82.938C237.62 81.888 237.592 79.62 237.522 78.836C237.494 78.5 237.424 78.094 237.368 77.87H239.412ZM233.882 80.614C234.568 80.712 235.254 80.754 236.01 80.754C237.816 80.754 240.056 80.628 241.428 80.376V82.196C240.098 82.35 237.942 82.462 236.052 82.462C235.436 82.462 234.582 82.42 233.882 82.378V80.614ZM232.44 78.108C232.328 78.458 232.188 78.962 232.118 79.256C231.768 80.81 231.264 83.75 231.642 85.486C231.824 85.052 232.09 84.366 232.314 83.862L233.196 84.422C232.776 85.626 232.412 87.026 232.244 87.824C232.188 88.048 232.146 88.356 232.16 88.51C232.16 88.664 232.174 88.902 232.188 89.098L230.62 89.252C230.312 88.398 229.822 86.452 229.822 84.716C229.822 82.42 230.102 80.264 230.284 79.116C230.34 78.738 230.354 78.262 230.368 77.912L232.44 78.108Z" fill="#595959"/>
<path d="M246.16 78.346C246.552 78.388 247.028 78.416 247.42 78.416C248.176 78.416 251.158 78.346 251.956 78.276C252.544 78.234 252.866 78.178 253.034 78.122L253.93 79.382C253.608 79.592 253.272 79.788 252.964 80.026C252.208 80.558 250.738 81.79 249.842 82.49C250.318 82.364 250.738 82.336 251.172 82.336C253.552 82.336 255.358 83.82 255.358 85.85C255.358 88.062 253.678 89.812 250.29 89.812C248.344 89.812 246.874 88.93 246.874 87.516C246.874 86.382 247.91 85.346 249.394 85.346C251.312 85.346 252.376 86.634 252.418 88.174L250.78 88.384C250.752 87.376 250.22 86.676 249.394 86.676C248.876 86.676 248.526 86.998 248.526 87.362C248.526 87.88 249.1 88.23 249.954 88.23C252.32 88.23 253.524 87.334 253.524 85.836C253.524 84.562 252.264 83.708 250.626 83.708C248.47 83.708 247.084 84.856 245.586 86.55L244.312 85.234C245.306 84.45 247 83.022 247.812 82.336C248.596 81.692 250.066 80.516 250.752 79.9C250.038 79.928 248.106 79.998 247.35 80.054C246.972 80.082 246.538 80.11 246.216 80.166L246.16 78.346Z" fill="#595959"/>
</svg>
