<svg width="161" height="124" viewBox="0 0 161 124" fill="none" xmlns="http://www.w3.org/2000/svg">
<path d="M36.292 26.4301H42.22V27.7741H36.292V26.4301ZM35.98 30.7381H42.46V32.0941H35.98V30.7381ZM39.832 27.0181H41.2V37.1101H39.832V27.0181ZM37.132 27.0541H38.476V31.1221C38.476 31.6181 38.456 32.1421 38.416 32.6941C38.376 33.2381 38.296 33.7821 38.176 34.3261C38.064 34.8621 37.896 35.3781 37.672 35.8741C37.456 36.3701 37.16 36.8101 36.784 37.1941C36.704 37.1061 36.6 37.0101 36.472 36.9061C36.344 36.8021 36.208 36.6981 36.064 36.5941C35.928 36.4981 35.808 36.4221 35.704 36.3661C36.024 36.0141 36.276 35.6221 36.46 35.1901C36.652 34.7581 36.796 34.3061 36.892 33.8341C36.988 33.3541 37.052 32.8821 37.084 32.4181C37.116 31.9541 37.132 31.5181 37.132 31.1101V27.0541ZM31.336 26.4061H35.716V27.7021H31.336V26.4061ZM32.692 30.1021H35.572V35.6461H32.692V34.3861H34.348V31.3741H32.692V30.1021ZM32.74 27.0421L34.036 27.3301C33.892 28.0901 33.708 28.8461 33.484 29.5981C33.26 30.3501 32.992 31.0541 32.68 31.7101C32.368 32.3661 32.004 32.9421 31.588 33.4381C31.572 33.3101 31.536 33.1381 31.48 32.9221C31.424 32.7061 31.36 32.4901 31.288 32.2741C31.216 32.0501 31.148 31.8701 31.084 31.7341C31.508 31.1661 31.852 30.4701 32.116 29.6461C32.38 28.8221 32.588 27.9541 32.74 27.0421ZM32.068 30.1021H33.256V36.5341H32.068V30.1021Z" fill="#595959"/>
<path d="M51.604 31.3741L52.648 31.8061C52.4 32.0541 52.108 32.2861 51.772 32.5021C51.436 32.7181 51.08 32.9061 50.704 33.0661C50.336 33.2261 49.964 33.3701 49.588 33.4981C49.5 33.3621 49.384 33.2181 49.24 33.0661C49.096 32.9141 48.956 32.7821 48.82 32.6701C49.164 32.5821 49.508 32.4741 49.852 32.3461C50.204 32.2101 50.532 32.0621 50.836 31.9021C51.148 31.7341 51.404 31.5581 51.604 31.3741ZM52.768 32.4661L53.812 32.8981C53.492 33.2421 53.108 33.5541 52.66 33.8341C52.22 34.1061 51.736 34.3461 51.208 34.5541C50.688 34.7621 50.152 34.9381 49.6 35.0821C49.52 34.9461 49.416 34.7901 49.288 34.6141C49.16 34.4381 49.032 34.2901 48.904 34.1701C49.408 34.0661 49.904 33.9341 50.392 33.7741C50.888 33.6141 51.344 33.4221 51.76 33.1981C52.176 32.9741 52.512 32.7301 52.768 32.4661ZM53.644 33.8341L54.88 34.3381C54.464 34.8261 53.956 35.2461 53.356 35.5981C52.756 35.9421 52.088 36.2341 51.352 36.4741C50.624 36.7141 49.848 36.9101 49.024 37.0621C48.952 36.8861 48.848 36.6901 48.712 36.4741C48.576 36.2581 48.436 36.0741 48.292 35.9221C49.036 35.8181 49.752 35.6781 50.44 35.5021C51.128 35.3181 51.748 35.0901 52.3 34.8181C52.852 34.5381 53.3 34.2101 53.644 33.8341ZM49.96 25.8181L51.268 26.1421C51.004 26.8541 50.656 27.5341 50.224 28.1821C49.8 28.8221 49.348 29.3581 48.868 29.7901C48.796 29.7101 48.692 29.6181 48.556 29.5141C48.428 29.4021 48.296 29.2981 48.16 29.2021C48.024 29.0981 47.904 29.0141 47.8 28.9501C48.264 28.5821 48.684 28.1221 49.06 27.5701C49.444 27.0181 49.744 26.4341 49.96 25.8181ZM49.948 27.0541H54.796V28.1941H49.264L49.948 27.0541ZM52.804 27.3421L54.148 27.6301C53.836 28.4061 53.416 29.0741 52.888 29.6341C52.36 30.1941 51.748 30.6701 51.052 31.0621C50.364 31.4541 49.612 31.7741 48.796 32.0221C48.74 31.9261 48.66 31.8101 48.556 31.6741C48.46 31.5381 48.356 31.4021 48.244 31.2661C48.132 31.1221 48.032 31.0101 47.944 30.9301C48.736 30.7461 49.452 30.4981 50.092 30.1861C50.74 29.8661 51.296 29.4741 51.76 29.0101C52.224 28.5381 52.572 27.9821 52.804 27.3421ZM49.948 27.7141C50.196 28.1541 50.56 28.5821 51.04 28.9981C51.52 29.4141 52.104 29.7821 52.792 30.1021C53.488 30.4141 54.284 30.6421 55.18 30.7861C55.092 30.8741 55 30.9861 54.904 31.1221C54.808 31.2581 54.712 31.3981 54.616 31.5421C54.528 31.6861 54.456 31.8181 54.4 31.9381C53.496 31.7301 52.692 31.4381 51.988 31.0621C51.292 30.6781 50.696 30.2461 50.2 29.7661C49.712 29.2781 49.328 28.7781 49.048 28.2661L49.948 27.7141ZM46.9 27.3781H48.148V35.0941H46.9V27.3781ZM45.808 25.8781L47.128 26.2621C46.904 26.9661 46.632 27.6741 46.312 28.3861C46 29.0981 45.656 29.7741 45.28 30.4141C44.912 31.0461 44.524 31.6021 44.116 32.0821C44.084 31.9621 44.024 31.8061 43.936 31.6141C43.856 31.4141 43.768 31.2141 43.672 31.0141C43.584 30.8061 43.5 30.6421 43.42 30.5221C43.748 30.1381 44.06 29.6981 44.356 29.2021C44.652 28.7061 44.924 28.1741 45.172 27.6061C45.42 27.0381 45.632 26.4621 45.808 25.8781ZM44.872 29.1541L46.192 27.8221L46.24 27.8461V37.0981H44.872V29.1541Z" fill="#595959"/>
<path d="M61.24 26.6341C61.208 26.7861 61.172 26.9541 61.132 27.1381C61.092 27.3141 61.056 27.4781 61.024 27.6301C60.992 27.8061 60.952 28.0061 60.904 28.2301C60.856 28.4461 60.808 28.6661 60.76 28.8901C60.72 29.1061 60.676 29.3181 60.628 29.5261C60.548 29.8701 60.448 30.2701 60.328 30.7261C60.208 31.1821 60.068 31.6741 59.908 32.2021C59.748 32.7221 59.568 33.2461 59.368 33.7741C59.168 34.3021 58.956 34.8181 58.732 35.3221C58.508 35.8181 58.268 36.2661 58.012 36.6661L56.452 36.0421C56.732 35.6661 56.992 35.2461 57.232 34.7821C57.48 34.3101 57.704 33.8301 57.904 33.3421C58.104 32.8461 58.28 32.3581 58.432 31.8781C58.592 31.3901 58.728 30.9381 58.84 30.5221C58.96 30.1061 59.052 29.7501 59.116 29.4541C59.228 28.9101 59.316 28.3861 59.38 27.8821C59.444 27.3781 59.468 26.9021 59.452 26.4541L61.24 26.6341ZM65.368 27.8461C65.56 28.1101 65.756 28.4341 65.956 28.8181C66.164 29.1941 66.368 29.5941 66.568 30.0181C66.768 30.4421 66.948 30.8501 67.108 31.2421C67.268 31.6341 67.392 31.9741 67.48 32.2621L65.956 32.9581C65.884 32.6221 65.776 32.2501 65.632 31.8421C65.496 31.4341 65.336 31.0221 65.152 30.6061C64.968 30.1821 64.772 29.7821 64.564 29.4061C64.364 29.0301 64.156 28.7141 63.94 28.4581L65.368 27.8461ZM56.368 29.0941C56.584 29.1101 56.796 29.1181 57.004 29.1181C57.22 29.1101 57.436 29.1021 57.652 29.0941C57.852 29.0861 58.092 29.0741 58.372 29.0581C58.652 29.0341 58.948 29.0101 59.26 28.9861C59.58 28.9621 59.9 28.9381 60.22 28.9141C60.54 28.8821 60.836 28.8581 61.108 28.8421C61.38 28.8261 61.604 28.8181 61.78 28.8181C62.212 28.8181 62.588 28.8901 62.908 29.0341C63.228 29.1701 63.48 29.4061 63.664 29.7421C63.856 30.0781 63.952 30.5341 63.952 31.1101C63.952 31.5821 63.932 32.0941 63.892 32.6461C63.852 33.1981 63.78 33.7261 63.676 34.2301C63.58 34.7341 63.444 35.1621 63.268 35.5141C63.076 35.9301 62.812 36.2181 62.476 36.3781C62.148 36.5381 61.756 36.6181 61.3 36.6181C61.076 36.6181 60.832 36.5981 60.568 36.5581C60.304 36.5261 60.068 36.4901 59.86 36.4501L59.608 34.8661C59.76 34.9061 59.928 34.9461 60.112 34.9861C60.304 35.0261 60.484 35.0581 60.652 35.0821C60.828 35.1061 60.968 35.1181 61.072 35.1181C61.272 35.1181 61.448 35.0821 61.6 35.0101C61.752 34.9301 61.876 34.7941 61.972 34.6021C62.084 34.3701 62.176 34.0701 62.248 33.7021C62.32 33.3341 62.372 32.9381 62.404 32.5141C62.444 32.0821 62.464 31.6701 62.464 31.2781C62.464 30.9581 62.416 30.7221 62.32 30.5701C62.232 30.4181 62.1 30.3181 61.924 30.2701C61.756 30.2141 61.548 30.1861 61.3 30.1861C61.116 30.1861 60.868 30.2021 60.556 30.2341C60.244 30.2581 59.908 30.2901 59.548 30.3301C59.196 30.3621 58.868 30.3981 58.564 30.4381C58.26 30.4781 58.024 30.5061 57.856 30.5221C57.68 30.5541 57.456 30.5901 57.184 30.6301C56.92 30.6621 56.696 30.6941 56.512 30.7261L56.368 29.0941ZM65.152 26.1781C65.256 26.3221 65.364 26.4941 65.476 26.6941C65.596 26.8941 65.712 27.0941 65.824 27.2941C65.936 27.4941 66.032 27.6701 66.112 27.8221L65.14 28.2421C65.06 28.0741 64.968 27.8901 64.864 27.6901C64.76 27.4901 64.652 27.2901 64.54 27.0901C64.428 26.8901 64.316 26.7181 64.204 26.5741L65.152 26.1781ZM66.58 25.6381C66.684 25.7901 66.796 25.9661 66.916 26.1661C67.036 26.3661 67.152 26.5661 67.264 26.7661C67.384 26.9661 67.476 27.1341 67.54 27.2701L66.592 27.6781C66.464 27.4301 66.312 27.1501 66.136 26.8381C65.96 26.5181 65.788 26.2461 65.62 26.0221L66.58 25.6381Z" fill="#595959"/>
<path d="M69.028 30.8821H79.516V31.9021H69.028V30.8821ZM68.896 35.8501H79.624V36.9301H68.896V35.8501ZM71.74 33.2221V33.8941H76.684V33.2221H71.74ZM70.348 32.3101H78.172V34.8181H70.348V32.3101ZM71.356 34.9261L72.592 34.5781C72.728 34.7461 72.852 34.9421 72.964 35.1661C73.084 35.3901 73.172 35.5861 73.228 35.7541L71.944 36.1981C71.896 36.0141 71.816 35.8061 71.704 35.5741C71.592 35.3341 71.476 35.1181 71.356 34.9261ZM75.88 34.4941L77.14 34.9141C76.996 35.1621 76.852 35.3981 76.708 35.6221C76.572 35.8381 76.444 36.0261 76.324 36.1861L75.196 35.7901C75.308 35.6141 75.432 35.4021 75.568 35.1541C75.704 34.9061 75.808 34.6861 75.88 34.4941ZM71.152 28.9981V29.5261H77.176V28.9981H71.152ZM71.152 27.5941V28.1101H77.176V27.5941H71.152ZM69.832 26.6461H78.568V30.4741H69.832V26.6461ZM72.316 25.8301H73.54V30.1261H72.316V25.8301ZM74.764 25.8301H75.988V30.1261H74.764V25.8301Z" fill="#595959"/>
<path d="M85.984 33.0301H87.388V36.1141H85.984V33.0301ZM83.476 28.2661H90.004V29.2381H83.476V28.2661ZM84.58 30.6301V31.2661H88.864V30.6301H84.58ZM83.272 29.6941H90.256V32.1901H83.272V29.6941ZM82.444 32.6461H91.084V37.0741H89.656V33.6901H83.812V37.0861H82.444V32.6461ZM83.176 34.2661H90.28V35.1661H83.176V34.2661ZM83.188 35.7781H90.28V36.8221H83.188V35.7781ZM85.96 25.8301H87.448V27.4621H85.96V25.8301ZM81.616 26.5261H91.912V29.1541H90.472V27.7381H82.984V29.1541H81.616V26.5261Z" fill="#595959"/>
<path d="M98.548 26.5861C98.5 26.7541 98.448 26.9541 98.392 27.1861C98.344 27.4101 98.308 27.5901 98.284 27.7261C98.228 27.9981 98.156 28.3301 98.068 28.7221C97.988 29.1141 97.9 29.5301 97.804 29.9701C97.708 30.4021 97.608 30.8221 97.504 31.2301C97.392 31.6461 97.26 32.1021 97.108 32.5981C96.964 33.0941 96.804 33.5941 96.628 34.0981C96.46 34.6021 96.288 35.0861 96.112 35.5501C95.936 36.0141 95.764 36.4261 95.596 36.7861L93.916 36.2221C94.1 35.9181 94.288 35.5461 94.48 35.1061C94.68 34.6661 94.876 34.1981 95.068 33.7021C95.26 33.1981 95.436 32.6981 95.596 32.2021C95.756 31.6981 95.892 31.2381 96.004 30.8221C96.076 30.5341 96.148 30.2421 96.22 29.9461C96.292 29.6501 96.356 29.3621 96.412 29.0821C96.476 28.8021 96.528 28.5421 96.568 28.3021C96.616 28.0541 96.652 27.8421 96.676 27.6661C96.7 27.4421 96.716 27.2181 96.724 26.9941C96.732 26.7701 96.728 26.5861 96.712 26.4421L98.548 26.5861ZM95.488 28.3861C95.976 28.3861 96.484 28.3621 97.012 28.3141C97.54 28.2661 98.072 28.1981 98.608 28.1101C99.144 28.0141 99.676 27.9061 100.204 27.7861V29.2861C99.708 29.4061 99.18 29.5061 98.62 29.5861C98.06 29.6661 97.508 29.7301 96.964 29.7781C96.42 29.8181 95.92 29.8381 95.464 29.8381C95.176 29.8381 94.916 29.8341 94.684 29.8261C94.452 29.8101 94.228 29.7981 94.012 29.7901L93.976 28.2901C94.288 28.3221 94.556 28.3461 94.78 28.3621C95.004 28.3781 95.24 28.3861 95.488 28.3861ZM99.256 30.2221C99.592 30.1821 99.964 30.1541 100.372 30.1381C100.78 30.1141 101.176 30.1021 101.56 30.1021C101.904 30.1021 102.252 30.1101 102.604 30.1261C102.964 30.1421 103.32 30.1701 103.672 30.2101L103.636 31.6501C103.34 31.6101 103.012 31.5741 102.652 31.5421C102.3 31.5101 101.94 31.4941 101.572 31.4941C101.156 31.4941 100.76 31.5061 100.384 31.5301C100.008 31.5461 99.632 31.5781 99.256 31.6261V30.2221ZM99.904 33.2341C99.856 33.4021 99.816 33.5781 99.784 33.7621C99.752 33.9461 99.736 34.1021 99.736 34.2301C99.736 34.3661 99.764 34.4901 99.82 34.6021C99.876 34.7141 99.964 34.8141 100.084 34.9021C100.204 34.9821 100.368 35.0461 100.576 35.0941C100.792 35.1341 101.06 35.1541 101.38 35.1541C101.78 35.1541 102.188 35.1341 102.604 35.0941C103.02 35.0541 103.444 34.9941 103.876 34.9141L103.816 36.4381C103.48 36.4861 103.108 36.5261 102.7 36.5581C102.292 36.5981 101.848 36.6181 101.368 36.6181C100.36 36.6181 99.588 36.4501 99.052 36.1141C98.524 35.7781 98.26 35.3101 98.26 34.7101C98.26 34.4301 98.28 34.1501 98.32 33.8701C98.368 33.5901 98.416 33.3341 98.464 33.1021L99.904 33.2341ZM102.388 26.9341C102.492 27.0781 102.6 27.2501 102.712 27.4501C102.832 27.6501 102.948 27.8501 103.06 28.0501C103.172 28.2501 103.264 28.4261 103.336 28.5781L102.376 28.9981C102.296 28.8301 102.204 28.6461 102.1 28.4461C101.996 28.2461 101.888 28.0461 101.776 27.8461C101.664 27.6461 101.552 27.4741 101.44 27.3301L102.388 26.9341ZM103.804 26.3941C103.916 26.5381 104.032 26.7141 104.152 26.9221C104.272 27.1221 104.388 27.3221 104.5 27.5221C104.62 27.7141 104.712 27.8821 104.776 28.0261L103.828 28.4341C103.7 28.1781 103.548 27.8941 103.372 27.5821C103.196 27.2701 103.024 27.0021 102.856 26.7781L103.804 26.3941Z" fill="#595959"/>
<path d="M111.244 26.5501C111.204 26.7021 111.164 26.8701 111.124 27.0541C111.092 27.2301 111.06 27.3941 111.028 27.5461C110.996 27.7221 110.956 27.9221 110.908 28.1461C110.86 28.3621 110.812 28.5821 110.764 28.8061C110.724 29.0221 110.68 29.2341 110.632 29.4421C110.552 29.7861 110.452 30.1861 110.332 30.6421C110.212 31.0981 110.072 31.5901 109.912 32.1181C109.752 32.6381 109.572 33.1621 109.372 33.6901C109.172 34.2181 108.96 34.7341 108.736 35.2381C108.512 35.7341 108.272 36.1821 108.016 36.5821L106.456 35.9581C106.736 35.5821 106.996 35.1621 107.236 34.6981C107.484 34.2261 107.708 33.7421 107.908 33.2461C108.108 32.7501 108.284 32.2621 108.436 31.7821C108.596 31.3021 108.732 30.8541 108.844 30.4381C108.956 30.0221 109.044 29.6661 109.108 29.3701C109.22 28.8261 109.308 28.3021 109.372 27.7981C109.436 27.2941 109.464 26.8181 109.456 26.3701L111.244 26.5501ZM115.372 27.6781C115.564 27.9341 115.76 28.2581 115.96 28.6501C116.168 29.0341 116.368 29.4421 116.56 29.8741C116.76 30.3061 116.94 30.7221 117.1 31.1221C117.268 31.5221 117.396 31.8621 117.484 32.1421L115.96 32.8501C115.88 32.5141 115.768 32.1421 115.624 31.7341C115.488 31.3181 115.328 30.8981 115.144 30.4741C114.968 30.0421 114.776 29.6341 114.568 29.2501C114.368 28.8661 114.16 28.5461 113.944 28.2901L115.372 27.6781ZM106.372 29.0101C106.588 29.0261 106.8 29.0341 107.008 29.0341C107.216 29.0261 107.432 29.0181 107.656 29.0101C107.848 29.0021 108.084 28.9901 108.364 28.9741C108.652 28.9501 108.952 28.9261 109.264 28.9021C109.584 28.8781 109.904 28.8541 110.224 28.8301C110.544 28.7981 110.84 28.7741 111.112 28.7581C111.384 28.7421 111.608 28.7341 111.784 28.7341C112.208 28.7341 112.58 28.8061 112.9 28.9501C113.228 29.0861 113.484 29.3221 113.668 29.6581C113.86 29.9941 113.956 30.4501 113.956 31.0261C113.956 31.4981 113.932 32.0101 113.884 32.5621C113.844 33.1141 113.776 33.6421 113.68 34.1461C113.584 34.6501 113.448 35.0781 113.272 35.4301C113.08 35.8461 112.816 36.1341 112.48 36.2941C112.152 36.4541 111.76 36.5341 111.304 36.5341C111.072 36.5341 110.824 36.5141 110.56 36.4741C110.304 36.4421 110.072 36.4061 109.864 36.3661L109.6 34.7821C109.76 34.8221 109.932 34.8621 110.116 34.9021C110.308 34.9421 110.488 34.9741 110.656 34.9981C110.832 35.0221 110.972 35.0341 111.076 35.0341C111.276 35.0341 111.452 34.9981 111.604 34.9261C111.756 34.8461 111.88 34.7101 111.976 34.5181C112.088 34.2861 112.176 33.9861 112.24 33.6181C112.312 33.2501 112.364 32.8541 112.396 32.4301C112.436 31.9981 112.456 31.5861 112.456 31.1941C112.456 30.8741 112.412 30.6381 112.324 30.4861C112.236 30.3341 112.104 30.2341 111.928 30.1861C111.76 30.1301 111.548 30.1021 111.292 30.1021C111.116 30.1021 110.868 30.1181 110.548 30.1501C110.236 30.1741 109.904 30.2061 109.552 30.2461C109.2 30.2781 108.868 30.3141 108.556 30.3541C108.252 30.3941 108.016 30.4221 107.848 30.4381C107.68 30.4701 107.46 30.5061 107.188 30.5461C106.924 30.5781 106.7 30.6101 106.516 30.6421L106.372 29.0101Z" fill="#595959"/>
<path d="M122.188 26.3701C122.476 26.4581 122.836 26.5501 123.268 26.6461C123.7 26.7421 124.152 26.8381 124.624 26.9341C125.096 27.0221 125.54 27.0981 125.956 27.1621C126.38 27.2261 126.724 27.2741 126.988 27.3061L126.628 28.7701C126.388 28.7381 126.096 28.6941 125.752 28.6381C125.416 28.5741 125.056 28.5061 124.672 28.4341C124.296 28.3621 123.924 28.2901 123.556 28.2181C123.188 28.1381 122.852 28.0621 122.548 27.9901C122.244 27.9181 121.996 27.8581 121.804 27.8101L122.188 26.3701ZM122.26 28.7821C122.22 28.9421 122.176 29.1501 122.128 29.4061C122.088 29.6541 122.048 29.9141 122.008 30.1861C121.968 30.4581 121.928 30.7181 121.888 30.9661C121.856 31.2141 121.828 31.4221 121.804 31.5901C122.348 31.1981 122.916 30.9101 123.508 30.7261C124.108 30.5421 124.72 30.4501 125.344 30.4501C126.048 30.4501 126.648 30.5781 127.144 30.8341C127.64 31.0901 128.016 31.4261 128.272 31.8421C128.536 32.2581 128.668 32.7101 128.668 33.1981C128.668 33.7421 128.552 34.2461 128.32 34.7101C128.088 35.1741 127.708 35.5701 127.18 35.8981C126.652 36.2261 125.96 36.4581 125.104 36.5941C124.248 36.7301 123.196 36.7461 121.948 36.6421L121.492 35.0701C122.692 35.2301 123.7 35.2541 124.516 35.1421C125.332 35.0221 125.948 34.7901 126.364 34.4461C126.788 34.0941 127 33.6661 127 33.1621C127 32.8981 126.924 32.6661 126.772 32.4661C126.62 32.2581 126.408 32.0981 126.136 31.9861C125.864 31.8661 125.556 31.8061 125.212 31.8061C124.54 31.8061 123.908 31.9301 123.316 32.1781C122.732 32.4181 122.252 32.7661 121.876 33.2221C121.772 33.3501 121.684 33.4701 121.612 33.5821C121.548 33.6861 121.488 33.7981 121.432 33.9181L120.052 33.5701C120.1 33.3381 120.148 33.0661 120.196 32.7541C120.244 32.4341 120.292 32.0941 120.34 31.7341C120.388 31.3661 120.432 30.9981 120.472 30.6301C120.512 30.2621 120.548 29.8981 120.58 29.5381C120.612 29.1781 120.636 28.8501 120.652 28.5541L122.26 28.7821Z" fill="#595959"/>
<path d="M37.732 55.1741H48.436V56.3621H37.732V55.1741ZM37.768 49.7981H48.4V50.9741H37.768V49.7981ZM38.26 51.9461H47.932V53.0741H38.26V51.9461ZM38.848 53.6021H47.38V54.6461H38.848V53.6021ZM42.328 52.5101H43.756V59.1101H42.328V52.5101ZM41.284 47.8181H42.628V50.3621H41.284V47.8181ZM43.516 47.8181H44.872V50.2781H43.516V47.8181ZM42.064 55.7021L43.204 56.2181C42.828 56.6341 42.372 57.0221 41.836 57.3821C41.308 57.7341 40.74 58.0421 40.132 58.3061C39.524 58.5781 38.912 58.7981 38.296 58.9661C38.232 58.8461 38.144 58.7101 38.032 58.5581C37.928 58.4141 37.816 58.2701 37.696 58.1261C37.584 57.9821 37.476 57.8621 37.372 57.7661C37.972 57.6381 38.568 57.4741 39.16 57.2741C39.76 57.0741 40.312 56.8381 40.816 56.5661C41.32 56.2941 41.736 56.0061 42.064 55.7021ZM44.044 55.6661C44.292 55.9061 44.588 56.1341 44.932 56.3501C45.276 56.5581 45.652 56.7501 46.06 56.9261C46.476 57.0941 46.912 57.2421 47.368 57.3701C47.832 57.4981 48.3 57.5981 48.772 57.6701C48.66 57.7821 48.54 57.9101 48.412 58.0541C48.292 58.2061 48.176 58.3621 48.064 58.5221C47.96 58.6901 47.872 58.8421 47.8 58.9781C47.32 58.8581 46.848 58.7021 46.384 58.5101C45.928 58.3261 45.492 58.1141 45.076 57.8741C44.66 57.6341 44.268 57.3661 43.9 57.0701C43.532 56.7741 43.208 56.4581 42.928 56.1221L44.044 55.6661ZM46.276 47.9261L47.776 48.2861C47.592 48.6141 47.404 48.9341 47.212 49.2461C47.02 49.5501 46.844 49.8101 46.684 50.0261L45.508 49.6661C45.604 49.5061 45.7 49.3261 45.796 49.1261C45.892 48.9181 45.98 48.7101 46.06 48.5021C46.148 48.2861 46.22 48.0941 46.276 47.9261ZM44.692 50.4941L46.216 50.8541C46.048 51.1341 45.888 51.4061 45.736 51.6701C45.584 51.9261 45.448 52.1461 45.328 52.3301L44.104 51.9941C44.208 51.7701 44.316 51.5221 44.428 51.2501C44.54 50.9701 44.628 50.7181 44.692 50.4941ZM38.62 48.3101L39.856 47.8901C40.032 48.1381 40.208 48.4261 40.384 48.7541C40.56 49.0741 40.688 49.3501 40.768 49.5821L39.472 50.0621C39.408 49.8221 39.292 49.5381 39.124 49.2101C38.956 48.8821 38.788 48.5821 38.62 48.3101ZM40.144 50.9981L41.548 50.7701C41.652 50.9381 41.752 51.1301 41.848 51.3461C41.952 51.5541 42.028 51.7381 42.076 51.8981L40.612 52.1501C40.572 51.9981 40.508 51.8101 40.42 51.5861C40.332 51.3621 40.24 51.1661 40.144 50.9981Z" fill="#595959"/>
<path d="M52.708 51.3461V52.2101H58.384V51.3461H52.708ZM52.708 49.4021V50.2661H58.384V49.4021H52.708ZM51.28 48.2381H59.884V53.3741H51.28V48.2381ZM57.196 52.6061C57.46 52.9661 57.796 53.3021 58.204 53.6141C58.62 53.9261 59.084 54.2021 59.596 54.4421C60.116 54.6741 60.656 54.8581 61.216 54.9941C61.112 55.0901 61 55.2101 60.88 55.3541C60.76 55.4981 60.644 55.6501 60.532 55.8101C60.42 55.9621 60.328 56.1021 60.256 56.2301C59.672 56.0301 59.112 55.7781 58.576 55.4741C58.048 55.1621 57.56 54.8021 57.112 54.3941C56.672 53.9781 56.296 53.5301 55.984 53.0501L57.196 52.6061ZM53.92 52.6061L55.18 53.0981C54.86 53.5541 54.472 53.9861 54.016 54.3941C53.568 54.8021 53.076 55.1661 52.54 55.4861C52.012 55.8061 51.46 56.0661 50.884 56.2661C50.82 56.1461 50.732 56.0141 50.62 55.8701C50.508 55.7261 50.392 55.5821 50.272 55.4381C50.152 55.2941 50.04 55.1781 49.936 55.0901C50.472 54.9301 50.992 54.7261 51.496 54.4781C52.008 54.2221 52.472 53.9341 52.888 53.6141C53.312 53.2941 53.656 52.9581 53.92 52.6061ZM53.068 54.8021H54.544V55.6301C54.544 55.9181 54.512 56.2261 54.448 56.5541C54.384 56.8741 54.26 57.1941 54.076 57.5141C53.892 57.8341 53.616 58.1381 53.248 58.4261C52.888 58.7141 52.404 58.9661 51.796 59.1821C51.74 59.0621 51.652 58.9301 51.532 58.7861C51.42 58.6421 51.3 58.4981 51.172 58.3541C51.044 58.2181 50.924 58.1021 50.812 58.0061C51.316 57.8461 51.716 57.6661 52.012 57.4661C52.316 57.2661 52.54 57.0581 52.684 56.8421C52.836 56.6261 52.936 56.4101 52.984 56.1941C53.04 55.9701 53.068 55.7621 53.068 55.5701V54.8021ZM54.808 48.8381H56.26V52.7861H54.808V48.8381ZM56.716 54.8261H58.216V59.0621H56.716V54.8261Z" fill="#595959"/>
<path d="M62.668 52.6061H73.42V54.0341H62.668V52.6061ZM63.568 49.6421H72.544V51.0701H63.568V49.6421ZM67.24 47.8421H68.776V59.1101H67.24V47.8421ZM66.988 53.4341L68.236 53.9501C67.948 54.4221 67.62 54.8861 67.252 55.3421C66.884 55.7901 66.484 56.2141 66.052 56.6141C65.628 57.0141 65.184 57.3821 64.72 57.7181C64.264 58.0461 63.8 58.3341 63.328 58.5821C63.248 58.4541 63.144 58.3141 63.016 58.1621C62.896 58.0101 62.768 57.8621 62.632 57.7181C62.504 57.5661 62.38 57.4381 62.26 57.3341C62.724 57.1341 63.184 56.8941 63.64 56.6141C64.104 56.3261 64.544 56.0101 64.96 55.6661C65.376 55.3221 65.756 54.9621 66.1 54.5861C66.444 54.2021 66.74 53.8181 66.988 53.4341ZM69.04 53.4461C69.28 53.8301 69.572 54.2141 69.916 54.5981C70.268 54.9741 70.652 55.3341 71.068 55.6781C71.484 56.0221 71.916 56.3381 72.364 56.6261C72.82 56.9061 73.276 57.1461 73.732 57.3461C73.62 57.4341 73.496 57.5541 73.36 57.7061C73.232 57.8501 73.108 58.0021 72.988 58.1621C72.868 58.3221 72.768 58.4661 72.688 58.5941C72.224 58.3461 71.764 58.0541 71.308 57.7181C70.852 57.3821 70.412 57.0141 69.988 56.6141C69.564 56.2061 69.168 55.7781 68.8 55.3301C68.44 54.8821 68.116 54.4221 67.828 53.9501L69.04 53.4461Z" fill="#595959"/>
<path d="M79.564 48.3941H84.7V49.6301H79.564V48.3941ZM80.008 54.8381H85.612V56.0981H80.008V54.8381ZM79.288 57.5141H86.116V58.7741H79.288V57.5141ZM84.292 48.3941H84.556L84.82 48.3341L85.78 48.7541C85.468 49.6981 85.028 50.5141 84.46 51.2021C83.892 51.8901 83.228 52.4661 82.468 52.9301C81.708 53.3861 80.876 53.7541 79.972 54.0341C79.892 53.8581 79.772 53.6541 79.612 53.4221C79.46 53.1821 79.316 52.9861 79.18 52.8341C79.988 52.6261 80.732 52.3301 81.412 51.9461C82.1 51.5541 82.692 51.0781 83.188 50.5181C83.692 49.9581 84.06 49.3221 84.292 48.6101V48.3941ZM81.424 49.4741C81.84 50.2901 82.468 50.9901 83.308 51.5741C84.156 52.1501 85.148 52.5621 86.284 52.8101C86.14 52.9461 85.98 53.1301 85.804 53.3621C85.636 53.5941 85.504 53.7981 85.408 53.9741C84.2 53.6461 83.156 53.1381 82.276 52.4501C81.404 51.7621 80.704 50.9061 80.176 49.8821L81.424 49.4741ZM82.048 53.3981H83.464V58.3181H82.048V53.3981ZM76.66 47.8421L77.908 48.3101C77.748 48.6141 77.58 48.9301 77.404 49.2581C77.228 49.5861 77.056 49.8981 76.888 50.1941C76.72 50.4901 76.56 50.7461 76.408 50.9621L75.448 50.5541C75.592 50.3061 75.74 50.0261 75.892 49.7141C76.044 49.4021 76.188 49.0821 76.324 48.7541C76.46 48.4261 76.572 48.1221 76.66 47.8421ZM78.04 49.2701L79.216 49.7981C78.928 50.2541 78.612 50.7341 78.268 51.2381C77.924 51.7341 77.58 52.2141 77.236 52.6781C76.892 53.1341 76.568 53.5341 76.264 53.8781L75.424 53.4101C75.648 53.1381 75.88 52.8341 76.12 52.4981C76.36 52.1541 76.596 51.7981 76.828 51.4301C77.068 51.0541 77.292 50.6821 77.5 50.3141C77.708 49.9381 77.888 49.5901 78.04 49.2701ZM74.812 50.6861L75.508 49.7021C75.716 49.8861 75.928 50.0901 76.144 50.3141C76.368 50.5301 76.572 50.7501 76.756 50.9741C76.948 51.1901 77.092 51.3861 77.188 51.5621L76.456 52.6781C76.36 52.4861 76.22 52.2741 76.036 52.0421C75.86 51.8101 75.664 51.5741 75.448 51.3341C75.232 51.0941 75.02 50.8781 74.812 50.6861ZM77.692 52.1261L78.64 51.7301C78.792 52.0021 78.94 52.2941 79.084 52.6061C79.236 52.9101 79.364 53.2101 79.468 53.5061C79.58 53.7941 79.656 54.0541 79.696 54.2861L78.676 54.7421C78.636 54.5101 78.564 54.2461 78.46 53.9501C78.364 53.6461 78.248 53.3341 78.112 53.0141C77.976 52.6941 77.836 52.3981 77.692 52.1261ZM74.8 53.1221C75.352 53.1061 76.012 53.0821 76.78 53.0501C77.548 53.0181 78.328 52.9861 79.12 52.9541L79.108 54.0941C78.364 54.1501 77.624 54.2021 76.888 54.2501C76.16 54.2981 75.504 54.3421 74.92 54.3821L74.8 53.1221ZM77.944 55.1141L78.952 54.7901C79.104 55.1341 79.248 55.5101 79.384 55.9181C79.528 56.3181 79.636 56.6701 79.708 56.9741L78.64 57.3581C78.584 57.0541 78.488 56.6941 78.352 56.2781C78.216 55.8541 78.08 55.4661 77.944 55.1141ZM75.328 54.8861L76.516 55.1021C76.452 55.6781 76.356 56.2461 76.228 56.8061C76.1 57.3661 75.952 57.8381 75.784 58.2221C75.704 58.1661 75.596 58.1021 75.46 58.0301C75.324 57.9661 75.184 57.9021 75.04 57.8381C74.904 57.7741 74.784 57.7261 74.68 57.6941C74.856 57.3341 74.996 56.9061 75.1 56.4101C75.204 55.9061 75.28 55.3981 75.328 54.8861ZM76.672 53.7581H77.932V59.1101H76.672V53.7581Z" fill="#595959"/>
<path d="M93.964 53.5901V54.6941H97.036V53.5901H93.964ZM92.788 52.5461H98.26V55.7381H92.788V52.5461ZM95.404 49.0901C95.228 49.4101 95 49.7461 94.72 50.0981C94.44 50.4501 94.124 50.7861 93.772 51.1061C93.428 51.4261 93.064 51.7061 92.68 51.9461C92.616 51.7701 92.52 51.5701 92.392 51.3461C92.264 51.1141 92.14 50.9261 92.02 50.7821C92.404 50.5661 92.768 50.2941 93.112 49.9661C93.464 49.6381 93.78 49.2901 94.06 48.9221C94.34 48.5461 94.564 48.1861 94.732 47.8421H95.992C96.224 48.2021 96.492 48.5621 96.796 48.9221C97.1 49.2741 97.424 49.5941 97.768 49.8821C98.112 50.1621 98.46 50.3901 98.812 50.5661C98.684 50.7261 98.552 50.9261 98.416 51.1661C98.288 51.3981 98.18 51.6101 98.092 51.8021C97.748 51.5941 97.408 51.3421 97.072 51.0461C96.736 50.7421 96.424 50.4221 96.136 50.0861C95.848 49.7501 95.604 49.4181 95.404 49.0901ZM94.84 51.2861H96.112V53.6381C96.112 54.1181 96.076 54.6101 96.004 55.1141C95.94 55.6101 95.796 56.1021 95.572 56.5901C95.356 57.0701 95.036 57.5261 94.612 57.9581C94.188 58.3901 93.62 58.7821 92.908 59.1341C92.844 59.0301 92.76 58.9141 92.656 58.7861C92.56 58.6661 92.456 58.5421 92.344 58.4141C92.232 58.2941 92.128 58.1981 92.032 58.1261C92.664 57.8301 93.164 57.5061 93.532 57.1541C93.908 56.7941 94.188 56.4181 94.372 56.0261C94.564 55.6261 94.688 55.2221 94.744 54.8141C94.808 54.4061 94.84 54.0061 94.84 53.6141V51.2861ZM96.232 55.1141C96.448 55.7381 96.768 56.3061 97.192 56.8181C97.624 57.3221 98.148 57.7021 98.764 57.9581C98.66 58.0461 98.548 58.1541 98.428 58.2821C98.316 58.4181 98.208 58.5581 98.104 58.7021C98 58.8461 97.912 58.9781 97.84 59.0981C97.168 58.7381 96.612 58.2341 96.172 57.5861C95.74 56.9381 95.396 56.2061 95.14 55.3901L96.232 55.1141ZM93.616 50.7941H97.324V51.9101H93.616V50.7941ZM88.6 50.0981H92.104V51.1901H88.6V50.0981ZM88.6 51.9221H92.104V53.0021H88.6V51.9221ZM87.916 53.7461H92.032V54.8621H87.916V53.7461ZM89.92 48.9581H91.06V54.3581H89.92V48.9581ZM90.316 55.4021L90.88 55.2221C91 55.4541 91.112 55.7141 91.216 56.0021C91.328 56.2901 91.404 56.5381 91.444 56.7461L90.856 56.9621C90.816 56.7541 90.744 56.5021 90.64 56.2061C90.544 55.9101 90.436 55.6421 90.316 55.4021ZM89.536 55.5701L90.148 55.4621C90.252 55.7661 90.34 56.1021 90.412 56.4701C90.484 56.8301 90.528 57.1381 90.544 57.3941L89.908 57.5261C89.892 57.2621 89.848 56.9501 89.776 56.5901C89.712 56.2221 89.632 55.8821 89.536 55.5701ZM88.708 55.6301L89.332 55.5701C89.396 55.9221 89.436 56.3061 89.452 56.7221C89.468 57.1301 89.472 57.4821 89.464 57.7781L88.804 57.8741C88.828 57.5701 88.828 57.2101 88.804 56.7941C88.788 56.3781 88.756 55.9901 88.708 55.6301ZM87.82 55.3781L88.612 55.5341C88.596 55.9021 88.564 56.2661 88.516 56.6261C88.476 56.9861 88.408 57.3221 88.312 57.6341C88.224 57.9381 88.1 58.2021 87.94 58.4261L87.208 58.0301C87.352 57.8221 87.464 57.5821 87.544 57.3101C87.624 57.0301 87.684 56.7261 87.724 56.3981C87.772 56.0621 87.804 55.7221 87.82 55.3781ZM87.916 48.2861H92.344V49.4501H89.104V54.5141H87.916V48.2861ZM91.408 53.7461H92.584C92.584 53.7461 92.584 53.8061 92.584 53.9261C92.584 54.0461 92.58 54.1461 92.572 54.2261C92.54 55.1941 92.5 55.9781 92.452 56.5781C92.404 57.1781 92.348 57.6421 92.284 57.9701C92.22 58.2901 92.14 58.5101 92.044 58.6301C91.948 58.7661 91.844 58.8621 91.732 58.9181C91.62 58.9821 91.488 59.0261 91.336 59.0501C91.216 59.0741 91.06 59.0861 90.868 59.0861C90.684 59.0941 90.488 59.0941 90.28 59.0861C90.272 58.9101 90.24 58.7181 90.184 58.5101C90.128 58.3021 90.056 58.1221 89.968 57.9701C90.128 57.9861 90.272 57.9981 90.4 58.0061C90.528 58.0141 90.632 58.0181 90.712 58.0181C90.776 58.0181 90.832 58.0061 90.88 57.9821C90.928 57.9581 90.976 57.9181 91.024 57.8621C91.088 57.7821 91.14 57.6101 91.18 57.3461C91.228 57.0821 91.268 56.6781 91.3 56.1341C91.34 55.5901 91.376 54.8621 91.408 53.9501V53.7461Z" fill="#595959"/>
<path d="M100.288 49.7981C100.528 49.7901 100.756 49.7821 100.972 49.7741C101.188 49.7581 101.352 49.7461 101.464 49.7381C101.712 49.7221 102.016 49.6981 102.376 49.6661C102.744 49.6261 103.152 49.5861 103.6 49.5461C104.056 49.5061 104.54 49.4661 105.052 49.4261C105.564 49.3861 106.096 49.3421 106.648 49.2941C107.064 49.2541 107.476 49.2221 107.884 49.1981C108.3 49.1661 108.692 49.1421 109.06 49.1261C109.436 49.1021 109.764 49.0861 110.044 49.0781L110.056 50.6141C109.84 50.6141 109.592 50.6181 109.312 50.6261C109.032 50.6341 108.752 50.6501 108.472 50.6741C108.2 50.6901 107.956 50.7261 107.74 50.7821C107.38 50.8781 107.044 51.0421 106.732 51.2741C106.42 51.4981 106.148 51.7661 105.916 52.0781C105.692 52.3821 105.516 52.7141 105.388 53.0741C105.26 53.4261 105.196 53.7821 105.196 54.1421C105.196 54.5341 105.264 54.8821 105.4 55.1861C105.544 55.4821 105.736 55.7381 105.976 55.9541C106.224 56.1621 106.512 56.3381 106.84 56.4821C107.168 56.6181 107.52 56.7221 107.896 56.7941C108.28 56.8661 108.676 56.9141 109.084 56.9381L108.52 58.5821C108.016 58.5501 107.524 58.4701 107.044 58.3421C106.572 58.2141 106.128 58.0381 105.712 57.8141C105.296 57.5901 104.932 57.3181 104.62 56.9981C104.316 56.6701 104.072 56.2981 103.888 55.8821C103.712 55.4581 103.624 54.9861 103.624 54.4661C103.624 53.8901 103.716 53.3621 103.9 52.8821C104.084 52.3941 104.312 51.9701 104.584 51.6101C104.864 51.2421 105.14 50.9581 105.412 50.7581C105.188 50.7901 104.916 50.8221 104.596 50.8541C104.284 50.8861 103.944 50.9261 103.576 50.9741C103.216 51.0141 102.848 51.0581 102.472 51.1061C102.096 51.1541 101.732 51.2101 101.38 51.2741C101.036 51.3301 100.724 51.3861 100.444 51.4421L100.288 49.7981ZM108.34 51.7901C108.444 51.9341 108.552 52.1061 108.664 52.3061C108.784 52.4981 108.9 52.6941 109.012 52.8941C109.124 53.0861 109.22 53.2621 109.3 53.4221L108.388 53.8301C108.236 53.4941 108.088 53.1981 107.944 52.9421C107.808 52.6861 107.644 52.4261 107.452 52.1621L108.34 51.7901ZM109.684 51.2381C109.788 51.3821 109.9 51.5501 110.02 51.7421C110.148 51.9261 110.272 52.1181 110.392 52.3181C110.512 52.5101 110.612 52.6821 110.692 52.8341L109.792 53.2661C109.632 52.9461 109.476 52.6621 109.324 52.4141C109.18 52.1661 109.008 51.9101 108.808 51.6461L109.684 51.2381Z" fill="#595959"/>
<path d="M117.568 48.4181C117.52 48.6341 117.48 48.8261 117.448 48.9941C117.416 49.1621 117.388 49.3261 117.364 49.4861C117.332 49.6541 117.292 49.8981 117.244 50.2181C117.204 50.5301 117.156 50.8861 117.1 51.2861C117.052 51.6781 117 52.0901 116.944 52.5221C116.896 52.9461 116.848 53.3621 116.8 53.7701C116.752 54.1781 116.712 54.5501 116.68 54.8861C116.656 55.2221 116.644 55.4901 116.644 55.6901C116.644 56.1861 116.792 56.5661 117.088 56.8301C117.392 57.0861 117.84 57.2141 118.432 57.2141C118.992 57.2141 119.464 57.1381 119.848 56.9861C120.232 56.8261 120.524 56.6141 120.724 56.3501C120.924 56.0861 121.024 55.7901 121.024 55.4621C121.024 55.0541 120.916 54.6581 120.7 54.2741C120.492 53.8821 120.188 53.5021 119.788 53.1341L121.48 52.7741C121.88 53.2781 122.172 53.7581 122.356 54.2141C122.548 54.6621 122.644 55.1421 122.644 55.6541C122.644 56.2541 122.472 56.7901 122.128 57.2621C121.784 57.7341 121.292 58.1021 120.652 58.3661C120.02 58.6301 119.264 58.7621 118.384 58.7621C117.76 58.7621 117.204 58.6661 116.716 58.4741C116.228 58.2821 115.848 57.9781 115.576 57.5621C115.304 57.1461 115.168 56.6061 115.168 55.9421C115.168 55.6941 115.188 55.3661 115.228 54.9581C115.268 54.5421 115.316 54.0861 115.372 53.5901C115.436 53.0861 115.5 52.5781 115.564 52.0661C115.628 51.5461 115.684 51.0541 115.732 50.5901C115.788 50.1261 115.832 49.7261 115.864 49.3901C115.88 49.1101 115.888 48.8981 115.888 48.7541C115.896 48.6021 115.892 48.4581 115.876 48.3221L117.568 48.4181ZM113.284 49.9061C113.644 50.0181 114.036 50.1141 114.46 50.1941C114.884 50.2661 115.32 50.3221 115.768 50.3621C116.216 50.3941 116.64 50.4101 117.04 50.4101C117.512 50.4101 117.952 50.3941 118.36 50.3621C118.768 50.3301 119.124 50.2901 119.428 50.2421L119.38 51.6701C119.02 51.7021 118.66 51.7301 118.3 51.7541C117.94 51.7781 117.508 51.7901 117.004 51.7901C116.596 51.7901 116.172 51.7701 115.732 51.7301C115.292 51.6821 114.856 51.6221 114.424 51.5501C113.992 51.4701 113.588 51.3821 113.212 51.2861L113.284 49.9061ZM113.032 52.8821C113.464 53.0261 113.9 53.1381 114.34 53.2181C114.788 53.2981 115.228 53.3541 115.66 53.3861C116.1 53.4101 116.52 53.4221 116.92 53.4221C117.288 53.4221 117.684 53.4101 118.108 53.3861C118.54 53.3621 118.948 53.3261 119.332 53.2781L119.296 54.7061C118.96 54.7381 118.616 54.7661 118.264 54.7901C117.912 54.8061 117.548 54.8141 117.172 54.8141C116.372 54.8141 115.604 54.7741 114.868 54.6941C114.132 54.6061 113.492 54.4861 112.948 54.3341L113.032 52.8821Z" fill="#595959"/>
<path d="M31.6 69.6341H42.064V71.1101H31.6V69.6341ZM37.396 73.6661L38.512 72.7301C38.832 72.9621 39.176 73.2181 39.544 73.4981C39.92 73.7701 40.292 74.0541 40.66 74.3501C41.036 74.6461 41.384 74.9381 41.704 75.2261C42.024 75.5061 42.296 75.7621 42.52 75.9941L41.296 77.1101C41.096 76.8701 40.84 76.6061 40.528 76.3181C40.224 76.0221 39.892 75.7181 39.532 75.4061C39.18 75.0941 38.816 74.7901 38.44 74.4941C38.072 74.1981 37.724 73.9221 37.396 73.6661ZM36.916 70.1861L38.512 70.7501C38.056 71.5901 37.512 72.4101 36.88 73.2101C36.256 74.0101 35.552 74.7501 34.768 75.4301C33.984 76.1021 33.132 76.6781 32.212 77.1581C32.14 77.0301 32.044 76.8861 31.924 76.7261C31.804 76.5661 31.68 76.4101 31.552 76.2581C31.432 76.0981 31.32 75.9621 31.216 75.8501C31.864 75.5541 32.476 75.1941 33.052 74.7701C33.628 74.3381 34.16 73.8701 34.648 73.3661C35.144 72.8621 35.58 72.3421 35.956 71.8061C36.34 71.2621 36.66 70.7221 36.916 70.1861ZM36.04 73.0901L37.612 71.5181V80.0861H36.04V73.0901Z" fill="#595959"/>
<path d="M48.496 68.8181H50.032V71.0141H48.496V68.8181ZM44.2 69.9101H54.46V72.7541H52.912V71.2421H45.664V72.7541H44.2V69.9101ZM48.064 71.5301L49.588 71.8421C49.356 72.3301 49.108 72.8381 48.844 73.3661C48.588 73.8861 48.328 74.4061 48.064 74.9261C47.8 75.4461 47.54 75.9421 47.284 76.4141C47.036 76.8781 46.804 77.2981 46.588 77.6741L45.064 77.2661C45.296 76.8981 45.54 76.4821 45.796 76.0181C46.06 75.5461 46.324 75.0541 46.588 74.5421C46.86 74.0221 47.12 73.5061 47.368 72.9941C47.624 72.4741 47.856 71.9861 48.064 71.5301ZM51.1 74.2781L52.72 74.4821C52.464 75.4101 52.108 76.1981 51.652 76.8461C51.204 77.4861 50.66 78.0221 50.02 78.4541C49.388 78.8861 48.656 79.2301 47.824 79.4861C46.992 79.7501 46.06 79.9581 45.028 80.1101C44.988 79.9901 44.92 79.8461 44.824 79.6781C44.728 79.5181 44.624 79.3581 44.512 79.1981C44.408 79.0381 44.308 78.9061 44.212 78.8021C45.524 78.6741 46.652 78.4501 47.596 78.1301C48.548 77.8101 49.316 77.3421 49.9 76.7261C50.484 76.1101 50.884 75.2941 51.1 74.2781ZM43.948 73.3061H54.664V74.6621H43.948V73.3061ZM45.964 77.0141L47.008 76.0061C47.592 76.1661 48.212 76.3581 48.868 76.5821C49.532 76.8061 50.188 77.0501 50.836 77.3141C51.492 77.5701 52.108 77.8341 52.684 78.1061C53.268 78.3781 53.768 78.6461 54.184 78.9101L53.032 80.0861C52.656 79.8301 52.192 79.5581 51.64 79.2701C51.088 78.9901 50.488 78.7141 49.84 78.4421C49.192 78.1621 48.536 77.8981 47.872 77.6501C47.208 77.4021 46.572 77.1901 45.964 77.0141Z" fill="#595959"/>
<path d="M61.24 69.6341C61.208 69.7861 61.172 69.9541 61.132 70.1381C61.092 70.3141 61.056 70.4781 61.024 70.6301C60.992 70.8061 60.952 71.0061 60.904 71.2301C60.856 71.4461 60.808 71.6661 60.76 71.8901C60.72 72.1061 60.676 72.3181 60.628 72.5261C60.548 72.8701 60.448 73.2701 60.328 73.7261C60.208 74.1821 60.068 74.6741 59.908 75.2021C59.748 75.7221 59.568 76.2461 59.368 76.7741C59.168 77.3021 58.956 77.8181 58.732 78.3221C58.508 78.8181 58.268 79.2661 58.012 79.6661L56.452 79.0421C56.732 78.6661 56.992 78.2461 57.232 77.7821C57.48 77.3101 57.704 76.8301 57.904 76.3421C58.104 75.8461 58.28 75.3581 58.432 74.8781C58.592 74.3901 58.728 73.9381 58.84 73.5221C58.96 73.1061 59.052 72.7501 59.116 72.4541C59.228 71.9101 59.316 71.3861 59.38 70.8821C59.444 70.3781 59.468 69.9021 59.452 69.4541L61.24 69.6341ZM65.368 70.8461C65.56 71.1101 65.756 71.4341 65.956 71.8181C66.164 72.1941 66.368 72.5941 66.568 73.0181C66.768 73.4421 66.948 73.8501 67.108 74.2421C67.268 74.6341 67.392 74.9741 67.48 75.2621L65.956 75.9581C65.884 75.6221 65.776 75.2501 65.632 74.8421C65.496 74.4341 65.336 74.0221 65.152 73.6061C64.968 73.1821 64.772 72.7821 64.564 72.4061C64.364 72.0301 64.156 71.7141 63.94 71.4581L65.368 70.8461ZM56.368 72.0941C56.584 72.1101 56.796 72.1181 57.004 72.1181C57.22 72.1101 57.436 72.1021 57.652 72.0941C57.852 72.0861 58.092 72.0741 58.372 72.0581C58.652 72.0341 58.948 72.0101 59.26 71.9861C59.58 71.9621 59.9 71.9381 60.22 71.9141C60.54 71.8821 60.836 71.8581 61.108 71.8421C61.38 71.8261 61.604 71.8181 61.78 71.8181C62.212 71.8181 62.588 71.8901 62.908 72.0341C63.228 72.1701 63.48 72.4061 63.664 72.7421C63.856 73.0781 63.952 73.5341 63.952 74.1101C63.952 74.5821 63.932 75.0941 63.892 75.6461C63.852 76.1981 63.78 76.7261 63.676 77.2301C63.58 77.7341 63.444 78.1621 63.268 78.5141C63.076 78.9301 62.812 79.2181 62.476 79.3781C62.148 79.5381 61.756 79.6181 61.3 79.6181C61.076 79.6181 60.832 79.5981 60.568 79.5581C60.304 79.5261 60.068 79.4901 59.86 79.4501L59.608 77.8661C59.76 77.9061 59.928 77.9461 60.112 77.9861C60.304 78.0261 60.484 78.0581 60.652 78.0821C60.828 78.1061 60.968 78.1181 61.072 78.1181C61.272 78.1181 61.448 78.0821 61.6 78.0101C61.752 77.9301 61.876 77.7941 61.972 77.6021C62.084 77.3701 62.176 77.0701 62.248 76.7021C62.32 76.3341 62.372 75.9381 62.404 75.5141C62.444 75.0821 62.464 74.6701 62.464 74.2781C62.464 73.9581 62.416 73.7221 62.32 73.5701C62.232 73.4181 62.1 73.3181 61.924 73.2701C61.756 73.2141 61.548 73.1861 61.3 73.1861C61.116 73.1861 60.868 73.2021 60.556 73.2341C60.244 73.2581 59.908 73.2901 59.548 73.3301C59.196 73.3621 58.868 73.3981 58.564 73.4381C58.26 73.4781 58.024 73.5061 57.856 73.5221C57.68 73.5541 57.456 73.5901 57.184 73.6301C56.92 73.6621 56.696 73.6941 56.512 73.7261L56.368 72.0941ZM65.152 69.1781C65.256 69.3221 65.364 69.4941 65.476 69.6941C65.596 69.8941 65.712 70.0941 65.824 70.2941C65.936 70.4941 66.032 70.6701 66.112 70.8221L65.14 71.2421C65.06 71.0741 64.968 70.8901 64.864 70.6901C64.76 70.4901 64.652 70.2901 64.54 70.0901C64.428 69.8901 64.316 69.7181 64.204 69.5741L65.152 69.1781ZM66.58 68.6381C66.684 68.7901 66.796 68.9661 66.916 69.1661C67.036 69.3661 67.152 69.5661 67.264 69.7661C67.384 69.9661 67.476 70.1341 67.54 70.2701L66.592 70.6781C66.464 70.4301 66.312 70.1501 66.136 69.8381C65.96 69.5181 65.788 69.2461 65.62 69.0221L66.58 68.6381Z" fill="#595959"/>
<path d="M73.528 68.8301H75.004V74.6861C75.004 75.0621 74.956 75.3621 74.86 75.5861C74.772 75.8021 74.596 75.9701 74.332 76.0901C74.076 76.2021 73.764 76.2741 73.396 76.3061C73.028 76.3381 72.596 76.3541 72.1 76.3541C72.068 76.1381 72 75.8901 71.896 75.6101C71.8 75.3221 71.7 75.0741 71.596 74.8661C71.82 74.8741 72.044 74.8821 72.268 74.8901C72.492 74.8901 72.692 74.8901 72.868 74.8901C73.044 74.8901 73.168 74.8901 73.24 74.8901C73.352 74.8901 73.428 74.8741 73.468 74.8421C73.508 74.8101 73.528 74.7461 73.528 74.6501V68.8301ZM76.132 70.8461L77.476 70.1621C77.804 70.5621 78.132 70.9981 78.46 71.4701C78.788 71.9341 79.088 72.3981 79.36 72.8621C79.632 73.3261 79.84 73.7501 79.984 74.1341L78.508 74.9261C78.388 74.5581 78.2 74.1381 77.944 73.6661C77.696 73.1861 77.412 72.7021 77.092 72.2141C76.78 71.7261 76.46 71.2701 76.132 70.8461ZM76.684 73.9061L78.22 74.3501C77.924 75.2781 77.548 76.0741 77.092 76.7381C76.636 77.3941 76.084 77.9461 75.436 78.3941C74.796 78.8341 74.052 79.1941 73.204 79.4741C72.356 79.7541 71.388 79.9821 70.3 80.1581C70.228 79.9261 70.12 79.6741 69.976 79.4021C69.832 79.1301 69.684 78.9021 69.532 78.7181C70.532 78.6061 71.42 78.4421 72.196 78.2261C72.972 78.0101 73.648 77.7181 74.224 77.3501C74.808 76.9741 75.3 76.5061 75.7 75.9461C76.108 75.3861 76.436 74.7061 76.684 73.9061ZM70.78 70.3541L72.388 70.7261C72.196 71.2221 71.972 71.7381 71.716 72.2741C71.46 72.8021 71.176 73.3061 70.864 73.7861C70.56 74.2661 70.236 74.6861 69.892 75.0461C69.78 74.9501 69.644 74.8501 69.484 74.7461C69.332 74.6341 69.172 74.5301 69.004 74.4341C68.844 74.3301 68.704 74.2501 68.584 74.1941C68.92 73.8661 69.228 73.4861 69.508 73.0541C69.796 72.6141 70.048 72.1581 70.264 71.6861C70.488 71.2141 70.66 70.7701 70.78 70.3541Z" fill="#595959"/>
<path d="M81.736 71.1701C81.992 71.2021 82.264 71.2261 82.552 71.2421C82.848 71.2501 83.108 71.2541 83.332 71.2541C83.828 71.2541 84.328 71.2261 84.832 71.1701C85.344 71.1141 85.836 71.0421 86.308 70.9541C86.78 70.8581 87.208 70.7501 87.592 70.6301L87.64 72.0221C87.296 72.1101 86.884 72.2021 86.404 72.2981C85.932 72.3861 85.432 72.4621 84.904 72.5261C84.376 72.5821 83.856 72.6101 83.344 72.6101C83.104 72.6101 82.86 72.6061 82.612 72.5981C82.364 72.5901 82.108 72.5781 81.844 72.5621L81.736 71.1701ZM86.404 69.3701C86.356 69.5701 86.292 69.8301 86.212 70.1501C86.132 70.4701 86.04 70.8061 85.936 71.1581C85.84 71.5101 85.736 71.8581 85.624 72.2021C85.448 72.7781 85.216 73.3901 84.928 74.0381C84.64 74.6861 84.328 75.3181 83.992 75.9341C83.656 76.5501 83.316 77.0981 82.972 77.5781L81.52 76.8341C81.792 76.4981 82.06 76.1261 82.324 75.7181C82.588 75.3101 82.836 74.8901 83.068 74.4581C83.3 74.0261 83.508 73.6101 83.692 73.2101C83.884 72.8021 84.036 72.4341 84.148 72.1061C84.3 71.6821 84.432 71.2101 84.544 70.6901C84.664 70.1621 84.732 69.6661 84.748 69.2021L86.404 69.3701ZM89.212 73.1021C89.196 73.3581 89.188 73.6141 89.188 73.8701C89.196 74.1181 89.204 74.3741 89.212 74.6381C89.22 74.8221 89.228 75.0581 89.236 75.3461C89.252 75.6261 89.268 75.9261 89.284 76.2461C89.3 76.5581 89.312 76.8581 89.32 77.1461C89.336 77.4261 89.344 77.6501 89.344 77.8181C89.344 78.1861 89.268 78.5221 89.116 78.8261C88.964 79.1221 88.72 79.3581 88.384 79.5341C88.056 79.7101 87.604 79.7981 87.028 79.7981C86.532 79.7981 86.084 79.7221 85.684 79.5701C85.284 79.4261 84.964 79.2101 84.724 78.9221C84.484 78.6261 84.364 78.2581 84.364 77.8181C84.364 77.4261 84.468 77.0741 84.676 76.7621C84.884 76.4421 85.184 76.1941 85.576 76.0181C85.976 75.8341 86.456 75.7421 87.016 75.7421C87.72 75.7421 88.368 75.8421 88.96 76.0421C89.552 76.2341 90.084 76.4821 90.556 76.7861C91.028 77.0901 91.432 77.3941 91.768 77.6981L90.964 78.9821C90.748 78.7901 90.5 78.5741 90.22 78.3341C89.948 78.0941 89.64 77.8701 89.296 77.6621C88.96 77.4541 88.592 77.2821 88.192 77.1461C87.8 77.0101 87.376 76.9421 86.92 76.9421C86.576 76.9421 86.3 77.0101 86.092 77.1461C85.884 77.2821 85.78 77.4581 85.78 77.6741C85.78 77.8981 85.868 78.0781 86.044 78.2141C86.228 78.3501 86.484 78.4181 86.812 78.4181C87.084 78.4181 87.3 78.3741 87.46 78.2861C87.62 78.1901 87.732 78.0581 87.796 77.8901C87.86 77.7141 87.892 77.5181 87.892 77.3021C87.892 77.1181 87.884 76.8581 87.868 76.5221C87.852 76.1861 87.832 75.8141 87.808 75.4061C87.792 74.9981 87.776 74.5901 87.76 74.1821C87.744 73.7741 87.728 73.4141 87.712 73.1021H89.212ZM91.276 73.7381C91.044 73.5461 90.756 73.3421 90.412 73.1261C90.068 72.9101 89.712 72.7061 89.344 72.5141C88.984 72.3141 88.668 72.1541 88.396 72.0341L89.164 70.8461C89.38 70.9421 89.624 71.0621 89.896 71.2061C90.176 71.3421 90.456 71.4861 90.736 71.6381C91.024 71.7901 91.288 71.9421 91.528 72.0941C91.776 72.2381 91.976 72.3661 92.128 72.4781L91.276 73.7381Z" fill="#595959"/>
<path d="M98.764 69.5501C98.724 69.7021 98.684 69.8701 98.644 70.0541C98.612 70.2301 98.58 70.3941 98.548 70.5461C98.516 70.7221 98.476 70.9221 98.428 71.1461C98.38 71.3621 98.332 71.5821 98.284 71.8061C98.244 72.0221 98.2 72.2341 98.152 72.4421C98.072 72.7861 97.972 73.1861 97.852 73.6421C97.732 74.0981 97.592 74.5901 97.432 75.1181C97.272 75.6381 97.092 76.1621 96.892 76.6901C96.692 77.2181 96.48 77.7341 96.256 78.2381C96.032 78.7341 95.792 79.1821 95.536 79.5821L93.976 78.9581C94.256 78.5821 94.516 78.1621 94.756 77.6981C95.004 77.2261 95.228 76.7421 95.428 76.2461C95.628 75.7501 95.804 75.2621 95.956 74.7821C96.116 74.3021 96.252 73.8541 96.364 73.4381C96.476 73.0221 96.564 72.6661 96.628 72.3701C96.74 71.8261 96.828 71.3021 96.892 70.7981C96.956 70.2941 96.984 69.8181 96.976 69.3701L98.764 69.5501ZM102.892 70.6781C103.084 70.9341 103.28 71.2581 103.48 71.6501C103.688 72.0341 103.888 72.4421 104.08 72.8741C104.28 73.3061 104.46 73.7221 104.62 74.1221C104.788 74.5221 104.916 74.8621 105.004 75.1421L103.48 75.8501C103.4 75.5141 103.288 75.1421 103.144 74.7341C103.008 74.3181 102.848 73.8981 102.664 73.4741C102.488 73.0421 102.296 72.6341 102.088 72.2501C101.888 71.8661 101.68 71.5461 101.464 71.2901L102.892 70.6781ZM93.892 72.0101C94.108 72.0261 94.32 72.0341 94.528 72.0341C94.736 72.0261 94.952 72.0181 95.176 72.0101C95.368 72.0021 95.604 71.9901 95.884 71.9741C96.172 71.9501 96.472 71.9261 96.784 71.9021C97.104 71.8781 97.424 71.8541 97.744 71.8301C98.064 71.7981 98.36 71.7741 98.632 71.7581C98.904 71.7421 99.128 71.7341 99.304 71.7341C99.728 71.7341 100.1 71.8061 100.42 71.9501C100.748 72.0861 101.004 72.3221 101.188 72.6581C101.38 72.9941 101.476 73.4501 101.476 74.0261C101.476 74.4981 101.452 75.0101 101.404 75.5621C101.364 76.1141 101.296 76.6421 101.2 77.1461C101.104 77.6501 100.968 78.0781 100.792 78.4301C100.6 78.8461 100.336 79.1341 100 79.2941C99.672 79.4541 99.28 79.5341 98.824 79.5341C98.592 79.5341 98.344 79.5141 98.08 79.4741C97.824 79.4421 97.592 79.4061 97.384 79.3661L97.12 77.7821C97.28 77.8221 97.452 77.8621 97.636 77.9021C97.828 77.9421 98.008 77.9741 98.176 77.9981C98.352 78.0221 98.492 78.0341 98.596 78.0341C98.796 78.0341 98.972 77.9981 99.124 77.9261C99.276 77.8461 99.4 77.7101 99.496 77.5181C99.608 77.2861 99.696 76.9861 99.76 76.6181C99.832 76.2501 99.884 75.8541 99.916 75.4301C99.956 74.9981 99.976 74.5861 99.976 74.1941C99.976 73.8741 99.932 73.6381 99.844 73.4861C99.756 73.3341 99.624 73.2341 99.448 73.1861C99.28 73.1301 99.068 73.1021 98.812 73.1021C98.636 73.1021 98.388 73.1181 98.068 73.1501C97.756 73.1741 97.424 73.2061 97.072 73.2461C96.72 73.2781 96.388 73.3141 96.076 73.3541C95.772 73.3941 95.536 73.4221 95.368 73.4381C95.2 73.4701 94.98 73.5061 94.708 73.5461C94.444 73.5781 94.22 73.6101 94.036 73.6421L93.892 72.0101Z" fill="#595959"/>
<path d="M107.416 73.9541C107.6 73.9141 107.812 73.8661 108.052 73.8101C108.292 73.7461 108.504 73.6861 108.688 73.6301C108.888 73.5661 109.156 73.4821 109.492 73.3781C109.828 73.2741 110.196 73.1701 110.596 73.0661C111.004 72.9621 111.412 72.8741 111.82 72.8021C112.236 72.7301 112.628 72.6941 112.996 72.6941C113.628 72.6941 114.18 72.8141 114.652 73.0541C115.132 73.2861 115.504 73.6221 115.768 74.0621C116.032 74.5021 116.164 75.0261 116.164 75.6341C116.164 76.1781 116.044 76.6741 115.804 77.1221C115.572 77.5701 115.216 77.9621 114.736 78.2981C114.256 78.6341 113.656 78.9061 112.936 79.1141C112.224 79.3301 111.392 79.4661 110.44 79.5221L109.804 78.0461C110.492 78.0301 111.124 77.9701 111.7 77.8661C112.284 77.7621 112.788 77.6141 113.212 77.4221C113.644 77.2221 113.976 76.9701 114.208 76.6661C114.448 76.3621 114.568 76.0101 114.568 75.6101C114.568 75.3061 114.496 75.0421 114.352 74.8181C114.216 74.5861 114.02 74.4061 113.764 74.2781C113.508 74.1501 113.204 74.0861 112.852 74.0861C112.572 74.0861 112.26 74.1221 111.916 74.1941C111.572 74.2661 111.216 74.3581 110.848 74.4701C110.488 74.5821 110.132 74.7021 109.78 74.8301C109.428 74.9581 109.1 75.0821 108.796 75.2021C108.492 75.3221 108.24 75.4261 108.04 75.5141L107.416 73.9541Z" fill="#595959"/>
<path d="M123.868 69.4541C123.82 69.6141 123.772 69.8101 123.724 70.0421C123.676 70.2741 123.64 70.4541 123.616 70.5821C123.56 70.8541 123.488 71.1861 123.4 71.5781C123.32 71.9701 123.228 72.3861 123.124 72.8261C123.028 73.2661 122.928 73.6861 122.824 74.0861C122.72 74.5101 122.592 74.9701 122.44 75.4661C122.288 75.9541 122.124 76.4541 121.948 76.9661C121.78 77.4701 121.608 77.9541 121.432 78.4181C121.256 78.8741 121.084 79.2821 120.916 79.6421L119.248 79.0781C119.424 78.7741 119.612 78.4061 119.812 77.9741C120.012 77.5341 120.204 77.0621 120.388 76.5581C120.58 76.0541 120.756 75.5541 120.916 75.0581C121.076 74.5621 121.212 74.1021 121.324 73.6781C121.404 73.3981 121.48 73.1101 121.552 72.8141C121.624 72.5181 121.688 72.2301 121.744 71.9501C121.8 71.6701 121.848 71.4101 121.888 71.1701C121.936 70.9221 121.972 70.7061 121.996 70.5221C122.02 70.2981 122.036 70.0741 122.044 69.8501C122.052 69.6261 122.048 69.4461 122.032 69.3101L123.868 69.4541ZM120.808 71.2421C121.296 71.2421 121.804 71.2181 122.332 71.1701C122.86 71.1221 123.392 71.0541 123.928 70.9661C124.464 70.8781 124.996 70.7741 125.524 70.6541V72.1541C125.028 72.2661 124.5 72.3621 123.94 72.4421C123.38 72.5221 122.828 72.5861 122.284 72.6341C121.74 72.6741 121.24 72.6941 120.784 72.6941C120.496 72.6941 120.236 72.6901 120.004 72.6821C119.772 72.6661 119.548 72.6541 119.332 72.6461L119.296 71.1461C119.608 71.1781 119.876 71.2021 120.1 71.2181C120.324 71.2341 120.56 71.2421 120.808 71.2421ZM124.576 73.0781C124.912 73.0461 125.284 73.0181 125.692 72.9941C126.1 72.9701 126.496 72.9581 126.88 72.9581C127.224 72.9581 127.572 72.9661 127.924 72.9821C128.284 72.9981 128.64 73.0261 128.992 73.0661L128.956 74.5061C128.66 74.4661 128.332 74.4341 127.972 74.4101C127.62 74.3781 127.26 74.3621 126.892 74.3621C126.484 74.3621 126.088 74.3741 125.704 74.3981C125.328 74.4141 124.952 74.4461 124.576 74.4941V73.0781ZM125.224 76.1021C125.176 76.2701 125.136 76.4461 125.104 76.6301C125.072 76.8061 125.056 76.9621 125.056 77.0981C125.056 77.2261 125.084 77.3461 125.14 77.4581C125.196 77.5701 125.284 77.6701 125.404 77.7581C125.524 77.8381 125.688 77.9021 125.896 77.9501C126.112 77.9981 126.38 78.0221 126.7 78.0221C127.108 78.0221 127.516 78.0021 127.924 77.9621C128.34 77.9141 128.764 77.8501 129.196 77.7701L129.136 79.3061C128.8 79.3461 128.428 79.3821 128.02 79.4141C127.612 79.4541 127.168 79.4741 126.688 79.4741C125.68 79.4741 124.908 79.3101 124.372 78.9821C123.844 78.6461 123.58 78.1741 123.58 77.5661C123.58 77.2941 123.604 77.0181 123.652 76.7381C123.7 76.4581 123.748 76.1981 123.796 75.9581L125.224 76.1021Z" fill="#595959"/>
</svg>
