<svg width="340" height="135" viewBox="0 0 340 135" fill="none" xmlns="http://www.w3.org/2000/svg">
<path d="M47.0278 55.0959C46.5378 54.5919 45.5718 53.6539 45.0258 53.2339L46.3138 52.3379C46.8038 52.7299 47.8538 53.6259 48.3438 54.1439L47.0278 55.0959ZM43.2198 53.5979C43.3318 53.8639 43.6118 54.4379 43.7658 54.7039C44.3398 55.7819 44.9698 57.1679 45.4738 58.3439C46.1318 59.8699 47.2238 62.8519 47.6858 64.4339L45.7538 64.9239C45.3198 63.1599 44.5918 60.7939 43.8778 59.1139C43.3178 57.8119 42.7998 56.5379 42.2258 55.5299C42.0158 55.1939 41.6798 54.6619 41.3998 54.3119L43.2198 53.5979ZM40.1958 57.6999C40.7418 57.5739 41.3438 57.3499 41.5818 57.2519C44.1298 56.2579 46.9998 54.6199 49.2538 54.6199C51.4098 54.6199 52.7258 55.9359 52.7258 57.5599C52.7258 59.5199 51.3818 60.7519 49.2398 60.7519C48.4698 60.7519 47.6018 60.5559 47.0698 60.3599L47.1258 58.6099C47.7558 58.8759 48.4558 59.0719 49.0578 59.0719C50.1078 59.0719 50.8778 58.4979 50.8778 57.4899C50.8778 56.7899 50.2618 56.2019 49.2118 56.2019C46.9438 56.2019 42.7438 58.7079 41.0078 59.4919L40.1958 57.6999Z" fill="#595959"/>
<path d="M59.2778 52.7579C59.0818 53.4439 58.7878 54.8859 58.7038 55.6699C59.3758 54.5919 60.6078 53.4019 62.1758 53.4019C64.1218 53.4019 65.6338 55.3199 65.6338 58.3999C65.6338 62.3619 63.2118 64.2379 59.5018 64.9239L58.4378 63.2999C61.5598 62.8239 63.7438 61.7879 63.7438 58.3999C63.7438 56.2439 63.0158 55.0399 61.8538 55.0399C60.2018 55.0399 58.7458 57.5319 58.6898 59.3659C58.6618 59.7579 58.6758 60.2059 58.7458 60.8499L57.0238 60.9759C56.9398 60.4299 56.8558 59.5759 56.8558 58.6379C56.8558 57.3219 57.0378 55.5999 57.2478 54.1439C57.3038 53.6259 57.3458 53.0659 57.3598 52.6879L59.2778 52.7579Z" fill="#595959"/>
<path d="M75.4058 52.8279C75.3078 53.2199 75.1818 53.8499 75.1118 54.1579C74.9158 55.1099 74.5658 56.8179 74.1878 58.2459C73.6838 60.2059 72.7458 63.0619 71.9758 64.7279L70.0298 64.0699C70.8558 62.6559 71.9198 59.7299 72.4518 57.7699C72.8018 56.4539 73.1238 54.9139 73.2218 54.0879C73.2918 53.5699 73.3058 52.9959 73.2638 52.6599L75.4058 52.8279ZM71.8358 54.9279C73.5438 54.9279 75.5178 54.6619 77.3378 54.2279V55.9779C75.6018 56.3839 73.4038 56.6219 71.8218 56.6219C71.1358 56.6219 70.6178 56.5939 70.1278 56.5659L70.0718 54.8159C70.7998 54.8999 71.2618 54.9279 71.8358 54.9279ZM76.2318 57.0699C77.0158 56.9859 78.0238 56.9299 78.9338 56.9299C79.7318 56.9299 80.5718 56.9719 81.3838 57.0559L81.3558 58.7359C80.6418 58.6519 79.7878 58.5539 78.9478 58.5539C77.9818 58.5539 77.1138 58.5959 76.2318 58.7079V57.0699ZM76.9878 60.5839C76.8898 60.9899 76.8058 61.4379 76.8058 61.7459C76.8058 62.3619 77.2118 62.8239 78.7238 62.8239C79.6618 62.8239 80.6278 62.7259 81.6218 62.5439L81.5518 64.3219C80.7678 64.4339 79.8298 64.5179 78.7098 64.5179C76.3438 64.5179 75.0838 63.7199 75.0838 62.3059C75.0838 61.6479 75.2098 60.9759 75.3218 60.4299L76.9878 60.5839Z" fill="#595959"/>
<path d="M86.9698 54.0039C86.8718 54.4939 86.8018 55.3199 86.8018 55.7119C86.8018 56.6219 86.8018 57.6579 86.8858 58.6799C87.0818 60.6959 87.5018 62.0819 88.3838 62.0819C89.0558 62.0819 89.6018 60.4299 89.8678 59.3239L91.2818 61.0179C90.3438 63.4679 89.4758 64.3079 88.3558 64.3079C86.8018 64.3079 85.4718 62.9359 85.0798 59.1839C84.9398 57.8959 84.9258 56.2439 84.9258 55.3899C84.9258 55.0119 84.9118 54.4099 84.8138 53.9759L86.9698 54.0039ZM93.9698 54.3119C95.2998 55.9219 96.3778 59.4219 96.5318 61.5639L94.6838 62.2919C94.4738 60.0239 93.7178 56.6359 92.1918 54.8999L93.9698 54.3119Z" fill="#595959"/>
<path d="M101.376 53.4579H110.924V54.8579H101.376V53.4579ZM101.53 55.5159H109.65V56.8739H101.53V55.5159ZM99.8638 57.5739H107.956V58.9879H99.8638V57.5739ZM101.208 52.0439L102.972 52.4359C102.3 54.6759 101.11 56.6919 99.7518 57.9379C99.4158 57.6439 98.6458 57.1119 98.2118 56.8739C99.6118 55.8099 100.676 54.0039 101.208 52.0439ZM104.68 59.0579L106.318 59.5899C104.89 62.2219 102.51 64.2519 99.9478 65.4839C99.6958 65.1339 99.0798 64.4759 98.7018 64.1819C101.278 63.1599 103.49 61.3399 104.68 59.0579ZM107.396 57.5739H109.132C109.09 60.9479 109.272 63.6079 110.084 63.6079C110.308 63.6079 110.364 62.8519 110.378 61.7179C110.714 62.1099 111.134 62.5299 111.484 62.7819C111.358 64.5319 111.05 65.2739 109.972 65.2879C107.662 65.2739 107.424 61.8579 107.396 57.5739ZM99.8918 60.6119L101.096 59.5059C103.112 60.5559 105.758 62.2639 107.046 63.5519L105.702 64.8399C104.54 63.5519 101.964 61.7599 99.8918 60.6119Z" fill="#595959"/>
<path d="M118.106 53.7099H125.428V55.2219H118.106V53.7099ZM117.63 59.0859H125.932V60.6119H117.63V59.0859ZM117.504 56.4539H126.044V57.9799H117.504V56.4539ZM120.976 52.1699H122.572V57.2379H120.976V52.1699ZM122.796 57.7139H124.392V63.4959C124.392 64.3359 124.238 64.7559 123.692 64.9939C123.174 65.2459 122.432 65.2599 121.41 65.2599C121.354 64.7979 121.144 64.1259 120.948 63.6779C121.578 63.7199 122.306 63.7199 122.516 63.7059C122.74 63.7059 122.796 63.6499 122.796 63.4679V57.7139ZM118.4 61.4099L119.73 60.6679C120.318 61.3819 121.018 62.3759 121.298 63.0479L119.87 63.8879C119.632 63.2159 118.988 62.1659 118.4 61.4099ZM112.744 59.2119C113.892 58.9599 115.586 58.5119 117.21 58.0639L117.42 59.5759C115.95 60.0239 114.368 60.4719 113.122 60.8359L112.744 59.2119ZM112.968 54.7739H117.294V56.3139H112.968V54.7739ZM114.55 52.1279H116.104V63.3979C116.104 64.1679 115.964 64.6019 115.53 64.8679C115.11 65.1199 114.494 65.1899 113.598 65.1759C113.556 64.7559 113.36 64.0699 113.164 63.6079C113.668 63.6359 114.158 63.6359 114.326 63.6359C114.494 63.6359 114.55 63.5799 114.55 63.3839V52.1279Z" fill="#595959"/>
<path d="M133.352 52.8419C133.212 53.3459 133.128 53.8219 133.016 54.2699C132.792 55.3899 132.372 57.4479 131.952 58.7499C133.086 58.1339 134.178 57.8819 135.438 57.8819C137.692 57.8819 139.204 59.0719 139.204 60.8779C139.204 64.0139 136.166 65.1619 131.63 64.6719L131.14 62.8659C134.22 63.3559 137.314 62.9919 137.314 60.9199C137.314 60.0939 136.586 59.3799 135.214 59.3799C133.604 59.3799 132.176 59.9679 131.35 61.0319C131.196 61.2279 131.084 61.3959 130.958 61.6339L129.306 61.0599C130.342 59.0159 131.126 55.6139 131.308 54.1719C131.378 53.5839 131.392 53.2199 131.364 52.7579L133.352 52.8419ZM128.466 54.4799C129.376 54.6339 130.496 54.7459 131.364 54.7459C133.156 54.7459 135.816 54.5359 138.112 54.0459L138.154 55.7259C136.376 56.0199 133.408 56.3559 131.378 56.3559C130.314 56.3559 129.306 56.2999 128.48 56.2159L128.466 54.4799Z" fill="#595959"/>
<path d="M148.388 52.7719C148.276 53.2899 148.094 54.1159 147.702 55.1239C147.408 55.8099 147.002 56.6079 146.61 57.1679C146.988 56.9999 147.73 56.9019 148.206 56.9019C149.368 56.9019 150.25 57.5879 150.25 58.8899C150.25 59.6459 150.292 61.1719 150.306 62.0539H148.626C148.682 61.3959 148.71 60.2059 148.696 59.4499C148.696 58.5539 148.136 58.2599 147.548 58.2599C146.778 58.2599 145.896 58.7219 145.364 59.2259C144.944 59.6459 144.552 60.1499 144.076 60.7659L142.578 59.6459C144.37 57.9939 145.448 56.4819 146.036 54.9419C146.316 54.1859 146.498 53.3319 146.54 52.6179L148.388 52.7719ZM143.11 54.0739C143.824 54.1719 144.86 54.2279 145.574 54.2279C147.422 54.2279 149.956 54.1299 151.986 53.7659L151.972 55.3899C149.998 55.6699 147.184 55.7959 145.476 55.7959C144.902 55.7959 143.88 55.7679 143.11 55.6979V54.0739ZM154.198 58.0499C153.764 58.1759 153.008 58.4559 152.532 58.6379C151.622 58.9879 150.362 59.4919 149.046 60.1639C147.772 60.8219 147.086 61.4239 147.086 62.1939C147.086 62.9639 147.758 63.1739 149.116 63.1739C150.306 63.1739 151.874 63.0199 153.106 62.7679L153.05 64.5739C152.112 64.6999 150.404 64.8259 149.074 64.8259C146.89 64.8259 145.252 64.2799 145.252 62.4739C145.252 60.5279 147.254 59.3799 148.934 58.5399C150.222 57.8679 151.104 57.5319 151.944 57.1399C152.49 56.9019 152.98 56.6779 153.512 56.4119L154.198 58.0499Z" fill="#595959"/>
<path d="M162.136 58.0359H163.788V62.9219C163.788 63.4399 163.872 63.4959 164.264 63.4959C164.446 63.4959 165.174 63.4959 165.398 63.4959C165.818 63.4959 165.888 63.1599 165.944 61.2419C166.294 61.5219 166.994 61.8019 167.428 61.9139C167.274 64.3219 166.868 65.0079 165.552 65.0079C165.258 65.0079 164.278 65.0079 163.998 65.0079C162.5 65.0079 162.136 64.4899 162.136 62.9219V58.0359ZM160.134 59.1139L161.646 59.4499C161.506 61.0599 161.24 62.9079 160.61 64.0419L159.112 63.3839C159.7 62.3059 160.008 60.6819 160.134 59.1139ZM162.234 56.4819L163.354 55.3759C164.474 55.9079 166 56.7619 166.77 57.4199L165.552 58.6659C164.866 58.0219 163.382 57.0699 162.234 56.4819ZM166.504 59.3239L168.002 58.7359C168.842 60.1919 169.668 62.0679 169.892 63.3559L168.24 64.0279C168.058 62.7679 167.316 60.8219 166.504 59.3239ZM162.71 52.1139H164.46V54.6619H162.71V52.1139ZM158.482 53.7519H169.542V55.3479H158.482V53.7519ZM157.684 53.7519H159.364V57.2939C159.364 59.5619 159.154 63.0339 157.88 65.2319C157.572 64.9519 156.83 64.4619 156.424 64.2939C157.6 62.2779 157.684 59.3239 157.684 57.2939V53.7519Z" fill="#595959"/>
<path d="M175.94 55.9499H183.668V57.2659H175.94V55.9499ZM175.646 57.9099H184.102V59.2679H175.646V57.9099ZM177.466 59.8279H182.198V61.0459H177.466V59.8279ZM176.276 54.4379L177.55 54.0879C177.774 54.5919 178.054 55.2919 178.18 55.7119L176.836 56.1319C176.738 55.6979 176.486 54.9699 176.276 54.4379ZM178.712 54.1859L180.028 53.9619C180.182 54.5079 180.336 55.2359 180.406 55.6699L179.02 55.9639C178.978 55.5159 178.852 54.7599 178.712 54.1859ZM182.758 52.1839L183.696 53.4159C181.568 53.8499 178.544 54.0599 176.024 54.0879C175.996 53.7239 175.814 53.1779 175.66 52.8419C178.138 52.7719 181.008 52.5479 182.758 52.1839ZM178.852 60.7659C179.804 62.4039 181.806 63.4959 184.424 63.9019C184.088 64.2379 183.654 64.8679 183.444 65.2879C180.658 64.6999 178.684 63.3139 177.508 61.1579L178.852 60.7659ZM181.946 53.6959L183.5 54.1439C182.982 54.9979 182.394 55.9079 181.932 56.5099L180.77 56.0899C181.19 55.4319 181.694 54.4239 181.946 53.6959ZM181.862 59.8279H182.17L182.436 59.7859L183.346 60.1499C182.52 63.1599 180.476 64.6159 177.816 65.2879C177.648 64.9379 177.2 64.3219 176.906 64.0419C179.412 63.5379 181.218 62.3899 181.862 60.0519V59.8279ZM177.62 56.7759H179.23C179.006 59.7579 178.558 63.2439 175.52 65.2319C175.296 64.8399 174.834 64.3079 174.442 64.0279C177.2 62.3339 177.438 59.2259 177.62 56.7759ZM171.04 59.6039C172.16 59.3519 173.812 58.9039 175.408 58.4699L175.618 59.9819C174.134 60.4299 172.552 60.8779 171.278 61.2419L171.04 59.6039ZM171.208 54.7739H175.492V56.3139H171.208V54.7739ZM172.692 52.1279H174.232V63.4819C174.232 64.2659 174.092 64.6999 173.658 64.9519C173.238 65.2179 172.636 65.2739 171.726 65.2739C171.684 64.8539 171.488 64.1679 171.292 63.7059C171.796 63.7339 172.286 63.7339 172.454 63.7199C172.622 63.7199 172.692 63.6779 172.692 63.4819V52.1279Z" fill="#595959"/>
<path d="M188.834 64.9659C187.98 63.9299 186.79 62.7259 185.81 61.8859L187.28 60.6259C188.274 61.4379 189.618 62.8099 190.332 63.6779L188.834 64.9659Z" fill="#595959"/>
<path d="M204.43 58.7779C205.872 61.5359 208.924 63.1459 213.432 63.6499C213.054 64.0419 212.592 64.8119 212.354 65.2879C207.636 64.6159 204.668 62.7399 202.848 59.3239L204.43 58.7779ZM201.476 57.2519H210.45V58.8899H201.476V57.2519ZM200.79 53.9619H212.788V55.6279H200.79V53.9619ZM205.9 52.1139H207.65V57.9939H205.9V52.1139ZM209.904 57.2519H210.268L210.562 57.1959L211.738 57.8679C210.058 62.4039 205.984 64.4479 201.126 65.2599C200.972 64.8119 200.538 64.0139 200.216 63.6359C204.92 63.0199 208.63 61.3679 209.904 57.5599V57.2519Z" fill="#595959"/>
<path d="M219.62 55.9499H227.348V57.2659H219.62V55.9499ZM219.326 57.9099H227.782V59.2679H219.326V57.9099ZM221.146 59.8279H225.878V61.0459H221.146V59.8279ZM219.956 54.4379L221.23 54.0879C221.454 54.5919 221.734 55.2919 221.86 55.7119L220.516 56.1319C220.418 55.6979 220.166 54.9699 219.956 54.4379ZM222.392 54.1859L223.708 53.9619C223.862 54.5079 224.016 55.2359 224.086 55.6699L222.7 55.9639C222.658 55.5159 222.532 54.7599 222.392 54.1859ZM226.438 52.1839L227.376 53.4159C225.248 53.8499 222.224 54.0599 219.704 54.0879C219.676 53.7239 219.494 53.1779 219.34 52.8419C221.818 52.7719 224.688 52.5479 226.438 52.1839ZM222.532 60.7659C223.484 62.4039 225.486 63.4959 228.104 63.9019C227.768 64.2379 227.334 64.8679 227.124 65.2879C224.338 64.6999 222.364 63.3139 221.188 61.1579L222.532 60.7659ZM225.626 53.6959L227.18 54.1439C226.662 54.9979 226.074 55.9079 225.612 56.5099L224.45 56.0899C224.87 55.4319 225.374 54.4239 225.626 53.6959ZM225.542 59.8279H225.85L226.116 59.7859L227.026 60.1499C226.2 63.1599 224.156 64.6159 221.496 65.2879C221.328 64.9379 220.88 64.3219 220.586 64.0419C223.092 63.5379 224.898 62.3899 225.542 60.0519V59.8279ZM221.3 56.7759H222.91C222.686 59.7579 222.238 63.2439 219.2 65.2319C218.976 64.8399 218.514 64.3079 218.122 64.0279C220.88 62.3339 221.118 59.2259 221.3 56.7759ZM214.72 59.6039C215.84 59.3519 217.492 58.9039 219.088 58.4699L219.298 59.9819C217.814 60.4299 216.232 60.8779 214.958 61.2419L214.72 59.6039ZM214.888 54.7739H219.172V56.3139H214.888V54.7739ZM216.372 52.1279H217.912V63.4819C217.912 64.2659 217.772 64.6999 217.338 64.9519C216.918 65.2179 216.316 65.2739 215.406 65.2739C215.364 64.8539 215.168 64.1679 214.972 63.7059C215.476 63.7339 215.966 63.7339 216.134 63.7199C216.302 63.7199 216.372 63.6779 216.372 63.4819V52.1279Z" fill="#595959"/>
<path d="M234.138 52.8979C234.054 53.4859 233.984 54.2139 233.956 54.7739C233.886 56.2859 233.788 59.4079 233.788 61.1439C233.788 62.5579 234.628 63.0199 235.72 63.0199C238.03 63.0199 239.486 61.6899 240.508 60.1639L241.782 61.7179C240.872 63.0619 238.884 64.9239 235.692 64.9239C233.396 64.9239 231.926 63.9159 231.926 61.5219C231.926 59.6459 232.052 55.9779 232.052 54.7739C232.052 54.1019 231.996 53.4299 231.884 52.8839L234.138 52.8979Z" fill="#595959"/>
<path d="M244.074 54.3819C244.62 54.3679 245.18 54.3399 245.446 54.3119C246.622 54.1999 248.918 54.0039 251.494 53.7799C252.936 53.6539 254.462 53.5699 255.456 53.5279L255.47 55.3339C254.714 55.3339 253.51 55.3479 252.754 55.5159C251.074 55.9639 249.8 57.7839 249.8 59.4359C249.8 61.7459 251.956 62.5719 254.322 62.6979L253.678 64.6159C250.738 64.4339 247.966 62.8519 247.966 59.8139C247.966 57.7979 249.1 56.2159 250.052 55.5019C248.736 55.6419 245.88 55.9359 244.256 56.2999L244.074 54.3819Z" fill="#595959"/>
<path d="M267.492 53.9199C267.044 54.2419 266.582 54.6059 266.26 54.8719C265.35 55.5999 263.502 57.0279 262.564 57.8399C261.822 58.4699 261.836 58.6379 262.592 59.2959C263.642 60.1779 266.302 62.2639 267.73 63.6499L266.106 65.1619C265.714 64.7139 265.294 64.2799 264.874 63.8599C264.034 62.9779 261.976 61.2139 260.688 60.1359C259.302 58.9459 259.414 58.1899 260.814 57.0279C261.906 56.1319 263.838 54.5779 264.776 53.6539C265.182 53.2619 265.63 52.7999 265.854 52.4639L267.492 53.9199Z" fill="#595959"/>
<path d="M285.426 63.2719C284.768 63.8739 283.928 64.3219 282.78 64.3219C281.73 64.3219 281.03 63.5659 281.03 62.2079C281.03 60.6819 281.534 58.6379 281.534 57.3499C281.534 56.6639 281.184 56.3279 280.582 56.3279C279.28 56.3279 277.194 58.3859 276.074 59.8139L276.06 57.6579C276.914 56.7619 279.252 54.6619 281.1 54.6619C282.612 54.6619 283.298 55.5579 283.298 56.7339C283.298 58.1759 282.836 60.2339 282.836 61.6899C282.836 62.0539 283.032 62.3059 283.382 62.3059C283.9 62.3059 284.558 61.9419 285.188 61.3119L285.426 63.2719ZM275.752 56.6079C275.122 56.6779 273.792 56.8459 272.868 56.9859L272.686 55.1799C273.078 55.1939 273.4 55.1939 273.904 55.1659C274.786 55.1239 276.578 54.8579 277.208 54.6479L277.768 55.3759C277.53 55.6979 277.096 56.3839 276.858 56.7479L276.046 59.3799C275.43 60.2759 274.184 62.1519 273.442 63.1739L272.35 61.6339C273.232 60.5419 274.912 58.3299 275.612 57.2239L275.64 56.8599L275.752 56.6079ZM275.584 53.9059C275.584 53.5139 275.598 53.0939 275.514 52.6599L277.558 52.7159C277.32 53.8359 276.858 57.5039 276.858 60.0099C276.858 61.1439 276.858 62.3339 276.942 63.6359C276.956 63.8879 277.012 64.4059 277.04 64.7139H275.122C275.15 64.3919 275.164 63.9019 275.164 63.6779C275.178 62.3199 275.192 61.3819 275.234 59.6319C275.276 58.3859 275.584 54.4659 275.584 53.9059Z" fill="#595959"/>
<path d="M289.416 53.3459C289.808 53.3879 290.284 53.4159 290.676 53.4159C291.432 53.4159 294.414 53.3459 295.212 53.2759C295.8 53.2339 296.122 53.1779 296.29 53.1219L297.186 54.3819C296.864 54.5919 296.528 54.7879 296.22 55.0259C295.464 55.5579 293.994 56.7899 293.098 57.4899C293.574 57.3639 293.994 57.3359 294.428 57.3359C296.808 57.3359 298.614 58.8199 298.614 60.8499C298.614 63.0619 296.934 64.8119 293.546 64.8119C291.6 64.8119 290.13 63.9299 290.13 62.5159C290.13 61.3819 291.166 60.3459 292.65 60.3459C294.568 60.3459 295.632 61.6339 295.674 63.1739L294.036 63.3839C294.008 62.3759 293.476 61.6759 292.65 61.6759C292.132 61.6759 291.782 61.9979 291.782 62.3619C291.782 62.8799 292.356 63.2299 293.21 63.2299C295.576 63.2299 296.78 62.3339 296.78 60.8359C296.78 59.5619 295.52 58.7079 293.882 58.7079C291.726 58.7079 290.34 59.8559 288.842 61.5499L287.568 60.2339C288.562 59.4499 290.256 58.0219 291.068 57.3359C291.852 56.6919 293.322 55.5159 294.008 54.8999C293.294 54.9279 291.362 54.9979 290.606 55.0539C290.228 55.0819 289.794 55.1099 289.472 55.1659L289.416 53.3459Z" fill="#595959"/>
</svg>
