<svg width="340" height="135" viewBox="0 0 340 135" fill="none" xmlns="http://www.w3.org/2000/svg">
<path d="M118.41 40.814H125.326V42.382H118.41V40.814ZM118.046 45.826H125.606V47.422H118.046V45.826ZM122.54 41.5H124.136V53.26H122.54V41.5ZM119.39 41.528H120.972V46.288C120.972 48.598 120.72 51.552 118.998 53.358C118.718 53.078 118.102 52.602 117.724 52.392C119.208 50.782 119.39 48.178 119.39 46.274V41.528ZM112.642 40.772H117.752V42.298H112.642V40.772ZM114.21 45.098H117.584V51.566H114.21V50.082H116.142V46.582H114.21V45.098ZM114.266 41.514L115.792 41.864C115.26 44.524 114.378 47.254 112.936 48.99C112.866 48.542 112.572 47.478 112.334 46.988C113.328 45.672 113.93 43.642 114.266 41.514ZM113.496 45.098H114.882V52.602H113.496V45.098Z" fill="#595959"/>
<path d="M136.274 46.582L137.506 47.086C136.624 47.968 135.238 48.626 133.922 49.046C133.726 48.738 133.348 48.346 133.04 48.094C134.216 47.786 135.574 47.212 136.274 46.582ZM137.646 47.856L138.85 48.346C137.73 49.564 135.868 50.404 133.936 50.894C133.754 50.586 133.432 50.124 133.138 49.844C134.888 49.494 136.722 48.794 137.646 47.856ZM138.668 49.438L140.096 50.026C138.64 51.748 136.134 52.672 133.264 53.204C133.096 52.798 132.746 52.238 132.424 51.888C135.014 51.538 137.464 50.768 138.668 49.438ZM134.37 40.1L135.896 40.478C135.266 42.144 134.202 43.726 133.096 44.72C132.816 44.454 132.2 43.964 131.836 43.754C132.928 42.9 133.866 41.528 134.37 40.1ZM134.356 41.528H139.998V42.872H133.544L134.356 41.528ZM137.688 41.864L139.256 42.2C138.15 44.916 135.868 46.456 132.998 47.338C132.816 47.002 132.312 46.358 132.018 46.064C134.762 45.406 136.862 44.118 137.688 41.864ZM134.342 42.298C135.224 43.852 137.324 45.378 140.46 45.882C140.152 46.204 139.732 46.82 139.536 47.226C136.386 46.526 134.272 44.72 133.292 42.956L134.342 42.298ZM130.8 41.906H132.256V50.922H130.8V41.906ZM129.512 40.156L131.066 40.618C130.268 43.068 128.98 45.714 127.538 47.394C127.412 46.988 126.992 46.022 126.74 45.574C127.86 44.258 128.896 42.214 129.512 40.156ZM128.42 43.978L129.974 42.438L130.016 42.466V53.246H128.42V43.978Z" fill="#595959"/>
<path d="M147.516 41.052C147.432 41.416 147.348 41.864 147.278 42.214C147.138 42.844 146.97 43.712 146.816 44.426C146.354 46.4 145.234 50.39 143.764 52.756L141.93 52.028C143.596 49.788 144.646 46.092 145.038 44.328C145.304 43.068 145.458 41.878 145.444 40.828L147.516 41.052ZM152.346 42.452C153.2 43.67 154.376 46.274 154.81 47.604L153.032 48.43C152.668 46.876 151.674 44.412 150.666 43.166L152.346 42.452ZM141.846 43.922C142.35 43.95 142.826 43.936 143.344 43.922C144.464 43.894 147.124 43.586 148.16 43.586C149.644 43.586 150.694 44.244 150.694 46.274C150.694 47.926 150.484 50.194 149.896 51.398C149.434 52.378 148.65 52.686 147.6 52.686C147.054 52.686 146.396 52.602 145.92 52.49L145.612 50.642C146.158 50.796 146.956 50.936 147.32 50.936C147.796 50.936 148.16 50.796 148.37 50.334C148.762 49.55 148.944 47.842 148.944 46.47C148.944 45.35 148.468 45.182 147.586 45.182C146.76 45.182 144.338 45.49 143.568 45.588C143.162 45.644 142.434 45.742 142.014 45.812L141.846 43.922ZM152.094 40.52C152.444 41.024 152.934 41.92 153.2 42.438L152.08 42.914C151.786 42.34 151.352 41.514 150.974 40.968L152.094 40.52ZM153.746 39.876C154.11 40.408 154.628 41.304 154.88 41.794L153.76 42.27C153.48 41.682 153.018 40.87 152.64 40.338L153.746 39.876Z" fill="#595959"/>
<path d="M156.616 46.008H168.852V47.184H156.616V46.008ZM156.462 51.79H168.978V53.05H156.462V51.79ZM159.78 48.738V49.508H165.534V48.738H159.78ZM158.142 47.66H167.27V50.586H158.142V47.66ZM159.318 50.726L160.76 50.306C161.068 50.712 161.39 51.286 161.516 51.692L160.004 52.196C159.906 51.776 159.598 51.174 159.318 50.726ZM164.61 50.208L166.08 50.712C165.73 51.286 165.408 51.818 165.128 52.196L163.798 51.72C164.064 51.314 164.428 50.656 164.61 50.208ZM159.094 43.81V44.426H166.122V43.81H159.094ZM159.094 42.172V42.774H166.122V42.172H159.094ZM157.554 41.066H167.746V45.532H157.554V41.066ZM160.452 40.1H161.866V45.126H160.452V40.1ZM163.294 40.1H164.736V45.126H163.294V40.1Z" fill="#595959"/>
<path d="M176.384 48.514H178.036V52.112H176.384V48.514ZM173.458 42.956H181.074V44.076H173.458V42.956ZM174.76 45.714V46.442H179.744V45.714H174.76ZM173.22 44.622H181.382V47.534H173.22V44.622ZM172.268 48.052H182.334V53.218H180.682V49.27H173.85V53.246H172.268V48.052ZM173.122 49.942H181.41V50.992H173.122V49.942ZM173.122 51.72H181.396V52.924H173.122V51.72ZM176.37 40.114H178.106V42.004H176.37V40.114ZM171.288 40.912H183.3V43.992H181.634V42.326H172.884V43.992H171.288V40.912Z" fill="#595959"/>
<path d="M191.042 40.996C190.944 41.374 190.804 42.004 190.734 42.312C190.538 43.264 190.202 44.986 189.824 46.4C189.32 48.36 188.382 51.23 187.612 52.882L185.652 52.224C186.492 50.824 187.556 47.884 188.074 45.924C188.438 44.608 188.76 43.082 188.858 42.242C188.928 41.724 188.942 41.15 188.9 40.828L191.042 40.996ZM187.472 43.082C189.18 43.082 191.154 42.83 192.974 42.396V44.146C191.238 44.552 189.04 44.776 187.458 44.776C186.772 44.776 186.254 44.748 185.764 44.72L185.708 42.984C186.436 43.068 186.898 43.082 187.472 43.082ZM191.868 45.238C192.652 45.154 193.646 45.084 194.57 45.084C195.368 45.084 196.208 45.126 197.02 45.21L196.992 46.89C196.278 46.806 195.424 46.722 194.584 46.722C193.604 46.722 192.75 46.764 191.868 46.876V45.238ZM192.624 48.752C192.526 49.144 192.442 49.606 192.442 49.914C192.442 50.53 192.848 50.992 194.36 50.992C195.284 50.992 196.264 50.88 197.258 50.698L197.188 52.49C196.404 52.588 195.466 52.7 194.346 52.7C191.98 52.7 190.72 51.874 190.72 50.46C190.72 49.816 190.832 49.144 190.958 48.584L192.624 48.752ZM195.522 41.402C195.886 41.906 196.376 42.802 196.642 43.32L195.522 43.796C195.228 43.222 194.794 42.396 194.416 41.85L195.522 41.402ZM197.188 40.758C197.552 41.29 198.07 42.172 198.322 42.676L197.202 43.152C196.922 42.564 196.46 41.752 196.082 41.22L197.188 40.758Z" fill="#595959"/>
<path d="M205.854 40.954C205.77 41.318 205.686 41.766 205.602 42.116C205.476 42.746 205.294 43.614 205.154 44.328C204.692 46.302 203.558 50.292 202.102 52.658L200.268 51.93C201.934 49.69 202.984 45.994 203.376 44.23C203.642 42.97 203.796 41.78 203.782 40.73L205.854 40.954ZM210.684 42.256C211.538 43.474 212.714 46.134 213.148 47.478L211.37 48.304C211.006 46.736 210.012 44.216 209.004 42.97L210.684 42.256ZM200.184 43.824C200.688 43.852 201.164 43.838 201.682 43.824C202.802 43.796 205.448 43.488 206.498 43.488C207.968 43.488 209.018 44.146 209.018 46.176C209.018 47.828 208.822 50.096 208.234 51.3C207.758 52.28 206.988 52.588 205.938 52.588C205.392 52.588 204.734 52.504 204.244 52.392L203.95 50.544C204.496 50.698 205.294 50.838 205.658 50.838C206.134 50.838 206.484 50.698 206.708 50.236C207.1 49.452 207.282 47.744 207.282 46.372C207.282 45.252 206.792 45.084 205.924 45.084C205.084 45.084 202.676 45.392 201.906 45.49C201.5 45.546 200.772 45.644 200.352 45.714L200.184 43.824Z" fill="#595959"/>
<path d="M218.622 40.73C219.952 41.15 223.004 41.696 224.236 41.822L223.816 43.544C222.388 43.348 219.28 42.704 218.188 42.424L218.622 40.73ZM218.72 43.544C218.524 44.328 218.286 46.022 218.188 46.834C219.448 45.91 220.848 45.49 222.318 45.49C224.768 45.49 226.196 47.002 226.196 48.696C226.196 51.258 224.166 53.218 218.356 52.714L217.81 50.88C222.024 51.468 224.236 50.446 224.236 48.654C224.236 47.744 223.382 47.086 222.15 47.086C220.568 47.086 219.154 47.674 218.272 48.738C218.02 49.032 217.866 49.256 217.754 49.536L216.13 49.144C216.41 47.772 216.746 45.028 216.83 43.292L218.72 43.544Z" fill="#595959"/>
<path d="M61.8639 73.682H74.3519V75.054H61.8639V73.682ZM61.8919 67.396H74.2959V68.782H61.8919V67.396ZM62.4659 69.902H73.7639V71.218H62.4659V69.902ZM63.1659 71.834H73.1059V73.052H63.1659V71.834ZM67.2259 70.574H68.8919V78.26H67.2259V70.574ZM66.0079 65.1H67.5759V68.054H66.0079V65.1ZM68.5979 65.1H70.1939V67.956H68.5979V65.1ZM66.9179 74.298L68.2339 74.886C66.9039 76.342 64.6639 77.532 62.5079 78.092C62.2839 77.686 61.7939 77.042 61.4299 76.692C63.5439 76.286 65.7699 75.362 66.9179 74.298ZM69.2279 74.256C70.3619 75.362 72.5459 76.23 74.7299 76.594C74.3519 76.944 73.8479 77.644 73.5959 78.106C71.3839 77.546 69.2419 76.356 67.9259 74.774L69.2279 74.256ZM71.8179 65.212L73.5819 65.632C73.1339 66.402 72.6579 67.158 72.2939 67.676L70.9359 67.256C71.2579 66.682 71.6219 65.828 71.8179 65.212ZM69.9699 68.222L71.7479 68.628C71.3699 69.3 71.0059 69.916 70.7119 70.364L69.2839 69.958C69.5359 69.454 69.8299 68.74 69.9699 68.222ZM62.8999 65.66L64.3419 65.17C64.7479 65.772 65.2099 66.612 65.4059 67.158L63.8799 67.704C63.7259 67.158 63.2779 66.304 62.8999 65.66ZM64.6779 68.796L66.3019 68.544C66.5399 68.936 66.8059 69.482 66.9179 69.86L65.2099 70.154C65.1259 69.79 64.8879 69.202 64.6779 68.796Z" fill="#595959"/>
<path d="M79.3359 69.202V70.224H85.9439V69.202H79.3359ZM79.3359 66.948V67.942H85.9439V66.948H79.3359ZM77.6559 65.59H87.6939V71.568H77.6559V65.59ZM84.5579 70.686C85.4819 71.946 87.3019 72.982 89.2619 73.472C88.8839 73.808 88.3799 74.466 88.1419 74.9C86.0839 74.228 84.2639 72.884 83.1439 71.204L84.5579 70.686ZM80.7359 70.672L82.2199 71.246C81.0859 72.87 79.1959 74.242 77.2079 74.956C76.9559 74.536 76.4519 73.906 76.0879 73.57C77.9779 73.038 79.8119 71.932 80.7359 70.672ZM79.7419 73.234H81.4779V74.2C81.4779 75.544 81.0719 77.336 78.2719 78.358C78.0479 77.938 77.4879 77.308 77.1239 76.986C79.4619 76.23 79.7419 75.04 79.7419 74.144V73.234ZM81.7859 66.276H83.4799V70.896H81.7859V66.276ZM84.0119 73.262H85.7619V78.218H84.0119V73.262Z" fill="#595959"/>
<path d="M90.9559 70.672H103.5V72.338H90.9559V70.672ZM92.0059 67.214H102.478V68.88H92.0059V67.214ZM96.2899 65.114H98.0679V78.26H96.2899V65.114ZM95.9959 71.638L97.4519 72.24C96.1079 74.466 93.9239 76.496 91.7119 77.644C91.4319 77.224 90.8719 76.552 90.4799 76.202C92.6359 75.264 94.8479 73.444 95.9959 71.638ZM98.3759 71.652C99.5099 73.458 101.722 75.278 103.864 76.202C103.472 76.538 102.912 77.224 102.632 77.672C100.462 76.524 98.3199 74.452 96.9759 72.24L98.3759 71.652Z" fill="#595959"/>
<path d="M110.668 65.758H116.66V67.2H110.668V65.758ZM111.186 73.276H117.724V74.76H111.186V73.276ZM110.332 76.398H118.312V77.882H110.332V76.398ZM116.17 65.758H116.492L116.8 65.702L117.92 66.192C116.814 69.51 114.294 71.358 111.144 72.352C110.948 71.932 110.542 71.288 110.22 70.952C113.006 70.238 115.344 68.516 116.17 66.024V65.758ZM112.838 67.018C113.804 68.936 115.848 70.336 118.508 70.91C118.158 71.232 117.71 71.862 117.486 72.268C114.658 71.512 112.6 69.888 111.368 67.494L112.838 67.018ZM113.566 71.61H115.218V77.35H113.566V71.61ZM107.28 65.128L108.736 65.674C108.162 66.738 107.518 67.984 106.972 68.768L105.852 68.278C106.356 67.452 106.958 66.108 107.28 65.128ZM108.89 66.78L110.248 67.396C109.24 69.006 107.868 70.952 106.804 72.17L105.838 71.624C106.874 70.35 108.162 68.292 108.89 66.78ZM105.124 68.446L105.922 67.298C106.664 67.942 107.532 68.824 107.896 69.468L107.028 70.77C106.692 70.098 105.838 69.118 105.124 68.446ZM108.47 70.126L109.576 69.664C110.122 70.602 110.654 71.834 110.822 72.646L109.632 73.178C109.478 72.366 109.002 71.092 108.47 70.126ZM105.11 71.288C106.398 71.246 108.288 71.176 110.136 71.092L110.122 72.422C108.4 72.548 106.608 72.66 105.25 72.758L105.11 71.288ZM108.778 73.612L109.954 73.234C110.304 74.032 110.668 75.082 110.822 75.782L109.59 76.216C109.45 75.516 109.086 74.438 108.778 73.612ZM105.712 73.346L107.098 73.584C106.958 74.928 106.65 76.328 106.244 77.224C105.95 77.042 105.32 76.748 104.97 76.608C105.376 75.782 105.6 74.536 105.712 73.346ZM107.28 72.03H108.75V78.274H107.28V72.03Z" fill="#595959"/>
<path d="M127.468 71.82V73.122H131.038V71.82H127.468ZM126.096 70.616H132.48V74.326H126.096V70.616ZM129.148 66.584C128.504 67.704 127.286 69.09 125.97 69.902C125.802 69.496 125.466 68.908 125.2 68.558C126.502 67.816 127.776 66.318 128.364 65.114H129.82C130.646 66.416 131.878 67.704 133.124 68.292C132.83 68.684 132.48 69.286 132.27 69.748C131.08 69.02 129.834 67.704 129.148 66.584ZM128.49 69.146H129.974V71.876C129.974 74.13 129.554 76.678 126.222 78.288C126.012 77.938 125.536 77.392 125.2 77.112C128.14 75.768 128.49 73.682 128.49 71.862V69.146ZM130.114 73.598C130.604 75.068 131.626 76.328 133.054 76.93C132.704 77.224 132.214 77.84 131.99 78.246C130.422 77.42 129.414 75.824 128.84 73.92L130.114 73.598ZM127.062 68.572H131.374V69.86H127.062V68.572ZM121.196 67.76H125.298V69.02H121.196V67.76ZM121.196 69.874H125.298V71.148H121.196V69.874ZM120.412 72.002H125.2V73.304H120.412V72.002ZM122.736 66.416H124.066V72.73H122.736V66.416ZM123.212 73.948L123.856 73.724C124.15 74.284 124.416 75.026 124.528 75.502L123.828 75.768C123.744 75.264 123.478 74.508 123.212 73.948ZM122.302 74.13L123.016 74.004C123.24 74.732 123.436 75.656 123.478 76.258L122.722 76.426C122.694 75.81 122.512 74.858 122.302 74.13ZM121.336 74.214L122.05 74.13C122.19 74.956 122.246 76.034 122.204 76.72L121.448 76.818C121.49 76.104 121.448 75.054 121.336 74.214ZM120.3 73.92L121.224 74.088C121.154 75.39 121 76.692 120.426 77.476L119.586 77.014C120.076 76.3 120.244 75.11 120.3 73.92ZM120.412 65.632H125.578V66.99H121.784V72.898H120.412V65.632ZM124.472 72.002H125.858C125.858 72.002 125.858 72.38 125.844 72.562C125.704 75.964 125.564 77.28 125.228 77.714C124.99 78.022 124.738 78.148 124.402 78.19C124.108 78.246 123.646 78.26 123.156 78.246C123.128 77.84 123.002 77.294 122.806 76.944C123.184 76.986 123.492 76.986 123.66 76.986C123.828 76.986 123.926 76.944 124.038 76.818C124.234 76.538 124.36 75.418 124.472 72.24V72.002Z" fill="#595959"/>
<path d="M134.846 67.41C135.392 67.396 135.952 67.368 136.218 67.34C137.38 67.228 139.69 67.032 142.252 66.808C143.708 66.696 145.234 66.598 146.228 66.556L146.242 68.362C145.486 68.362 144.282 68.376 143.526 68.544C141.846 68.992 140.572 70.812 140.572 72.478C140.572 74.774 142.728 75.614 145.094 75.726L144.436 77.644C141.51 77.462 138.738 75.88 138.738 72.842C138.738 70.84 139.872 69.244 140.81 68.53C139.508 68.67 136.638 68.978 135.028 69.328L134.846 67.41ZM144.24 69.734C144.576 70.224 145.08 71.078 145.346 71.638L144.296 72.1C143.932 71.344 143.638 70.784 143.204 70.168L144.24 69.734ZM145.794 69.09C146.158 69.58 146.69 70.406 146.984 70.952L145.934 71.456C145.556 70.7 145.234 70.168 144.786 69.552L145.794 69.09Z" fill="#595959"/>
<path d="M155.006 65.786C154.88 66.304 154.824 66.668 154.754 67.032C154.586 68.236 153.928 72.856 153.928 74.27C153.928 75.432 154.628 76.062 156 76.062C157.96 76.062 159.038 75.152 159.038 74.004C159.038 73.066 158.506 72.156 157.596 71.302L159.556 70.882C160.494 72.058 160.914 73.038 160.914 74.228C160.914 76.342 159.024 77.868 155.958 77.868C153.746 77.868 152.192 76.916 152.192 74.564C152.192 73.136 152.864 68.88 153.004 66.92C153.06 66.276 153.06 65.996 153.032 65.674L155.006 65.786ZM150.008 67.522C151.226 67.928 152.962 68.11 154.39 68.11C155.468 68.11 156.462 68.04 157.162 67.914L157.106 69.594C156.28 69.678 155.51 69.72 154.334 69.72C152.92 69.72 151.212 69.496 149.924 69.132L150.008 67.522ZM149.7 70.994C151.212 71.512 152.836 71.624 154.25 71.624C155.104 71.624 156.14 71.568 157.05 71.456L157.008 73.122C156.238 73.206 155.412 73.248 154.53 73.248C152.668 73.248 150.89 73.052 149.616 72.688L149.7 70.994Z" fill="#595959"/>
<path d="M163.896 66.052H176.104V67.774H163.896V66.052ZM170.658 70.742L171.96 69.65C173.458 70.742 175.614 72.352 176.636 73.472L175.208 74.76C174.284 73.654 172.212 71.932 170.658 70.742ZM170.098 66.682L171.974 67.34C170.378 70.294 167.83 73.15 164.61 74.83C164.344 74.382 163.812 73.682 163.462 73.304C166.458 71.89 168.936 69.174 170.098 66.682ZM169.076 70.07L170.924 68.236V78.232H169.076V70.07Z" fill="#595959"/>
<path d="M183.622 65.1H185.414V67.648H183.622V65.1ZM178.596 66.36H190.566V69.678H188.774V67.914H180.304V69.678H178.596V66.36ZM183.118 68.25L184.882 68.628C183.818 70.882 182.39 73.668 181.382 75.418L179.618 74.942C180.668 73.234 182.152 70.406 183.118 68.25ZM186.646 71.456L188.55 71.708C187.318 76.006 184.378 77.574 179.576 78.274C179.422 77.868 178.932 77.112 178.624 76.734C183.216 76.286 185.89 75.04 186.646 71.456ZM178.316 70.336H190.818V71.918H178.316V70.336ZM180.668 74.648L181.886 73.486C184.588 74.228 188.298 75.656 190.258 76.86L188.9 78.232C187.136 77.056 183.496 75.488 180.668 74.648Z" fill="#595959"/>
<path d="M198.476 66.052C198.392 66.416 198.308 66.864 198.238 67.214C198.098 67.844 197.93 68.712 197.776 69.426C197.314 71.4 196.194 75.39 194.724 77.756L192.89 77.028C194.556 74.788 195.606 71.092 195.998 69.328C196.264 68.068 196.418 66.878 196.404 65.828L198.476 66.052ZM203.306 67.452C204.16 68.67 205.336 71.274 205.77 72.604L203.992 73.43C203.628 71.876 202.634 69.412 201.626 68.166L203.306 67.452ZM192.806 68.922C193.31 68.95 193.786 68.936 194.304 68.922C195.424 68.894 198.084 68.586 199.12 68.586C200.604 68.586 201.654 69.244 201.654 71.274C201.654 72.926 201.444 75.194 200.856 76.398C200.394 77.378 199.61 77.686 198.56 77.686C198.014 77.686 197.356 77.602 196.88 77.49L196.572 75.642C197.118 75.796 197.916 75.936 198.28 75.936C198.756 75.936 199.12 75.796 199.33 75.334C199.722 74.55 199.904 72.842 199.904 71.47C199.904 70.35 199.428 70.182 198.546 70.182C197.72 70.182 195.298 70.49 194.528 70.588C194.122 70.644 193.394 70.742 192.974 70.812L192.806 68.922ZM203.054 65.52C203.404 66.024 203.894 66.92 204.16 67.438L203.04 67.914C202.746 67.34 202.312 66.514 201.934 65.968L203.054 65.52ZM204.706 64.876C205.07 65.408 205.588 66.304 205.84 66.794L204.72 67.27C204.44 66.682 203.978 65.87 203.6 65.338L204.706 64.876Z" fill="#595959"/>
<path d="M212.812 65.114H214.534V71.932C214.534 72.828 214.366 73.304 213.75 73.57C213.162 73.836 212.294 73.878 211.146 73.878C211.076 73.388 210.81 72.632 210.558 72.156C211.356 72.184 212.238 72.17 212.49 72.17C212.728 72.17 212.812 72.114 212.812 71.904V65.114ZM215.864 67.466L217.418 66.668C218.566 68.068 219.854 69.944 220.344 71.288L218.622 72.226C218.202 70.924 216.998 68.95 215.864 67.466ZM216.494 71.036L218.3 71.54C216.914 75.894 214.114 77.504 209.046 78.316C208.878 77.784 208.5 77.07 208.15 76.636C212.798 76.104 215.346 74.774 216.494 71.036ZM209.606 66.878L211.482 67.312C210.824 69.076 209.788 71.106 208.57 72.352C208.178 72.03 207.492 71.582 207.044 71.358C208.22 70.238 209.186 68.362 209.606 66.878Z" fill="#595959"/>
<path d="M222.388 67.83C222.99 67.9 223.746 67.928 224.25 67.928C225.986 67.928 227.876 67.634 229.234 67.2L229.276 68.824C228.072 69.16 226.056 69.524 224.264 69.51C223.704 69.51 223.116 69.496 222.514 69.468L222.388 67.83ZM227.834 65.73C227.652 66.472 227.316 67.844 226.938 69.034C226.294 71.05 225.034 73.654 223.844 75.306L222.15 74.438C223.41 72.898 224.67 70.448 225.216 68.936C225.552 67.928 225.86 66.626 225.902 65.548L227.834 65.73ZM231.124 70.098C231.082 70.686 231.096 71.274 231.11 71.89C231.138 72.716 231.264 74.802 231.264 75.586C231.264 76.888 230.564 77.91 228.562 77.91C226.826 77.91 225.454 77.126 225.454 75.586C225.454 74.228 226.602 73.164 228.548 73.164C230.998 73.164 232.93 74.396 234.092 75.446L233.168 76.958C232.16 76.02 230.564 74.578 228.45 74.578C227.638 74.578 227.106 74.928 227.106 75.418C227.106 75.936 227.554 76.3 228.324 76.3C229.276 76.3 229.584 75.768 229.584 74.984C229.584 74.144 229.43 71.568 229.36 70.098H231.124ZM233.532 70.84C232.72 70.182 231.124 69.272 230.158 68.838L231.068 67.466C232.076 67.9 233.798 68.838 234.526 69.356L233.532 70.84Z" fill="#595959"/>
<path d="M242.254 65.954C242.17 66.318 242.086 66.766 242.002 67.116C241.876 67.746 241.694 68.614 241.554 69.328C241.092 71.302 239.958 75.292 238.502 77.658L236.668 76.93C238.334 74.69 239.384 70.994 239.776 69.23C240.042 67.97 240.196 66.78 240.182 65.73L242.254 65.954ZM247.084 67.256C247.938 68.474 249.114 71.134 249.548 72.478L247.77 73.304C247.406 71.736 246.412 69.216 245.404 67.97L247.084 67.256ZM236.584 68.824C237.088 68.852 237.564 68.838 238.082 68.824C239.202 68.796 241.848 68.488 242.898 68.488C244.368 68.488 245.418 69.146 245.418 71.176C245.418 72.828 245.222 75.096 244.634 76.3C244.158 77.28 243.388 77.588 242.338 77.588C241.792 77.588 241.134 77.504 240.644 77.392L240.35 75.544C240.896 75.698 241.694 75.838 242.058 75.838C242.534 75.838 242.884 75.698 243.108 75.236C243.5 74.452 243.682 72.744 243.682 71.372C243.682 70.252 243.192 70.084 242.324 70.084C241.484 70.084 239.076 70.392 238.306 70.49C237.9 70.546 237.172 70.644 236.752 70.714L236.584 68.824Z" fill="#595959"/>
<path d="M252.348 71.078C252.768 71.008 253.412 70.84 253.832 70.7C254.798 70.42 257.164 69.608 258.858 69.608C261.084 69.608 262.568 70.924 262.568 73.052C262.568 75.572 260.328 77.308 255.89 77.574L255.148 75.852C258.34 75.768 260.706 74.914 260.706 73.01C260.706 71.974 259.922 71.232 258.69 71.232C257.066 71.232 254.28 72.394 253.076 72.898L252.348 71.078Z" fill="#595959"/>
<path d="M271.542 65.828C271.444 66.22 271.318 66.85 271.248 67.158C271.052 68.11 270.702 69.818 270.324 71.246C269.82 73.206 268.882 76.062 268.112 77.728L266.166 77.07C266.992 75.656 268.056 72.73 268.588 70.77C268.938 69.454 269.26 67.914 269.358 67.088C269.428 66.57 269.442 65.996 269.4 65.66L271.542 65.828ZM267.972 67.928C269.68 67.928 271.654 67.662 273.474 67.228V68.978C271.738 69.384 269.54 69.622 267.958 69.622C267.272 69.622 266.754 69.594 266.264 69.566L266.208 67.816C266.936 67.9 267.398 67.928 267.972 67.928ZM272.368 70.07C273.152 69.986 274.16 69.93 275.07 69.93C275.868 69.93 276.708 69.972 277.52 70.056L277.492 71.736C276.778 71.652 275.924 71.554 275.084 71.554C274.118 71.554 273.25 71.596 272.368 71.708V70.07ZM273.124 73.584C273.026 73.99 272.942 74.438 272.942 74.746C272.942 75.362 273.348 75.824 274.86 75.824C275.798 75.824 276.764 75.726 277.758 75.544L277.688 77.322C276.904 77.434 275.966 77.518 274.846 77.518C272.48 77.518 271.22 76.72 271.22 75.306C271.22 74.648 271.346 73.976 271.458 73.43L273.124 73.584Z" fill="#595959"/>
</svg>
