<svg width="341" height="104" viewBox="0 0 341 104" fill="none" xmlns="http://www.w3.org/2000/svg">
<path d="M44.0243 36.418C43.4323 36.418 42.8523 36.306 42.2843 36.082C41.7163 35.858 41.2163 35.538 40.7843 35.122L41.8043 33.898C42.1163 34.194 42.4723 34.434 42.8723 34.618C43.2803 34.794 43.6763 34.882 44.0603 34.882C44.5243 34.882 44.8763 34.79 45.1163 34.606C45.3563 34.422 45.4763 34.174 45.4763 33.862C45.4763 33.638 45.4163 33.462 45.2963 33.334C45.1843 33.198 45.0283 33.078 44.8283 32.974C44.6283 32.87 44.3963 32.766 44.1323 32.662L42.9563 32.146C42.6603 32.026 42.3723 31.866 42.0923 31.666C41.8203 31.458 41.5923 31.198 41.4083 30.886C41.2323 30.574 41.1443 30.202 41.1443 29.77C41.1443 29.282 41.2763 28.846 41.5403 28.462C41.8043 28.078 42.1683 27.774 42.6323 27.55C43.0963 27.318 43.6243 27.202 44.2163 27.202C44.7443 27.202 45.2523 27.302 45.7403 27.502C46.2283 27.702 46.6523 27.986 47.0123 28.354L46.1123 29.458C45.8323 29.226 45.5403 29.046 45.2363 28.918C44.9323 28.79 44.5923 28.726 44.2163 28.726C43.8323 28.726 43.5243 28.81 43.2923 28.978C43.0683 29.138 42.9563 29.366 42.9563 29.662C42.9563 29.87 43.0203 30.042 43.1483 30.178C43.2763 30.314 43.4443 30.434 43.6523 30.538C43.8603 30.634 44.0883 30.734 44.3363 30.838L45.5003 31.306C45.8603 31.45 46.1723 31.63 46.4363 31.846C46.7083 32.062 46.9163 32.322 47.0603 32.626C47.2123 32.93 47.2883 33.298 47.2883 33.73C47.2883 34.21 47.1563 34.654 46.8923 35.062C46.6363 35.47 46.2643 35.798 45.7763 36.046C45.2963 36.294 44.7123 36.418 44.0243 36.418Z" fill="#595959"/>
<path d="M49.3406 36.25V27.358H54.7886V28.846H51.1166V30.898H54.2246V32.386H51.1166V34.762H54.9206V36.25H49.3406Z" fill="#595959"/>
<path d="M59.8554 36.418C59.2634 36.418 58.6834 36.306 58.1154 36.082C57.5474 35.858 57.0474 35.538 56.6154 35.122L57.6354 33.898C57.9474 34.194 58.3034 34.434 58.7034 34.618C59.1114 34.794 59.5074 34.882 59.8914 34.882C60.3554 34.882 60.7074 34.79 60.9474 34.606C61.1874 34.422 61.3074 34.174 61.3074 33.862C61.3074 33.638 61.2474 33.462 61.1274 33.334C61.0154 33.198 60.8594 33.078 60.6594 32.974C60.4594 32.87 60.2274 32.766 59.9634 32.662L58.7874 32.146C58.4914 32.026 58.2034 31.866 57.9234 31.666C57.6514 31.458 57.4234 31.198 57.2394 30.886C57.0634 30.574 56.9754 30.202 56.9754 29.77C56.9754 29.282 57.1074 28.846 57.3714 28.462C57.6354 28.078 57.9994 27.774 58.4634 27.55C58.9274 27.318 59.4554 27.202 60.0474 27.202C60.5754 27.202 61.0834 27.302 61.5714 27.502C62.0594 27.702 62.4834 27.986 62.8434 28.354L61.9434 29.458C61.6634 29.226 61.3714 29.046 61.0674 28.918C60.7634 28.79 60.4234 28.726 60.0474 28.726C59.6634 28.726 59.3554 28.81 59.1234 28.978C58.8994 29.138 58.7874 29.366 58.7874 29.662C58.7874 29.87 58.8514 30.042 58.9794 30.178C59.1074 30.314 59.2754 30.434 59.4834 30.538C59.6914 30.634 59.9194 30.734 60.1674 30.838L61.3314 31.306C61.6914 31.45 62.0034 31.63 62.2674 31.846C62.5394 32.062 62.7474 32.322 62.8914 32.626C63.0434 32.93 63.1194 33.298 63.1194 33.73C63.1194 34.21 62.9874 34.654 62.7234 35.062C62.4674 35.47 62.0954 35.798 61.6074 36.046C61.1274 36.294 60.5434 36.418 59.8554 36.418Z" fill="#595959"/>
<path d="M69.4077 26.806C69.3597 26.974 69.3077 27.174 69.2517 27.406C69.2037 27.63 69.1677 27.81 69.1437 27.946C69.0877 28.218 69.0157 28.55 68.9277 28.942C68.8477 29.334 68.7597 29.75 68.6637 30.19C68.5677 30.622 68.4677 31.042 68.3637 31.45C68.2517 31.866 68.1197 32.322 67.9677 32.818C67.8237 33.314 67.6637 33.814 67.4877 34.318C67.3197 34.822 67.1477 35.306 66.9717 35.77C66.7957 36.234 66.6237 36.646 66.4557 37.006L64.7757 36.442C64.9597 36.138 65.1477 35.766 65.3397 35.326C65.5397 34.886 65.7357 34.418 65.9277 33.922C66.1197 33.418 66.2957 32.918 66.4557 32.422C66.6157 31.918 66.7517 31.458 66.8637 31.042C66.9357 30.754 67.0077 30.462 67.0797 30.166C67.1517 29.87 67.2157 29.582 67.2717 29.302C67.3357 29.022 67.3877 28.762 67.4277 28.522C67.4757 28.274 67.5117 28.062 67.5357 27.886C67.5597 27.662 67.5757 27.438 67.5837 27.214C67.5917 26.99 67.5877 26.806 67.5717 26.662L69.4077 26.806ZM66.3477 28.606C66.8357 28.606 67.3437 28.582 67.8717 28.534C68.3997 28.486 68.9317 28.418 69.4677 28.33C70.0037 28.234 70.5357 28.126 71.0637 28.006V29.506C70.5677 29.626 70.0397 29.726 69.4797 29.806C68.9197 29.886 68.3677 29.95 67.8237 29.998C67.2797 30.038 66.7797 30.058 66.3237 30.058C66.0357 30.058 65.7757 30.054 65.5437 30.046C65.3117 30.03 65.0877 30.018 64.8717 30.01L64.8357 28.51C65.1477 28.542 65.4157 28.566 65.6397 28.582C65.8637 28.598 66.0997 28.606 66.3477 28.606ZM70.1157 30.442C70.4517 30.402 70.8237 30.374 71.2317 30.358C71.6397 30.334 72.0357 30.322 72.4197 30.322C72.7637 30.322 73.1117 30.33 73.4637 30.346C73.8237 30.362 74.1797 30.39 74.5317 30.43L74.4957 31.87C74.1997 31.83 73.8717 31.794 73.5117 31.762C73.1597 31.73 72.7997 31.714 72.4317 31.714C72.0157 31.714 71.6197 31.726 71.2437 31.75C70.8677 31.766 70.4917 31.798 70.1157 31.846V30.442ZM70.7637 33.454C70.7157 33.622 70.6757 33.798 70.6437 33.982C70.6117 34.166 70.5957 34.322 70.5957 34.45C70.5957 34.586 70.6237 34.71 70.6797 34.822C70.7357 34.934 70.8237 35.034 70.9437 35.122C71.0637 35.202 71.2277 35.266 71.4357 35.314C71.6517 35.354 71.9197 35.374 72.2397 35.374C72.6397 35.374 73.0477 35.354 73.4637 35.314C73.8797 35.274 74.3037 35.214 74.7357 35.134L74.6757 36.658C74.3397 36.706 73.9677 36.746 73.5597 36.778C73.1517 36.818 72.7077 36.838 72.2277 36.838C71.2197 36.838 70.4477 36.67 69.9117 36.334C69.3837 35.998 69.1197 35.53 69.1197 34.93C69.1197 34.65 69.1397 34.37 69.1797 34.09C69.2277 33.81 69.2757 33.554 69.3237 33.322L70.7637 33.454ZM73.2477 27.154C73.3517 27.298 73.4597 27.47 73.5717 27.67C73.6917 27.87 73.8077 28.07 73.9197 28.27C74.0317 28.47 74.1237 28.646 74.1957 28.798L73.2357 29.218C73.1557 29.05 73.0637 28.866 72.9597 28.666C72.8557 28.466 72.7477 28.266 72.6357 28.066C72.5237 27.866 72.4117 27.694 72.2997 27.55L73.2477 27.154ZM74.6637 26.614C74.7757 26.758 74.8917 26.934 75.0117 27.142C75.1317 27.342 75.2477 27.542 75.3597 27.742C75.4797 27.934 75.5717 28.102 75.6357 28.246L74.6877 28.654C74.5597 28.398 74.4077 28.114 74.2317 27.802C74.0557 27.49 73.8837 27.222 73.7157 26.998L74.6637 26.614Z" fill="#595959"/>
<path d="M82.1037 26.77C82.0637 26.922 82.0237 27.09 81.9837 27.274C81.9517 27.45 81.9197 27.614 81.8877 27.766C81.8557 27.942 81.8157 28.142 81.7677 28.366C81.7197 28.582 81.6717 28.802 81.6237 29.026C81.5837 29.242 81.5397 29.454 81.4917 29.662C81.4117 30.006 81.3117 30.406 81.1917 30.862C81.0717 31.318 80.9317 31.81 80.7717 32.338C80.6117 32.858 80.4317 33.382 80.2317 33.91C80.0317 34.438 79.8197 34.954 79.5957 35.458C79.3717 35.954 79.1317 36.402 78.8757 36.802L77.3157 36.178C77.5957 35.802 77.8557 35.382 78.0957 34.918C78.3437 34.446 78.5677 33.962 78.7677 33.466C78.9677 32.97 79.1437 32.482 79.2957 32.002C79.4557 31.522 79.5917 31.074 79.7037 30.658C79.8157 30.242 79.9037 29.886 79.9677 29.59C80.0797 29.046 80.1677 28.522 80.2317 28.018C80.2957 27.514 80.3237 27.038 80.3157 26.59L82.1037 26.77ZM86.2317 27.898C86.4237 28.154 86.6197 28.478 86.8197 28.87C87.0277 29.254 87.2277 29.662 87.4197 30.094C87.6197 30.526 87.7997 30.942 87.9597 31.342C88.1277 31.742 88.2557 32.082 88.3437 32.362L86.8197 33.07C86.7397 32.734 86.6277 32.362 86.4837 31.954C86.3477 31.538 86.1877 31.118 86.0037 30.694C85.8277 30.262 85.6357 29.854 85.4277 29.47C85.2277 29.086 85.0197 28.766 84.8037 28.51L86.2317 27.898ZM77.2317 29.23C77.4477 29.246 77.6597 29.254 77.8677 29.254C78.0757 29.246 78.2917 29.238 78.5157 29.23C78.7077 29.222 78.9437 29.21 79.2237 29.194C79.5117 29.17 79.8117 29.146 80.1237 29.122C80.4437 29.098 80.7637 29.074 81.0837 29.05C81.4037 29.018 81.6997 28.994 81.9717 28.978C82.2437 28.962 82.4677 28.954 82.6437 28.954C83.0677 28.954 83.4397 29.026 83.7597 29.17C84.0877 29.306 84.3437 29.542 84.5277 29.878C84.7197 30.214 84.8157 30.67 84.8157 31.246C84.8157 31.718 84.7917 32.23 84.7437 32.782C84.7037 33.334 84.6357 33.862 84.5397 34.366C84.4437 34.87 84.3077 35.298 84.1317 35.65C83.9397 36.066 83.6757 36.354 83.3397 36.514C83.0117 36.674 82.6197 36.754 82.1637 36.754C81.9317 36.754 81.6837 36.734 81.4197 36.694C81.1637 36.662 80.9317 36.626 80.7237 36.586L80.4597 35.002C80.6197 35.042 80.7917 35.082 80.9757 35.122C81.1677 35.162 81.3477 35.194 81.5157 35.218C81.6917 35.242 81.8317 35.254 81.9357 35.254C82.1357 35.254 82.3117 35.218 82.4637 35.146C82.6157 35.066 82.7397 34.93 82.8357 34.738C82.9477 34.506 83.0357 34.206 83.0997 33.838C83.1717 33.47 83.2237 33.074 83.2557 32.65C83.2957 32.218 83.3157 31.806 83.3157 31.414C83.3157 31.094 83.2717 30.858 83.1837 30.706C83.0957 30.554 82.9637 30.454 82.7877 30.406C82.6197 30.35 82.4077 30.322 82.1517 30.322C81.9757 30.322 81.7277 30.338 81.4077 30.37C81.0957 30.394 80.7637 30.426 80.4117 30.466C80.0597 30.498 79.7277 30.534 79.4157 30.574C79.1117 30.614 78.8757 30.642 78.7077 30.658C78.5397 30.69 78.3197 30.726 78.0477 30.766C77.7837 30.798 77.5597 30.83 77.3757 30.862L77.2317 29.23Z" fill="#595959"/>
<path d="M93.0477 26.59C93.3357 26.678 93.6957 26.77 94.1277 26.866C94.5597 26.962 95.0117 27.058 95.4837 27.154C95.9557 27.242 96.3997 27.318 96.8157 27.382C97.2397 27.446 97.5837 27.494 97.8477 27.526L97.4877 28.99C97.2477 28.958 96.9557 28.914 96.6117 28.858C96.2757 28.794 95.9157 28.726 95.5317 28.654C95.1557 28.582 94.7837 28.51 94.4157 28.438C94.0477 28.358 93.7117 28.282 93.4077 28.21C93.1037 28.138 92.8557 28.078 92.6637 28.03L93.0477 26.59ZM93.1197 29.002C93.0797 29.162 93.0357 29.37 92.9877 29.626C92.9477 29.874 92.9077 30.134 92.8677 30.406C92.8277 30.678 92.7877 30.938 92.7477 31.186C92.7157 31.434 92.6877 31.642 92.6637 31.81C93.2077 31.418 93.7757 31.13 94.3677 30.946C94.9677 30.762 95.5797 30.67 96.2037 30.67C96.9077 30.67 97.5077 30.798 98.0037 31.054C98.4997 31.31 98.8757 31.646 99.1317 32.062C99.3957 32.478 99.5277 32.93 99.5277 33.418C99.5277 33.962 99.4117 34.466 99.1797 34.93C98.9477 35.394 98.5677 35.79 98.0397 36.118C97.5117 36.446 96.8197 36.678 95.9637 36.814C95.1077 36.95 94.0557 36.966 92.8077 36.862L92.3517 35.29C93.5517 35.45 94.5597 35.474 95.3757 35.362C96.1917 35.242 96.8077 35.01 97.2237 34.666C97.6477 34.314 97.8597 33.886 97.8597 33.382C97.8597 33.118 97.7837 32.886 97.6317 32.686C97.4797 32.478 97.2677 32.318 96.9957 32.206C96.7237 32.086 96.4157 32.026 96.0717 32.026C95.3997 32.026 94.7677 32.15 94.1757 32.398C93.5917 32.638 93.1117 32.986 92.7357 33.442C92.6317 33.57 92.5437 33.69 92.4717 33.802C92.4077 33.906 92.3477 34.018 92.2917 34.138L90.9117 33.79C90.9597 33.558 91.0077 33.286 91.0557 32.974C91.1037 32.654 91.1517 32.314 91.1997 31.954C91.2477 31.586 91.2917 31.218 91.3317 30.85C91.3717 30.482 91.4077 30.118 91.4397 29.758C91.4717 29.398 91.4957 29.07 91.5117 28.774L93.1197 29.002Z" fill="#595959"/>
<path d="M104.22 30.226H110.748V31.558H104.22V30.226ZM104.22 32.794H110.748V34.126H104.22V32.794ZM104.22 35.374H110.748V36.706H104.22V35.374ZM103.248 27.61H111.96V37.294H110.436V28.99H104.7V37.318H103.248V27.61ZM106.656 26.038L108.396 26.23C108.252 26.622 108.1 27.006 107.94 27.382C107.78 27.758 107.632 28.082 107.496 28.354L106.176 28.114C106.24 27.914 106.304 27.694 106.368 27.454C106.432 27.206 106.488 26.962 106.536 26.722C106.592 26.474 106.632 26.246 106.656 26.038Z" fill="#595959"/>
<path d="M116.34 30.466H122.832V31.858H116.34V30.466ZM122.352 30.466H123.864C123.864 30.466 123.864 30.506 123.864 30.586C123.864 30.658 123.864 30.746 123.864 30.85C123.864 30.946 123.86 31.026 123.852 31.09C123.82 31.994 123.784 32.774 123.744 33.43C123.704 34.078 123.656 34.618 123.6 35.05C123.552 35.482 123.492 35.826 123.42 36.082C123.348 36.338 123.26 36.53 123.156 36.658C122.996 36.85 122.828 36.986 122.652 37.066C122.484 37.146 122.284 37.202 122.052 37.234C121.852 37.266 121.588 37.282 121.26 37.282C120.932 37.29 120.588 37.286 120.228 37.27C120.22 37.054 120.172 36.806 120.084 36.526C119.996 36.254 119.888 36.018 119.76 35.818C120.096 35.842 120.408 35.858 120.696 35.866C120.984 35.874 121.2 35.878 121.344 35.878C121.456 35.878 121.548 35.87 121.62 35.854C121.692 35.83 121.764 35.782 121.836 35.71C121.932 35.606 122.008 35.378 122.064 35.026C122.128 34.666 122.184 34.138 122.232 33.442C122.28 32.738 122.32 31.83 122.352 30.718V30.466ZM117.684 26.206L119.244 26.662C118.948 27.358 118.592 28.03 118.176 28.678C117.768 29.326 117.324 29.922 116.844 30.466C116.372 31.01 115.88 31.482 115.368 31.882C115.28 31.778 115.16 31.654 115.008 31.51C114.856 31.358 114.7 31.21 114.54 31.066C114.388 30.922 114.252 30.806 114.132 30.718C114.628 30.382 115.1 29.982 115.548 29.518C116.004 29.046 116.416 28.53 116.784 27.97C117.152 27.402 117.452 26.814 117.684 26.206ZM122.256 26.182C122.448 26.566 122.68 26.958 122.952 27.358C123.224 27.758 123.52 28.15 123.84 28.534C124.168 28.91 124.5 29.266 124.836 29.602C125.18 29.938 125.516 30.23 125.844 30.478C125.716 30.574 125.572 30.702 125.412 30.862C125.26 31.014 125.112 31.17 124.968 31.33C124.832 31.49 124.716 31.638 124.62 31.774C124.284 31.462 123.944 31.114 123.6 30.73C123.256 30.338 122.916 29.926 122.58 29.494C122.252 29.054 121.94 28.602 121.644 28.138C121.348 27.666 121.08 27.202 120.84 26.746L122.256 26.182ZM118.476 30.874H120.048C119.992 31.546 119.9 32.202 119.772 32.842C119.644 33.482 119.432 34.086 119.136 34.654C118.848 35.222 118.428 35.742 117.876 36.214C117.332 36.678 116.612 37.074 115.716 37.402C115.66 37.266 115.58 37.118 115.476 36.958C115.372 36.798 115.26 36.638 115.14 36.478C115.02 36.326 114.9 36.194 114.78 36.082C115.588 35.826 116.228 35.51 116.7 35.134C117.172 34.75 117.528 34.334 117.768 33.886C118.008 33.43 118.172 32.946 118.26 32.434C118.356 31.922 118.428 31.402 118.476 30.874Z" fill="#595959"/>
<path d="M131.94 26.854C131.908 27.006 131.872 27.174 131.832 27.358C131.792 27.534 131.756 27.698 131.724 27.85C131.692 28.026 131.652 28.226 131.604 28.45C131.556 28.666 131.508 28.886 131.46 29.11C131.42 29.326 131.376 29.538 131.328 29.746C131.248 30.09 131.148 30.49 131.028 30.946C130.908 31.402 130.768 31.894 130.608 32.422C130.448 32.942 130.268 33.466 130.068 33.994C129.868 34.522 129.656 35.038 129.432 35.542C129.208 36.038 128.968 36.486 128.712 36.886L127.152 36.262C127.432 35.886 127.692 35.466 127.932 35.002C128.18 34.53 128.404 34.05 128.604 33.562C128.804 33.066 128.98 32.578 129.132 32.098C129.292 31.61 129.428 31.158 129.54 30.742C129.66 30.326 129.752 29.97 129.816 29.674C129.928 29.13 130.016 28.606 130.08 28.102C130.144 27.598 130.168 27.122 130.152 26.674L131.94 26.854ZM136.068 28.066C136.26 28.33 136.456 28.654 136.656 29.038C136.864 29.414 137.068 29.814 137.268 30.238C137.468 30.662 137.648 31.07 137.808 31.462C137.968 31.854 138.092 32.194 138.18 32.482L136.656 33.178C136.584 32.842 136.476 32.47 136.332 32.062C136.196 31.654 136.036 31.242 135.852 30.826C135.668 30.402 135.472 30.002 135.264 29.626C135.064 29.25 134.856 28.934 134.64 28.678L136.068 28.066ZM127.068 29.314C127.284 29.33 127.496 29.338 127.704 29.338C127.92 29.33 128.136 29.322 128.352 29.314C128.552 29.306 128.792 29.294 129.072 29.278C129.352 29.254 129.648 29.23 129.96 29.206C130.28 29.182 130.6 29.158 130.92 29.134C131.24 29.102 131.536 29.078 131.808 29.062C132.08 29.046 132.304 29.038 132.48 29.038C132.912 29.038 133.288 29.11 133.608 29.254C133.928 29.39 134.18 29.626 134.364 29.962C134.556 30.298 134.652 30.754 134.652 31.33C134.652 31.802 134.632 32.314 134.592 32.866C134.552 33.418 134.48 33.946 134.376 34.45C134.28 34.954 134.144 35.382 133.968 35.734C133.776 36.15 133.512 36.438 133.176 36.598C132.848 36.758 132.456 36.838 132 36.838C131.776 36.838 131.532 36.818 131.268 36.778C131.004 36.746 130.768 36.71 130.56 36.67L130.308 35.086C130.46 35.126 130.628 35.166 130.812 35.206C131.004 35.246 131.184 35.278 131.352 35.302C131.528 35.326 131.668 35.338 131.772 35.338C131.972 35.338 132.148 35.302 132.3 35.23C132.452 35.15 132.576 35.014 132.672 34.822C132.784 34.59 132.876 34.29 132.948 33.922C133.02 33.554 133.072 33.158 133.104 32.734C133.144 32.302 133.164 31.89 133.164 31.498C133.164 31.178 133.116 30.942 133.02 30.79C132.932 30.638 132.8 30.538 132.624 30.49C132.456 30.434 132.248 30.406 132 30.406C131.816 30.406 131.568 30.422 131.256 30.454C130.944 30.478 130.608 30.51 130.248 30.55C129.896 30.582 129.568 30.618 129.264 30.658C128.96 30.698 128.724 30.726 128.556 30.742C128.38 30.774 128.156 30.81 127.884 30.85C127.62 30.882 127.396 30.914 127.212 30.946L127.068 29.314ZM135.852 26.398C135.956 26.542 136.064 26.714 136.176 26.914C136.296 27.114 136.412 27.314 136.524 27.514C136.636 27.714 136.732 27.89 136.812 28.042L135.84 28.462C135.76 28.294 135.668 28.11 135.564 27.91C135.46 27.71 135.352 27.51 135.24 27.31C135.128 27.11 135.016 26.938 134.904 26.794L135.852 26.398ZM137.28 25.858C137.384 26.01 137.496 26.186 137.616 26.386C137.736 26.586 137.852 26.786 137.964 26.986C138.084 27.186 138.176 27.354 138.24 27.49L137.292 27.898C137.164 27.65 137.012 27.37 136.836 27.058C136.66 26.738 136.488 26.466 136.32 26.242L137.28 25.858Z" fill="#595959"/>
<path d="M145.2 28.966V29.566H148.344V28.966H145.2ZM145.2 27.418V28.006H148.344V27.418H145.2ZM143.82 26.398H149.796V30.586H143.82V26.398ZM143.208 31.114H150.18V32.29H143.208V31.114ZM142.908 32.962H150.432V34.186H142.908V32.962ZM147.324 32.146H148.776V35.902C148.776 36.23 148.736 36.486 148.656 36.67C148.584 36.862 148.432 37.006 148.2 37.102C147.976 37.206 147.708 37.266 147.396 37.282C147.092 37.306 146.736 37.318 146.328 37.318C146.304 37.126 146.248 36.91 146.16 36.67C146.072 36.43 145.98 36.218 145.884 36.034C146.132 36.042 146.376 36.05 146.616 36.058C146.864 36.058 147.028 36.058 147.108 36.058C147.196 36.05 147.252 36.034 147.276 36.01C147.308 35.978 147.324 35.93 147.324 35.866V32.146ZM143.7 34.786L144.708 34.114C144.964 34.346 145.232 34.61 145.512 34.906C145.792 35.202 146.008 35.466 146.16 35.698L145.092 36.454C145.004 36.302 144.88 36.13 144.72 35.938C144.568 35.746 144.4 35.55 144.216 35.35C144.04 35.142 143.868 34.954 143.7 34.786ZM142.056 28.702L143.316 29.23C143.028 29.726 142.688 30.222 142.296 30.718C141.904 31.214 141.492 31.686 141.06 32.134C140.628 32.574 140.204 32.958 139.788 33.286C139.748 33.174 139.688 33.026 139.608 32.842C139.536 32.65 139.452 32.458 139.356 32.266C139.268 32.074 139.184 31.922 139.104 31.81C139.464 31.554 139.824 31.262 140.184 30.934C140.544 30.598 140.888 30.242 141.216 29.866C141.544 29.482 141.824 29.094 142.056 28.702ZM141.744 26.074L143.112 26.626C142.848 26.994 142.54 27.366 142.188 27.742C141.844 28.11 141.48 28.458 141.096 28.786C140.712 29.114 140.328 29.402 139.944 29.65C139.896 29.538 139.828 29.406 139.74 29.254C139.66 29.102 139.572 28.95 139.476 28.798C139.388 28.646 139.308 28.522 139.236 28.426C139.548 28.234 139.864 28.006 140.184 27.742C140.504 27.478 140.8 27.202 141.072 26.914C141.352 26.618 141.576 26.338 141.744 26.074ZM140.868 31.39L142.2 30.058L142.272 30.082V37.318H140.868V31.39Z" fill="#595959"/>
<path d="M157.128 26.674C157.08 26.834 157.032 27.03 156.984 27.262C156.936 27.494 156.9 27.674 156.876 27.802C156.82 28.074 156.748 28.406 156.66 28.798C156.58 29.19 156.488 29.606 156.384 30.046C156.288 30.486 156.188 30.906 156.084 31.306C155.98 31.73 155.852 32.19 155.7 32.686C155.548 33.174 155.384 33.674 155.208 34.186C155.04 34.69 154.868 35.174 154.692 35.638C154.516 36.094 154.344 36.502 154.176 36.862L152.508 36.298C152.684 35.994 152.872 35.626 153.072 35.194C153.272 34.754 153.464 34.282 153.648 33.778C153.84 33.274 154.016 32.774 154.176 32.278C154.336 31.782 154.472 31.322 154.584 30.898C154.664 30.618 154.74 30.33 154.812 30.034C154.884 29.738 154.948 29.45 155.004 29.17C155.06 28.89 155.108 28.63 155.148 28.39C155.196 28.142 155.232 27.926 155.256 27.742C155.28 27.518 155.296 27.294 155.304 27.07C155.312 26.846 155.308 26.666 155.292 26.53L157.128 26.674ZM154.068 28.462C154.556 28.462 155.064 28.438 155.592 28.39C156.12 28.342 156.652 28.274 157.188 28.186C157.724 28.098 158.256 27.994 158.784 27.874V29.374C158.288 29.486 157.76 29.582 157.2 29.662C156.64 29.742 156.088 29.806 155.544 29.854C155 29.894 154.5 29.914 154.044 29.914C153.756 29.914 153.496 29.91 153.264 29.902C153.032 29.886 152.808 29.874 152.592 29.866L152.556 28.366C152.868 28.398 153.136 28.422 153.36 28.438C153.584 28.454 153.82 28.462 154.068 28.462ZM157.836 30.298C158.172 30.266 158.544 30.238 158.952 30.214C159.36 30.19 159.756 30.178 160.14 30.178C160.484 30.178 160.832 30.186 161.184 30.202C161.544 30.218 161.9 30.246 162.252 30.286L162.216 31.726C161.92 31.686 161.592 31.654 161.232 31.63C160.88 31.598 160.52 31.582 160.152 31.582C159.744 31.582 159.348 31.594 158.964 31.618C158.588 31.634 158.212 31.666 157.836 31.714V30.298ZM158.484 33.322C158.436 33.49 158.396 33.666 158.364 33.85C158.332 34.026 158.316 34.182 158.316 34.318C158.316 34.446 158.344 34.566 158.4 34.678C158.456 34.79 158.544 34.89 158.664 34.978C158.784 35.058 158.948 35.122 159.156 35.17C159.372 35.218 159.64 35.242 159.96 35.242C160.368 35.242 160.776 35.222 161.184 35.182C161.6 35.134 162.024 35.07 162.456 34.99L162.396 36.526C162.06 36.566 161.688 36.602 161.28 36.634C160.872 36.674 160.428 36.694 159.948 36.694C158.94 36.694 158.168 36.53 157.632 36.202C157.104 35.866 156.84 35.394 156.84 34.786C156.84 34.514 156.864 34.238 156.912 33.958C156.96 33.678 157.008 33.418 157.056 33.178L158.484 33.322Z" fill="#595959"/>
<path d="M167.04 27.67C167.008 27.814 166.98 27.978 166.956 28.162C166.94 28.346 166.924 28.526 166.908 28.702C166.9 28.878 166.896 29.022 166.896 29.134C166.888 29.398 166.884 29.67 166.884 29.95C166.892 30.23 166.9 30.518 166.908 30.814C166.924 31.102 166.944 31.39 166.968 31.678C167.024 32.254 167.104 32.762 167.208 33.202C167.312 33.642 167.448 33.986 167.616 34.234C167.784 34.474 167.996 34.594 168.252 34.594C168.388 34.594 168.52 34.518 168.648 34.366C168.784 34.214 168.904 34.018 169.008 33.778C169.12 33.53 169.216 33.27 169.296 32.998C169.384 32.726 169.46 32.47 169.524 32.23L170.724 33.694C170.46 34.39 170.196 34.946 169.932 35.362C169.676 35.77 169.408 36.066 169.128 36.25C168.848 36.426 168.544 36.514 168.216 36.514C167.784 36.514 167.372 36.37 166.98 36.082C166.596 35.794 166.268 35.33 165.996 34.69C165.724 34.042 165.532 33.182 165.42 32.11C165.38 31.742 165.348 31.354 165.324 30.946C165.308 30.538 165.296 30.15 165.288 29.782C165.288 29.414 165.288 29.11 165.288 28.87C165.288 28.702 165.28 28.502 165.264 28.27C165.248 28.038 165.224 27.83 165.192 27.646L167.04 27.67ZM173.04 27.946C173.264 28.218 173.48 28.55 173.688 28.942C173.896 29.334 174.088 29.754 174.264 30.202C174.44 30.65 174.596 31.11 174.732 31.582C174.868 32.046 174.976 32.502 175.056 32.95C175.144 33.39 175.2 33.794 175.224 34.162L173.64 34.774C173.6 34.286 173.528 33.754 173.424 33.178C173.32 32.602 173.18 32.022 173.004 31.438C172.828 30.854 172.616 30.302 172.368 29.782C172.128 29.262 171.844 28.814 171.516 28.438L173.04 27.946Z" fill="#595959"/>
<path d="M182.4 30.154C182.688 30.154 182.944 30.226 183.168 30.37C183.4 30.506 183.584 30.69 183.72 30.922C183.864 31.146 183.936 31.402 183.936 31.69C183.936 31.97 183.864 32.226 183.72 32.458C183.584 32.69 183.4 32.878 183.168 33.022C182.944 33.158 182.688 33.226 182.4 33.226C182.12 33.226 181.864 33.158 181.632 33.022C181.4 32.878 181.212 32.69 181.068 32.458C180.932 32.226 180.864 31.97 180.864 31.69C180.864 31.402 180.932 31.146 181.068 30.922C181.212 30.69 181.4 30.506 181.632 30.37C181.864 30.226 182.12 30.154 182.4 30.154Z" fill="#595959"/>
<path d="M195.78 26.11H197.196V37.318H195.78V26.11ZM192.78 27.946H200.292V34.474H198.876V29.254H194.124V34.594H192.78V27.946ZM193.716 30.334H199.524V31.582H193.716V30.334ZM193.752 32.674H199.572V33.982H193.752V32.674ZM191.724 26.098L193.08 26.53C192.824 27.202 192.52 27.882 192.168 28.57C191.816 29.25 191.436 29.898 191.028 30.514C190.62 31.122 190.196 31.654 189.756 32.11C189.716 31.99 189.648 31.838 189.552 31.654C189.464 31.462 189.368 31.27 189.264 31.078C189.16 30.886 189.068 30.73 188.988 30.61C189.348 30.242 189.696 29.818 190.032 29.338C190.376 28.858 190.692 28.342 190.98 27.79C191.276 27.238 191.524 26.674 191.724 26.098ZM190.572 29.422L191.94 28.054V28.066V37.306H190.572V29.422Z" fill="#595959"/>
<path d="M205.716 29.026C206.06 29.058 206.404 29.082 206.748 29.098C207.1 29.114 207.456 29.122 207.816 29.122C208.552 29.122 209.284 29.09 210.012 29.026C210.74 28.962 211.416 28.87 212.04 28.75V30.226C211.408 30.322 210.728 30.394 210 30.442C209.272 30.49 208.544 30.518 207.816 30.526C207.464 30.526 207.116 30.522 206.772 30.514C206.428 30.498 206.08 30.478 205.728 30.454L205.716 29.026ZM210.276 26.998C210.26 27.11 210.244 27.234 210.228 27.37C210.22 27.506 210.212 27.638 210.204 27.766C210.196 27.894 210.188 28.07 210.18 28.294C210.172 28.51 210.164 28.754 210.156 29.026C210.156 29.29 210.156 29.566 210.156 29.854C210.156 30.406 210.164 30.918 210.18 31.39C210.204 31.862 210.228 32.302 210.252 32.71C210.284 33.11 210.308 33.482 210.324 33.826C210.34 34.162 210.348 34.474 210.348 34.762C210.348 35.074 210.304 35.366 210.216 35.638C210.136 35.902 210.004 36.13 209.82 36.322C209.636 36.522 209.392 36.674 209.088 36.778C208.792 36.89 208.428 36.946 207.996 36.946C207.164 36.946 206.508 36.778 206.028 36.442C205.548 36.106 205.308 35.622 205.308 34.99C205.308 34.582 205.416 34.222 205.632 33.91C205.856 33.598 206.164 33.358 206.556 33.19C206.956 33.014 207.428 32.926 207.972 32.926C208.54 32.926 209.056 32.99 209.52 33.118C209.984 33.238 210.404 33.398 210.78 33.598C211.164 33.798 211.508 34.014 211.812 34.246C212.116 34.478 212.384 34.702 212.616 34.918L211.812 36.178C211.348 35.746 210.896 35.374 210.456 35.062C210.024 34.75 209.596 34.51 209.172 34.342C208.748 34.174 208.308 34.09 207.852 34.09C207.516 34.09 207.24 34.158 207.024 34.294C206.816 34.422 206.712 34.598 206.712 34.822C206.712 35.07 206.82 35.25 207.036 35.362C207.252 35.474 207.516 35.53 207.828 35.53C208.076 35.53 208.272 35.486 208.416 35.398C208.56 35.31 208.664 35.186 208.728 35.026C208.792 34.866 208.824 34.67 208.824 34.438C208.824 34.23 208.816 33.958 208.8 33.622C208.784 33.278 208.764 32.902 208.74 32.494C208.716 32.078 208.696 31.646 208.68 31.198C208.664 30.742 208.656 30.298 208.656 29.866C208.656 29.41 208.656 28.994 208.656 28.618C208.656 28.242 208.652 27.966 208.644 27.79C208.644 27.694 208.636 27.57 208.62 27.418C208.604 27.258 208.584 27.118 208.56 26.998H210.276ZM204.42 27.118C204.396 27.198 204.364 27.31 204.324 27.454C204.284 27.598 204.244 27.742 204.204 27.886C204.172 28.022 204.148 28.126 204.132 28.198C204.092 28.358 204.048 28.582 204 28.87C203.96 29.158 203.912 29.482 203.856 29.842C203.8 30.194 203.752 30.554 203.712 30.922C203.672 31.29 203.636 31.642 203.604 31.978C203.58 32.314 203.568 32.602 203.568 32.842C203.568 32.954 203.572 33.082 203.58 33.226C203.588 33.37 203.6 33.502 203.616 33.622C203.672 33.478 203.728 33.338 203.784 33.202C203.848 33.066 203.908 32.93 203.964 32.794C204.028 32.658 204.088 32.526 204.144 32.398L204.888 32.974C204.784 33.302 204.672 33.646 204.552 34.006C204.432 34.366 204.324 34.71 204.228 35.038C204.14 35.358 204.072 35.626 204.024 35.842C204.008 35.922 203.992 36.018 203.976 36.13C203.96 36.242 203.956 36.33 203.964 36.394C203.964 36.458 203.964 36.534 203.964 36.622C203.964 36.718 203.968 36.81 203.976 36.898L202.632 36.994C202.504 36.578 202.392 36.038 202.296 35.374C202.2 34.71 202.152 33.974 202.152 33.166C202.152 32.71 202.172 32.238 202.212 31.75C202.252 31.262 202.3 30.79 202.356 30.334C202.412 29.87 202.464 29.45 202.512 29.074C202.568 28.698 202.612 28.394 202.644 28.162C202.668 27.994 202.692 27.802 202.716 27.586C202.74 27.37 202.756 27.17 202.764 26.986L204.42 27.118ZM211.26 26.518C211.34 26.67 211.416 26.846 211.488 27.046C211.568 27.238 211.644 27.434 211.716 27.634C211.788 27.826 211.848 27.998 211.896 28.15L211.056 28.426C211 28.25 210.936 28.066 210.864 27.874C210.8 27.682 210.732 27.49 210.66 27.298C210.596 27.106 210.524 26.93 210.444 26.77L211.26 26.518ZM212.496 26.134C212.576 26.286 212.656 26.462 212.736 26.662C212.816 26.854 212.892 27.046 212.964 27.238C213.044 27.43 213.108 27.606 213.156 27.766L212.328 28.03C212.24 27.774 212.14 27.498 212.028 27.202C211.916 26.898 211.8 26.626 211.68 26.386L212.496 26.134Z" fill="#595959"/>
<path d="M218.292 26.734C218.26 26.982 218.228 27.25 218.196 27.538C218.172 27.826 218.152 28.09 218.136 28.33C218.128 28.658 218.112 29.058 218.088 29.53C218.072 29.994 218.056 30.482 218.04 30.994C218.032 31.506 218.02 32.01 218.004 32.506C217.996 33.002 217.992 33.434 217.992 33.802C217.992 34.202 218.064 34.522 218.208 34.762C218.36 34.994 218.56 35.162 218.808 35.266C219.056 35.362 219.336 35.41 219.648 35.41C220.144 35.41 220.596 35.346 221.004 35.218C221.412 35.082 221.784 34.902 222.12 34.678C222.456 34.454 222.756 34.194 223.02 33.898C223.292 33.602 223.536 33.29 223.752 32.962L224.844 34.282C224.652 34.57 224.4 34.874 224.088 35.194C223.776 35.514 223.404 35.814 222.972 36.094C222.548 36.374 222.056 36.602 221.496 36.778C220.936 36.954 220.316 37.042 219.636 37.042C218.98 37.042 218.408 36.938 217.92 36.73C217.44 36.53 217.064 36.218 216.792 35.794C216.528 35.362 216.396 34.806 216.396 34.126C216.396 33.798 216.4 33.426 216.408 33.01C216.416 32.586 216.428 32.146 216.444 31.69C216.46 31.234 216.472 30.79 216.48 30.358C216.488 29.918 216.496 29.522 216.504 29.17C216.512 28.818 216.516 28.538 216.516 28.33C216.516 28.042 216.504 27.762 216.48 27.49C216.456 27.21 216.416 26.95 216.36 26.71L218.292 26.734Z" fill="#595959"/>
<path d="M232.008 26.674C231.96 26.834 231.912 27.03 231.864 27.262C231.816 27.494 231.78 27.674 231.756 27.802C231.7 28.074 231.628 28.406 231.54 28.798C231.46 29.19 231.368 29.606 231.264 30.046C231.168 30.486 231.068 30.906 230.964 31.306C230.86 31.73 230.732 32.19 230.58 32.686C230.428 33.174 230.264 33.674 230.088 34.186C229.92 34.69 229.748 35.174 229.572 35.638C229.396 36.094 229.224 36.502 229.056 36.862L227.388 36.298C227.564 35.994 227.752 35.626 227.952 35.194C228.152 34.754 228.344 34.282 228.528 33.778C228.72 33.274 228.896 32.774 229.056 32.278C229.216 31.782 229.352 31.322 229.464 30.898C229.544 30.618 229.62 30.33 229.692 30.034C229.764 29.738 229.828 29.45 229.884 29.17C229.94 28.89 229.988 28.63 230.028 28.39C230.076 28.142 230.112 27.926 230.136 27.742C230.16 27.518 230.176 27.294 230.184 27.07C230.192 26.846 230.188 26.666 230.172 26.53L232.008 26.674ZM228.948 28.462C229.436 28.462 229.944 28.438 230.472 28.39C231 28.342 231.532 28.274 232.068 28.186C232.604 28.098 233.136 27.994 233.664 27.874V29.374C233.168 29.486 232.64 29.582 232.08 29.662C231.52 29.742 230.968 29.806 230.424 29.854C229.88 29.894 229.38 29.914 228.924 29.914C228.636 29.914 228.376 29.91 228.144 29.902C227.912 29.886 227.688 29.874 227.472 29.866L227.436 28.366C227.748 28.398 228.016 28.422 228.24 28.438C228.464 28.454 228.7 28.462 228.948 28.462ZM232.716 30.298C233.052 30.266 233.424 30.238 233.832 30.214C234.24 30.19 234.636 30.178 235.02 30.178C235.364 30.178 235.712 30.186 236.064 30.202C236.424 30.218 236.78 30.246 237.132 30.286L237.096 31.726C236.8 31.686 236.472 31.654 236.112 31.63C235.76 31.598 235.4 31.582 235.032 31.582C234.624 31.582 234.228 31.594 233.844 31.618C233.468 31.634 233.092 31.666 232.716 31.714V30.298ZM233.364 33.322C233.316 33.49 233.276 33.666 233.244 33.85C233.212 34.026 233.196 34.182 233.196 34.318C233.196 34.446 233.224 34.566 233.28 34.678C233.336 34.79 233.424 34.89 233.544 34.978C233.664 35.058 233.828 35.122 234.036 35.17C234.252 35.218 234.52 35.242 234.84 35.242C235.248 35.242 235.656 35.222 236.064 35.182C236.48 35.134 236.904 35.07 237.336 34.99L237.276 36.526C236.94 36.566 236.568 36.602 236.16 36.634C235.752 36.674 235.308 36.694 234.828 36.694C233.82 36.694 233.048 36.53 232.512 36.202C231.984 35.866 231.72 35.394 231.72 34.786C231.72 34.514 231.744 34.238 231.792 33.958C231.84 33.678 231.888 33.418 231.936 33.178L233.364 33.322Z" fill="#595959"/>
<path d="M241.92 27.67C241.888 27.814 241.86 27.978 241.836 28.162C241.82 28.346 241.804 28.526 241.788 28.702C241.78 28.878 241.776 29.022 241.776 29.134C241.768 29.398 241.764 29.67 241.764 29.95C241.772 30.23 241.78 30.518 241.788 30.814C241.804 31.102 241.824 31.39 241.848 31.678C241.904 32.254 241.984 32.762 242.088 33.202C242.192 33.642 242.328 33.986 242.496 34.234C242.664 34.474 242.876 34.594 243.132 34.594C243.268 34.594 243.4 34.518 243.528 34.366C243.664 34.214 243.784 34.018 243.888 33.778C244 33.53 244.096 33.27 244.176 32.998C244.264 32.726 244.34 32.47 244.404 32.23L245.604 33.694C245.34 34.39 245.076 34.946 244.812 35.362C244.556 35.77 244.288 36.066 244.008 36.25C243.728 36.426 243.424 36.514 243.096 36.514C242.664 36.514 242.252 36.37 241.86 36.082C241.476 35.794 241.148 35.33 240.876 34.69C240.604 34.042 240.412 33.182 240.3 32.11C240.26 31.742 240.228 31.354 240.204 30.946C240.188 30.538 240.176 30.15 240.168 29.782C240.168 29.414 240.168 29.11 240.168 28.87C240.168 28.702 240.16 28.502 240.144 28.27C240.128 28.038 240.104 27.83 240.072 27.646L241.92 27.67ZM247.92 27.946C248.144 28.218 248.36 28.55 248.568 28.942C248.776 29.334 248.968 29.754 249.144 30.202C249.32 30.65 249.476 31.11 249.612 31.582C249.748 32.046 249.856 32.502 249.936 32.95C250.024 33.39 250.08 33.794 250.104 34.162L248.52 34.774C248.48 34.286 248.408 33.754 248.304 33.178C248.2 32.602 248.06 32.022 247.884 31.438C247.708 30.854 247.496 30.302 247.248 29.782C247.008 29.262 246.724 28.814 246.396 28.438L247.92 27.946Z" fill="#595959"/>
<path d="M261.288 28.114C261.24 28.186 261.168 28.298 261.072 28.45C260.984 28.602 260.916 28.742 260.868 28.87C260.7 29.246 260.492 29.666 260.244 30.13C260.004 30.594 259.728 31.062 259.416 31.534C259.112 31.998 258.788 32.434 258.444 32.842C257.996 33.346 257.5 33.846 256.956 34.342C256.42 34.83 255.852 35.282 255.252 35.698C254.66 36.106 254.052 36.458 253.428 36.754L252.192 35.458C252.84 35.21 253.468 34.898 254.076 34.522C254.684 34.146 255.248 33.738 255.768 33.298C256.288 32.858 256.736 32.43 257.112 32.014C257.376 31.71 257.624 31.386 257.856 31.042C258.096 30.698 258.308 30.358 258.492 30.022C258.676 29.678 258.812 29.362 258.9 29.074C258.82 29.074 258.676 29.074 258.468 29.074C258.26 29.074 258.016 29.074 257.736 29.074C257.464 29.074 257.176 29.074 256.872 29.074C256.568 29.074 256.276 29.074 255.996 29.074C255.724 29.074 255.484 29.074 255.276 29.074C255.068 29.074 254.92 29.074 254.832 29.074C254.664 29.074 254.488 29.082 254.304 29.098C254.12 29.106 253.944 29.118 253.776 29.134C253.616 29.142 253.492 29.15 253.404 29.158V27.454C253.524 27.462 253.672 27.474 253.848 27.49C254.024 27.506 254.2 27.518 254.376 27.526C254.56 27.534 254.712 27.538 254.832 27.538C254.936 27.538 255.1 27.538 255.324 27.538C255.548 27.538 255.804 27.538 256.092 27.538C256.38 27.538 256.676 27.538 256.98 27.538C257.292 27.538 257.588 27.538 257.868 27.538C258.156 27.538 258.404 27.538 258.612 27.538C258.82 27.538 258.972 27.538 259.068 27.538C259.332 27.538 259.572 27.522 259.788 27.49C260.012 27.458 260.184 27.422 260.304 27.382L261.288 28.114ZM258.6 31.846C258.912 32.094 259.244 32.382 259.596 32.71C259.948 33.038 260.296 33.378 260.64 33.73C260.984 34.082 261.3 34.422 261.588 34.75C261.884 35.07 262.132 35.35 262.332 35.59L260.964 36.778C260.668 36.37 260.328 35.946 259.944 35.506C259.568 35.066 259.168 34.63 258.744 34.198C258.328 33.758 257.904 33.342 257.472 32.95L258.6 31.846Z" fill="#595959"/>
<path d="M268.128 27.682C268.096 27.506 268.056 27.346 268.008 27.202C267.968 27.058 267.928 26.914 267.888 26.77L269.58 26.494C269.596 26.614 269.612 26.766 269.628 26.95C269.652 27.126 269.68 27.286 269.712 27.43C269.728 27.542 269.764 27.75 269.82 28.054C269.876 28.358 269.944 28.726 270.024 29.158C270.104 29.59 270.192 30.058 270.288 30.562C270.392 31.058 270.492 31.562 270.588 32.074C270.684 32.578 270.776 33.058 270.864 33.514C270.96 33.97 271.04 34.374 271.104 34.726C271.176 35.078 271.228 35.338 271.26 35.506C271.3 35.682 271.348 35.874 271.404 36.082C271.46 36.29 271.516 36.49 271.572 36.682L269.832 36.994C269.8 36.77 269.776 36.554 269.76 36.346C269.744 36.146 269.716 35.958 269.676 35.782C269.644 35.622 269.596 35.378 269.532 35.05C269.476 34.714 269.404 34.322 269.316 33.874C269.236 33.426 269.148 32.95 269.052 32.446C268.956 31.942 268.86 31.438 268.764 30.934C268.668 30.43 268.576 29.958 268.488 29.518C268.408 29.078 268.336 28.698 268.272 28.378C268.208 28.05 268.16 27.818 268.128 27.682ZM264.852 29.206C265.044 29.198 265.232 29.19 265.416 29.182C265.6 29.166 265.784 29.146 265.968 29.122C266.144 29.098 266.392 29.066 266.712 29.026C267.032 28.978 267.4 28.926 267.816 28.87C268.232 28.806 268.66 28.738 269.1 28.666C269.548 28.594 269.98 28.526 270.396 28.462C270.812 28.39 271.18 28.326 271.5 28.27C271.828 28.214 272.084 28.17 272.268 28.138C272.46 28.098 272.66 28.058 272.868 28.018C273.076 27.97 273.252 27.926 273.396 27.886L273.684 29.458C273.556 29.466 273.384 29.486 273.168 29.518C272.952 29.55 272.756 29.578 272.58 29.602C272.364 29.634 272.08 29.678 271.728 29.734C271.384 29.79 271 29.854 270.576 29.926C270.152 29.99 269.72 30.058 269.28 30.13C268.84 30.194 268.42 30.262 268.02 30.334C267.62 30.398 267.268 30.454 266.964 30.502C266.66 30.55 266.432 30.586 266.28 30.61C266.088 30.65 265.908 30.69 265.74 30.73C265.572 30.762 265.384 30.806 265.176 30.862L264.852 29.206ZM264.864 32.734C265.024 32.726 265.224 32.71 265.464 32.686C265.712 32.654 265.928 32.626 266.112 32.602C266.328 32.57 266.616 32.526 266.976 32.47C267.336 32.414 267.74 32.35 268.188 32.278C268.644 32.206 269.112 32.134 269.592 32.062C270.072 31.982 270.54 31.902 270.996 31.822C271.452 31.742 271.868 31.67 272.244 31.606C272.62 31.542 272.924 31.49 273.156 31.45C273.388 31.402 273.608 31.354 273.816 31.306C274.032 31.258 274.22 31.21 274.38 31.162L274.704 32.746C274.544 32.754 274.348 32.778 274.116 32.818C273.892 32.85 273.664 32.886 273.432 32.926C273.176 32.966 272.856 33.018 272.472 33.082C272.088 33.146 271.664 33.218 271.2 33.298C270.744 33.37 270.276 33.446 269.796 33.526C269.316 33.598 268.856 33.674 268.416 33.754C267.976 33.826 267.58 33.89 267.228 33.946C266.876 34.002 266.6 34.05 266.4 34.09C266.144 34.138 265.912 34.182 265.704 34.222C265.504 34.262 265.336 34.302 265.2 34.342L264.864 32.734Z" fill="#595959"/>
<path d="M282.276 35.986C282.3 35.866 282.32 35.73 282.336 35.578C282.36 35.418 282.372 35.258 282.372 35.098C282.372 35.01 282.372 34.834 282.372 34.57C282.372 34.306 282.372 33.986 282.372 33.61C282.372 33.234 282.372 32.83 282.372 32.398C282.372 31.958 282.372 31.514 282.372 31.066C282.372 30.618 282.372 30.198 282.372 29.806C282.372 29.406 282.372 29.058 282.372 28.762C282.372 28.458 282.372 28.238 282.372 28.102C282.372 27.83 282.356 27.594 282.324 27.394C282.3 27.194 282.284 27.086 282.276 27.07H284.064C284.056 27.086 284.04 27.198 284.016 27.406C283.992 27.606 283.98 27.842 283.98 28.114C283.98 28.25 283.98 28.454 283.98 28.726C283.98 28.99 283.98 29.298 283.98 29.65C283.98 29.994 283.98 30.362 283.98 30.754C283.98 31.146 283.98 31.534 283.98 31.918C283.98 32.294 283.98 32.654 283.98 32.998C283.98 33.334 283.98 33.622 283.98 33.862C283.98 34.102 283.98 34.278 283.98 34.39C284.308 34.246 284.648 34.05 285 33.802C285.352 33.554 285.696 33.266 286.032 32.938C286.376 32.602 286.68 32.242 286.944 31.858L287.868 33.178C287.54 33.61 287.14 34.034 286.668 34.45C286.204 34.866 285.724 35.246 285.228 35.59C284.732 35.934 284.256 36.222 283.8 36.454C283.672 36.526 283.568 36.59 283.488 36.646C283.408 36.71 283.34 36.766 283.284 36.814L282.276 35.986ZM276.72 35.806C277.248 35.438 277.68 34.994 278.016 34.474C278.352 33.954 278.6 33.442 278.76 32.938C278.848 32.674 278.912 32.35 278.952 31.966C279 31.574 279.036 31.158 279.06 30.718C279.084 30.27 279.096 29.83 279.096 29.398C279.104 28.958 279.108 28.554 279.108 28.186C279.108 27.946 279.096 27.742 279.072 27.574C279.056 27.398 279.032 27.234 279 27.082H280.764C280.756 27.098 280.744 27.166 280.728 27.286C280.72 27.398 280.708 27.534 280.692 27.694C280.684 27.846 280.68 28.006 280.68 28.174C280.68 28.526 280.676 28.938 280.668 29.41C280.66 29.874 280.644 30.35 280.62 30.838C280.596 31.326 280.56 31.79 280.512 32.23C280.464 32.662 280.4 33.03 280.32 33.334C280.136 34.014 279.86 34.646 279.492 35.23C279.132 35.806 278.696 36.322 278.184 36.778L276.72 35.806Z" fill="#595959"/>
<path d="M294.552 26.626C294.512 26.842 294.448 27.122 294.36 27.466C294.272 27.81 294.144 28.198 293.976 28.63C293.848 28.926 293.7 29.234 293.532 29.554C293.372 29.866 293.208 30.146 293.04 30.394C293.144 30.346 293.276 30.306 293.436 30.274C293.596 30.234 293.76 30.206 293.928 30.19C294.104 30.166 294.26 30.154 294.396 30.154C294.9 30.154 295.316 30.298 295.644 30.586C295.98 30.874 296.148 31.302 296.148 31.87C296.148 32.03 296.148 32.226 296.148 32.458C296.156 32.69 296.164 32.934 296.172 33.19C296.18 33.438 296.188 33.682 296.196 33.922C296.204 34.162 296.208 34.378 296.208 34.57H294.768C294.784 34.434 294.792 34.274 294.792 34.09C294.8 33.898 294.804 33.698 294.804 33.49C294.812 33.282 294.816 33.082 294.816 32.89C294.824 32.69 294.828 32.51 294.828 32.35C294.828 31.966 294.724 31.702 294.516 31.558C294.316 31.406 294.092 31.33 293.844 31.33C293.508 31.33 293.168 31.414 292.824 31.582C292.488 31.742 292.204 31.934 291.972 32.158C291.796 32.334 291.616 32.53 291.432 32.746C291.256 32.962 291.064 33.206 290.856 33.478L289.572 32.518C290.092 32.038 290.54 31.574 290.916 31.126C291.3 30.678 291.624 30.234 291.888 29.794C292.152 29.354 292.368 28.914 292.536 28.474C292.656 28.154 292.752 27.822 292.824 27.478C292.904 27.126 292.952 26.798 292.968 26.494L294.552 26.626ZM290.04 27.73C290.344 27.778 290.696 27.814 291.096 27.838C291.496 27.862 291.848 27.874 292.152 27.874C292.68 27.874 293.256 27.862 293.88 27.838C294.512 27.814 295.152 27.774 295.8 27.718C296.448 27.654 297.064 27.574 297.648 27.478L297.636 28.87C297.212 28.926 296.752 28.978 296.256 29.026C295.768 29.066 295.268 29.102 294.756 29.134C294.252 29.158 293.768 29.178 293.304 29.194C292.84 29.202 292.428 29.206 292.068 29.206C291.908 29.206 291.708 29.206 291.468 29.206C291.236 29.198 290.996 29.19 290.748 29.182C290.5 29.166 290.264 29.15 290.04 29.134V27.73ZM299.544 31.138C299.416 31.178 299.264 31.23 299.088 31.294C298.92 31.35 298.748 31.41 298.572 31.474C298.404 31.53 298.252 31.586 298.116 31.642C297.732 31.794 297.276 31.978 296.748 32.194C296.228 32.41 295.684 32.662 295.116 32.95C294.756 33.142 294.452 33.33 294.204 33.514C293.956 33.698 293.768 33.886 293.64 34.078C293.512 34.262 293.448 34.466 293.448 34.69C293.448 34.858 293.484 34.998 293.556 35.11C293.628 35.214 293.736 35.298 293.88 35.362C294.024 35.426 294.204 35.47 294.42 35.494C294.636 35.518 294.892 35.53 295.188 35.53C295.7 35.53 296.264 35.502 296.88 35.446C297.496 35.382 298.068 35.298 298.596 35.194L298.548 36.742C298.292 36.774 297.968 36.806 297.576 36.838C297.184 36.878 296.776 36.906 296.352 36.922C295.936 36.938 295.536 36.946 295.152 36.946C294.528 36.946 293.968 36.886 293.472 36.766C292.976 36.646 292.584 36.442 292.296 36.154C292.016 35.858 291.876 35.454 291.876 34.942C291.876 34.526 291.968 34.15 292.152 33.814C292.344 33.478 292.596 33.174 292.908 32.902C293.22 32.63 293.56 32.386 293.928 32.17C294.304 31.946 294.672 31.742 295.032 31.558C295.4 31.366 295.732 31.202 296.028 31.066C296.324 30.93 296.6 30.81 296.856 30.706C297.12 30.594 297.372 30.482 297.612 30.37C297.844 30.266 298.068 30.166 298.284 30.07C298.5 29.966 298.72 29.858 298.944 29.746L299.544 31.138Z" fill="#595959"/>
<path d="M96.4 49.562H102.28V50.846H96.4V49.562ZM98.668 48.122H100.072V50.102H98.668V48.122ZM97.588 51.11L98.932 51.446C98.732 51.966 98.472 52.474 98.152 52.97C97.832 53.458 97.496 53.866 97.144 54.194C97.064 54.114 96.956 54.022 96.82 53.918C96.692 53.806 96.556 53.698 96.412 53.594C96.276 53.49 96.156 53.406 96.052 53.342C96.38 53.07 96.676 52.734 96.94 52.334C97.212 51.934 97.428 51.526 97.588 51.11ZM99.832 53.102L101.26 53.402C100.868 54.714 100.32 55.874 99.616 56.882C98.912 57.882 98.064 58.69 97.072 59.306C97.008 59.202 96.916 59.074 96.796 58.922C96.684 58.778 96.564 58.634 96.436 58.49C96.308 58.346 96.196 58.234 96.1 58.154C97.036 57.642 97.816 56.958 98.44 56.102C99.072 55.238 99.536 54.238 99.832 53.102ZM99.88 51.506L100.996 50.954C101.188 51.17 101.376 51.41 101.56 51.674C101.752 51.938 101.924 52.198 102.076 52.454C102.228 52.71 102.34 52.946 102.412 53.162L101.212 53.798C101.148 53.582 101.044 53.342 100.9 53.078C100.764 52.814 100.604 52.546 100.42 52.274C100.244 51.994 100.064 51.738 99.88 51.506ZM97.336 54.578L98.164 53.57C98.58 53.874 99.02 54.214 99.484 54.59C99.956 54.966 100.392 55.346 100.792 55.73C101.192 56.106 101.512 56.454 101.752 56.774L100.84 57.962C100.616 57.634 100.308 57.27 99.916 56.87C99.532 56.47 99.112 56.07 98.656 55.67C98.208 55.27 97.768 54.906 97.336 54.578ZM102.196 50.702H106.396V52.058H102.196V50.702ZM105.856 50.702H107.2C107.2 50.702 107.2 50.742 107.2 50.822C107.2 50.902 107.2 50.994 107.2 51.098C107.2 51.194 107.196 51.274 107.188 51.338C107.164 52.578 107.136 53.63 107.104 54.494C107.08 55.358 107.048 56.07 107.008 56.63C106.968 57.182 106.916 57.614 106.852 57.926C106.788 58.238 106.708 58.462 106.612 58.598C106.476 58.798 106.332 58.938 106.18 59.018C106.036 59.106 105.864 59.166 105.664 59.198C105.472 59.23 105.24 59.246 104.968 59.246C104.696 59.254 104.416 59.254 104.128 59.246C104.12 59.054 104.076 58.826 103.996 58.562C103.924 58.306 103.832 58.086 103.72 57.902C103.992 57.918 104.24 57.93 104.464 57.938C104.688 57.946 104.86 57.95 104.98 57.95C105.076 57.95 105.156 57.938 105.22 57.914C105.292 57.882 105.356 57.826 105.412 57.746C105.476 57.658 105.532 57.474 105.58 57.194C105.628 56.914 105.668 56.514 105.7 55.994C105.732 55.474 105.76 54.806 105.784 53.99C105.816 53.166 105.84 52.17 105.856 51.002V50.702ZM103.384 48.218H104.764C104.756 49.194 104.74 50.13 104.716 51.026C104.7 51.922 104.648 52.774 104.56 53.582C104.48 54.382 104.348 55.138 104.164 55.85C103.988 56.554 103.74 57.202 103.42 57.794C103.1 58.378 102.688 58.902 102.184 59.366C102.08 59.198 101.928 59.006 101.728 58.79C101.528 58.582 101.34 58.426 101.164 58.322C101.628 57.906 102 57.438 102.28 56.918C102.568 56.398 102.788 55.822 102.94 55.19C103.092 54.55 103.196 53.866 103.252 53.138C103.316 52.41 103.352 51.634 103.36 50.81C103.376 49.986 103.384 49.122 103.384 48.218Z" fill="#595959"/>
<path d="M113.56 48.062H115.048V49.742H113.56V48.062ZM113.56 55.082H115.048V59.33H113.56V55.082ZM108.928 55.85H119.776V57.182H108.928V55.85ZM109.324 49.226H119.404V50.534H109.324V49.226ZM118.192 50.678L119.476 51.29C119.172 51.57 118.856 51.842 118.528 52.106C118.2 52.362 117.9 52.586 117.628 52.778L116.572 52.214C116.756 52.078 116.944 51.922 117.136 51.746C117.336 51.57 117.528 51.39 117.712 51.206C117.904 51.014 118.064 50.838 118.192 50.678ZM113.452 50.162L114.664 50.618C114.424 50.93 114.176 51.242 113.92 51.554C113.672 51.866 113.444 52.13 113.236 52.346L112.336 51.95C112.464 51.782 112.596 51.594 112.732 51.386C112.868 51.178 113 50.966 113.128 50.75C113.256 50.534 113.364 50.338 113.452 50.162ZM115.252 51.038L116.368 51.554C116.04 51.938 115.68 52.338 115.288 52.754C114.896 53.162 114.504 53.554 114.112 53.93C113.72 54.298 113.348 54.622 112.996 54.902L112.156 54.434C112.508 54.138 112.872 53.798 113.248 53.414C113.632 53.022 114 52.618 114.352 52.202C114.704 51.786 115.004 51.398 115.252 51.038ZM111.736 52.082L112.408 51.266C112.64 51.402 112.888 51.558 113.152 51.734C113.416 51.91 113.668 52.086 113.908 52.262C114.148 52.43 114.344 52.586 114.496 52.73L113.788 53.666C113.644 53.514 113.456 53.346 113.224 53.162C112.992 52.97 112.744 52.782 112.48 52.598C112.216 52.406 111.968 52.234 111.736 52.082ZM111.628 54.002C112.028 53.986 112.484 53.97 112.996 53.954C113.508 53.93 114.052 53.906 114.628 53.882C115.204 53.85 115.784 53.822 116.368 53.798L116.356 54.818C115.556 54.882 114.76 54.946 113.968 55.01C113.176 55.074 112.464 55.126 111.832 55.166L111.628 54.002ZM114.928 53.198L115.948 52.766C116.124 52.99 116.296 53.234 116.464 53.498C116.64 53.754 116.8 54.01 116.944 54.266C117.088 54.522 117.192 54.754 117.256 54.962L116.176 55.454C116.112 55.246 116.012 55.014 115.876 54.758C115.748 54.494 115.6 54.226 115.432 53.954C115.272 53.674 115.104 53.422 114.928 53.198ZM108.796 54.218C109.18 54.098 109.64 53.934 110.176 53.726C110.72 53.518 111.272 53.31 111.832 53.102L112.084 54.158C111.652 54.374 111.204 54.59 110.74 54.806C110.284 55.022 109.864 55.214 109.48 55.382L108.796 54.218ZM109.156 51.566L110.116 50.798C110.324 50.91 110.544 51.042 110.776 51.194C111.016 51.338 111.24 51.486 111.448 51.638C111.664 51.79 111.84 51.93 111.976 52.058L110.968 52.91C110.848 52.782 110.684 52.638 110.476 52.478C110.276 52.318 110.06 52.158 109.828 51.998C109.596 51.838 109.372 51.694 109.156 51.566ZM116.308 53.798L117.292 53.006C117.564 53.142 117.86 53.302 118.18 53.486C118.5 53.67 118.804 53.858 119.092 54.05C119.38 54.234 119.62 54.402 119.812 54.554L118.768 55.43C118.6 55.27 118.376 55.094 118.096 54.902C117.816 54.71 117.52 54.514 117.208 54.314C116.896 54.114 116.596 53.942 116.308 53.798Z" fill="#595959"/>
<path d="M122.536 50.006H126.22V58.082H122.536V56.822H124.924V51.254H122.536V50.006ZM121.696 50.006H123.004V58.97H121.696V50.006ZM122.488 53.21H125.548V54.458H122.488V53.21ZM123.412 48.05L124.972 48.278C124.844 48.686 124.704 49.09 124.552 49.49C124.408 49.89 124.276 50.23 124.156 50.51L123.004 50.246C123.06 50.038 123.112 49.806 123.16 49.55C123.216 49.294 123.268 49.034 123.316 48.77C123.364 48.506 123.396 48.266 123.412 48.05ZM127.804 49.91H131.32V51.23H127.804V49.91ZM130.816 49.91H132.148C132.148 49.91 132.148 49.954 132.148 50.042C132.148 50.122 132.148 50.214 132.148 50.318C132.148 50.422 132.144 50.502 132.136 50.558C132.104 51.91 132.064 53.058 132.016 54.002C131.976 54.938 131.924 55.714 131.86 56.33C131.804 56.938 131.736 57.414 131.656 57.758C131.576 58.102 131.472 58.354 131.344 58.514C131.184 58.746 131.012 58.906 130.828 58.994C130.644 59.082 130.432 59.146 130.192 59.186C129.96 59.218 129.672 59.23 129.328 59.222C128.992 59.222 128.648 59.218 128.296 59.21C128.288 59.01 128.24 58.774 128.152 58.502C128.064 58.238 127.956 58.006 127.828 57.806C128.212 57.838 128.568 57.858 128.896 57.866C129.232 57.874 129.476 57.878 129.628 57.878C129.748 57.878 129.844 57.866 129.916 57.842C129.996 57.81 130.072 57.754 130.144 57.674C130.248 57.57 130.332 57.358 130.396 57.038C130.468 56.71 130.528 56.25 130.576 55.658C130.624 55.066 130.668 54.318 130.708 53.414C130.748 52.51 130.784 51.434 130.816 50.186V49.91ZM127.84 48.062L129.232 48.386C129.08 48.97 128.892 49.554 128.668 50.138C128.452 50.722 128.212 51.274 127.948 51.794C127.692 52.306 127.428 52.754 127.156 53.138C127.076 53.058 126.96 52.966 126.808 52.862C126.664 52.75 126.516 52.642 126.364 52.538C126.22 52.434 126.092 52.354 125.98 52.298C126.244 51.954 126.492 51.558 126.724 51.11C126.964 50.654 127.176 50.166 127.36 49.646C127.552 49.118 127.712 48.59 127.84 48.062ZM127.252 53.378L128.38 52.742C128.58 53.014 128.792 53.314 129.016 53.642C129.24 53.97 129.452 54.29 129.652 54.602C129.852 54.914 130.016 55.19 130.144 55.43L128.92 56.174C128.808 55.926 128.656 55.642 128.464 55.322C128.28 55.002 128.08 54.674 127.864 54.338C127.656 53.994 127.452 53.674 127.252 53.378Z" fill="#595959"/>
<path d="M138.676 49.862C139.044 49.91 139.456 49.946 139.912 49.97C140.376 49.986 140.844 49.994 141.316 49.994C141.796 49.986 142.256 49.97 142.696 49.946C143.136 49.914 143.516 49.882 143.836 49.85V51.398C143.468 51.43 143.064 51.458 142.624 51.482C142.184 51.498 141.732 51.506 141.268 51.506C140.804 51.506 140.348 51.498 139.9 51.482C139.46 51.458 139.052 51.43 138.676 51.398V49.862ZM139.636 54.986C139.588 55.186 139.552 55.366 139.528 55.526C139.504 55.678 139.492 55.834 139.492 55.994C139.492 56.122 139.524 56.242 139.588 56.354C139.652 56.458 139.748 56.55 139.876 56.63C140.012 56.702 140.184 56.758 140.392 56.798C140.608 56.83 140.868 56.846 141.172 56.846C141.708 56.846 142.212 56.822 142.684 56.774C143.156 56.718 143.656 56.638 144.184 56.534L144.208 58.154C143.824 58.226 143.38 58.282 142.876 58.322C142.38 58.362 141.792 58.382 141.112 58.382C140.08 58.382 139.312 58.21 138.808 57.866C138.304 57.514 138.052 57.03 138.052 56.414C138.052 56.182 138.068 55.942 138.1 55.694C138.14 55.438 138.192 55.158 138.256 54.854L139.636 54.986ZM136.828 49.058C136.796 49.138 136.76 49.25 136.72 49.394C136.68 49.538 136.64 49.678 136.6 49.814C136.568 49.95 136.544 50.054 136.528 50.126C136.504 50.294 136.464 50.514 136.408 50.786C136.36 51.05 136.308 51.35 136.252 51.686C136.204 52.014 136.156 52.35 136.108 52.694C136.06 53.038 136.02 53.37 135.988 53.69C135.964 54.01 135.952 54.29 135.952 54.53C135.952 54.642 135.952 54.77 135.952 54.914C135.96 55.058 135.976 55.19 136 55.31C136.056 55.174 136.116 55.038 136.18 54.902C136.244 54.766 136.308 54.63 136.372 54.494C136.436 54.35 136.492 54.214 136.54 54.086L137.284 54.674C137.172 55.002 137.056 55.354 136.936 55.73C136.824 56.106 136.72 56.462 136.624 56.798C136.536 57.126 136.468 57.398 136.42 57.614C136.404 57.702 136.388 57.802 136.372 57.914C136.364 58.026 136.36 58.114 136.36 58.178C136.36 58.242 136.36 58.318 136.36 58.406C136.368 58.502 136.376 58.59 136.384 58.67L134.992 58.766C134.872 58.35 134.764 57.798 134.668 57.11C134.572 56.414 134.524 55.658 134.524 54.842C134.524 54.394 134.544 53.938 134.584 53.474C134.624 53.01 134.672 52.566 134.728 52.142C134.784 51.71 134.836 51.318 134.884 50.966C134.94 50.614 134.988 50.322 135.028 50.09C135.044 49.922 135.064 49.734 135.088 49.526C135.12 49.31 135.14 49.106 135.148 48.914L136.828 49.058Z" fill="#595959"/>
<path d="M148.576 52.154H154.108V53.402H148.576V52.154ZM146.428 54.854H157.168V56.174H146.428V54.854ZM151.048 54.074H152.524V57.782C152.524 58.15 152.472 58.438 152.368 58.646C152.264 58.854 152.068 59.01 151.78 59.114C151.492 59.218 151.156 59.282 150.772 59.306C150.388 59.33 149.94 59.342 149.428 59.342C149.38 59.134 149.296 58.894 149.176 58.622C149.064 58.358 148.952 58.13 148.84 57.938C149.096 57.946 149.356 57.954 149.62 57.962C149.884 57.97 150.116 57.974 150.316 57.974C150.524 57.974 150.668 57.97 150.748 57.962C150.868 57.962 150.948 57.946 150.988 57.914C151.028 57.882 151.048 57.826 151.048 57.746V54.074ZM153.652 52.154H154L154.312 52.082L155.212 52.778C154.948 53.074 154.64 53.37 154.288 53.666C153.936 53.962 153.568 54.242 153.184 54.506C152.8 54.762 152.412 54.986 152.02 55.178C151.932 55.05 151.808 54.906 151.648 54.746C151.496 54.578 151.368 54.442 151.264 54.338C151.576 54.178 151.884 53.986 152.188 53.762C152.5 53.538 152.784 53.31 153.04 53.078C153.296 52.838 153.5 52.622 153.652 52.43V52.154ZM146.584 49.958H157.036V52.898H155.62V51.23H147.928V52.898H146.584V49.958ZM154.888 48.134L156.448 48.59C156.176 48.99 155.892 49.382 155.596 49.766C155.3 50.15 155.032 50.474 154.792 50.738L153.604 50.306C153.764 50.098 153.92 49.87 154.072 49.622C154.232 49.374 154.384 49.122 154.528 48.866C154.672 48.602 154.792 48.358 154.888 48.134ZM147.388 48.722L148.612 48.17C148.828 48.41 149.04 48.678 149.248 48.974C149.456 49.262 149.608 49.522 149.704 49.754L148.408 50.366C148.32 50.142 148.176 49.878 147.976 49.574C147.784 49.262 147.588 48.978 147.388 48.722ZM150.4 48.458L151.672 47.99C151.864 48.246 152.048 48.538 152.224 48.866C152.408 49.194 152.54 49.482 152.62 49.73L151.264 50.258C151.2 50.018 151.084 49.73 150.916 49.394C150.756 49.05 150.584 48.738 150.4 48.458Z" fill="#595959"/>
<path d="M166.948 49.262C167.004 49.638 167.084 50.038 167.188 50.462C167.3 50.878 167.448 51.306 167.632 51.746C167.824 52.186 168.072 52.626 168.376 53.066C168.68 53.506 169.06 53.938 169.516 54.362L168.544 55.742C168.104 55.254 167.7 54.71 167.332 54.11C166.972 53.502 166.636 52.83 166.324 52.094C166.012 51.358 165.716 50.554 165.436 49.682L166.948 49.262ZM159.052 49.862C159.268 49.878 159.492 49.878 159.724 49.862C160.012 49.846 160.34 49.822 160.708 49.79C161.076 49.75 161.448 49.706 161.824 49.658C162.2 49.602 162.548 49.542 162.868 49.478C163.188 49.406 163.448 49.334 163.648 49.262L164.104 50.594C164.016 50.626 163.916 50.666 163.804 50.714C163.692 50.754 163.588 50.802 163.492 50.858C163.332 50.978 163.144 51.15 162.928 51.374C162.72 51.59 162.504 51.846 162.28 52.142C162.064 52.438 161.864 52.77 161.68 53.138C161.496 53.498 161.344 53.89 161.224 54.314C161.112 54.73 161.056 55.17 161.056 55.634C161.056 55.986 161.108 56.286 161.212 56.534C161.324 56.782 161.472 56.982 161.656 57.134C161.84 57.286 162.06 57.402 162.316 57.482C162.572 57.554 162.84 57.59 163.12 57.59C164.032 57.59 164.728 57.278 165.208 56.654C165.696 56.03 165.968 55.15 166.024 54.014C166.088 52.87 165.944 51.538 165.592 50.018L166.996 52.31C167.124 52.958 167.196 53.61 167.212 54.266C167.236 54.914 167.184 55.534 167.056 56.126C166.928 56.718 166.704 57.246 166.384 57.71C166.064 58.174 165.632 58.538 165.088 58.802C164.552 59.066 163.888 59.198 163.096 59.198C162.608 59.198 162.148 59.13 161.716 58.994C161.292 58.866 160.912 58.666 160.576 58.394C160.248 58.13 159.988 57.798 159.796 57.398C159.612 56.99 159.52 56.514 159.52 55.97C159.52 55.482 159.568 55.022 159.664 54.59C159.76 54.158 159.892 53.75 160.06 53.366C160.236 52.974 160.44 52.594 160.672 52.226C160.912 51.858 161.168 51.494 161.44 51.134C161.296 51.142 161.12 51.158 160.912 51.182C160.712 51.206 160.516 51.23 160.324 51.254C160.14 51.278 159.988 51.298 159.868 51.314C159.748 51.33 159.632 51.346 159.52 51.362C159.416 51.378 159.296 51.398 159.16 51.422L159.052 49.862ZM168.028 48.602C168.1 48.762 168.18 48.946 168.268 49.154C168.356 49.362 168.44 49.57 168.52 49.778C168.6 49.978 168.668 50.162 168.724 50.33L167.824 50.63C167.76 50.438 167.688 50.242 167.608 50.042C167.536 49.834 167.46 49.63 167.38 49.43C167.3 49.23 167.216 49.046 167.128 48.878L168.028 48.602ZM169.312 48.146C169.448 48.394 169.58 48.686 169.708 49.022C169.844 49.35 169.96 49.634 170.056 49.874L169.156 50.174C169.06 49.902 168.948 49.61 168.82 49.298C168.7 48.978 168.576 48.694 168.448 48.446L169.312 48.146Z" fill="#595959"/>
<path d="M171.736 50.39C171.992 50.422 172.264 50.446 172.552 50.462C172.848 50.47 173.108 50.474 173.332 50.474C173.828 50.474 174.328 50.446 174.832 50.39C175.344 50.334 175.836 50.262 176.308 50.174C176.78 50.078 177.208 49.97 177.592 49.85L177.64 51.242C177.296 51.33 176.884 51.422 176.404 51.518C175.932 51.606 175.432 51.682 174.904 51.746C174.376 51.802 173.856 51.83 173.344 51.83C173.104 51.83 172.86 51.826 172.612 51.818C172.364 51.81 172.108 51.798 171.844 51.782L171.736 50.39ZM176.404 48.59C176.356 48.79 176.292 49.05 176.212 49.37C176.132 49.69 176.04 50.026 175.936 50.378C175.84 50.73 175.736 51.078 175.624 51.422C175.448 51.998 175.216 52.61 174.928 53.258C174.64 53.906 174.328 54.538 173.992 55.154C173.656 55.77 173.316 56.318 172.972 56.798L171.52 56.054C171.792 55.718 172.06 55.346 172.324 54.938C172.588 54.53 172.836 54.11 173.068 53.678C173.3 53.246 173.508 52.83 173.692 52.43C173.884 52.022 174.036 51.654 174.148 51.326C174.3 50.902 174.432 50.43 174.544 49.91C174.664 49.382 174.732 48.886 174.748 48.422L176.404 48.59ZM179.212 52.322C179.196 52.578 179.188 52.834 179.188 53.09C179.196 53.338 179.204 53.594 179.212 53.858C179.22 54.042 179.228 54.278 179.236 54.566C179.252 54.846 179.268 55.146 179.284 55.466C179.3 55.778 179.312 56.078 179.32 56.366C179.336 56.646 179.344 56.87 179.344 57.038C179.344 57.406 179.268 57.742 179.116 58.046C178.964 58.342 178.72 58.578 178.384 58.754C178.056 58.93 177.604 59.018 177.028 59.018C176.532 59.018 176.084 58.942 175.684 58.79C175.284 58.646 174.964 58.43 174.724 58.142C174.484 57.846 174.364 57.478 174.364 57.038C174.364 56.646 174.468 56.294 174.676 55.982C174.884 55.662 175.184 55.414 175.576 55.238C175.976 55.054 176.456 54.962 177.016 54.962C177.72 54.962 178.368 55.062 178.96 55.262C179.552 55.454 180.084 55.702 180.556 56.006C181.028 56.31 181.432 56.614 181.768 56.918L180.964 58.202C180.748 58.01 180.5 57.794 180.22 57.554C179.948 57.314 179.64 57.09 179.296 56.882C178.96 56.674 178.592 56.502 178.192 56.366C177.8 56.23 177.376 56.162 176.92 56.162C176.576 56.162 176.3 56.23 176.092 56.366C175.884 56.502 175.78 56.678 175.78 56.894C175.78 57.118 175.868 57.298 176.044 57.434C176.228 57.57 176.484 57.638 176.812 57.638C177.084 57.638 177.3 57.594 177.46 57.506C177.62 57.41 177.732 57.278 177.796 57.11C177.86 56.934 177.892 56.738 177.892 56.522C177.892 56.338 177.884 56.078 177.868 55.742C177.852 55.406 177.832 55.034 177.808 54.626C177.792 54.218 177.776 53.81 177.76 53.402C177.744 52.994 177.728 52.634 177.712 52.322H179.212ZM181.276 52.958C181.044 52.766 180.756 52.562 180.412 52.346C180.068 52.13 179.712 51.926 179.344 51.734C178.984 51.534 178.668 51.374 178.396 51.254L179.164 50.066C179.38 50.162 179.624 50.282 179.896 50.426C180.176 50.562 180.456 50.706 180.736 50.858C181.024 51.01 181.288 51.162 181.528 51.314C181.776 51.458 181.976 51.586 182.128 51.698L181.276 52.958Z" fill="#595959"/>
<path d="M188.68 48.854C188.648 49.006 188.612 49.174 188.572 49.358C188.532 49.534 188.496 49.698 188.464 49.85C188.432 50.026 188.392 50.226 188.344 50.45C188.296 50.666 188.248 50.886 188.2 51.11C188.16 51.326 188.116 51.538 188.068 51.746C187.988 52.09 187.888 52.49 187.768 52.946C187.648 53.402 187.508 53.894 187.348 54.422C187.188 54.942 187.008 55.466 186.808 55.994C186.608 56.522 186.396 57.038 186.172 57.542C185.948 58.038 185.708 58.486 185.452 58.886L183.892 58.262C184.172 57.886 184.432 57.466 184.672 57.002C184.92 56.53 185.144 56.05 185.344 55.562C185.544 55.066 185.72 54.578 185.872 54.098C186.032 53.61 186.168 53.158 186.28 52.742C186.4 52.326 186.492 51.97 186.556 51.674C186.668 51.13 186.756 50.606 186.82 50.102C186.884 49.598 186.908 49.122 186.892 48.674L188.68 48.854ZM192.808 50.066C193 50.33 193.196 50.654 193.396 51.038C193.604 51.414 193.808 51.814 194.008 52.238C194.208 52.662 194.388 53.07 194.548 53.462C194.708 53.854 194.832 54.194 194.92 54.482L193.396 55.178C193.324 54.842 193.216 54.47 193.072 54.062C192.936 53.654 192.776 53.242 192.592 52.826C192.408 52.402 192.212 52.002 192.004 51.626C191.804 51.25 191.596 50.934 191.38 50.678L192.808 50.066ZM183.808 51.314C184.024 51.33 184.236 51.338 184.444 51.338C184.66 51.33 184.876 51.322 185.092 51.314C185.292 51.306 185.532 51.294 185.812 51.278C186.092 51.254 186.388 51.23 186.7 51.206C187.02 51.182 187.34 51.158 187.66 51.134C187.98 51.102 188.276 51.078 188.548 51.062C188.82 51.046 189.044 51.038 189.22 51.038C189.652 51.038 190.028 51.11 190.348 51.254C190.668 51.39 190.92 51.626 191.104 51.962C191.296 52.298 191.392 52.754 191.392 53.33C191.392 53.802 191.372 54.314 191.332 54.866C191.292 55.418 191.22 55.946 191.116 56.45C191.02 56.954 190.884 57.382 190.708 57.734C190.516 58.15 190.252 58.438 189.916 58.598C189.588 58.758 189.196 58.838 188.74 58.838C188.516 58.838 188.272 58.818 188.008 58.778C187.744 58.746 187.508 58.71 187.3 58.67L187.048 57.086C187.2 57.126 187.368 57.166 187.552 57.206C187.744 57.246 187.924 57.278 188.092 57.302C188.268 57.326 188.408 57.338 188.512 57.338C188.712 57.338 188.888 57.302 189.04 57.23C189.192 57.15 189.316 57.014 189.412 56.822C189.524 56.59 189.616 56.29 189.688 55.922C189.76 55.554 189.812 55.158 189.844 54.734C189.884 54.302 189.904 53.89 189.904 53.498C189.904 53.178 189.856 52.942 189.76 52.79C189.672 52.638 189.54 52.538 189.364 52.49C189.196 52.434 188.988 52.406 188.74 52.406C188.556 52.406 188.308 52.422 187.996 52.454C187.684 52.478 187.348 52.51 186.988 52.55C186.636 52.582 186.308 52.618 186.004 52.658C185.7 52.698 185.464 52.726 185.296 52.742C185.12 52.774 184.896 52.81 184.624 52.85C184.36 52.882 184.136 52.914 183.952 52.946L183.808 51.314ZM192.592 48.398C192.696 48.542 192.804 48.714 192.916 48.914C193.036 49.114 193.152 49.314 193.264 49.514C193.376 49.714 193.472 49.89 193.552 50.042L192.58 50.462C192.5 50.294 192.408 50.11 192.304 49.91C192.2 49.71 192.092 49.51 191.98 49.31C191.868 49.11 191.756 48.938 191.644 48.794L192.592 48.398ZM194.02 47.858C194.124 48.01 194.236 48.186 194.356 48.386C194.476 48.586 194.592 48.786 194.704 48.986C194.824 49.186 194.916 49.354 194.98 49.49L194.032 49.898C193.904 49.65 193.752 49.37 193.576 49.058C193.4 48.738 193.228 48.466 193.06 48.242L194.02 47.858Z" fill="#595959"/>
<path d="M199.708 48.59C199.996 48.678 200.356 48.77 200.788 48.866C201.22 48.962 201.672 49.058 202.144 49.154C202.616 49.242 203.06 49.318 203.476 49.382C203.9 49.446 204.244 49.494 204.508 49.526L204.148 50.99C203.908 50.958 203.616 50.914 203.272 50.858C202.936 50.794 202.576 50.726 202.192 50.654C201.816 50.582 201.444 50.51 201.076 50.438C200.708 50.358 200.372 50.282 200.068 50.21C199.764 50.138 199.516 50.078 199.324 50.03L199.708 48.59ZM199.78 51.002C199.74 51.162 199.696 51.37 199.648 51.626C199.608 51.874 199.568 52.134 199.528 52.406C199.488 52.678 199.448 52.938 199.408 53.186C199.376 53.434 199.348 53.642 199.324 53.81C199.868 53.418 200.436 53.13 201.028 52.946C201.628 52.762 202.24 52.67 202.864 52.67C203.568 52.67 204.168 52.798 204.664 53.054C205.16 53.31 205.536 53.646 205.792 54.062C206.056 54.478 206.188 54.93 206.188 55.418C206.188 55.962 206.072 56.466 205.84 56.93C205.608 57.394 205.228 57.79 204.7 58.118C204.172 58.446 203.48 58.678 202.624 58.814C201.768 58.95 200.716 58.966 199.468 58.862L199.012 57.29C200.212 57.45 201.22 57.474 202.036 57.362C202.852 57.242 203.468 57.01 203.884 56.666C204.308 56.314 204.52 55.886 204.52 55.382C204.52 55.118 204.444 54.886 204.292 54.686C204.14 54.478 203.928 54.318 203.656 54.206C203.384 54.086 203.076 54.026 202.732 54.026C202.06 54.026 201.428 54.15 200.836 54.398C200.252 54.638 199.772 54.986 199.396 55.442C199.292 55.57 199.204 55.69 199.132 55.802C199.068 55.906 199.008 56.018 198.952 56.138L197.572 55.79C197.62 55.558 197.668 55.286 197.716 54.974C197.764 54.654 197.812 54.314 197.86 53.954C197.908 53.586 197.952 53.218 197.992 52.85C198.032 52.482 198.068 52.118 198.1 51.758C198.132 51.398 198.156 51.07 198.172 50.774L199.78 51.002Z" fill="#595959"/>
<path d="M213.148 49.022H214.36V52.31H213.148V49.022ZM211.468 50.234H216.088V51.278H211.468V50.234ZM216.04 50.798H218.944V52.034H216.04V50.798ZM211.576 55.946H215.992V56.99H211.576V55.946ZM215.392 48.374L216.1 49.394C215.684 49.482 215.224 49.562 214.72 49.634C214.224 49.698 213.72 49.754 213.208 49.802C212.696 49.842 212.204 49.874 211.732 49.898C211.708 49.754 211.664 49.59 211.6 49.406C211.544 49.214 211.484 49.05 211.42 48.914C211.876 48.874 212.344 48.83 212.824 48.782C213.312 48.726 213.78 48.662 214.228 48.59C214.676 48.518 215.064 48.446 215.392 48.374ZM211.312 57.854C211.712 57.83 212.164 57.798 212.668 57.758C213.18 57.718 213.72 57.674 214.288 57.626C214.864 57.578 215.436 57.53 216.004 57.482L216.016 58.526C215.224 58.622 214.428 58.714 213.628 58.802C212.836 58.89 212.128 58.966 211.504 59.03L211.312 57.854ZM218.512 50.798H219.712C219.712 50.798 219.712 50.834 219.712 50.906C219.712 50.978 219.712 51.062 219.712 51.158C219.712 51.246 219.712 51.318 219.712 51.374C219.68 52.63 219.652 53.694 219.628 54.566C219.612 55.438 219.584 56.154 219.544 56.714C219.512 57.274 219.472 57.71 219.424 58.022C219.376 58.326 219.308 58.538 219.22 58.658C219.108 58.842 218.992 58.97 218.872 59.042C218.752 59.122 218.608 59.178 218.44 59.21C218.288 59.234 218.108 59.25 217.9 59.258C217.7 59.266 217.484 59.266 217.252 59.258C217.244 59.074 217.208 58.862 217.144 58.622C217.088 58.382 217.012 58.178 216.916 58.01C217.1 58.026 217.268 58.038 217.42 58.046C217.572 58.054 217.696 58.058 217.792 58.058C217.864 58.058 217.928 58.042 217.984 58.01C218.04 57.978 218.092 57.922 218.14 57.842C218.188 57.754 218.232 57.578 218.272 57.314C218.312 57.042 218.344 56.65 218.368 56.138C218.4 55.618 218.424 54.946 218.44 54.122C218.464 53.298 218.488 52.286 218.512 51.086V50.798ZM212.524 53.978V54.518H215.008V53.978H212.524ZM212.524 52.658V53.198H215.008V52.658H212.524ZM211.6 51.794H215.968V55.382H211.6V51.794ZM213.268 52.094H214.228V55.058H214.348V58.01H213.148V55.058H213.268V52.094ZM216.664 48.098H217.876V52.262C217.876 52.838 217.852 53.442 217.804 54.074C217.764 54.706 217.68 55.338 217.552 55.97C217.432 56.602 217.248 57.21 217 57.794C216.752 58.378 216.42 58.906 216.004 59.378C215.932 59.298 215.836 59.21 215.716 59.114C215.596 59.018 215.472 58.922 215.344 58.826C215.216 58.738 215.1 58.666 214.996 58.61C215.372 58.178 215.672 57.698 215.896 57.17C216.12 56.642 216.284 56.094 216.388 55.526C216.5 54.958 216.572 54.398 216.604 53.846C216.644 53.286 216.664 52.762 216.664 52.274V48.098ZM210.448 48.098L211.732 48.458C211.532 49.146 211.288 49.842 211 50.546C210.72 51.25 210.408 51.918 210.064 52.55C209.728 53.182 209.372 53.738 208.996 54.218C208.964 54.098 208.908 53.942 208.828 53.75C208.756 53.55 208.676 53.35 208.588 53.15C208.5 52.942 208.42 52.778 208.348 52.658C208.636 52.274 208.912 51.838 209.176 51.35C209.44 50.862 209.68 50.342 209.896 49.79C210.12 49.23 210.304 48.666 210.448 48.098ZM209.656 51.398L210.928 50.126V50.138V59.354H209.656V51.398Z" fill="#595959"/>
<path d="M229.996 48.71C229.98 48.838 229.968 48.974 229.96 49.118C229.952 49.254 229.944 49.39 229.936 49.526C229.928 49.638 229.924 49.81 229.924 50.042C229.932 50.266 229.936 50.522 229.936 50.81C229.936 51.09 229.936 51.378 229.936 51.674C229.936 51.962 229.936 52.23 229.936 52.478C229.944 52.726 229.948 52.918 229.948 53.054C229.948 53.766 229.92 54.414 229.864 54.998C229.816 55.574 229.704 56.106 229.528 56.594C229.36 57.082 229.1 57.534 228.748 57.95C228.404 58.366 227.932 58.766 227.332 59.15L225.952 58.058C226.176 57.962 226.424 57.826 226.696 57.65C226.968 57.466 227.184 57.282 227.344 57.098C227.576 56.858 227.764 56.606 227.908 56.342C228.052 56.078 228.164 55.786 228.244 55.466C228.332 55.146 228.388 54.79 228.412 54.398C228.444 54.006 228.46 53.554 228.46 53.042C228.46 52.826 228.46 52.554 228.46 52.226C228.46 51.898 228.456 51.558 228.448 51.206C228.44 50.854 228.432 50.53 228.424 50.234C228.416 49.93 228.404 49.698 228.388 49.538C228.38 49.386 228.36 49.234 228.328 49.082C228.304 48.93 228.28 48.806 228.256 48.71H229.996ZM225.268 51.05C225.46 51.074 225.656 51.098 225.856 51.122C226.056 51.138 226.256 51.154 226.456 51.17C226.664 51.178 226.872 51.182 227.08 51.182C227.6 51.182 228.144 51.17 228.712 51.146C229.28 51.122 229.828 51.086 230.356 51.038C230.884 50.982 231.344 50.918 231.736 50.846L231.724 52.406C231.348 52.446 230.904 52.486 230.392 52.526C229.88 52.558 229.34 52.586 228.772 52.61C228.212 52.626 227.66 52.634 227.116 52.634C226.948 52.634 226.756 52.63 226.54 52.622C226.324 52.614 226.108 52.606 225.892 52.598C225.676 52.59 225.468 52.582 225.268 52.574V51.05ZM224.032 48.914C223.984 49.058 223.932 49.226 223.876 49.418C223.82 49.602 223.776 49.758 223.744 49.886C223.672 50.214 223.596 50.61 223.516 51.074C223.436 51.53 223.368 52.006 223.312 52.502C223.256 52.998 223.228 53.486 223.228 53.966C223.228 54.438 223.268 54.858 223.348 55.226C223.428 55.042 223.52 54.822 223.624 54.566C223.728 54.302 223.828 54.058 223.924 53.834L224.668 54.314C224.556 54.658 224.444 55.014 224.332 55.382C224.228 55.742 224.136 56.086 224.056 56.414C223.976 56.734 223.908 57.01 223.852 57.242C223.828 57.33 223.808 57.434 223.792 57.554C223.784 57.666 223.78 57.758 223.78 57.83C223.78 57.886 223.78 57.962 223.78 58.058C223.788 58.154 223.796 58.242 223.804 58.322L222.472 58.454C222.384 58.214 222.284 57.886 222.172 57.47C222.068 57.046 221.976 56.582 221.896 56.078C221.824 55.566 221.788 55.062 221.788 54.566C221.788 53.91 221.808 53.278 221.848 52.67C221.896 52.062 221.952 51.51 222.016 51.014C222.08 50.51 222.132 50.098 222.172 49.778C222.204 49.61 222.224 49.434 222.232 49.25C222.24 49.058 222.248 48.886 222.256 48.734L224.032 48.914Z" fill="#595959"/>
<path d="M235.78 49.106C235.948 49.13 236.128 49.146 236.32 49.154C236.512 49.162 236.696 49.166 236.872 49.166C237 49.166 237.192 49.166 237.448 49.166C237.704 49.158 237.992 49.15 238.312 49.142C238.64 49.134 238.964 49.126 239.284 49.118C239.604 49.11 239.892 49.102 240.148 49.094C240.412 49.078 240.616 49.066 240.76 49.058C241.008 49.034 241.204 49.014 241.348 48.998C241.492 48.974 241.6 48.95 241.672 48.926L242.452 49.994C242.316 50.082 242.176 50.17 242.032 50.258C241.888 50.346 241.748 50.442 241.612 50.546C241.452 50.658 241.26 50.806 241.036 50.99C240.812 51.166 240.572 51.354 240.316 51.554C240.068 51.754 239.824 51.95 239.584 52.142C239.352 52.334 239.14 52.506 238.948 52.658C239.148 52.61 239.34 52.578 239.524 52.562C239.708 52.538 239.896 52.526 240.088 52.526C240.768 52.526 241.376 52.658 241.912 52.922C242.456 53.186 242.884 53.546 243.196 54.002C243.516 54.45 243.676 54.966 243.676 55.55C243.676 56.182 243.516 56.754 243.196 57.266C242.876 57.778 242.392 58.186 241.744 58.49C241.104 58.794 240.3 58.946 239.332 58.946C238.78 58.946 238.28 58.866 237.832 58.706C237.392 58.546 237.044 58.318 236.788 58.022C236.532 57.726 236.404 57.378 236.404 56.978C236.404 56.65 236.492 56.346 236.668 56.066C236.852 55.778 237.104 55.546 237.424 55.37C237.752 55.194 238.128 55.106 238.552 55.106C239.104 55.106 239.568 55.218 239.944 55.442C240.328 55.658 240.62 55.95 240.82 56.318C241.028 56.686 241.136 57.09 241.144 57.53L239.74 57.722C239.732 57.282 239.62 56.93 239.404 56.666C239.196 56.394 238.916 56.258 238.564 56.258C238.34 56.258 238.16 56.318 238.024 56.438C237.888 56.55 237.82 56.682 237.82 56.834C237.82 57.058 237.932 57.238 238.156 57.374C238.38 57.51 238.672 57.578 239.032 57.578C239.712 57.578 240.28 57.498 240.736 57.338C241.192 57.17 241.532 56.934 241.756 56.63C241.988 56.318 242.104 55.95 242.104 55.526C242.104 55.166 241.992 54.85 241.768 54.578C241.552 54.306 241.256 54.094 240.88 53.942C240.504 53.79 240.08 53.714 239.608 53.714C239.144 53.714 238.72 53.774 238.336 53.894C237.952 54.006 237.588 54.17 237.244 54.386C236.908 54.594 236.576 54.85 236.248 55.154C235.928 55.45 235.608 55.782 235.288 56.15L234.196 55.022C234.412 54.846 234.656 54.65 234.928 54.434C235.2 54.21 235.476 53.978 235.756 53.738C236.044 53.498 236.312 53.274 236.56 53.066C236.816 52.85 237.032 52.67 237.208 52.526C237.376 52.39 237.572 52.23 237.796 52.046C238.02 51.862 238.252 51.674 238.492 51.482C238.732 51.282 238.96 51.094 239.176 50.918C239.392 50.734 239.572 50.578 239.716 50.45C239.596 50.45 239.44 50.454 239.248 50.462C239.056 50.47 238.844 50.478 238.612 50.486C238.388 50.494 238.16 50.502 237.928 50.51C237.704 50.518 237.492 50.53 237.292 50.546C237.1 50.554 236.94 50.562 236.812 50.57C236.652 50.578 236.484 50.59 236.308 50.606C236.132 50.622 235.972 50.642 235.828 50.666L235.78 49.106Z" fill="#595959"/>
</svg>
