<svg width="341" height="103" viewBox="0 0 341 103" fill="none" xmlns="http://www.w3.org/2000/svg">
<path d="M40.0885 27.2459H44.3125V28.5779H40.0885V27.2459ZM40.1965 30.6779H44.1925V31.9979H40.1965V30.6779ZM39.8005 34.8419C40.1925 34.7459 40.6365 34.6379 41.1325 34.5179C41.6365 34.3899 42.1645 34.2499 42.7165 34.0979C43.2685 33.9459 43.8205 33.7939 44.3725 33.6419L44.5525 34.9139C43.8005 35.1379 43.0365 35.3659 42.2605 35.5979C41.4845 35.8219 40.7885 36.0219 40.1725 36.1979L39.8005 34.8419ZM46.1245 30.0779V30.8219H49.2685V30.0779H46.1245ZM46.1245 31.9139V32.6579H49.2685V31.9139H46.1245ZM46.1245 28.2419V28.9859H49.2685V28.2419H46.1245ZM44.7805 27.0779H50.6845V33.8459H44.7805V27.0779ZM47.8165 33.3059H49.1845V36.1979C49.1845 36.3739 49.1965 36.4859 49.2205 36.5339C49.2525 36.5739 49.3205 36.5939 49.4245 36.5939C49.4485 36.5939 49.4925 36.5939 49.5565 36.5939C49.6285 36.5939 49.7005 36.5939 49.7725 36.5939C49.8445 36.5939 49.8925 36.5939 49.9165 36.5939C49.9885 36.5939 50.0405 36.5619 50.0725 36.4979C50.1125 36.4339 50.1405 36.3019 50.1565 36.1019C50.1805 35.8939 50.1965 35.5939 50.2045 35.2019C50.3005 35.2739 50.4165 35.3459 50.5525 35.4179C50.6965 35.4819 50.8445 35.5419 50.9965 35.5979C51.1565 35.6459 51.2965 35.6899 51.4165 35.7299C51.3765 36.2739 51.3045 36.6979 51.2005 37.0019C51.1045 37.3059 50.9645 37.5179 50.7805 37.6379C50.6045 37.7659 50.3725 37.8299 50.0845 37.8299C50.0285 37.8299 49.9565 37.8299 49.8685 37.8299C49.7885 37.8299 49.7045 37.8299 49.6165 37.8299C49.5285 37.8299 49.4445 37.8299 49.3645 37.8299C49.2845 37.8299 49.2165 37.8299 49.1605 37.8299C48.7925 37.8299 48.5125 37.7779 48.3205 37.6739C48.1285 37.5699 47.9965 37.3979 47.9245 37.1579C47.8525 36.9259 47.8165 36.6099 47.8165 36.2099V33.3059ZM45.6805 33.6539H47.0965C47.0485 34.1739 46.9685 34.6539 46.8565 35.0939C46.7525 35.5259 46.5805 35.9219 46.3405 36.2819C46.1005 36.6419 45.7685 36.9619 45.3445 37.2419C44.9285 37.5219 44.3925 37.7619 43.7365 37.9619C43.6885 37.8419 43.6205 37.7059 43.5325 37.5539C43.4445 37.4099 43.3485 37.2659 43.2445 37.1219C43.1405 36.9859 43.0405 36.8699 42.9445 36.7739C43.5045 36.6379 43.9605 36.4699 44.3125 36.2699C44.6645 36.0619 44.9325 35.8299 45.1165 35.5739C45.3005 35.3099 45.4325 35.0219 45.5125 34.7099C45.5925 34.3899 45.6485 34.0379 45.6805 33.6539ZM41.5525 27.7739H42.9325V34.8179L41.5525 35.0339V27.7739Z" fill="#595959"/>
<path d="M56.1205 31.4579H63.7285V32.6699H56.1205V31.4579ZM57.4285 33.2339H62.3605V34.3739H57.4285V33.2339ZM57.8845 31.9019L59.1205 32.2139C58.8245 32.9019 58.4205 33.5379 57.9085 34.1219C57.4045 34.6979 56.8685 35.1739 56.3005 35.5499C56.2285 35.4699 56.1325 35.3739 56.0125 35.2619C55.9005 35.1419 55.7805 35.0299 55.6525 34.9259C55.5325 34.8219 55.4245 34.7379 55.3285 34.6739C55.8885 34.3699 56.3925 33.9779 56.8405 33.4979C57.2965 33.0099 57.6445 32.4779 57.8845 31.9019ZM62.1445 33.2339H63.4765C63.4765 33.2339 63.4725 33.2979 63.4645 33.4259C63.4645 33.5459 63.4565 33.6499 63.4405 33.7379C63.3925 34.5139 63.3325 35.1539 63.2605 35.6579C63.1965 36.1539 63.1245 36.5379 63.0445 36.8099C62.9645 37.0899 62.8685 37.2899 62.7565 37.4099C62.6445 37.5459 62.5205 37.6419 62.3845 37.6979C62.2565 37.7539 62.1125 37.7939 61.9525 37.8179C61.8165 37.8339 61.6405 37.8459 61.4245 37.8539C61.2165 37.8619 60.9885 37.8579 60.7405 37.8419C60.7325 37.6739 60.7005 37.4779 60.6445 37.2539C60.5885 37.0379 60.5125 36.8579 60.4165 36.7139C60.6085 36.7299 60.7805 36.7419 60.9325 36.7499C61.0845 36.7499 61.2005 36.7499 61.2805 36.7499C61.3605 36.7499 61.4245 36.7419 61.4725 36.7259C61.5285 36.7099 61.5805 36.6739 61.6285 36.6179C61.7005 36.5379 61.7645 36.3859 61.8205 36.1619C61.8845 35.9299 61.9405 35.5939 61.9885 35.1539C62.0445 34.7139 62.0965 34.1419 62.1445 33.4379V33.2339ZM58.4605 29.4299V30.0059H61.5565V29.4299H58.4605ZM58.4605 27.9179V28.4819H61.5565V27.9179H58.4605ZM57.1765 26.9219H62.8885V31.0019H57.1765V26.9219ZM52.6165 29.1419H56.2765V30.4979H52.6165V29.1419ZM53.8285 26.7659H55.1725V34.2299H53.8285V26.7659ZM52.3405 34.4699C52.6525 34.3579 53.0125 34.2179 53.4205 34.0499C53.8365 33.8819 54.2765 33.7019 54.7405 33.5099C55.2045 33.3099 55.6645 33.1099 56.1205 32.9099L56.4325 34.1459C55.8325 34.4579 55.2205 34.7699 54.5965 35.0819C53.9725 35.3939 53.4005 35.6779 52.8805 35.9339L52.3405 34.4699ZM60.7645 33.4739L61.7365 34.0019C61.5925 34.4819 61.3885 34.9739 61.1245 35.4779C60.8605 35.9739 60.5645 36.4379 60.2365 36.8699C59.9085 37.3019 59.5645 37.6579 59.2045 37.9379C59.0845 37.8019 58.9285 37.6579 58.7365 37.5059C58.5445 37.3539 58.3565 37.2299 58.1725 37.1339C58.5645 36.8859 58.9285 36.5659 59.2645 36.1739C59.6005 35.7819 59.8965 35.3499 60.1525 34.8779C60.4165 34.4059 60.6205 33.9379 60.7645 33.4739ZM58.9525 33.4859L59.8885 34.0379C59.6885 34.4539 59.4245 34.8739 59.0965 35.2979C58.7765 35.7219 58.4245 36.1179 58.0405 36.4859C57.6565 36.8539 57.2725 37.1579 56.8885 37.3979C56.7765 37.2539 56.6325 37.1019 56.4565 36.9419C56.2885 36.7819 56.1205 36.6499 55.9525 36.5459C56.3445 36.3459 56.7325 36.0819 57.1165 35.7539C57.5085 35.4259 57.8645 35.0659 58.1845 34.6739C58.5045 34.2739 58.7605 33.8779 58.9525 33.4859Z" fill="#595959"/>
<path d="M69.9325 28.4219C70.3005 28.4699 70.7125 28.5059 71.1685 28.5299C71.6325 28.5459 72.1005 28.5539 72.5725 28.5539C73.0525 28.5459 73.5125 28.5299 73.9525 28.5059C74.3925 28.4739 74.7725 28.4419 75.0925 28.4099V29.9579C74.7245 29.9899 74.3205 30.0179 73.8805 30.0419C73.4405 30.0579 72.9885 30.0659 72.5245 30.0659C72.0605 30.0659 71.6045 30.0579 71.1565 30.0419C70.7165 30.0179 70.3085 29.9899 69.9325 29.9579V28.4219ZM70.8925 33.5459C70.8445 33.7459 70.8085 33.9259 70.7845 34.0859C70.7605 34.2379 70.7485 34.3939 70.7485 34.5539C70.7485 34.6819 70.7805 34.8019 70.8445 34.9139C70.9085 35.0179 71.0045 35.1099 71.1325 35.1899C71.2685 35.2619 71.4405 35.3179 71.6485 35.3579C71.8645 35.3899 72.1245 35.4059 72.4285 35.4059C72.9645 35.4059 73.4685 35.3819 73.9405 35.3339C74.4125 35.2779 74.9125 35.1979 75.4405 35.0939L75.4645 36.7139C75.0805 36.7859 74.6365 36.8419 74.1325 36.8819C73.6365 36.9219 73.0485 36.9419 72.3685 36.9419C71.3365 36.9419 70.5685 36.7699 70.0645 36.4259C69.5605 36.0739 69.3085 35.5899 69.3085 34.9739C69.3085 34.7419 69.3245 34.5019 69.3565 34.2539C69.3965 33.9979 69.4485 33.7179 69.5125 33.4139L70.8925 33.5459ZM68.0845 27.6179C68.0525 27.6979 68.0165 27.8099 67.9765 27.9539C67.9365 28.0979 67.8965 28.2379 67.8565 28.3739C67.8245 28.5099 67.8005 28.6139 67.7845 28.6859C67.7605 28.8539 67.7205 29.0739 67.6645 29.3459C67.6165 29.6099 67.5645 29.9099 67.5085 30.2459C67.4605 30.5739 67.4125 30.9099 67.3645 31.2539C67.3165 31.5979 67.2765 31.9299 67.2445 32.2499C67.2205 32.5699 67.2085 32.8499 67.2085 33.0899C67.2085 33.2019 67.2085 33.3299 67.2085 33.4739C67.2165 33.6179 67.2325 33.7499 67.2565 33.8699C67.3125 33.7339 67.3725 33.5979 67.4365 33.4619C67.5005 33.3259 67.5645 33.1899 67.6285 33.0539C67.6925 32.9099 67.7485 32.7739 67.7965 32.6459L68.5405 33.2339C68.4285 33.5619 68.3125 33.9139 68.1925 34.2899C68.0805 34.6659 67.9765 35.0219 67.8805 35.3579C67.7925 35.6859 67.7245 35.9579 67.6765 36.1739C67.6605 36.2619 67.6445 36.3619 67.6285 36.4739C67.6205 36.5859 67.6165 36.6739 67.6165 36.7379C67.6165 36.8019 67.6165 36.8779 67.6165 36.9659C67.6245 37.0619 67.6325 37.1499 67.6405 37.2299L66.2485 37.3259C66.1285 36.9099 66.0205 36.3579 65.9245 35.6699C65.8285 34.9739 65.7805 34.2179 65.7805 33.4019C65.7805 32.9539 65.8005 32.4979 65.8405 32.0339C65.8805 31.5699 65.9285 31.1259 65.9845 30.7019C66.0405 30.2699 66.0925 29.8779 66.1405 29.5259C66.1965 29.1739 66.2445 28.8819 66.2845 28.6499C66.3005 28.4819 66.3205 28.2939 66.3445 28.0859C66.3765 27.8699 66.3965 27.6659 66.4045 27.4739L68.0845 27.6179Z" fill="#595959"/>
<path d="M83.8765 27.1859C83.8605 27.2979 83.8445 27.4379 83.8285 27.6059C83.8125 27.7659 83.8005 27.9339 83.7925 28.1099C83.7845 28.2779 83.7765 28.4379 83.7685 28.5899C83.7605 28.8779 83.7565 29.1899 83.7565 29.5259C83.7645 29.8619 83.7685 30.2019 83.7685 30.5459C83.7685 30.8819 83.7765 31.2779 83.7925 31.7339C83.8165 32.1819 83.8445 32.6459 83.8765 33.1259C83.9085 33.6059 83.9325 34.0539 83.9485 34.4699C83.9725 34.8779 83.9845 35.2099 83.9845 35.4659C83.9845 35.7299 83.9445 35.9859 83.8645 36.2339C83.7845 36.4819 83.6485 36.7019 83.4565 36.8939C83.2645 37.0939 83.0045 37.2499 82.6765 37.3619C82.3485 37.4819 81.9325 37.5419 81.4285 37.5419C80.8605 37.5419 80.3365 37.4699 79.8565 37.3259C79.3845 37.1899 79.0085 36.9619 78.7285 36.6419C78.4485 36.3219 78.3085 35.8899 78.3085 35.3459C78.3085 34.9299 78.4285 34.5539 78.6685 34.2179C78.9085 33.8739 79.2685 33.6019 79.7485 33.4019C80.2365 33.2019 80.8485 33.1019 81.5845 33.1019C82.2085 33.1019 82.8125 33.1739 83.3965 33.3179C83.9885 33.4619 84.5405 33.6499 85.0525 33.8819C85.5725 34.1059 86.0405 34.3619 86.4565 34.6499C86.8805 34.9299 87.2445 35.2139 87.5485 35.5019L86.6245 36.9299C86.3285 36.6339 85.9885 36.3379 85.6045 36.0419C85.2285 35.7459 84.8165 35.4779 84.3685 35.2379C83.9205 34.9979 83.4405 34.8059 82.9285 34.6619C82.4245 34.5099 81.9005 34.4339 81.3565 34.4339C80.8925 34.4339 80.5245 34.5099 80.2525 34.6619C79.9885 34.8059 79.8565 35.0099 79.8565 35.2739C79.8565 35.5699 79.9925 35.7779 80.2645 35.8979C80.5365 36.0179 80.8845 36.0779 81.3085 36.0779C81.6845 36.0779 81.9525 35.9899 82.1125 35.8139C82.2725 35.6299 82.3525 35.3379 82.3525 34.9379C82.3525 34.7299 82.3445 34.4419 82.3285 34.0739C82.3125 33.6979 82.2965 33.2939 82.2805 32.8619C82.2645 32.4219 82.2485 31.9979 82.2325 31.5899C82.2165 31.1819 82.2085 30.8339 82.2085 30.5459C82.2085 30.3059 82.2085 30.0699 82.2085 29.8379C82.2085 29.6059 82.2085 29.3819 82.2085 29.1659C82.2085 28.9499 82.2045 28.7579 82.1965 28.5899C82.1885 28.3899 82.1765 28.2019 82.1605 28.0259C82.1525 27.8499 82.1405 27.6899 82.1245 27.5459C82.1165 27.4019 82.0965 27.2819 82.0645 27.1859H83.8765ZM82.9525 29.4779C83.1285 29.4779 83.3805 29.4779 83.7085 29.4779C84.0365 29.4699 84.3965 29.4579 84.7885 29.4419C85.1885 29.4259 85.5885 29.4059 85.9885 29.3819C86.3965 29.3499 86.7725 29.3179 87.1165 29.2859L87.1645 30.7139C86.8285 30.7459 86.4565 30.7739 86.0485 30.7979C85.6405 30.8219 85.2365 30.8419 84.8365 30.8579C84.4365 30.8659 84.0685 30.8739 83.7325 30.8819C83.4045 30.8899 83.1485 30.8939 82.9645 30.8939L82.9525 29.4779Z" fill="#595959"/>
<path d="M90.8693 31.7339C91.0533 31.6939 91.2652 31.6459 91.5052 31.5899C91.7452 31.5259 91.9573 31.4659 92.1413 31.4099C92.3413 31.3459 92.6093 31.2619 92.9453 31.1579C93.2813 31.0539 93.6493 30.9499 94.0493 30.8459C94.4573 30.7419 94.8653 30.6539 95.2733 30.5819C95.6893 30.5099 96.0812 30.4739 96.4492 30.4739C97.0812 30.4739 97.6333 30.5939 98.1053 30.8339C98.5853 31.0659 98.9573 31.4019 99.2213 31.8419C99.4853 32.2819 99.6172 32.8059 99.6172 33.4139C99.6172 33.9579 99.4973 34.4539 99.2573 34.9019C99.0253 35.3499 98.6693 35.7419 98.1893 36.0779C97.7093 36.4139 97.1093 36.6859 96.3893 36.8939C95.6773 37.1099 94.8452 37.2459 93.8932 37.3019L93.2573 35.8259C93.9453 35.8099 94.5773 35.7499 95.1533 35.6459C95.7373 35.5419 96.2413 35.3939 96.6653 35.2019C97.0973 35.0019 97.4293 34.7499 97.6613 34.4459C97.9013 34.1419 98.0213 33.7899 98.0213 33.3899C98.0213 33.0859 97.9493 32.8219 97.8053 32.5979C97.6693 32.3659 97.4733 32.1859 97.2173 32.0579C96.9613 31.9299 96.6573 31.8659 96.3053 31.8659C96.0253 31.8659 95.7133 31.9019 95.3693 31.9739C95.0253 32.0459 94.6693 32.1379 94.3013 32.2499C93.9413 32.3619 93.5853 32.4819 93.2333 32.6099C92.8813 32.7379 92.5533 32.8619 92.2493 32.9819C91.9453 33.1019 91.6932 33.2059 91.4932 33.2939L90.8693 31.7339Z" fill="#595959"/>
<path d="M101.888 28.5539C102.128 28.5459 102.356 28.5379 102.572 28.5299C102.788 28.5139 102.956 28.5019 103.076 28.4939C103.324 28.4699 103.628 28.4419 103.988 28.4099C104.348 28.3779 104.752 28.3419 105.2 28.3019C105.656 28.2619 106.14 28.2219 106.652 28.1819C107.164 28.1339 107.696 28.0859 108.248 28.0379C108.664 28.0059 109.08 27.9779 109.496 27.9539C109.912 27.9219 110.304 27.8979 110.672 27.8819C111.048 27.8579 111.372 27.8419 111.644 27.8339L111.656 29.3699C111.44 29.3699 111.192 29.3739 110.912 29.3819C110.632 29.3899 110.352 29.4059 110.072 29.4299C109.8 29.4459 109.556 29.4779 109.34 29.5259C108.98 29.6219 108.644 29.7859 108.332 30.0179C108.028 30.2419 107.76 30.5099 107.528 30.8219C107.296 31.1339 107.116 31.4699 106.988 31.8299C106.868 32.1819 106.808 32.5379 106.808 32.8979C106.808 33.2899 106.876 33.6379 107.012 33.9419C107.148 34.2379 107.336 34.4939 107.576 34.7099C107.824 34.9179 108.112 35.0939 108.44 35.2379C108.768 35.3739 109.12 35.4779 109.496 35.5499C109.88 35.6219 110.276 35.6699 110.684 35.6939L110.12 37.3379C109.616 37.3059 109.124 37.2259 108.644 37.0979C108.172 36.9699 107.728 36.7939 107.312 36.5699C106.904 36.3459 106.544 36.0739 106.232 35.7539C105.92 35.4259 105.676 35.0539 105.5 34.6379C105.324 34.2139 105.236 33.7419 105.236 33.2219C105.236 32.6379 105.328 32.1059 105.512 31.6259C105.696 31.1459 105.924 30.7259 106.196 30.3659C106.468 29.9979 106.74 29.7139 107.012 29.5139C106.788 29.5379 106.516 29.5699 106.196 29.6099C105.884 29.6419 105.544 29.6819 105.176 29.7299C104.816 29.7699 104.448 29.8139 104.072 29.8619C103.696 29.9099 103.332 29.9659 102.98 30.0299C102.636 30.0859 102.324 30.1419 102.044 30.1979L101.888 28.5539Z" fill="#595959"/>
<path d="M117.5 27.7979H125.144V29.0939H117.5V27.7979ZM119.06 31.1099V32.2979H123.44V31.1099H119.06ZM117.752 29.9459H124.832V33.4739H117.752V29.9459ZM118.88 33.6059C119.248 34.1739 119.736 34.6659 120.344 35.0819C120.952 35.4899 121.676 35.8179 122.516 36.0659C123.356 36.3139 124.296 36.4859 125.336 36.5819C125.232 36.6859 125.124 36.8139 125.012 36.9659C124.908 37.1179 124.808 37.2739 124.712 37.4339C124.624 37.5939 124.548 37.7379 124.484 37.8659C123.404 37.7219 122.432 37.4859 121.568 37.1579C120.712 36.8379 119.964 36.4139 119.324 35.8859C118.692 35.3499 118.152 34.7059 117.704 33.9539L118.88 33.6059ZM120.524 26.6939H121.952V32.1659C121.952 32.6539 121.92 33.1339 121.856 33.6059C121.792 34.0699 121.676 34.5179 121.508 34.9499C121.348 35.3739 121.116 35.7699 120.812 36.1379C120.508 36.5059 120.116 36.8379 119.636 37.1339C119.156 37.4299 118.572 37.6779 117.884 37.8779C117.836 37.7739 117.756 37.6459 117.644 37.4939C117.54 37.3499 117.432 37.2019 117.32 37.0499C117.208 36.9059 117.1 36.7859 116.996 36.6899C117.644 36.5459 118.18 36.3619 118.604 36.1379C119.036 35.9059 119.38 35.6419 119.636 35.3459C119.892 35.0499 120.084 34.7339 120.212 34.3979C120.34 34.0539 120.424 33.6939 120.464 33.3179C120.504 32.9419 120.524 32.5539 120.524 32.1539V26.6939ZM116.588 26.5859L117.92 27.0179C117.648 27.6979 117.324 28.3779 116.948 29.0579C116.58 29.7299 116.18 30.3699 115.748 30.9779C115.324 31.5779 114.884 32.1059 114.428 32.5619C114.388 32.4419 114.324 32.2899 114.236 32.1059C114.148 31.9219 114.052 31.7339 113.948 31.5419C113.844 31.3499 113.752 31.1979 113.672 31.0859C114.056 30.7179 114.428 30.2939 114.788 29.8139C115.156 29.3339 115.492 28.8179 115.796 28.2659C116.1 27.7139 116.364 27.1539 116.588 26.5859ZM115.412 29.9219L116.78 28.5539V28.5659V37.9139H115.412V29.9219Z" fill="#595959"/>
<path d="M127.712 31.7339C127.896 31.6939 128.108 31.6459 128.348 31.5899C128.588 31.5259 128.8 31.4659 128.984 31.4099C129.184 31.3459 129.452 31.2619 129.788 31.1579C130.124 31.0539 130.492 30.9499 130.892 30.8459C131.3 30.7419 131.708 30.6539 132.116 30.5819C132.532 30.5099 132.924 30.4739 133.292 30.4739C133.924 30.4739 134.476 30.5939 134.948 30.8339C135.428 31.0659 135.8 31.4019 136.064 31.8419C136.328 32.2819 136.46 32.8059 136.46 33.4139C136.46 33.9579 136.34 34.4539 136.1 34.9019C135.868 35.3499 135.512 35.7419 135.032 36.0779C134.552 36.4139 133.952 36.6859 133.232 36.8939C132.52 37.1099 131.688 37.2459 130.736 37.3019L130.1 35.8259C130.788 35.8099 131.42 35.7499 131.996 35.6459C132.58 35.5419 133.084 35.3939 133.508 35.2019C133.94 35.0019 134.272 34.7499 134.504 34.4459C134.744 34.1419 134.864 33.7899 134.864 33.3899C134.864 33.0859 134.792 32.8219 134.648 32.5979C134.512 32.3659 134.316 32.1859 134.06 32.0579C133.804 31.9299 133.5 31.8659 133.148 31.8659C132.868 31.8659 132.556 31.9019 132.212 31.9739C131.868 32.0459 131.512 32.1379 131.144 32.2499C130.784 32.3619 130.428 32.4819 130.076 32.6099C129.724 32.7379 129.396 32.8619 129.092 32.9819C128.788 33.1019 128.536 33.2059 128.336 33.2939L127.712 31.7339Z" fill="#595959"/>
<path d="M138.73 28.5539C138.97 28.5459 139.198 28.5379 139.414 28.5299C139.63 28.5139 139.798 28.5019 139.918 28.4939C140.166 28.4699 140.47 28.4419 140.83 28.4099C141.19 28.3779 141.594 28.3419 142.042 28.3019C142.498 28.2619 142.982 28.2219 143.494 28.1819C144.006 28.1339 144.538 28.0859 145.09 28.0379C145.506 28.0059 145.922 27.9779 146.338 27.9539C146.754 27.9219 147.146 27.8979 147.514 27.8819C147.89 27.8579 148.214 27.8419 148.486 27.8339L148.498 29.3699C148.282 29.3699 148.034 29.3739 147.754 29.3819C147.474 29.3899 147.194 29.4059 146.914 29.4299C146.642 29.4459 146.398 29.4779 146.182 29.5259C145.822 29.6219 145.486 29.7859 145.174 30.0179C144.87 30.2419 144.602 30.5099 144.37 30.8219C144.138 31.1339 143.958 31.4699 143.83 31.8299C143.71 32.1819 143.65 32.5379 143.65 32.8979C143.65 33.2899 143.718 33.6379 143.854 33.9419C143.99 34.2379 144.178 34.4939 144.418 34.7099C144.666 34.9179 144.954 35.0939 145.282 35.2379C145.61 35.3739 145.962 35.4779 146.338 35.5499C146.722 35.6219 147.118 35.6699 147.526 35.6939L146.962 37.3379C146.458 37.3059 145.966 37.2259 145.486 37.0979C145.014 36.9699 144.57 36.7939 144.154 36.5699C143.746 36.3459 143.386 36.0739 143.074 35.7539C142.762 35.4259 142.518 35.0539 142.342 34.6379C142.166 34.2139 142.078 33.7419 142.078 33.2219C142.078 32.6379 142.17 32.1059 142.354 31.6259C142.538 31.1459 142.766 30.7259 143.038 30.3659C143.31 29.9979 143.582 29.7139 143.854 29.5139C143.63 29.5379 143.358 29.5699 143.038 29.6099C142.726 29.6419 142.386 29.6819 142.018 29.7299C141.658 29.7699 141.29 29.8139 140.914 29.8619C140.538 29.9099 140.174 29.9659 139.822 30.0299C139.478 30.0859 139.166 30.1419 138.886 30.1979L138.73 28.5539Z" fill="#595959"/>
<path d="M153.478 28.2299C153.446 28.3739 153.418 28.5379 153.394 28.7219C153.378 28.9059 153.362 29.0859 153.346 29.2619C153.338 29.4379 153.334 29.5819 153.334 29.6939C153.326 29.9579 153.322 30.2299 153.322 30.5099C153.33 30.7899 153.338 31.0779 153.346 31.3739C153.362 31.6619 153.382 31.9499 153.406 32.2379C153.462 32.8139 153.542 33.3219 153.646 33.7619C153.75 34.2019 153.886 34.5459 154.054 34.7939C154.222 35.0339 154.434 35.1539 154.69 35.1539C154.826 35.1539 154.958 35.0779 155.086 34.9259C155.222 34.7739 155.342 34.5779 155.446 34.3379C155.558 34.0899 155.654 33.8299 155.734 33.5579C155.822 33.2859 155.898 33.0299 155.962 32.7899L157.162 34.2539C156.898 34.9499 156.634 35.5059 156.37 35.9219C156.114 36.3299 155.846 36.6259 155.566 36.8099C155.286 36.9859 154.982 37.0739 154.654 37.0739C154.222 37.0739 153.81 36.9299 153.418 36.6419C153.034 36.3539 152.706 35.8899 152.434 35.2499C152.162 34.6019 151.97 33.7419 151.858 32.6699C151.818 32.3019 151.786 31.9139 151.762 31.5059C151.746 31.0979 151.734 30.7099 151.726 30.3419C151.726 29.9739 151.726 29.6699 151.726 29.4299C151.726 29.2619 151.718 29.0619 151.702 28.8299C151.686 28.5979 151.662 28.3899 151.63 28.2059L153.478 28.2299ZM159.478 28.5059C159.702 28.7779 159.918 29.1099 160.126 29.5019C160.334 29.8939 160.526 30.3139 160.702 30.7619C160.878 31.2099 161.034 31.6699 161.17 32.1419C161.306 32.6059 161.414 33.0619 161.494 33.5099C161.582 33.9499 161.638 34.3539 161.662 34.7219L160.078 35.3339C160.038 34.8459 159.966 34.3139 159.862 33.7379C159.758 33.1619 159.618 32.5819 159.442 31.9979C159.266 31.4139 159.054 30.8619 158.806 30.3419C158.566 29.8219 158.282 29.3739 157.954 28.9979L159.478 28.5059Z" fill="#595959"/>
<path d="M165.478 27.6659C165.646 27.6899 165.826 27.7059 166.018 27.7139C166.21 27.7219 166.394 27.7259 166.57 27.7259C166.698 27.7259 166.89 27.7259 167.146 27.7259C167.402 27.7179 167.69 27.7099 168.01 27.7019C168.338 27.6939 168.662 27.6859 168.982 27.6779C169.302 27.6699 169.59 27.6619 169.846 27.6539C170.11 27.6379 170.314 27.6259 170.458 27.6179C170.706 27.5939 170.902 27.5739 171.046 27.5579C171.19 27.5339 171.298 27.5099 171.37 27.4859L172.15 28.5539C172.014 28.6419 171.874 28.7299 171.73 28.8179C171.586 28.9059 171.446 29.0019 171.31 29.1059C171.15 29.2179 170.958 29.3659 170.734 29.5499C170.51 29.7259 170.27 29.9139 170.014 30.1139C169.766 30.3139 169.522 30.5099 169.282 30.7019C169.05 30.8939 168.838 31.0659 168.646 31.2179C168.846 31.1699 169.038 31.1379 169.222 31.1219C169.406 31.0979 169.594 31.0859 169.786 31.0859C170.466 31.0859 171.074 31.2179 171.61 31.4819C172.154 31.7459 172.582 32.1059 172.894 32.5619C173.214 33.0099 173.374 33.5259 173.374 34.1099C173.374 34.7419 173.214 35.3139 172.894 35.8259C172.574 36.3379 172.09 36.7459 171.442 37.0499C170.802 37.3539 169.998 37.5059 169.03 37.5059C168.478 37.5059 167.978 37.4259 167.53 37.2659C167.09 37.1059 166.742 36.8779 166.486 36.5819C166.23 36.2859 166.102 35.9379 166.102 35.5379C166.102 35.2099 166.19 34.9059 166.366 34.6259C166.55 34.3379 166.802 34.1059 167.122 33.9299C167.45 33.7539 167.826 33.6659 168.25 33.6659C168.802 33.6659 169.266 33.7779 169.642 34.0019C170.026 34.2179 170.318 34.5099 170.518 34.8779C170.726 35.2459 170.834 35.6499 170.842 36.0899L169.438 36.2819C169.43 35.8419 169.318 35.4899 169.102 35.2259C168.894 34.9539 168.614 34.8179 168.262 34.8179C168.038 34.8179 167.858 34.8779 167.722 34.9979C167.586 35.1099 167.518 35.2419 167.518 35.3939C167.518 35.6179 167.63 35.7979 167.854 35.9339C168.078 36.0699 168.37 36.1379 168.73 36.1379C169.41 36.1379 169.978 36.0579 170.434 35.8979C170.89 35.7299 171.23 35.4939 171.454 35.1899C171.686 34.8779 171.802 34.5099 171.802 34.0859C171.802 33.7259 171.69 33.4099 171.466 33.1379C171.25 32.8659 170.954 32.6539 170.578 32.5019C170.202 32.3499 169.778 32.2739 169.306 32.2739C168.842 32.2739 168.418 32.3339 168.034 32.4539C167.65 32.5659 167.286 32.7299 166.942 32.9459C166.606 33.1539 166.274 33.4099 165.946 33.7139C165.626 34.0099 165.306 34.3419 164.986 34.7099L163.894 33.5819C164.11 33.4059 164.354 33.2099 164.626 32.9939C164.898 32.7699 165.174 32.5379 165.454 32.2979C165.742 32.0579 166.01 31.8339 166.258 31.6259C166.514 31.4099 166.73 31.2299 166.906 31.0859C167.074 30.9499 167.27 30.7899 167.494 30.6059C167.718 30.4219 167.95 30.2339 168.19 30.0419C168.43 29.8419 168.658 29.6539 168.874 29.4779C169.09 29.2939 169.27 29.1379 169.414 29.0099C169.294 29.0099 169.138 29.0139 168.946 29.0219C168.754 29.0299 168.542 29.0379 168.31 29.0459C168.086 29.0539 167.858 29.0619 167.626 29.0699C167.402 29.0779 167.19 29.0899 166.99 29.1059C166.798 29.1139 166.638 29.1219 166.51 29.1299C166.35 29.1379 166.182 29.1499 166.006 29.1659C165.83 29.1819 165.67 29.2019 165.526 29.2259L165.478 27.6659Z" fill="#595959"/>
<path d="M180.76 27.4619C180.84 27.6059 180.936 27.8179 181.048 28.0979C181.168 28.3699 181.288 28.6699 181.408 28.9979C181.536 29.3179 181.656 29.6299 181.768 29.9339C181.88 30.2299 181.964 30.4779 182.02 30.6779L180.508 31.2059C180.46 31.0139 180.38 30.7739 180.268 30.4859C180.164 30.1899 180.052 29.8859 179.932 29.5739C179.812 29.2539 179.692 28.9499 179.572 28.6619C179.452 28.3739 179.348 28.1379 179.26 27.9539L180.76 27.4619ZM186.244 28.4219C186.172 28.5659 186.108 28.7219 186.052 28.8899C186.004 29.0579 185.964 29.2139 185.932 29.3579C185.82 29.7899 185.668 30.2739 185.476 30.8099C185.292 31.3459 185.068 31.8819 184.804 32.4179C184.548 32.9459 184.252 33.4299 183.916 33.8699C183.5 34.4219 183.032 34.9259 182.512 35.3819C182 35.8299 181.464 36.2219 180.904 36.5579C180.344 36.8939 179.776 37.1699 179.2 37.3859L177.856 36.0419C178.408 35.8819 178.968 35.6579 179.536 35.3699C180.112 35.0819 180.664 34.7339 181.192 34.3259C181.728 33.9179 182.196 33.4579 182.596 32.9459C182.9 32.5619 183.176 32.0939 183.424 31.5419C183.68 30.9899 183.896 30.4019 184.072 29.7779C184.256 29.1459 184.38 28.5219 184.444 27.9059L186.244 28.4219ZM177.424 28.2059C177.512 28.3899 177.62 28.6299 177.748 28.9259C177.884 29.2219 178.02 29.5339 178.156 29.8619C178.292 30.1899 178.416 30.5059 178.528 30.8099C178.648 31.1059 178.744 31.3579 178.816 31.5659L177.268 32.1299C177.22 31.9699 177.152 31.7739 177.064 31.5419C176.984 31.3099 176.888 31.0579 176.776 30.7859C176.672 30.5139 176.564 30.2459 176.452 29.9819C176.34 29.7179 176.236 29.4779 176.14 29.2619C176.044 29.0459 175.96 28.8699 175.888 28.7339L177.424 28.2059Z" fill="#595959"/>
<path d="M188.668 31.2539C188.812 31.2619 188.996 31.2739 189.22 31.2899C189.444 31.2979 189.676 31.3059 189.916 31.3139C190.164 31.3219 190.392 31.3259 190.6 31.3259C190.8 31.3259 191.048 31.3259 191.344 31.3259C191.64 31.3259 191.96 31.3259 192.304 31.3259C192.656 31.3259 193.016 31.3259 193.384 31.3259C193.76 31.3259 194.132 31.3259 194.5 31.3259C194.868 31.3259 195.216 31.3259 195.544 31.3259C195.872 31.3259 196.164 31.3259 196.42 31.3259C196.684 31.3259 196.892 31.3259 197.044 31.3259C197.324 31.3259 197.588 31.3179 197.836 31.3019C198.084 31.2779 198.288 31.2619 198.448 31.2539V33.1379C198.312 33.1299 198.108 33.1179 197.836 33.1019C197.564 33.0859 197.3 33.0779 197.044 33.0779C196.892 33.0779 196.684 33.0779 196.42 33.0779C196.156 33.0779 195.86 33.0779 195.532 33.0779C195.204 33.0779 194.856 33.0779 194.488 33.0779C194.128 33.0779 193.76 33.0779 193.384 33.0779C193.008 33.0779 192.644 33.0779 192.292 33.0779C191.948 33.0779 191.628 33.0779 191.332 33.0779C191.044 33.0779 190.8 33.0779 190.6 33.0779C190.256 33.0779 189.904 33.0859 189.544 33.1019C189.184 33.1099 188.892 33.1219 188.668 33.1379V31.2539Z" fill="#595959"/>
<path d="M206.08 36.5459C206.104 36.4259 206.124 36.2899 206.14 36.1379C206.164 35.9779 206.176 35.8179 206.176 35.6579C206.176 35.5699 206.176 35.3939 206.176 35.1299C206.176 34.8659 206.176 34.5459 206.176 34.1699C206.176 33.7939 206.176 33.3899 206.176 32.9579C206.176 32.5179 206.176 32.0739 206.176 31.6259C206.176 31.1779 206.176 30.7579 206.176 30.3659C206.176 29.9659 206.176 29.6179 206.176 29.3219C206.176 29.0179 206.176 28.7979 206.176 28.6619C206.176 28.3899 206.16 28.1539 206.128 27.9539C206.104 27.7539 206.088 27.6459 206.08 27.6299H207.868C207.86 27.6459 207.844 27.7579 207.82 27.9659C207.796 28.1659 207.784 28.4019 207.784 28.6739C207.784 28.8099 207.784 29.0139 207.784 29.2859C207.784 29.5499 207.784 29.8579 207.784 30.2099C207.784 30.5539 207.784 30.9219 207.784 31.3139C207.784 31.7059 207.784 32.0939 207.784 32.4779C207.784 32.8539 207.784 33.2139 207.784 33.5579C207.784 33.8939 207.784 34.1819 207.784 34.4219C207.784 34.6619 207.784 34.8379 207.784 34.9499C208.112 34.8059 208.452 34.6099 208.804 34.3619C209.156 34.1139 209.5 33.8259 209.836 33.4979C210.18 33.1619 210.484 32.8019 210.748 32.4179L211.672 33.7379C211.344 34.1699 210.944 34.5939 210.472 35.0099C210.008 35.4259 209.528 35.8059 209.032 36.1499C208.536 36.4939 208.06 36.7819 207.604 37.0139C207.476 37.0859 207.372 37.1499 207.292 37.2059C207.212 37.2699 207.144 37.3259 207.088 37.3739L206.08 36.5459ZM200.524 36.3659C201.052 35.9979 201.484 35.5539 201.82 35.0339C202.156 34.5139 202.404 34.0019 202.564 33.4979C202.652 33.2339 202.716 32.9099 202.756 32.5259C202.804 32.1339 202.84 31.7179 202.864 31.2779C202.888 30.8299 202.9 30.3899 202.9 29.9579C202.908 29.5179 202.912 29.1139 202.912 28.7459C202.912 28.5059 202.9 28.3019 202.876 28.1339C202.86 27.9579 202.836 27.7939 202.804 27.6419H204.568C204.56 27.6579 204.548 27.7259 204.532 27.8459C204.524 27.9579 204.512 28.0939 204.496 28.2539C204.488 28.4059 204.484 28.5659 204.484 28.7339C204.484 29.0859 204.48 29.4979 204.472 29.9699C204.464 30.4339 204.448 30.9099 204.424 31.3979C204.4 31.8859 204.364 32.3499 204.316 32.7899C204.268 33.2219 204.204 33.5899 204.124 33.8939C203.94 34.5739 203.664 35.2059 203.296 35.7899C202.936 36.3659 202.5 36.8819 201.988 37.3379L200.524 36.3659Z" fill="#595959"/>
<path d="M213.52 28.9499C213.776 28.9819 214.048 29.0059 214.336 29.0219C214.632 29.0299 214.892 29.0339 215.116 29.0339C215.612 29.0339 216.112 29.0059 216.616 28.9499C217.128 28.8939 217.62 28.8219 218.092 28.7339C218.564 28.6379 218.992 28.5299 219.376 28.4099L219.424 29.8019C219.08 29.8899 218.668 29.9819 218.188 30.0779C217.716 30.1659 217.216 30.2419 216.688 30.3059C216.16 30.3619 215.64 30.3899 215.128 30.3899C214.888 30.3899 214.644 30.3859 214.396 30.3779C214.148 30.3699 213.892 30.3579 213.628 30.3419L213.52 28.9499ZM218.188 27.1499C218.14 27.3499 218.076 27.6099 217.996 27.9299C217.916 28.2499 217.824 28.5859 217.72 28.9379C217.624 29.2899 217.52 29.6379 217.408 29.9819C217.232 30.5579 217 31.1699 216.712 31.8179C216.424 32.4659 216.112 33.0979 215.776 33.7139C215.44 34.3299 215.1 34.8779 214.756 35.3579L213.304 34.6139C213.576 34.2779 213.844 33.9059 214.108 33.4979C214.372 33.0899 214.62 32.6699 214.852 32.2379C215.084 31.8059 215.292 31.3899 215.476 30.9899C215.668 30.5819 215.82 30.2139 215.932 29.8859C216.084 29.4619 216.216 28.9899 216.328 28.4699C216.448 27.9419 216.516 27.4459 216.532 26.9819L218.188 27.1499ZM220.996 30.8819C220.98 31.1379 220.972 31.3939 220.972 31.6499C220.98 31.8979 220.988 32.1539 220.996 32.4179C221.004 32.6019 221.012 32.8379 221.02 33.1259C221.036 33.4059 221.052 33.7059 221.068 34.0259C221.084 34.3379 221.096 34.6379 221.104 34.9259C221.12 35.2059 221.128 35.4299 221.128 35.5979C221.128 35.9659 221.052 36.3019 220.9 36.6059C220.748 36.9019 220.504 37.1379 220.168 37.3139C219.84 37.4899 219.388 37.5779 218.812 37.5779C218.316 37.5779 217.868 37.5019 217.468 37.3499C217.068 37.2059 216.748 36.9899 216.508 36.7019C216.268 36.4059 216.148 36.0379 216.148 35.5979C216.148 35.2059 216.252 34.8539 216.46 34.5419C216.668 34.2219 216.968 33.9739 217.36 33.7979C217.76 33.6139 218.24 33.5219 218.8 33.5219C219.504 33.5219 220.152 33.6219 220.744 33.8219C221.336 34.0139 221.868 34.2619 222.34 34.5659C222.812 34.8699 223.216 35.1739 223.552 35.4779L222.748 36.7619C222.532 36.5699 222.284 36.3539 222.004 36.1139C221.732 35.8739 221.424 35.6499 221.08 35.4419C220.744 35.2339 220.376 35.0619 219.976 34.9259C219.584 34.7899 219.16 34.7219 218.704 34.7219C218.36 34.7219 218.084 34.7899 217.876 34.9259C217.668 35.0619 217.564 35.2379 217.564 35.4539C217.564 35.6779 217.652 35.8579 217.828 35.9939C218.012 36.1299 218.268 36.1979 218.596 36.1979C218.868 36.1979 219.084 36.1539 219.244 36.0659C219.404 35.9699 219.516 35.8379 219.58 35.6699C219.644 35.4939 219.676 35.2979 219.676 35.0819C219.676 34.8979 219.668 34.6379 219.652 34.3019C219.636 33.9659 219.616 33.5939 219.592 33.1859C219.576 32.7779 219.56 32.3699 219.544 31.9619C219.528 31.5539 219.512 31.1939 219.496 30.8819H220.996ZM223.06 31.5179C222.828 31.3259 222.54 31.1219 222.196 30.9059C221.852 30.6899 221.496 30.4859 221.128 30.2939C220.768 30.0939 220.452 29.9339 220.18 29.8139L220.948 28.6259C221.164 28.7219 221.408 28.8419 221.68 28.9859C221.96 29.1219 222.24 29.2659 222.52 29.4179C222.808 29.5699 223.072 29.7219 223.312 29.8739C223.56 30.0179 223.76 30.1459 223.912 30.2579L223.06 31.5179Z" fill="#595959"/>
<path d="M234.292 30.1739C234.1 30.2859 233.904 30.3939 233.704 30.4979C233.512 30.5939 233.308 30.6979 233.092 30.8099C232.844 30.9299 232.556 31.0739 232.228 31.2419C231.908 31.4019 231.568 31.5819 231.208 31.7819C230.848 31.9739 230.484 32.1859 230.116 32.4179C229.62 32.7459 229.216 33.0859 228.904 33.4379C228.6 33.7899 228.448 34.1779 228.448 34.6019C228.448 35.0259 228.656 35.3539 229.072 35.5859C229.488 35.8099 230.116 35.9219 230.956 35.9219C231.364 35.9219 231.804 35.9059 232.276 35.8739C232.748 35.8339 233.208 35.7819 233.656 35.7179C234.112 35.6459 234.516 35.5699 234.868 35.4899L234.844 37.2059C234.508 37.2699 234.14 37.3259 233.74 37.3739C233.348 37.4219 232.924 37.4579 232.468 37.4819C232.012 37.5059 231.52 37.5179 230.992 37.5179C230.4 37.5179 229.848 37.4699 229.336 37.3739C228.824 37.2779 228.376 37.1259 227.992 36.9179C227.616 36.7099 227.32 36.4299 227.104 36.0779C226.896 35.7259 226.792 35.2899 226.792 34.7699C226.792 34.2659 226.904 33.8059 227.128 33.3899C227.352 32.9739 227.656 32.5899 228.04 32.2379C228.424 31.8859 228.852 31.5539 229.324 31.2419C229.708 30.9939 230.088 30.7659 230.464 30.5579C230.848 30.3419 231.208 30.1459 231.544 29.9699C231.888 29.7859 232.18 29.6219 232.42 29.4779C232.644 29.3499 232.844 29.2299 233.02 29.1179C233.204 29.0059 233.372 28.8859 233.524 28.7579L234.292 30.1739ZM228.628 27.4259C228.82 27.9539 229.024 28.4659 229.24 28.9619C229.464 29.4499 229.684 29.9059 229.9 30.3299C230.124 30.7539 230.328 31.1299 230.512 31.4579L229.156 32.2619C228.94 31.8939 228.716 31.4819 228.484 31.0259C228.252 30.5699 228.02 30.0899 227.788 29.5859C227.564 29.0739 227.34 28.5579 227.116 28.0379L228.628 27.4259ZM234.424 27.2459C234.528 27.3899 234.64 27.5619 234.76 27.7619C234.88 27.9619 234.992 28.1619 235.096 28.3619C235.208 28.5619 235.304 28.7379 235.384 28.8899L234.412 29.2979C234.292 29.0499 234.144 28.7699 233.968 28.4579C233.8 28.1379 233.636 27.8619 233.476 27.6299L234.424 27.2459ZM235.852 26.6939C235.956 26.8459 236.068 27.0259 236.188 27.2339C236.308 27.4339 236.424 27.6339 236.536 27.8339C236.656 28.0259 236.752 28.1939 236.824 28.3379L235.864 28.7459C235.744 28.4899 235.592 28.2059 235.408 27.8939C235.232 27.5819 235.06 27.3139 234.892 27.0899L235.852 26.6939Z" fill="#595959"/>
<path d="M243.112 27.1979C243.064 27.4139 243.024 27.6059 242.992 27.7739C242.96 27.9419 242.932 28.1059 242.908 28.2659C242.876 28.4339 242.836 28.6779 242.788 28.9979C242.748 29.3099 242.7 29.6659 242.644 30.0659C242.596 30.4579 242.544 30.8699 242.488 31.3019C242.44 31.7259 242.392 32.1419 242.344 32.5499C242.296 32.9579 242.256 33.3299 242.224 33.6659C242.2 34.0019 242.188 34.2699 242.188 34.4699C242.188 34.9659 242.336 35.3459 242.632 35.6099C242.936 35.8659 243.384 35.9939 243.976 35.9939C244.536 35.9939 245.008 35.9179 245.392 35.7659C245.776 35.6059 246.068 35.3939 246.268 35.1299C246.468 34.8659 246.568 34.5699 246.568 34.2419C246.568 33.8339 246.46 33.4379 246.244 33.0539C246.036 32.6619 245.732 32.2819 245.332 31.9139L247.024 31.5539C247.424 32.0579 247.716 32.5379 247.9 32.9939C248.092 33.4419 248.188 33.9219 248.188 34.4339C248.188 35.0339 248.016 35.5699 247.672 36.0419C247.328 36.5139 246.836 36.8819 246.196 37.1459C245.564 37.4099 244.808 37.5419 243.928 37.5419C243.304 37.5419 242.748 37.4459 242.26 37.2539C241.772 37.0619 241.392 36.7579 241.12 36.3419C240.848 35.9259 240.712 35.3859 240.712 34.7219C240.712 34.4739 240.732 34.1459 240.772 33.7379C240.812 33.3219 240.86 32.8659 240.916 32.3699C240.98 31.8659 241.044 31.3579 241.108 30.8459C241.172 30.3259 241.228 29.8339 241.276 29.3699C241.332 28.9059 241.376 28.5059 241.408 28.1699C241.424 27.8899 241.432 27.6779 241.432 27.5339C241.44 27.3819 241.436 27.2379 241.42 27.1019L243.112 27.1979ZM238.828 28.6859C239.188 28.7979 239.58 28.8939 240.004 28.9739C240.428 29.0459 240.864 29.1019 241.312 29.1419C241.76 29.1739 242.184 29.1899 242.584 29.1899C243.056 29.1899 243.496 29.1739 243.904 29.1419C244.312 29.1099 244.668 29.0699 244.972 29.0219L244.924 30.4499C244.564 30.4819 244.204 30.5099 243.844 30.5339C243.484 30.5579 243.052 30.5699 242.548 30.5699C242.14 30.5699 241.716 30.5499 241.276 30.5099C240.836 30.4619 240.4 30.4019 239.968 30.3299C239.536 30.2499 239.132 30.1619 238.756 30.0659L238.828 28.6859ZM238.576 31.6619C239.008 31.8059 239.444 31.9179 239.884 31.9979C240.332 32.0779 240.772 32.1339 241.204 32.1659C241.644 32.1899 242.064 32.2019 242.464 32.2019C242.832 32.2019 243.228 32.1899 243.652 32.1659C244.084 32.1419 244.492 32.1059 244.876 32.0579L244.84 33.4859C244.504 33.5179 244.16 33.5459 243.808 33.5699C243.456 33.5859 243.092 33.5939 242.716 33.5939C241.916 33.5939 241.148 33.5539 240.412 33.4739C239.676 33.3859 239.036 33.2659 238.492 33.1139L238.576 31.6619Z" fill="#595959"/>
<path d="M253.156 31.2899V35.7179H251.776V32.6219H250.42V31.2899H253.156ZM253.156 35.1419C253.388 35.5419 253.716 35.8379 254.14 36.0299C254.564 36.2139 255.08 36.3179 255.688 36.3419C256.048 36.3579 256.48 36.3699 256.984 36.3779C257.496 36.3779 258.028 36.3739 258.58 36.3659C259.14 36.3579 259.684 36.3459 260.212 36.3299C260.748 36.3059 261.228 36.2739 261.652 36.2339C261.596 36.3379 261.536 36.4779 261.472 36.6539C261.416 36.8219 261.36 36.9939 261.304 37.1699C261.256 37.3459 261.22 37.5019 261.196 37.6379C260.828 37.6619 260.404 37.6779 259.924 37.6859C259.444 37.6939 258.948 37.6979 258.436 37.6979C257.924 37.7059 257.428 37.7059 256.948 37.6979C256.468 37.6979 256.044 37.6899 255.676 37.6739C254.956 37.6419 254.344 37.5259 253.84 37.3259C253.336 37.1259 252.904 36.7939 252.544 36.3299C252.312 36.5699 252.064 36.8059 251.8 37.0379C251.544 37.2779 251.264 37.5259 250.96 37.7819L250.276 36.3539C250.532 36.1859 250.8 35.9979 251.08 35.7899C251.368 35.5819 251.644 35.3659 251.908 35.1419H253.156ZM250.444 27.7379L251.572 26.9579C251.788 27.1339 252.008 27.3339 252.232 27.5579C252.456 27.7739 252.664 27.9939 252.856 28.2179C253.056 28.4419 253.212 28.6499 253.324 28.8419L252.112 29.6939C252.008 29.5019 251.864 29.2939 251.68 29.0699C251.504 28.8379 251.304 28.6059 251.08 28.3739C250.864 28.1339 250.652 27.9219 250.444 27.7379ZM253.552 34.3859H261.328V35.3579H253.552V34.3859ZM253.888 32.8739H261.004V33.8339H253.888V32.8739ZM253.48 28.8659H261.412V29.8379H253.48V28.8659ZM257.488 32.2499H258.832V36.0899H257.488V32.2499ZM254.812 33.2339H256.108V34.7339H254.812V33.2339ZM256.288 26.5979L257.668 26.7659C257.588 27.0539 257.5 27.3579 257.404 27.6779C257.316 27.9979 257.22 28.3059 257.116 28.6019C257.02 28.8899 256.932 29.1459 256.852 29.3699H255.448C255.544 29.1219 255.64 28.8419 255.736 28.5299C255.84 28.2179 255.94 27.8939 256.036 27.5579C256.132 27.2219 256.216 26.9019 256.288 26.5979ZM254.272 27.4139H260.08V29.3579H258.736V28.3499H254.272V27.4139ZM255.712 31.0379V31.6379H259.012V31.0379H255.712ZM254.404 30.2219H260.404V32.4539H254.404V30.2219Z" fill="#595959"/>
<path d="M270.664 32.8859C270.664 32.6219 270.596 32.3819 270.46 32.1659C270.332 31.9499 270.136 31.7779 269.872 31.6499C269.616 31.5139 269.296 31.4459 268.912 31.4459C268.48 31.4459 268.06 31.4819 267.652 31.5539C267.252 31.6259 266.892 31.7099 266.572 31.8059C266.26 31.8939 266 31.9699 265.792 32.0339C265.616 32.0819 265.42 32.1499 265.204 32.2379C264.996 32.3179 264.804 32.3899 264.628 32.4539L264.172 30.7379C264.38 30.7219 264.604 30.6939 264.844 30.6539C265.084 30.6139 265.3 30.5739 265.492 30.5339C265.788 30.4619 266.124 30.3859 266.5 30.3059C266.884 30.2179 267.3 30.1419 267.748 30.0779C268.196 30.0139 268.652 29.9819 269.116 29.9819C269.756 29.9819 270.316 30.1019 270.796 30.3419C271.284 30.5739 271.664 30.9099 271.936 31.3499C272.208 31.7899 272.344 32.3219 272.344 32.9459C272.344 33.5859 272.204 34.1659 271.924 34.6859C271.644 35.2059 271.248 35.6619 270.736 36.0539C270.224 36.4379 269.62 36.7579 268.924 37.0139C268.228 37.2699 267.464 37.4539 266.632 37.5659L265.768 36.0779C266.512 35.9899 267.184 35.8619 267.784 35.6939C268.392 35.5259 268.908 35.3139 269.332 35.0579C269.764 34.7939 270.092 34.4859 270.316 34.1339C270.548 33.7739 270.664 33.3579 270.664 32.8859ZM265.948 27.1259C266.292 27.1979 266.704 27.2659 267.184 27.3299C267.672 27.3939 268.172 27.4499 268.684 27.4979C269.204 27.5459 269.696 27.5859 270.16 27.6179C270.632 27.6419 271.024 27.6579 271.336 27.6659L271.096 29.1419C270.744 29.1179 270.332 29.0859 269.86 29.0459C269.388 29.0059 268.9 28.9619 268.396 28.9139C267.892 28.8579 267.404 28.8019 266.932 28.7459C266.468 28.6819 266.06 28.6219 265.708 28.5659L265.948 27.1259Z" fill="#595959"/>
<path d="M280.468 27.3299C280.428 27.4819 280.388 27.6499 280.348 27.8339C280.316 28.0099 280.284 28.1739 280.252 28.3259C280.22 28.5019 280.18 28.7019 280.132 28.9259C280.084 29.1419 280.036 29.3619 279.988 29.5859C279.948 29.8019 279.904 30.0139 279.856 30.2219C279.776 30.5659 279.676 30.9659 279.556 31.4219C279.436 31.8779 279.296 32.3699 279.136 32.8979C278.976 33.4179 278.796 33.9419 278.596 34.4699C278.396 34.9979 278.184 35.5139 277.96 36.0179C277.736 36.5139 277.496 36.9619 277.24 37.3619L275.68 36.7379C275.96 36.3619 276.22 35.9419 276.46 35.4779C276.708 35.0059 276.932 34.5219 277.132 34.0259C277.332 33.5299 277.508 33.0419 277.66 32.5619C277.82 32.0819 277.956 31.6339 278.068 31.2179C278.18 30.8019 278.268 30.4459 278.332 30.1499C278.444 29.6059 278.532 29.0819 278.596 28.5779C278.66 28.0739 278.688 27.5979 278.68 27.1499L280.468 27.3299ZM284.596 28.4579C284.788 28.7139 284.984 29.0379 285.184 29.4299C285.392 29.8139 285.592 30.2219 285.784 30.6539C285.984 31.0859 286.164 31.5019 286.324 31.9019C286.492 32.3019 286.62 32.6419 286.708 32.9219L285.184 33.6299C285.104 33.2939 284.992 32.9219 284.848 32.5139C284.712 32.0979 284.552 31.6779 284.368 31.2539C284.192 30.8219 284 30.4139 283.792 30.0299C283.592 29.6459 283.384 29.3259 283.168 29.0699L284.596 28.4579ZM275.596 29.7899C275.812 29.8059 276.024 29.8139 276.232 29.8139C276.44 29.8059 276.656 29.7979 276.88 29.7899C277.072 29.7819 277.308 29.7699 277.588 29.7539C277.876 29.7299 278.176 29.7059 278.488 29.6819C278.808 29.6579 279.128 29.6339 279.448 29.6099C279.768 29.5779 280.064 29.5539 280.336 29.5379C280.608 29.5219 280.832 29.5139 281.008 29.5139C281.432 29.5139 281.804 29.5859 282.124 29.7299C282.452 29.8659 282.708 30.1019 282.892 30.4379C283.084 30.7739 283.18 31.2299 283.18 31.8059C283.18 32.2779 283.156 32.7899 283.108 33.3419C283.068 33.8939 283 34.4219 282.904 34.9259C282.808 35.4299 282.672 35.8579 282.496 36.2099C282.304 36.6259 282.04 36.9139 281.704 37.0739C281.376 37.2339 280.984 37.3139 280.528 37.3139C280.296 37.3139 280.048 37.2939 279.784 37.2539C279.528 37.2219 279.296 37.1859 279.088 37.1459L278.824 35.5619C278.984 35.6019 279.156 35.6419 279.34 35.6819C279.532 35.7219 279.712 35.7539 279.88 35.7779C280.056 35.8019 280.196 35.8139 280.3 35.8139C280.5 35.8139 280.676 35.7779 280.828 35.7059C280.98 35.6259 281.104 35.4899 281.2 35.2979C281.312 35.0659 281.4 34.7659 281.464 34.3979C281.536 34.0299 281.588 33.6339 281.62 33.2099C281.66 32.7779 281.68 32.3659 281.68 31.9739C281.68 31.6539 281.636 31.4179 281.548 31.2659C281.46 31.1139 281.328 31.0139 281.152 30.9659C280.984 30.9099 280.772 30.8819 280.516 30.8819C280.34 30.8819 280.092 30.8979 279.772 30.9299C279.46 30.9539 279.128 30.9859 278.776 31.0259C278.424 31.0579 278.092 31.0939 277.78 31.1339C277.476 31.1739 277.24 31.2019 277.072 31.2179C276.904 31.2499 276.684 31.2859 276.412 31.3259C276.148 31.3579 275.924 31.3899 275.74 31.4219L275.596 29.7899Z" fill="#595959"/>
<path d="M291.412 27.1499C291.7 27.2379 292.06 27.3299 292.492 27.4259C292.924 27.5219 293.376 27.6179 293.848 27.7139C294.32 27.8019 294.764 27.8779 295.18 27.9419C295.604 28.0059 295.948 28.0539 296.212 28.0859L295.852 29.5499C295.612 29.5179 295.32 29.4739 294.976 29.4179C294.64 29.3539 294.28 29.2859 293.896 29.2139C293.52 29.1419 293.148 29.0699 292.78 28.9979C292.412 28.9179 292.076 28.8419 291.772 28.7699C291.468 28.6979 291.22 28.6379 291.028 28.5899L291.412 27.1499ZM291.484 29.5619C291.444 29.7219 291.4 29.9299 291.352 30.1859C291.312 30.4339 291.272 30.6939 291.232 30.9659C291.192 31.2379 291.152 31.4979 291.112 31.7459C291.08 31.9939 291.052 32.2019 291.028 32.3699C291.572 31.9779 292.14 31.6899 292.732 31.5059C293.332 31.3219 293.944 31.2299 294.568 31.2299C295.272 31.2299 295.872 31.3579 296.368 31.6139C296.864 31.8699 297.24 32.2059 297.496 32.6219C297.76 33.0379 297.892 33.4899 297.892 33.9779C297.892 34.5219 297.776 35.0259 297.544 35.4899C297.312 35.9539 296.932 36.3499 296.404 36.6779C295.876 37.0059 295.184 37.2379 294.328 37.3739C293.472 37.5099 292.42 37.5259 291.172 37.4219L290.716 35.8499C291.916 36.0099 292.924 36.0339 293.74 35.9219C294.556 35.8019 295.172 35.5699 295.588 35.2259C296.012 34.8739 296.224 34.4459 296.224 33.9419C296.224 33.6779 296.148 33.4459 295.996 33.2459C295.844 33.0379 295.632 32.8779 295.36 32.7659C295.088 32.6459 294.78 32.5859 294.436 32.5859C293.764 32.5859 293.132 32.7099 292.54 32.9579C291.956 33.1979 291.476 33.5459 291.1 34.0019C290.996 34.1299 290.908 34.2499 290.836 34.3619C290.772 34.4659 290.712 34.5779 290.656 34.6979L289.276 34.3499C289.324 34.1179 289.372 33.8459 289.42 33.5339C289.468 33.2139 289.516 32.8739 289.564 32.5139C289.612 32.1459 289.656 31.7779 289.696 31.4099C289.736 31.0419 289.772 30.6779 289.804 30.3179C289.836 29.9579 289.86 29.6299 289.876 29.3339L291.484 29.5619Z" fill="#595959"/>
<path d="M81.0332 49.9539H87.6092V51.0819H81.0332V49.9539ZM81.3452 51.5619H87.3572V52.6419H81.3452V51.5619ZM80.7932 53.1579H87.8372V54.3339H80.7932V53.1579ZM85.6412 48.5979L87.0812 48.9339C86.9132 49.2059 86.7532 49.4659 86.6012 49.7139C86.4492 49.9619 86.3092 50.1739 86.1812 50.3499L85.0652 50.0259C85.1692 49.8179 85.2732 49.5779 85.3772 49.3059C85.4892 49.0339 85.5772 48.7979 85.6412 48.5979ZM81.7892 49.0179L82.9292 48.6339C83.0652 48.8419 83.1972 49.0699 83.3252 49.3179C83.4612 49.5659 83.5572 49.7819 83.6132 49.9659L82.4132 50.3979C82.3652 50.2139 82.2812 49.9899 82.1612 49.7259C82.0412 49.4619 81.9172 49.2259 81.7892 49.0179ZM86.6852 54.5499L87.7772 55.3179C87.5132 55.5979 87.2292 55.8739 86.9252 56.1459C86.6292 56.4179 86.3652 56.6499 86.1332 56.8419L85.2092 56.1459C85.3612 56.0099 85.5292 55.8499 85.7132 55.6659C85.8972 55.4819 86.0732 55.2939 86.2412 55.1019C86.4172 54.9019 86.5652 54.7179 86.6852 54.5499ZM81.0332 55.2459L82.0052 54.5979C82.2212 54.8139 82.4452 55.0619 82.6772 55.3419C82.9092 55.6139 83.0852 55.8539 83.2052 56.0619L82.1732 56.7819C82.0612 56.5659 81.8972 56.3139 81.6812 56.0259C81.4652 55.7299 81.2492 55.4699 81.0332 55.2459ZM80.3252 57.9459C80.6932 57.7859 81.1252 57.5819 81.6212 57.3339C82.1172 57.0859 82.6252 56.8259 83.1452 56.5539L83.5172 57.7179C83.0932 57.9659 82.6572 58.2179 82.2092 58.4739C81.7612 58.7219 81.3452 58.9499 80.9612 59.1579L80.3252 57.9459ZM83.6252 50.7219H85.0172V58.4619C85.0172 58.7819 84.9812 59.0339 84.9092 59.2179C84.8452 59.4099 84.7132 59.5579 84.5132 59.6619C84.3132 59.7739 84.0692 59.8419 83.7812 59.8659C83.5012 59.8979 83.1732 59.9139 82.7972 59.9139C82.7732 59.7219 82.7252 59.5019 82.6532 59.2539C82.5812 59.0059 82.5012 58.7979 82.4132 58.6299C82.6212 58.6379 82.8252 58.6459 83.0252 58.6539C83.2332 58.6539 83.3692 58.6539 83.4332 58.6539C83.5132 58.6539 83.5652 58.6379 83.5892 58.6059C83.6132 58.5739 83.6252 58.5219 83.6252 58.4499V50.7219ZM84.9332 54.5499C85.1172 55.0859 85.3532 55.5899 85.6412 56.0619C85.9292 56.5339 86.2772 56.9499 86.6852 57.3099C87.0932 57.6699 87.5532 57.9539 88.0652 58.1619C87.9692 58.2499 87.8612 58.3659 87.7412 58.5099C87.6292 58.6459 87.5172 58.7859 87.4052 58.9299C87.3012 59.0739 87.2172 59.2059 87.1532 59.3259C86.6332 59.0459 86.1692 58.6779 85.7612 58.2219C85.3612 57.7579 85.0132 57.2339 84.7172 56.6499C84.4292 56.0659 84.1892 55.4379 83.9972 54.7659L84.9332 54.5499ZM76.7972 51.1059H80.7692V52.4379H76.7972V51.1059ZM78.2612 48.6099H79.5572V59.8779H78.2612V48.6099ZM78.2372 52.0179L79.0292 52.2819C78.9492 52.7619 78.8452 53.2579 78.7172 53.7699C78.5892 54.2739 78.4452 54.7739 78.2852 55.2699C78.1252 55.7579 77.9492 56.2139 77.7572 56.6379C77.5732 57.0619 77.3732 57.4259 77.1572 57.7299C77.0932 57.5459 76.9932 57.3299 76.8572 57.0819C76.7292 56.8339 76.6132 56.6299 76.5092 56.4699C76.7012 56.2059 76.8852 55.8979 77.0612 55.5459C77.2372 55.1939 77.4012 54.8179 77.5532 54.4179C77.7052 54.0179 77.8372 53.6139 77.9492 53.2059C78.0692 52.7899 78.1652 52.3939 78.2372 52.0179ZM79.4972 52.8819C79.5612 52.9619 79.6612 53.1059 79.7972 53.3139C79.9412 53.5139 80.0932 53.7339 80.2532 53.9739C80.4132 54.2059 80.5572 54.4259 80.6852 54.6339C80.8212 54.8339 80.9132 54.9739 80.9612 55.0539L80.2172 56.0859C80.1452 55.9179 80.0532 55.7139 79.9412 55.4739C79.8292 55.2339 79.7052 54.9859 79.5692 54.7299C79.4412 54.4739 79.3172 54.2339 79.1972 54.0099C79.0852 53.7859 78.9852 53.6019 78.8972 53.4579L79.4972 52.8819Z" fill="#595959"/>
<path d="M93.1052 51.5259H98.0612V52.9539H93.1052V51.5259ZM92.6612 56.1699L93.5492 54.9699C93.9492 55.1379 94.3692 55.3339 94.8092 55.5579C95.2492 55.7739 95.6772 56.0059 96.0932 56.2539C96.5172 56.5019 96.9092 56.7539 97.2692 57.0099C97.6292 57.2659 97.9332 57.5179 98.1812 57.7659L97.1852 59.1339C96.9612 58.8939 96.6772 58.6419 96.3332 58.3779C95.9892 58.1059 95.6092 57.8379 95.1932 57.5739C94.7852 57.3099 94.3612 57.0579 93.9212 56.8179C93.4892 56.5699 93.0692 56.3539 92.6612 56.1699ZM93.4292 49.2219L95.0252 49.5819C94.7532 50.3979 94.4252 51.2339 94.0412 52.0899C93.6572 52.9379 93.2172 53.7459 92.7212 54.5139C92.2332 55.2819 91.6932 55.9499 91.1012 56.5179C90.9892 56.4299 90.8492 56.3379 90.6812 56.2419C90.5212 56.1379 90.3572 56.0419 90.1892 55.9539C90.0212 55.8579 89.8652 55.7779 89.7212 55.7139C90.1692 55.3139 90.5852 54.8539 90.9692 54.3339C91.3612 53.8139 91.7132 53.2659 92.0252 52.6899C92.3372 52.1059 92.6092 51.5179 92.8412 50.9259C93.0812 50.3339 93.2772 49.7659 93.4292 49.2219ZM97.4612 51.5259H97.8092L98.0732 51.4659L99.1772 52.0539C98.9772 52.6139 98.7212 53.2059 98.4092 53.8299C98.1052 54.4539 97.7692 55.0659 97.4012 55.6659C97.0412 56.2579 96.6692 56.7979 96.2852 57.2859C96.1172 57.1499 95.9052 57.0019 95.6492 56.8419C95.4012 56.6739 95.1812 56.5379 94.9892 56.4339C95.2532 56.1059 95.5092 55.7459 95.7572 55.3539C96.0132 54.9619 96.2532 54.5619 96.4772 54.1539C96.7012 53.7379 96.8972 53.3339 97.0652 52.9419C97.2332 52.5499 97.3652 52.1979 97.4612 51.8859V51.5259Z" fill="#595959"/>
<path d="M102.213 50.9499C102.469 50.9819 102.741 51.0059 103.029 51.0219C103.325 51.0299 103.585 51.0339 103.809 51.0339C104.305 51.0339 104.805 51.0059 105.309 50.9499C105.821 50.8939 106.313 50.8219 106.785 50.7339C107.257 50.6379 107.685 50.5299 108.069 50.4099L108.117 51.8019C107.773 51.8899 107.361 51.9819 106.881 52.0779C106.409 52.1659 105.909 52.2419 105.381 52.3059C104.853 52.3619 104.333 52.3899 103.821 52.3899C103.581 52.3899 103.337 52.3859 103.089 52.3779C102.841 52.3699 102.585 52.3579 102.321 52.3419L102.213 50.9499ZM106.881 49.1499C106.833 49.3499 106.769 49.6099 106.689 49.9299C106.609 50.2499 106.517 50.5859 106.413 50.9379C106.317 51.2899 106.213 51.6379 106.101 51.9819C105.925 52.5579 105.693 53.1699 105.405 53.8179C105.117 54.4659 104.805 55.0979 104.469 55.7139C104.133 56.3299 103.793 56.8779 103.449 57.3579L101.997 56.6139C102.269 56.2779 102.537 55.9059 102.801 55.4979C103.065 55.0899 103.313 54.6699 103.545 54.2379C103.777 53.8059 103.985 53.3899 104.169 52.9899C104.361 52.5819 104.513 52.2139 104.625 51.8859C104.777 51.4619 104.909 50.9899 105.021 50.4699C105.141 49.9419 105.209 49.4459 105.225 48.9819L106.881 49.1499ZM109.689 52.8819C109.673 53.1379 109.665 53.3939 109.665 53.6499C109.673 53.8979 109.681 54.1539 109.689 54.4179C109.697 54.6019 109.705 54.8379 109.713 55.1259C109.729 55.4059 109.745 55.7059 109.761 56.0259C109.777 56.3379 109.789 56.6379 109.797 56.9259C109.813 57.2059 109.821 57.4299 109.821 57.5979C109.821 57.9659 109.745 58.3019 109.593 58.6059C109.441 58.9019 109.197 59.1379 108.861 59.3139C108.533 59.4899 108.081 59.5779 107.505 59.5779C107.009 59.5779 106.561 59.5019 106.161 59.3499C105.761 59.2059 105.441 58.9899 105.201 58.7019C104.961 58.4059 104.841 58.0379 104.841 57.5979C104.841 57.2059 104.945 56.8539 105.153 56.5419C105.361 56.2219 105.661 55.9739 106.053 55.7979C106.453 55.6139 106.933 55.5219 107.493 55.5219C108.197 55.5219 108.845 55.6219 109.437 55.8219C110.029 56.0139 110.561 56.2619 111.033 56.5659C111.505 56.8699 111.909 57.1739 112.245 57.4779L111.441 58.7619C111.225 58.5699 110.977 58.3539 110.697 58.1139C110.425 57.8739 110.117 57.6499 109.773 57.4419C109.437 57.2339 109.069 57.0619 108.669 56.9259C108.277 56.7899 107.853 56.7219 107.397 56.7219C107.053 56.7219 106.777 56.7899 106.569 56.9259C106.361 57.0619 106.257 57.2379 106.257 57.4539C106.257 57.6779 106.345 57.8579 106.521 57.9939C106.705 58.1299 106.961 58.1979 107.289 58.1979C107.561 58.1979 107.777 58.1539 107.937 58.0659C108.097 57.9699 108.209 57.8379 108.273 57.6699C108.337 57.4939 108.369 57.2979 108.369 57.0819C108.369 56.8979 108.361 56.6379 108.345 56.3019C108.329 55.9659 108.309 55.5939 108.285 55.1859C108.269 54.7779 108.253 54.3699 108.237 53.9619C108.221 53.5539 108.205 53.1939 108.189 52.8819H109.689ZM111.753 53.5179C111.521 53.3259 111.233 53.1219 110.889 52.9059C110.545 52.6899 110.189 52.4859 109.821 52.2939C109.461 52.0939 109.145 51.9339 108.873 51.8139L109.641 50.6259C109.857 50.7219 110.101 50.8419 110.373 50.9859C110.653 51.1219 110.933 51.2659 111.213 51.4179C111.501 51.5699 111.765 51.7219 112.005 51.8739C112.253 52.0179 112.453 52.1459 112.605 52.2579L111.753 53.5179Z" fill="#595959"/>
<path d="M119.325 49.1979C119.277 49.4139 119.237 49.6059 119.205 49.7739C119.173 49.9419 119.145 50.1059 119.121 50.2659C119.089 50.4339 119.049 50.6779 119.001 50.9979C118.961 51.3099 118.913 51.6659 118.857 52.0659C118.809 52.4579 118.757 52.8699 118.701 53.3019C118.653 53.7259 118.605 54.1419 118.557 54.5499C118.509 54.9579 118.469 55.3299 118.437 55.6659C118.413 56.0019 118.401 56.2699 118.401 56.4699C118.401 56.9659 118.549 57.3459 118.845 57.6099C119.149 57.8659 119.597 57.9939 120.189 57.9939C120.749 57.9939 121.221 57.9179 121.605 57.7659C121.989 57.6059 122.281 57.3939 122.481 57.1299C122.681 56.8659 122.781 56.5699 122.781 56.2419C122.781 55.8339 122.673 55.4379 122.457 55.0539C122.249 54.6619 121.945 54.2819 121.545 53.9139L123.237 53.5539C123.637 54.0579 123.929 54.5379 124.113 54.9939C124.305 55.4419 124.401 55.9219 124.401 56.4339C124.401 57.0339 124.229 57.5699 123.885 58.0419C123.541 58.5139 123.049 58.8819 122.409 59.1459C121.777 59.4099 121.021 59.5419 120.141 59.5419C119.517 59.5419 118.961 59.4459 118.473 59.2539C117.985 59.0619 117.605 58.7579 117.333 58.3419C117.061 57.9259 116.925 57.3859 116.925 56.7219C116.925 56.4739 116.945 56.1459 116.985 55.7379C117.025 55.3219 117.073 54.8659 117.129 54.3699C117.193 53.8659 117.257 53.3579 117.321 52.8459C117.385 52.3259 117.441 51.8339 117.489 51.3699C117.545 50.9059 117.589 50.5059 117.621 50.1699C117.637 49.8899 117.645 49.6779 117.645 49.5339C117.653 49.3819 117.649 49.2379 117.633 49.1019L119.325 49.1979ZM115.041 50.6859C115.401 50.7979 115.793 50.8939 116.217 50.9739C116.641 51.0459 117.077 51.1019 117.525 51.1419C117.973 51.1739 118.397 51.1899 118.797 51.1899C119.269 51.1899 119.709 51.1739 120.117 51.1419C120.525 51.1099 120.881 51.0699 121.185 51.0219L121.137 52.4499C120.777 52.4819 120.417 52.5099 120.057 52.5339C119.697 52.5579 119.265 52.5699 118.761 52.5699C118.353 52.5699 117.929 52.5499 117.489 52.5099C117.049 52.4619 116.613 52.4019 116.181 52.3299C115.749 52.2499 115.345 52.1619 114.969 52.0659L115.041 50.6859ZM114.789 53.6619C115.221 53.8059 115.657 53.9179 116.097 53.9979C116.545 54.0779 116.985 54.1339 117.417 54.1659C117.857 54.1899 118.277 54.2019 118.677 54.2019C119.045 54.2019 119.441 54.1899 119.865 54.1659C120.297 54.1419 120.705 54.1059 121.089 54.0579L121.053 55.4859C120.717 55.5179 120.373 55.5459 120.021 55.5699C119.669 55.5859 119.305 55.5939 118.929 55.5939C118.129 55.5939 117.361 55.5539 116.625 55.4739C115.889 55.3859 115.249 55.2659 114.705 55.1139L114.789 53.6619Z" fill="#595959"/>
<path d="M133.269 50.5899C133.189 51.1979 133.085 51.8459 132.957 52.5339C132.829 53.2219 132.657 53.9179 132.441 54.6219C132.209 55.4299 131.937 56.1259 131.625 56.7099C131.313 57.2939 130.969 57.7459 130.593 58.0659C130.225 58.3779 129.821 58.5339 129.381 58.5339C128.941 58.5339 128.533 58.3859 128.157 58.0899C127.789 57.7859 127.493 57.3699 127.269 56.8419C127.053 56.3139 126.945 55.7139 126.945 55.0419C126.945 54.3459 127.085 53.6899 127.365 53.0739C127.645 52.4579 128.033 51.9139 128.529 51.4419C129.033 50.9619 129.617 50.5859 130.281 50.3139C130.953 50.0419 131.677 49.9059 132.453 49.9059C133.197 49.9059 133.865 50.0259 134.457 50.2659C135.057 50.5059 135.569 50.8379 135.993 51.2619C136.417 51.6859 136.741 52.1819 136.965 52.7499C137.189 53.3179 137.301 53.9299 137.301 54.5859C137.301 55.4259 137.129 56.1779 136.785 56.8419C136.441 57.5059 135.929 58.0539 135.249 58.4859C134.577 58.9179 133.737 59.2139 132.729 59.3739L131.829 57.9459C132.061 57.9219 132.265 57.8939 132.441 57.8619C132.617 57.8299 132.785 57.7939 132.945 57.7539C133.329 57.6579 133.685 57.5219 134.013 57.3459C134.349 57.1619 134.641 56.9379 134.889 56.6739C135.137 56.4019 135.329 56.0859 135.465 55.7259C135.609 55.3659 135.681 54.9699 135.681 54.5379C135.681 54.0659 135.609 53.6339 135.465 53.2419C135.321 52.8499 135.109 52.5099 134.829 52.2219C134.549 51.9259 134.209 51.7019 133.809 51.5499C133.409 51.3899 132.949 51.3099 132.429 51.3099C131.789 51.3099 131.225 51.4259 130.737 51.6579C130.249 51.8819 129.837 52.1739 129.501 52.5339C129.165 52.8939 128.909 53.2819 128.733 53.6979C128.565 54.1139 128.481 54.5099 128.481 54.8859C128.481 55.2859 128.529 55.6219 128.625 55.8939C128.721 56.1579 128.837 56.3579 128.973 56.4939C129.117 56.6219 129.269 56.6859 129.429 56.6859C129.597 56.6859 129.761 56.6019 129.921 56.4339C130.089 56.2579 130.253 55.9939 130.413 55.6419C130.573 55.2899 130.733 54.8459 130.893 54.3099C131.077 53.7339 131.233 53.1179 131.361 52.4619C131.489 51.8059 131.581 51.1659 131.637 50.5419L133.269 50.5899Z" fill="#595959"/>
<path d="M144.033 50.4219C144.401 50.4699 144.813 50.5059 145.269 50.5299C145.733 50.5459 146.201 50.5539 146.673 50.5539C147.153 50.5459 147.613 50.5299 148.053 50.5059C148.493 50.4739 148.873 50.4419 149.193 50.4099V51.9579C148.825 51.9899 148.421 52.0179 147.981 52.0419C147.541 52.0579 147.089 52.0659 146.625 52.0659C146.161 52.0659 145.705 52.0579 145.257 52.0419C144.817 52.0179 144.409 51.9899 144.033 51.9579V50.4219ZM144.993 55.5459C144.945 55.7459 144.909 55.9259 144.885 56.0859C144.861 56.2379 144.849 56.3939 144.849 56.5539C144.849 56.6819 144.881 56.8019 144.945 56.9139C145.009 57.0179 145.105 57.1099 145.233 57.1899C145.369 57.2619 145.541 57.3179 145.749 57.3579C145.965 57.3899 146.225 57.4059 146.529 57.4059C147.065 57.4059 147.569 57.3819 148.041 57.3339C148.513 57.2779 149.013 57.1979 149.541 57.0939L149.565 58.7139C149.181 58.7859 148.737 58.8419 148.233 58.8819C147.737 58.9219 147.149 58.9419 146.469 58.9419C145.437 58.9419 144.669 58.7699 144.165 58.4259C143.661 58.0739 143.409 57.5899 143.409 56.9739C143.409 56.7419 143.425 56.5019 143.457 56.2539C143.497 55.9979 143.549 55.7179 143.613 55.4139L144.993 55.5459ZM142.185 49.6179C142.153 49.6979 142.117 49.8099 142.077 49.9539C142.037 50.0979 141.997 50.2379 141.957 50.3739C141.925 50.5099 141.901 50.6139 141.885 50.6859C141.861 50.8539 141.821 51.0739 141.765 51.3459C141.717 51.6099 141.665 51.9099 141.609 52.2459C141.561 52.5739 141.513 52.9099 141.465 53.2539C141.417 53.5979 141.377 53.9299 141.345 54.2499C141.321 54.5699 141.309 54.8499 141.309 55.0899C141.309 55.2019 141.309 55.3299 141.309 55.4739C141.317 55.6179 141.333 55.7499 141.357 55.8699C141.413 55.7339 141.473 55.5979 141.537 55.4619C141.601 55.3259 141.665 55.1899 141.729 55.0539C141.793 54.9099 141.849 54.7739 141.897 54.6459L142.641 55.2339C142.529 55.5619 142.413 55.9139 142.293 56.2899C142.181 56.6659 142.077 57.0219 141.981 57.3579C141.893 57.6859 141.825 57.9579 141.777 58.1739C141.761 58.2619 141.745 58.3619 141.729 58.4739C141.721 58.5859 141.717 58.6739 141.717 58.7379C141.717 58.8019 141.717 58.8779 141.717 58.9659C141.725 59.0619 141.733 59.1499 141.741 59.2299L140.349 59.3259C140.229 58.9099 140.121 58.3579 140.025 57.6699C139.929 56.9739 139.881 56.2179 139.881 55.4019C139.881 54.9539 139.901 54.4979 139.941 54.0339C139.981 53.5699 140.029 53.1259 140.085 52.7019C140.141 52.2699 140.193 51.8779 140.241 51.5259C140.297 51.1739 140.345 50.8819 140.385 50.6499C140.401 50.4819 140.421 50.2939 140.445 50.0859C140.477 49.8699 140.497 49.6659 140.505 49.4739L142.185 49.6179Z" fill="#595959"/>
<path d="M159.057 48.5979H160.377V58.4859H159.057V48.5979ZM160.677 56.6019L161.805 56.2419C161.973 56.5939 162.133 56.9699 162.285 57.3699C162.437 57.7619 162.565 58.1419 162.669 58.5099C162.781 58.8779 162.857 59.2059 162.897 59.4939L161.673 59.9139C161.641 59.6259 161.577 59.2899 161.481 58.9059C161.385 58.5299 161.265 58.1419 161.121 57.7419C160.985 57.3339 160.837 56.9539 160.677 56.6019ZM156.849 58.1619C157.281 58.1299 157.769 58.0939 158.313 58.0539C158.865 58.0059 159.445 57.9539 160.053 57.8979C160.669 57.8419 161.285 57.7819 161.901 57.7179L161.925 59.0019C161.357 59.0659 160.781 59.1299 160.197 59.1939C159.621 59.2659 159.061 59.3299 158.517 59.3859C157.981 59.4499 157.489 59.5059 157.041 59.5539L156.849 58.1619ZM158.361 52.2339V54.7179H161.121V52.2339H158.361ZM157.161 51.0459H162.381V55.9059H157.161V51.0459ZM152.781 51.6939H156.105V52.7499H152.781V51.6939ZM152.781 53.6619H156.105V54.6819H152.781V53.6619ZM152.781 55.6419H156.105V56.7099H152.781V55.6419ZM153.345 49.6899H155.157V50.7699H153.345V49.6899ZM153.945 52.2219H154.893V56.0379H153.945V52.2219ZM153.033 48.6099L154.293 48.8859C154.093 49.6939 153.825 50.4739 153.489 51.2259C153.161 51.9779 152.797 52.6099 152.397 53.1219C152.317 53.0499 152.213 52.9619 152.085 52.8579C151.965 52.7459 151.841 52.6419 151.713 52.5459C151.585 52.4419 151.469 52.3579 151.365 52.2939C151.757 51.8619 152.093 51.3179 152.373 50.6619C152.653 49.9979 152.873 49.3139 153.033 48.6099ZM152.229 51.6939H153.357V54.8979C153.357 55.4099 153.333 55.9659 153.285 56.5659C153.237 57.1659 153.145 57.7579 153.009 58.3419C152.873 58.9179 152.665 59.4339 152.385 59.8899C152.313 59.8259 152.217 59.7499 152.097 59.6619C151.977 59.5819 151.853 59.5059 151.725 59.4339C151.597 59.3619 151.489 59.3059 151.401 59.2659C151.649 58.8419 151.829 58.3779 151.941 57.8739C152.061 57.3699 152.137 56.8619 152.169 56.3499C152.209 55.8299 152.229 55.3459 152.229 54.8979V51.6939ZM155.517 51.6939H156.681V58.5459C156.681 58.8259 156.649 59.0539 156.585 59.2299C156.521 59.4139 156.397 59.5539 156.213 59.6499C156.037 59.7619 155.821 59.8299 155.565 59.8539C155.317 59.8859 155.009 59.9019 154.641 59.9019C154.617 59.7259 154.569 59.5179 154.497 59.2779C154.425 59.0459 154.345 58.8539 154.257 58.7019C154.489 58.7099 154.705 58.7139 154.905 58.7139C155.113 58.7139 155.253 58.7139 155.325 58.7139C155.397 58.7139 155.445 58.6979 155.469 58.6659C155.501 58.6339 155.517 58.5859 155.517 58.5219V51.6939ZM154.773 49.6899H155.049L155.277 49.6179L156.045 50.1339C155.877 50.5499 155.677 50.9779 155.445 51.4179C155.221 51.8579 155.001 52.2339 154.785 52.5459C154.697 52.4339 154.581 52.3019 154.437 52.1499C154.293 51.9979 154.165 51.8779 154.053 51.7899C154.149 51.6139 154.241 51.4179 154.329 51.2019C154.425 50.9779 154.509 50.7499 154.581 50.5179C154.661 50.2859 154.725 50.0819 154.773 49.9059V49.6899Z" fill="#595959"/>
<path d="M175.317 58.1859C175.037 58.4419 174.713 58.6539 174.345 58.8219C173.977 58.9899 173.549 59.0739 173.061 59.0739C172.613 59.0739 172.249 58.9179 171.969 58.6059C171.697 58.2939 171.561 57.8459 171.561 57.2619C171.561 56.9419 171.581 56.5979 171.621 56.2299C171.669 55.8539 171.721 55.4779 171.777 55.1019C171.833 54.7259 171.881 54.3699 171.921 54.0339C171.969 53.6899 171.993 53.3819 171.993 53.1099C171.993 52.8139 171.921 52.5939 171.777 52.4499C171.633 52.2979 171.433 52.2219 171.177 52.2219C170.897 52.2219 170.585 52.3219 170.241 52.5219C169.897 52.7139 169.545 52.9619 169.185 53.2659C168.825 53.5699 168.481 53.8939 168.153 54.2379C167.833 54.5819 167.553 54.9099 167.313 55.2219L167.301 53.3739C167.445 53.2139 167.633 53.0259 167.865 52.8099C168.105 52.5939 168.373 52.3699 168.669 52.1379C168.973 51.9059 169.289 51.6899 169.617 51.4899C169.953 51.2819 170.289 51.1139 170.625 50.9859C170.969 50.8579 171.301 50.7939 171.621 50.7939C172.053 50.7939 172.405 50.8739 172.677 51.0339C172.957 51.1859 173.165 51.3979 173.301 51.6699C173.437 51.9339 173.505 52.2339 173.505 52.5699C173.505 52.8819 173.485 53.2219 173.445 53.5899C173.405 53.9499 173.357 54.3179 173.301 54.6939C173.245 55.0699 173.197 55.4419 173.157 55.8099C173.125 56.1779 173.109 56.5139 173.109 56.8179C173.109 56.9779 173.149 57.1099 173.229 57.2139C173.309 57.3099 173.421 57.3579 173.565 57.3579C173.789 57.3579 174.037 57.2859 174.309 57.1419C174.581 56.9899 174.853 56.7739 175.125 56.4939L175.317 58.1859ZM167.025 52.4619C166.897 52.4779 166.733 52.4979 166.533 52.5219C166.333 52.5459 166.117 52.5739 165.885 52.6059C165.661 52.6379 165.433 52.6699 165.201 52.7019C164.969 52.7339 164.753 52.7619 164.553 52.7859L164.397 51.2499C164.573 51.2579 164.737 51.2619 164.889 51.2619C165.049 51.2539 165.233 51.2459 165.441 51.2379C165.633 51.2219 165.861 51.2019 166.125 51.1779C166.397 51.1459 166.669 51.1099 166.941 51.0699C167.221 51.0299 167.481 50.9859 167.721 50.9379C167.961 50.8899 168.149 50.8419 168.285 50.7939L168.765 51.4059C168.693 51.5019 168.609 51.6219 168.513 51.7659C168.425 51.9099 168.333 52.0579 168.237 52.2099C168.141 52.3539 168.057 52.4819 167.985 52.5939L167.277 54.8499C167.149 55.0339 166.989 55.2659 166.797 55.5459C166.613 55.8259 166.417 56.1219 166.209 56.4339C166.001 56.7459 165.797 57.0459 165.597 57.3339C165.397 57.6219 165.217 57.8739 165.057 58.0899L164.109 56.7819C164.261 56.5899 164.433 56.3699 164.625 56.1219C164.825 55.8659 165.033 55.5979 165.249 55.3179C165.465 55.0299 165.677 54.7459 165.885 54.4659C166.093 54.1779 166.285 53.9099 166.461 53.6619C166.645 53.4059 166.797 53.1859 166.917 53.0019L166.941 52.6899L167.025 52.4619ZM166.881 50.1579C166.881 49.9819 166.881 49.8059 166.881 49.6299C166.881 49.4459 166.865 49.2619 166.833 49.0779L168.585 49.1379C168.537 49.3219 168.485 49.5899 168.429 49.9419C168.381 50.2859 168.329 50.6819 168.273 51.1299C168.225 51.5779 168.177 52.0499 168.129 52.5459C168.089 53.0339 168.053 53.5219 168.021 54.0099C167.997 54.4979 167.985 54.9539 167.985 55.3779C167.985 55.7059 167.985 56.0379 167.985 56.3739C167.993 56.7099 168.001 57.0539 168.009 57.4059C168.017 57.7579 168.033 58.1219 168.057 58.4979C168.065 58.6019 168.077 58.7459 168.093 58.9299C168.109 59.1219 168.125 59.2859 168.141 59.4219H166.485C166.501 59.2779 166.509 59.1179 166.509 58.9419C166.517 58.7659 166.521 58.6299 166.521 58.5339C166.529 58.1419 166.537 57.7779 166.545 57.4419C166.553 57.1059 166.557 56.7499 166.557 56.3739C166.565 55.9979 166.577 55.5619 166.593 55.0659C166.601 54.8819 166.613 54.6499 166.629 54.3699C166.645 54.0819 166.661 53.7699 166.677 53.4339C166.701 53.0899 166.725 52.7419 166.749 52.3899C166.773 52.0379 166.793 51.7099 166.809 51.4059C166.833 51.0939 166.849 50.8299 166.857 50.6139C166.873 50.3899 166.881 50.2379 166.881 50.1579Z" fill="#595959"/>
<path d="M178.737 49.6659C178.905 49.6899 179.085 49.7059 179.277 49.7139C179.469 49.7219 179.653 49.7259 179.829 49.7259C179.957 49.7259 180.149 49.7259 180.405 49.7259C180.661 49.7179 180.949 49.7099 181.269 49.7019C181.597 49.6939 181.921 49.6859 182.241 49.6779C182.561 49.6699 182.849 49.6619 183.105 49.6539C183.369 49.6379 183.573 49.6259 183.717 49.6179C183.965 49.5939 184.161 49.5739 184.305 49.5579C184.449 49.5339 184.557 49.5099 184.629 49.4859L185.409 50.5539C185.273 50.6419 185.133 50.7299 184.989 50.8179C184.845 50.9059 184.705 51.0019 184.569 51.1059C184.409 51.2179 184.217 51.3659 183.993 51.5499C183.769 51.7259 183.529 51.9139 183.273 52.1139C183.025 52.3139 182.781 52.5099 182.541 52.7019C182.309 52.8939 182.097 53.0659 181.905 53.2179C182.105 53.1699 182.297 53.1379 182.481 53.1219C182.665 53.0979 182.853 53.0859 183.045 53.0859C183.725 53.0859 184.333 53.2179 184.869 53.4819C185.413 53.7459 185.841 54.1059 186.153 54.5619C186.473 55.0099 186.633 55.5259 186.633 56.1099C186.633 56.7419 186.473 57.3139 186.153 57.8259C185.833 58.3379 185.349 58.7459 184.701 59.0499C184.061 59.3539 183.257 59.5059 182.289 59.5059C181.737 59.5059 181.237 59.4259 180.789 59.2659C180.349 59.1059 180.001 58.8779 179.745 58.5819C179.489 58.2859 179.361 57.9379 179.361 57.5379C179.361 57.2099 179.449 56.9059 179.625 56.6259C179.809 56.3379 180.061 56.1059 180.381 55.9299C180.709 55.7539 181.085 55.6659 181.509 55.6659C182.061 55.6659 182.525 55.7779 182.901 56.0019C183.285 56.2179 183.577 56.5099 183.777 56.8779C183.985 57.2459 184.093 57.6499 184.101 58.0899L182.697 58.2819C182.689 57.8419 182.577 57.4899 182.361 57.2259C182.153 56.9539 181.873 56.8179 181.521 56.8179C181.297 56.8179 181.117 56.8779 180.981 56.9979C180.845 57.1099 180.777 57.2419 180.777 57.3939C180.777 57.6179 180.889 57.7979 181.113 57.9339C181.337 58.0699 181.629 58.1379 181.989 58.1379C182.669 58.1379 183.237 58.0579 183.693 57.8979C184.149 57.7299 184.489 57.4939 184.713 57.1899C184.945 56.8779 185.061 56.5099 185.061 56.0859C185.061 55.7259 184.949 55.4099 184.725 55.1379C184.509 54.8659 184.213 54.6539 183.837 54.5019C183.461 54.3499 183.037 54.2739 182.565 54.2739C182.101 54.2739 181.677 54.3339 181.293 54.4539C180.909 54.5659 180.545 54.7299 180.201 54.9459C179.865 55.1539 179.533 55.4099 179.205 55.7139C178.885 56.0099 178.565 56.3419 178.245 56.7099L177.153 55.5819C177.369 55.4059 177.613 55.2099 177.885 54.9939C178.157 54.7699 178.433 54.5379 178.713 54.2979C179.001 54.0579 179.269 53.8339 179.517 53.6259C179.773 53.4099 179.989 53.2299 180.165 53.0859C180.333 52.9499 180.529 52.7899 180.753 52.6059C180.977 52.4219 181.209 52.2339 181.449 52.0419C181.689 51.8419 181.917 51.6539 182.133 51.4779C182.349 51.2939 182.529 51.1379 182.673 51.0099C182.553 51.0099 182.397 51.0139 182.205 51.0219C182.013 51.0299 181.801 51.0379 181.569 51.0459C181.345 51.0539 181.117 51.0619 180.885 51.0699C180.661 51.0779 180.449 51.0899 180.249 51.1059C180.057 51.1139 179.897 51.1219 179.769 51.1299C179.609 51.1379 179.441 51.1499 179.265 51.1659C179.089 51.1819 178.929 51.2019 178.785 51.2259L178.737 49.6659Z" fill="#595959"/>
<path d="M191.193 50.0859C191.633 50.1339 192.129 50.1699 192.681 50.1939C193.233 50.2179 193.825 50.2299 194.457 50.2299C194.849 50.2299 195.253 50.2219 195.669 50.2059C196.093 50.1899 196.501 50.1699 196.893 50.1459C197.285 50.1219 197.633 50.0939 197.937 50.0619V51.6579C197.657 51.6819 197.317 51.7059 196.917 51.7299C196.525 51.7539 196.113 51.7739 195.681 51.7899C195.257 51.7979 194.853 51.8019 194.469 51.8019C193.845 51.8019 193.265 51.7899 192.729 51.7659C192.193 51.7419 191.681 51.7099 191.193 51.6699V50.0859ZM192.201 55.1739C192.145 55.3819 192.097 55.5859 192.057 55.7859C192.017 55.9859 191.997 56.1859 191.997 56.3859C191.997 56.7699 192.189 57.0859 192.573 57.3339C192.965 57.5819 193.593 57.7059 194.457 57.7059C195.001 57.7059 195.525 57.6859 196.029 57.6459C196.533 57.6059 197.009 57.5499 197.457 57.4779C197.913 57.4059 198.317 57.3219 198.669 57.2259L198.681 58.9179C198.329 58.9979 197.937 59.0659 197.505 59.1219C197.073 59.1859 196.605 59.2339 196.101 59.2659C195.605 59.3059 195.077 59.3259 194.517 59.3259C193.605 59.3259 192.841 59.2259 192.225 59.0259C191.609 58.8259 191.149 58.5379 190.845 58.1619C190.541 57.7779 190.389 57.3099 190.389 56.7579C190.389 56.4059 190.417 56.0859 190.473 55.7979C190.529 55.5099 190.581 55.2539 190.629 55.0299L192.201 55.1739Z" fill="#595959"/>
<path d="M211.053 51.8139C210.877 51.9259 210.689 52.0339 210.489 52.1379C210.297 52.2419 210.089 52.3499 209.865 52.4619C209.681 52.5579 209.453 52.6699 209.181 52.7979C208.917 52.9259 208.629 53.0699 208.317 53.2299C208.013 53.3819 207.705 53.5459 207.393 53.7219C207.081 53.8899 206.789 54.0619 206.517 54.2379C206.021 54.5659 205.617 54.9059 205.305 55.2579C205.001 55.6099 204.849 55.9979 204.849 56.4219C204.849 56.8459 205.057 57.1739 205.473 57.4059C205.889 57.6299 206.513 57.7419 207.345 57.7419C207.761 57.7419 208.201 57.7259 208.665 57.6939C209.137 57.6539 209.601 57.6019 210.057 57.5379C210.513 57.4659 210.917 57.3859 211.269 57.2979L211.245 59.0259C210.909 59.0819 210.541 59.1339 210.141 59.1819C209.749 59.2299 209.321 59.2659 208.857 59.2899C208.401 59.3139 207.913 59.3259 207.393 59.3259C206.793 59.3259 206.237 59.2779 205.725 59.1819C205.221 59.0939 204.777 58.9459 204.393 58.7379C204.017 58.5299 203.721 58.2499 203.505 57.8979C203.297 57.5459 203.193 57.1139 203.193 56.6019C203.193 56.0899 203.305 55.6259 203.529 55.2099C203.753 54.7939 204.057 54.4099 204.441 54.0579C204.833 53.7059 205.261 53.3739 205.725 53.0619C206.013 52.8699 206.317 52.6859 206.637 52.5099C206.957 52.3259 207.269 52.1499 207.573 51.9819C207.885 51.8139 208.173 51.6619 208.437 51.5259C208.709 51.3819 208.933 51.2579 209.109 51.1539C209.341 51.0179 209.545 50.8939 209.721 50.7819C209.897 50.6699 210.065 50.5499 210.225 50.4219L211.053 51.8139ZM205.017 49.2459C205.217 49.7739 205.425 50.2819 205.641 50.7699C205.865 51.2579 206.085 51.7139 206.301 52.1379C206.525 52.5619 206.729 52.9419 206.913 53.2779L205.557 54.0819C205.341 53.7139 205.117 53.3019 204.885 52.8459C204.653 52.3899 204.421 51.9099 204.189 51.4059C203.957 50.8939 203.733 50.3779 203.517 49.8579L205.017 49.2459Z" fill="#595959"/>
<path d="M218.997 49.4139C218.965 49.5659 218.929 49.7339 218.889 49.9179C218.849 50.0939 218.813 50.2579 218.781 50.4099C218.749 50.5859 218.709 50.7859 218.661 51.0099C218.613 51.2259 218.565 51.4459 218.517 51.6699C218.477 51.8859 218.433 52.0979 218.385 52.3059C218.305 52.6499 218.205 53.0499 218.085 53.5059C217.965 53.9619 217.825 54.4539 217.665 54.9819C217.505 55.5019 217.325 56.0259 217.125 56.5539C216.925 57.0819 216.713 57.5979 216.489 58.1019C216.265 58.5979 216.025 59.0459 215.769 59.4459L214.209 58.8219C214.489 58.4459 214.749 58.0259 214.989 57.5619C215.237 57.0899 215.461 56.6099 215.661 56.1219C215.861 55.6259 216.037 55.1379 216.189 54.6579C216.349 54.1699 216.485 53.7179 216.597 53.3019C216.717 52.8859 216.809 52.5299 216.873 52.2339C216.985 51.6899 217.073 51.1659 217.137 50.6619C217.201 50.1579 217.225 49.6819 217.209 49.2339L218.997 49.4139ZM223.125 50.6259C223.317 50.8899 223.513 51.2139 223.713 51.5979C223.921 51.9739 224.125 52.3739 224.325 52.7979C224.525 53.2219 224.705 53.6299 224.865 54.0219C225.025 54.4139 225.149 54.7539 225.237 55.0419L223.713 55.7379C223.641 55.4019 223.533 55.0299 223.389 54.6219C223.253 54.2139 223.093 53.8019 222.909 53.3859C222.725 52.9619 222.529 52.5619 222.321 52.1859C222.121 51.8099 221.913 51.4939 221.697 51.2379L223.125 50.6259ZM214.125 51.8739C214.341 51.8899 214.553 51.8979 214.761 51.8979C214.977 51.8899 215.193 51.8819 215.409 51.8739C215.609 51.8659 215.849 51.8539 216.129 51.8379C216.409 51.8139 216.705 51.7899 217.017 51.7659C217.337 51.7419 217.657 51.7179 217.977 51.6939C218.297 51.6619 218.593 51.6379 218.865 51.6219C219.137 51.6059 219.361 51.5979 219.537 51.5979C219.969 51.5979 220.345 51.6699 220.665 51.8139C220.985 51.9499 221.237 52.1859 221.421 52.5219C221.613 52.8579 221.709 53.3139 221.709 53.8899C221.709 54.3619 221.689 54.8739 221.649 55.4259C221.609 55.9779 221.537 56.5059 221.433 57.0099C221.337 57.5139 221.201 57.9419 221.025 58.2939C220.833 58.7099 220.569 58.9979 220.233 59.1579C219.905 59.3179 219.513 59.3979 219.057 59.3979C218.833 59.3979 218.589 59.3779 218.325 59.3379C218.061 59.3059 217.825 59.2699 217.617 59.2299L217.365 57.6459C217.517 57.6859 217.685 57.7259 217.869 57.7659C218.061 57.8059 218.241 57.8379 218.409 57.8619C218.585 57.8859 218.725 57.8979 218.829 57.8979C219.029 57.8979 219.205 57.8619 219.357 57.7899C219.509 57.7099 219.633 57.5739 219.729 57.3819C219.841 57.1499 219.933 56.8499 220.005 56.4819C220.077 56.1139 220.129 55.7179 220.161 55.2939C220.201 54.8619 220.221 54.4499 220.221 54.0579C220.221 53.7379 220.173 53.5019 220.077 53.3499C219.989 53.1979 219.857 53.0979 219.681 53.0499C219.513 52.9939 219.305 52.9659 219.057 52.9659C218.873 52.9659 218.625 52.9819 218.313 53.0139C218.001 53.0379 217.665 53.0699 217.305 53.1099C216.953 53.1419 216.625 53.1779 216.321 53.2179C216.017 53.2579 215.781 53.2859 215.613 53.3019C215.437 53.3339 215.213 53.3699 214.941 53.4099C214.677 53.4419 214.453 53.4739 214.269 53.5059L214.125 51.8739ZM222.909 48.9579C223.013 49.1019 223.121 49.2739 223.233 49.4739C223.353 49.6739 223.469 49.8739 223.581 50.0739C223.693 50.2739 223.789 50.4499 223.869 50.6019L222.897 51.0219C222.817 50.8539 222.725 50.6699 222.621 50.4699C222.517 50.2699 222.409 50.0699 222.297 49.8699C222.185 49.6699 222.073 49.4979 221.961 49.3539L222.909 48.9579ZM224.337 48.4179C224.441 48.5699 224.553 48.7459 224.673 48.9459C224.793 49.1459 224.909 49.3459 225.021 49.5459C225.141 49.7459 225.233 49.9139 225.297 50.0499L224.349 50.4579C224.221 50.2099 224.069 49.9299 223.893 49.6179C223.717 49.2979 223.545 49.0259 223.377 48.8019L224.337 48.4179Z" fill="#595959"/>
<path d="M226.845 50.5779C227.085 50.5699 227.313 50.5619 227.529 50.5539C227.745 50.5379 227.909 50.5259 228.021 50.5179C228.269 50.5019 228.573 50.4779 228.933 50.4459C229.301 50.4059 229.709 50.3659 230.157 50.3259C230.613 50.2859 231.097 50.2459 231.609 50.2059C232.121 50.1659 232.653 50.1219 233.205 50.0739C233.621 50.0339 234.033 50.0019 234.441 49.9779C234.857 49.9459 235.249 49.9219 235.617 49.9059C235.993 49.8819 236.321 49.8659 236.601 49.8579L236.613 51.3939C236.397 51.3939 236.149 51.3979 235.869 51.4059C235.589 51.4139 235.309 51.4299 235.029 51.4539C234.757 51.4699 234.513 51.5059 234.297 51.5619C233.937 51.6579 233.601 51.8219 233.289 52.0539C232.977 52.2779 232.705 52.5459 232.473 52.8579C232.249 53.1619 232.073 53.4939 231.945 53.8539C231.817 54.2059 231.753 54.5619 231.753 54.9219C231.753 55.3139 231.821 55.6619 231.957 55.9659C232.101 56.2619 232.293 56.5179 232.533 56.7339C232.781 56.9419 233.069 57.1179 233.397 57.2619C233.725 57.3979 234.077 57.5019 234.453 57.5739C234.837 57.6459 235.233 57.6939 235.641 57.7179L235.077 59.3619C234.573 59.3299 234.081 59.2499 233.601 59.1219C233.129 58.9939 232.685 58.8179 232.269 58.5939C231.853 58.3699 231.489 58.0979 231.177 57.7779C230.873 57.4499 230.629 57.0779 230.445 56.6619C230.269 56.2379 230.181 55.7659 230.181 55.2459C230.181 54.6699 230.273 54.1419 230.457 53.6619C230.641 53.1739 230.869 52.7499 231.141 52.3899C231.421 52.0219 231.697 51.7379 231.969 51.5379C231.745 51.5699 231.473 51.6019 231.153 51.6339C230.841 51.6659 230.501 51.7059 230.133 51.7539C229.773 51.7939 229.405 51.8379 229.029 51.8859C228.653 51.9339 228.289 51.9899 227.937 52.0539C227.593 52.1099 227.281 52.1659 227.001 52.2219L226.845 50.5779ZM234.897 52.5699C235.001 52.7139 235.109 52.8859 235.221 53.0859C235.341 53.2779 235.457 53.4739 235.569 53.6739C235.681 53.8659 235.777 54.0419 235.857 54.2019L234.945 54.6099C234.793 54.2739 234.645 53.9779 234.501 53.7219C234.365 53.4659 234.201 53.2059 234.009 52.9419L234.897 52.5699ZM236.241 52.0179C236.345 52.1619 236.457 52.3299 236.577 52.5219C236.705 52.7059 236.829 52.8979 236.949 53.0979C237.069 53.2899 237.169 53.4619 237.249 53.6139L236.349 54.0459C236.189 53.7259 236.033 53.4419 235.881 53.1939C235.737 52.9459 235.565 52.6899 235.365 52.4259L236.241 52.0179Z" fill="#595959"/>
<path d="M240.465 50.1939C241.345 50.2979 242.153 50.3619 242.889 50.3859C243.633 50.4019 244.321 50.3859 244.953 50.3379C245.505 50.2899 246.033 50.2179 246.537 50.1219C247.041 50.0259 247.537 49.9019 248.025 49.7499L248.217 51.1299C247.785 51.2499 247.317 51.3539 246.813 51.4419C246.309 51.5299 245.793 51.5979 245.265 51.6459C244.649 51.6939 243.937 51.7179 243.129 51.7179C242.329 51.7099 241.469 51.6619 240.549 51.5739L240.465 50.1939ZM240.249 52.7139C240.977 52.7779 241.673 52.8219 242.337 52.8459C243.001 52.8699 243.625 52.8699 244.209 52.8459C244.793 52.8219 245.325 52.7899 245.805 52.7499C246.453 52.6939 247.009 52.6139 247.473 52.5099C247.937 52.3979 248.341 52.2939 248.685 52.1979L248.925 53.6139C248.565 53.7019 248.169 53.7859 247.737 53.8659C247.305 53.9459 246.845 54.0139 246.357 54.0699C245.845 54.1179 245.257 54.1579 244.593 54.1899C243.937 54.2139 243.245 54.2219 242.517 54.2139C241.789 54.1979 241.061 54.1699 240.333 54.1299L240.249 52.7139ZM244.257 50.5299C244.201 50.3059 244.137 50.0859 244.065 49.8699C243.993 49.6459 243.913 49.4179 243.825 49.1859L245.445 49.0059C245.493 49.3819 245.553 49.7539 245.625 50.1219C245.705 50.4819 245.793 50.8299 245.889 51.1659C245.993 51.5019 246.093 51.8259 246.189 52.1379C246.285 52.4099 246.409 52.7219 246.561 53.0739C246.721 53.4179 246.893 53.7659 247.077 54.1179C247.261 54.4619 247.445 54.7739 247.629 55.0539C247.709 55.1659 247.789 55.2739 247.869 55.3779C247.957 55.4739 248.057 55.5699 248.169 55.6659L247.437 56.7699C247.213 56.7219 246.933 56.6739 246.597 56.6259C246.269 56.5779 245.925 56.5339 245.565 56.4939C245.213 56.4539 244.889 56.4179 244.593 56.3859L244.713 55.2459C244.961 55.2699 245.229 55.2939 245.517 55.3179C245.813 55.3419 246.049 55.3659 246.225 55.3899C245.905 54.8539 245.629 54.3299 245.397 53.8179C245.173 53.3059 244.985 52.8299 244.833 52.3899C244.737 52.1099 244.657 51.8699 244.593 51.6699C244.529 51.4619 244.469 51.2699 244.413 51.0939C244.365 50.9099 244.313 50.7219 244.257 50.5299ZM242.553 55.4979C242.409 55.6979 242.285 55.9059 242.181 56.1219C242.077 56.3299 242.025 56.5659 242.025 56.8299C242.025 57.2699 242.229 57.5899 242.637 57.7899C243.053 57.9819 243.657 58.0779 244.449 58.0779C245.017 58.0779 245.553 58.0539 246.057 58.0059C246.569 57.9579 247.037 57.8939 247.461 57.8139L247.377 59.3379C246.961 59.4099 246.493 59.4659 245.973 59.5059C245.453 59.5459 244.949 59.5659 244.461 59.5659C243.661 59.5659 242.969 59.4819 242.385 59.3139C241.809 59.1459 241.361 58.8859 241.041 58.5339C240.721 58.1739 240.557 57.7099 240.549 57.1419C240.541 56.7579 240.589 56.4139 240.693 56.1099C240.805 55.7979 240.929 55.4979 241.065 55.2099L242.553 55.4979Z" fill="#595959"/>
<path d="M253.383 49.6659C253.551 49.6899 253.731 49.7059 253.923 49.7139C254.115 49.7219 254.299 49.7259 254.475 49.7259C254.603 49.7259 254.795 49.7259 255.051 49.7259C255.307 49.7179 255.595 49.7099 255.915 49.7019C256.243 49.6939 256.567 49.6859 256.887 49.6779C257.207 49.6699 257.495 49.6619 257.751 49.6539C258.015 49.6379 258.219 49.6259 258.363 49.6179C258.611 49.5939 258.807 49.5739 258.951 49.5579C259.095 49.5339 259.203 49.5099 259.275 49.4859L260.055 50.5539C259.919 50.6419 259.779 50.7299 259.635 50.8179C259.491 50.9059 259.351 51.0019 259.215 51.1059C259.055 51.2179 258.863 51.3659 258.639 51.5499C258.415 51.7259 258.175 51.9139 257.919 52.1139C257.671 52.3139 257.427 52.5099 257.187 52.7019C256.955 52.8939 256.743 53.0659 256.551 53.2179C256.751 53.1699 256.943 53.1379 257.127 53.1219C257.311 53.0979 257.499 53.0859 257.691 53.0859C258.371 53.0859 258.979 53.2179 259.515 53.4819C260.059 53.7459 260.487 54.1059 260.799 54.5619C261.119 55.0099 261.279 55.5259 261.279 56.1099C261.279 56.7419 261.119 57.3139 260.799 57.8259C260.479 58.3379 259.995 58.7459 259.347 59.0499C258.707 59.3539 257.903 59.5059 256.935 59.5059C256.383 59.5059 255.883 59.4259 255.435 59.2659C254.995 59.1059 254.647 58.8779 254.391 58.5819C254.135 58.2859 254.007 57.9379 254.007 57.5379C254.007 57.2099 254.095 56.9059 254.271 56.6259C254.455 56.3379 254.707 56.1059 255.027 55.9299C255.355 55.7539 255.731 55.6659 256.155 55.6659C256.707 55.6659 257.171 55.7779 257.547 56.0019C257.931 56.2179 258.223 56.5099 258.423 56.8779C258.631 57.2459 258.739 57.6499 258.747 58.0899L257.343 58.2819C257.335 57.8419 257.223 57.4899 257.007 57.2259C256.799 56.9539 256.519 56.8179 256.167 56.8179C255.943 56.8179 255.763 56.8779 255.627 56.9979C255.491 57.1099 255.423 57.2419 255.423 57.3939C255.423 57.6179 255.535 57.7979 255.759 57.9339C255.983 58.0699 256.275 58.1379 256.635 58.1379C257.315 58.1379 257.883 58.0579 258.339 57.8979C258.795 57.7299 259.135 57.4939 259.359 57.1899C259.591 56.8779 259.707 56.5099 259.707 56.0859C259.707 55.7259 259.595 55.4099 259.371 55.1379C259.155 54.8659 258.859 54.6539 258.483 54.5019C258.107 54.3499 257.683 54.2739 257.211 54.2739C256.747 54.2739 256.323 54.3339 255.939 54.4539C255.555 54.5659 255.191 54.7299 254.847 54.9459C254.511 55.1539 254.179 55.4099 253.851 55.7139C253.531 56.0099 253.211 56.3419 252.891 56.7099L251.799 55.5819C252.015 55.4059 252.259 55.2099 252.531 54.9939C252.803 54.7699 253.079 54.5379 253.359 54.2979C253.647 54.0579 253.915 53.8339 254.163 53.6259C254.419 53.4099 254.635 53.2299 254.811 53.0859C254.979 52.9499 255.175 52.7899 255.399 52.6059C255.623 52.4219 255.855 52.2339 256.095 52.0419C256.335 51.8419 256.563 51.6539 256.779 51.4779C256.995 51.2939 257.175 51.1379 257.319 51.0099C257.199 51.0099 257.043 51.0139 256.851 51.0219C256.659 51.0299 256.447 51.0379 256.215 51.0459C255.991 51.0539 255.763 51.0619 255.531 51.0699C255.307 51.0779 255.095 51.0899 254.895 51.1059C254.703 51.1139 254.543 51.1219 254.415 51.1299C254.255 51.1379 254.087 51.1499 253.911 51.1659C253.735 51.1819 253.575 51.2019 253.431 51.2259L253.383 49.6659Z" fill="#595959"/>
</svg>
